<?xml version="1.0" encoding="UTF-8" standalone="no"?>
<!-- Created with Inkscape (http://www.inkscape.org/) -->
<svg
   xmlns:dc="http://purl.org/dc/elements/1.1/"
   xmlns:cc="http://creativecommons.org/ns#"
   xmlns:rdf="http://www.w3.org/1999/02/22-rdf-syntax-ns#"
   xmlns:svg="http://www.w3.org/2000/svg"
   xmlns="http://www.w3.org/2000/svg"
   xmlns:sodipodi="http://sodipodi.sourceforge.net/DTD/sodipodi-0.dtd"
   xmlns:inkscape="http://www.inkscape.org/namespaces/inkscape"
   width="744.09448819"
   height="1052.3622047"
   id="svg2"
   sodipodi:version="0.32"
   inkscape:version="0.46"
   sodipodi:docname="card-9diamonds.svg"
   inkscape:output_extension="org.inkscape.output.svg.inkscape">
  <defs
     id="defs4">
    <inkscape:perspective
       sodipodi:type="inkscape:persp3d"
       inkscape:vp_x="-53.589892 : 517.60966 : 1"
       inkscape:vp_y="7.0616468e-14 : 1000 : 0"
       inkscape:vp_z="804.56871 : 517.60966 : 1"
       inkscape:persp3d-origin="375.48941 : 342.21596 : 1"
       id="perspective10" />
    <filter
       inkscape:collect="always"
       id="filter3254">
      <feGaussianBlur
         inkscape:collect="always"
         stdDeviation="7.7965407"
         id="feGaussianBlur3256" />
    </filter>
    <filter
       inkscape:collect="always"
       id="filter4966">
      <feGaussianBlur
         inkscape:collect="always"
         stdDeviation="1.4809308"
         id="feGaussianBlur4968" />
    </filter>
    <filter
       inkscape:collect="always"
       id="filter4970">
      <feGaussianBlur
         inkscape:collect="always"
         stdDeviation="1.4809308"
         id="feGaussianBlur4972" />
    </filter>
    <filter
       inkscape:collect="always"
       id="filter5111">
      <feGaussianBlur
         inkscape:collect="always"
         stdDeviation="1.7289448"
         id="feGaussianBlur5113" />
    </filter>
    <filter
       inkscape:collect="always"
       id="filter5115">
      <feGaussianBlur
         inkscape:collect="always"
         stdDeviation="1.7289448"
         id="feGaussianBlur5117" />
    </filter>
    <filter
       inkscape:collect="always"
       id="filter5119">
      <feGaussianBlur
         inkscape:collect="always"
         stdDeviation="1.7289448"
         id="feGaussianBlur5121" />
    </filter>
    <filter
       inkscape:collect="always"
       id="filter5123">
      <feGaussianBlur
         inkscape:collect="always"
         stdDeviation="1.7289448"
         id="feGaussianBlur5125" />
    </filter>
    <filter
       inkscape:collect="always"
       id="filter5127">
      <feGaussianBlur
         inkscape:collect="always"
         stdDeviation="1.7289448"
         id="feGaussianBlur5129" />
    </filter>
    <filter
       inkscape:collect="always"
       id="filter5131">
      <feGaussianBlur
         inkscape:collect="always"
         stdDeviation="1.7289448"
         id="feGaussianBlur5133" />
    </filter>
    <filter
       inkscape:collect="always"
       id="filter5135">
      <feGaussianBlur
         inkscape:collect="always"
         stdDeviation="1.7289448"
         id="feGaussianBlur5137" />
    </filter>
  </defs>
  <sodipodi:namedview
     id="base"
     pagecolor="#ffffff"
     bordercolor="#666666"
     borderopacity="1.0"
     gridtolerance="10000"
     guidetolerance="10"
     objecttolerance="10"
     inkscape:pageopacity="0.0"
     inkscape:pageshadow="2"
     inkscape:zoom="0.3"
     inkscape:cx="-220.14437"
     inkscape:cy="552.90829"
     inkscape:document-units="px"
     inkscape:current-layer="layer1"
     showgrid="false"
     inkscape:window-width="1152"
     inkscape:window-height="775"
     inkscape:window-x="0"
     inkscape:window-y="0"
     showguides="false" />
  <metadata
     id="metadata7">
    <rdf:RDF>
      <cc:Work
         rdf:about="">
        <dc:format>image/svg+xml</dc:format>
        <dc:type
           rdf:resource="http://purl.org/dc/dcmitype/StillImage" />
      </cc:Work>
    </rdf:RDF>
  </metadata>
  <g
     inkscape:label="Layer 1"
     inkscape:groupmode="layer"
     id="layer1"
     style="display:inline">
    <rect
       rx="60.60915"
       ry="63.63961"
       y="26.047195"
       x="24.243658"
       height="1006.1119"
       width="709.12708"
       id="rect3208"
       style="opacity:0.91666667;fill:#000000;filter:url(#filter3254)" />
    <rect
       style="fill:#ffffff"
       id="rect3206"
       width="709.12708"
       height="1006.1119"
       x="10.101523"
       y="7.8644519"
       ry="63.63961"
       rx="60.60915" />
    <text
       xml:space="preserve"
       style="font-size:225.6577301px;font-style:normal;font-variant:normal;font-weight:normal;font-stretch:normal;fill:#ff0000;fill-opacity:1;stroke:none;stroke-width:1px;stroke-linecap:butt;stroke-linejoin:miter;stroke-opacity:1;filter:url(#filter4970);font-family:Gemelli;-inkscape-font-specification:Gemelli"
       x="47.257381"
       y="188.40356"
       id="text3475"
       transform="scale(1.0234483,0.9770889)"><tspan
         sodipodi:role="line"
         id="tspan3477"
         x="47.257381"
         y="188.40356">9</tspan></text>
    <text
       transform="scale(1.0234483,0.9770889)"
       id="text3487"
       y="980.57336"
       x="537.01221"
       style="font-size:225.6577301px;font-style:normal;font-variant:normal;font-weight:normal;font-stretch:normal;fill:#ff0000;fill-opacity:1;stroke:none;stroke-width:1px;stroke-linecap:butt;stroke-linejoin:miter;stroke-opacity:1;filter:url(#filter4966);font-family:Gemelli;-inkscape-font-specification:Gemelli"
       xml:space="preserve"><tspan
         y="980.57336"
         x="537.01221"
         id="tspan3489"
         sodipodi:role="line">9</tspan></text>
    <path
       style="opacity:1;fill:#ff0000;filter:url(#filter5135)"
       d="M 470.19133,42.83692 C 469.76379,42.83655 469.79655,43.60384 470.19133,44.98662 C 470.58706,43.60713 470.61844,42.83729 470.19133,42.83692 z M 470.19133,44.98662 C 466.8199,56.73917 436.3959,113.34315 426.47139,126.72303 C 425.9964,126.6377 425.56101,126.55919 425.19034,126.46825 C 425.4258,126.74064 425.67088,127.06836 425.94583,127.42368 C 425.67274,127.7746 425.40772,128.07844 425.17392,128.34725 C 425.54459,128.25649 425.97902,128.17739 426.45497,128.09247 C 436.34934,141.47617 466.65574,198.02447 470.05994,209.86073 C 473.48339,198.02667 503.87298,141.50471 513.77987,128.15617 C 514.26545,128.24351 514.70113,128.33365 515.07734,128.42687 C 514.84066,128.1539 514.56599,127.84488 514.28901,127.48737 C 514.56182,127.13629 514.8271,126.81747 515.06092,126.54787 C 514.68892,126.63887 514.25773,126.71752 513.77987,126.80265 C 503.88335,113.42268 473.55162,56.75664 470.19133,44.98662 z M 515.06092,126.54787 C 516.38314,126.22441 517.01581,125.86284 516.80184,125.46506 C 516.58704,125.06576 515.99109,125.4754 515.06092,126.54787 z M 515.07734,128.42687 C 515.99752,129.48809 516.58759,129.90647 516.80184,129.50968 C 517.0155,129.11397 516.38756,128.75154 515.07734,128.42687 z M 470.05994,209.86073 C 469.65433,211.26282 469.62915,212.04191 470.05994,212.04228 C 470.49068,212.04265 470.46332,211.26328 470.05994,209.86073 z M 425.17392,128.34725 C 423.85358,128.67053 423.21917,129.03256 423.43301,129.43006 C 423.64672,129.82735 424.25165,129.40764 425.17392,128.34725 z M 425.19034,126.46825 C 424.26139,125.39355 423.64846,124.98641 423.43301,125.38544 C 423.21765,125.78429 423.8588,126.14158 425.19034,126.46825 z M 465.64196,126.2294 C 481.76531,126.1518 498.57407,126.56311 508.36004,127.47145 C 490.60974,129.08816 449.7135,129.05237 431.92407,127.40775 C 439.90587,126.68381 452.52319,126.29254 465.64196,126.2294 z"
       id="path4096" />
    <path
       style="opacity:1;fill:#ff0000;display:inline;filter:url(#filter5131)"
       d="M 470.19133,527.91439 C 469.76379,527.91402 469.79655,528.68131 470.19133,530.06409 C 470.58706,528.6846 470.61844,527.91476 470.19133,527.91439 z M 470.19133,530.06409 C 466.8199,541.81664 436.3959,598.42062 426.47139,611.8005 C 425.9964,611.71517 425.56101,611.63666 425.19034,611.54572 C 425.4258,611.81811 425.67088,612.14583 425.94583,612.50115 C 425.67274,612.85207 425.40772,613.15591 425.17392,613.42472 C 425.54459,613.33396 425.97902,613.25486 426.45497,613.16994 C 436.34934,626.55364 466.65574,683.10194 470.05994,694.9382 C 473.48339,683.10414 503.87298,626.58218 513.77987,613.23364 C 514.26545,613.32098 514.70113,613.41112 515.07734,613.50434 C 514.84066,613.23137 514.56599,612.92235 514.28901,612.56484 C 514.56182,612.21376 514.8271,611.89494 515.06092,611.62534 C 514.68892,611.71634 514.25773,611.79499 513.77987,611.88012 C 503.88335,598.50015 473.55162,541.83411 470.19133,530.06409 z M 515.06092,611.62534 C 516.38314,611.30188 517.01581,610.94031 516.80184,610.54253 C 516.58704,610.14323 515.99109,610.55287 515.06092,611.62534 z M 515.07734,613.50434 C 515.99752,614.56556 516.58759,614.98394 516.80184,614.58715 C 517.0155,614.19144 516.38756,613.82901 515.07734,613.50434 z M 470.05994,694.9382 C 469.65433,696.34029 469.62915,697.11938 470.05994,697.11975 C 470.49068,697.12012 470.46332,696.34075 470.05994,694.9382 z M 425.17392,613.42472 C 423.85358,613.748 423.21917,614.11003 423.43301,614.50753 C 423.64672,614.90482 424.25165,614.48511 425.17392,613.42472 z M 425.19034,611.54572 C 424.26139,610.47102 423.64846,610.06388 423.43301,610.46291 C 423.21765,610.86176 423.8588,611.21905 425.19034,611.54572 z M 465.64196,611.30687 C 481.76531,611.22927 498.57407,611.64058 508.36004,612.54892 C 490.60974,614.16563 449.7135,614.12984 431.92407,612.48522 C 439.90587,611.76128 452.52319,611.37001 465.64196,611.30687 z"
       id="path4995" />
    <path
       style="opacity:1;fill:#ff0000;display:inline;filter:url(#filter5127)"
       d="M 226.74054,335.37565 C 226.313,335.37528 226.34576,336.14257 226.74054,337.52535 C 227.13627,336.14586 227.16765,335.37602 226.74054,335.37565 z M 226.74054,337.52535 C 223.36911,349.2779 192.94511,405.88188 183.0206,419.26176 C 182.54561,419.17643 182.11022,419.09792 181.73955,419.00698 C 181.97501,419.27937 182.22009,419.60709 182.49504,419.96241 C 182.22195,420.31333 181.95693,420.61717 181.72313,420.88598 C 182.0938,420.79522 182.52823,420.71612 183.00418,420.6312 C 192.89855,434.0149 223.20495,490.5632 226.60915,502.39946 C 230.0326,490.5654 260.42219,434.04344 270.32908,420.6949 C 270.81466,420.78224 271.25034,420.87238 271.62655,420.9656 C 271.38987,420.69263 271.1152,420.38361 270.83822,420.0261 C 271.11103,419.67502 271.37631,419.3562 271.61013,419.0866 C 271.23813,419.1776 270.80694,419.25625 270.32908,419.34138 C 260.43256,405.96141 230.10083,349.29537 226.74054,337.52535 z M 271.61013,419.0866 C 272.93235,418.76314 273.56502,418.40157 273.35105,418.00379 C 273.13625,417.60449 272.5403,418.01413 271.61013,419.0866 z M 271.62655,420.9656 C 272.54673,422.02682 273.1368,422.4452 273.35105,422.04841 C 273.56471,421.6527 272.93677,421.29027 271.62655,420.9656 z M 226.60915,502.39946 C 226.20354,503.80155 226.17836,504.58064 226.60915,504.58101 C 227.03989,504.58138 227.01253,503.80201 226.60915,502.39946 z M 181.72313,420.88598 C 180.40279,421.20926 179.76838,421.57129 179.98222,421.96879 C 180.19593,422.36608 180.80086,421.94637 181.72313,420.88598 z M 181.73955,419.00698 C 180.8106,417.93228 180.19767,417.52514 179.98222,417.92417 C 179.76686,418.32302 180.40801,418.68031 181.73955,419.00698 z M 222.19117,418.76813 C 238.31452,418.69053 255.12328,419.10184 264.90925,420.01018 C 247.15895,421.62689 206.26271,421.5911 188.47328,419.94648 C 196.45508,419.22254 209.0724,418.83127 222.19117,418.76813 z"
       id="path4997" />
    <path
       style="opacity:1;fill:#ff0000;display:inline;filter:url(#filter5123)"
       d="M 226.74054,797.11977 C 226.313,797.1194 226.34576,797.88669 226.74054,799.26947 C 227.13627,797.88998 227.16765,797.12014 226.74054,797.11977 z M 226.74054,799.26947 C 223.36911,811.02202 192.94511,867.626 183.0206,881.00588 C 182.54561,880.92055 182.11022,880.84204 181.73955,880.7511 C 181.97501,881.02349 182.22009,881.35121 182.49504,881.70653 C 182.22195,882.05745 181.95693,882.36129 181.72313,882.6301 C 182.0938,882.53934 182.52823,882.46024 183.00418,882.37532 C 192.89855,895.75902 223.20495,952.30732 226.60915,964.14357 C 230.0326,952.30952 260.42219,895.78756 270.32908,882.43902 C 270.81466,882.52636 271.25034,882.6165 271.62655,882.70972 C 271.38987,882.43675 271.1152,882.12773 270.83822,881.77022 C 271.11103,881.41914 271.37631,881.10032 271.61013,880.83072 C 271.23813,880.92172 270.80694,881.00037 270.32908,881.0855 C 260.43256,867.70553 230.10083,811.03949 226.74054,799.26947 z M 271.61013,880.83072 C 272.93235,880.50726 273.56502,880.14569 273.35105,879.74791 C 273.13625,879.34861 272.5403,879.75825 271.61013,880.83072 z M 271.62655,882.70972 C 272.54673,883.77094 273.1368,884.18932 273.35105,883.79253 C 273.56471,883.39682 272.93677,883.03439 271.62655,882.70972 z M 226.60915,964.14357 C 226.20354,965.54567 226.17836,966.32477 226.60915,966.32517 C 227.03989,966.32547 227.01253,965.54617 226.60915,964.14357 z M 181.72313,882.6301 C 180.40279,882.95338 179.76838,883.31541 179.98222,883.71291 C 180.19593,884.1102 180.80086,883.69049 181.72313,882.6301 z M 181.73955,880.7511 C 180.8106,879.6764 180.19767,879.26926 179.98222,879.66829 C 179.76686,880.06714 180.40801,880.42443 181.73955,880.7511 z M 222.19117,880.51225 C 238.31452,880.43465 255.12328,880.84596 264.90925,881.7543 C 247.15895,883.37101 206.26271,883.33522 188.47328,881.6906 C 196.45508,880.96666 209.0724,880.57539 222.19117,880.51225 z"
       id="path4999" />
    <path
       style="opacity:1;fill:#ff0000;display:inline;filter:url(#filter5119)"
       d="M 470.19133,335.37565 C 469.76379,335.37528 469.79655,336.14257 470.19133,337.52535 C 470.58706,336.14586 470.61844,335.37602 470.19133,335.37565 z M 470.19133,337.52535 C 466.8199,349.2779 436.3959,405.88188 426.47139,419.26176 C 425.9964,419.17643 425.56101,419.09792 425.19034,419.00698 C 425.4258,419.27937 425.67088,419.60709 425.94583,419.96241 C 425.67274,420.31333 425.40772,420.61717 425.17392,420.88598 C 425.54459,420.79522 425.97902,420.71612 426.45497,420.6312 C 436.34934,434.0149 466.65574,490.5632 470.05994,502.39946 C 473.48339,490.5654 503.87298,434.04344 513.77987,420.6949 C 514.26545,420.78224 514.70113,420.87238 515.07734,420.9656 C 514.84066,420.69263 514.56599,420.38361 514.28901,420.0261 C 514.56182,419.67502 514.8271,419.3562 515.06092,419.0866 C 514.68892,419.1776 514.25773,419.25625 513.77987,419.34138 C 503.88335,405.96141 473.55162,349.29537 470.19133,337.52535 z M 515.06092,419.0866 C 516.38314,418.76314 517.01581,418.40157 516.80184,418.00379 C 516.58704,417.60449 515.99109,418.01413 515.06092,419.0866 z M 515.07734,420.9656 C 515.99752,422.02682 516.58759,422.4452 516.80184,422.04841 C 517.0155,421.6527 516.38756,421.29027 515.07734,420.9656 z M 470.05994,502.39946 C 469.65433,503.80155 469.62915,504.58064 470.05994,504.58101 C 470.49068,504.58138 470.46332,503.80201 470.05994,502.39946 z M 425.17392,420.88598 C 423.85358,421.20926 423.21917,421.57129 423.43301,421.96879 C 423.64672,422.36608 424.25165,421.94637 425.17392,420.88598 z M 425.19034,419.00698 C 424.26139,417.93228 423.64846,417.52514 423.43301,417.92417 C 423.21765,418.32302 423.8588,418.68031 425.19034,419.00698 z M 465.64196,418.76813 C 481.76531,418.69053 498.57407,419.10184 508.36004,420.01018 C 490.60974,421.62689 449.7135,421.5911 431.92407,419.94648 C 439.90587,419.22254 452.52319,418.83127 465.64196,418.76813 z"
       id="path5001" />
    <path
       style="opacity:1;fill:#ff0000;display:inline;filter:url(#filter5115)"
       d="M 226.74054,527.91439 C 226.313,527.91402 226.34576,528.68131 226.74054,530.06409 C 227.13627,528.6846 227.16765,527.91476 226.74054,527.91439 z M 226.74054,530.06409 C 223.36911,541.81664 192.94511,598.42062 183.0206,611.8005 C 182.54561,611.71517 182.11022,611.63666 181.73955,611.54572 C 181.97501,611.81811 182.22009,612.14583 182.49504,612.50115 C 182.22195,612.85207 181.95693,613.15591 181.72313,613.42472 C 182.0938,613.33396 182.52823,613.25486 183.00418,613.16994 C 192.89855,626.55364 223.20495,683.10194 226.60915,694.9382 C 230.0326,683.10414 260.42219,626.58218 270.32908,613.23364 C 270.81466,613.32098 271.25034,613.41112 271.62655,613.50434 C 271.38987,613.23137 271.1152,612.92235 270.83822,612.56484 C 271.11103,612.21376 271.37631,611.89494 271.61013,611.62534 C 271.23813,611.71634 270.80694,611.79499 270.32908,611.88012 C 260.43256,598.50015 230.10083,541.83411 226.74054,530.06409 z M 271.61013,611.62534 C 272.93235,611.30188 273.56502,610.94031 273.35105,610.54253 C 273.13625,610.14323 272.5403,610.55287 271.61013,611.62534 z M 271.62655,613.50434 C 272.54673,614.56556 273.1368,614.98394 273.35105,614.58715 C 273.56471,614.19144 272.93677,613.82901 271.62655,613.50434 z M 226.60915,694.9382 C 226.20354,696.34029 226.17836,697.11938 226.60915,697.11975 C 227.03989,697.12012 227.01253,696.34075 226.60915,694.9382 z M 181.72313,613.42472 C 180.40279,613.748 179.76838,614.11003 179.98222,614.50753 C 180.19593,614.90482 180.80086,614.48511 181.72313,613.42472 z M 181.73955,611.54572 C 180.8106,610.47102 180.19767,610.06388 179.98222,610.46291 C 179.76686,610.86176 180.40801,611.21905 181.73955,611.54572 z M 222.19117,611.30687 C 238.31452,611.22927 255.12328,611.64058 264.90925,612.54892 C 247.15895,614.16563 206.26271,614.12984 188.47328,612.48522 C 196.45508,611.76128 209.0724,611.37001 222.19117,611.30687 z"
       id="path5003" />
    <path
       style="opacity:1;fill:#ff0000;display:inline;filter:url(#filter5111)"
       d="M 226.74054,42.83693 C 226.313,42.83656 226.34576,43.60385 226.74054,44.98663 C 227.13627,43.60714 227.16765,42.8373 226.74054,42.83693 z M 226.74054,44.98663 C 223.36911,56.73918 192.94511,113.34316 183.0206,126.72304 C 182.54561,126.63771 182.11022,126.5592 181.73955,126.46826 C 181.97501,126.74065 182.22009,127.06837 182.49504,127.42369 C 182.22195,127.77461 181.95693,128.07845 181.72313,128.34726 C 182.0938,128.2565 182.52823,128.1774 183.00418,128.09248 C 192.89855,141.47618 223.20495,198.02447 226.60915,209.86077 C 230.0326,198.02667 260.42219,141.50472 270.32908,128.15618 C 270.81466,128.24352 271.25034,128.33366 271.62655,128.42688 C 271.38987,128.15391 271.1152,127.84489 270.83822,127.48738 C 271.11103,127.1363 271.37631,126.81748 271.61013,126.54788 C 271.23813,126.63888 270.80694,126.71753 270.32908,126.80266 C 260.43256,113.42269 230.10083,56.75665 226.74054,44.98663 z M 271.61013,126.54788 C 272.93235,126.22442 273.56502,125.86285 273.35105,125.46507 C 273.13625,125.06577 272.5403,125.47541 271.61013,126.54788 z M 271.62655,128.42688 C 272.54673,129.4881 273.1368,129.90648 273.35105,129.50969 C 273.56471,129.11398 272.93677,128.75155 271.62655,128.42688 z M 226.60915,209.86077 C 226.20354,211.26287 226.17836,212.04197 226.60915,212.04227 C 227.03989,212.04267 227.01253,211.26327 226.60915,209.86077 z M 181.72313,128.34726 C 180.40279,128.67054 179.76838,129.03257 179.98222,129.43007 C 180.19593,129.82736 180.80086,129.40765 181.72313,128.34726 z M 181.73955,126.46826 C 180.8106,125.39356 180.19767,124.98642 179.98222,125.38545 C 179.76686,125.7843 180.40801,126.14159 181.73955,126.46826 z M 222.19117,126.22941 C 238.31452,126.15181 255.12328,126.56312 264.90925,127.47146 C 247.15895,129.08817 206.26271,129.05238 188.47328,127.40776 C 196.45508,126.68382 209.0724,126.29255 222.19117,126.22941 z"
       id="path5005" />
    <path
       id="path2432"
       d="M 470.19133,797.11979 C 469.76379,797.11942 469.79655,797.88671 470.19133,799.26949 C 470.58706,797.89 470.61844,797.12016 470.19133,797.11979 z M 470.19133,799.26949 C 466.8199,811.02204 436.3959,867.62602 426.47139,881.0059 C 425.9964,880.92057 425.56101,880.84206 425.19034,880.75112 C 425.4258,881.02351 425.67088,881.35123 425.94583,881.70655 C 425.67274,882.05747 425.40772,882.36131 425.17392,882.63012 C 425.54459,882.53936 425.97902,882.46026 426.45497,882.37534 C 436.34934,895.75904 466.65574,952.30734 470.05994,964.14356 C 473.48339,952.30954 503.87298,895.78758 513.77987,882.43904 C 514.26545,882.52638 514.70113,882.61652 515.07734,882.70974 C 514.84066,882.43677 514.56599,882.12775 514.28901,881.77024 C 514.56182,881.41916 514.8271,881.10034 515.06092,880.83074 C 514.68892,880.92174 514.25773,881.00039 513.77987,881.08552 C 503.88335,867.70555 473.55162,811.03951 470.19133,799.26949 z M 515.06092,880.83074 C 516.38314,880.50728 517.01581,880.14571 516.80184,879.74793 C 516.58704,879.34863 515.99109,879.75827 515.06092,880.83074 z M 515.07734,882.70974 C 515.99752,883.77096 516.58759,884.18934 516.80184,883.79255 C 517.0155,883.39684 516.38756,883.03441 515.07734,882.70974 z M 470.05994,964.14356 C 469.65433,965.54566 469.62915,966.32476 470.05994,966.32516 C 470.49068,966.32556 470.46332,965.54616 470.05994,964.14356 z M 425.17392,882.63012 C 423.85358,882.9534 423.21917,883.31543 423.43301,883.71293 C 423.64672,884.11022 424.25165,883.69051 425.17392,882.63012 z M 425.19034,880.75112 C 424.26139,879.67642 423.64846,879.26928 423.43301,879.66831 C 423.21765,880.06716 423.8588,880.42445 425.19034,880.75112 z M 465.64196,880.51227 C 481.76531,880.43467 498.57407,880.84598 508.36004,881.75432 C 490.60974,883.37103 449.7135,883.33524 431.92407,881.69062 C 439.90587,880.96668 452.52319,880.57541 465.64196,880.51227 z"
       style="opacity:1;fill:#ff0000;display:inline;filter:url(#filter5119)" />
    <path
       id="path2434"
       d="M 343.40721,422.04232 C 342.97967,422.04195 343.01243,422.80924 343.40721,424.19202 C 343.80294,422.81253 343.83432,422.04269 343.40721,422.04232 z M 343.40721,424.19202 C 340.03578,435.94457 309.61178,492.54855 299.68727,505.92843 C 299.21228,505.8431 298.77689,505.76459 298.40622,505.67365 C 298.64168,505.94604 298.88676,506.27376 299.16171,506.62908 C 298.88862,506.98 298.6236,507.28384 298.3898,507.55265 C 298.76047,507.46189 299.1949,507.38279 299.67085,507.29787 C 309.56522,520.68157 339.87162,577.22987 343.27582,589.06613 C 346.69927,577.23207 377.08886,520.71011 386.99575,507.36157 C 387.48133,507.44891 387.91701,507.53905 388.29322,507.63227 C 388.05654,507.3593 387.78187,507.05028 387.50489,506.69277 C 387.7777,506.34169 388.04298,506.02287 388.2768,505.75327 C 387.9048,505.84427 387.47361,505.92292 386.99575,506.00805 C 377.09923,492.62808 346.7675,435.96204 343.40721,424.19202 z M 388.2768,505.75327 C 389.59902,505.42981 390.23169,505.06824 390.01772,504.67046 C 389.80292,504.27116 389.20697,504.6808 388.2768,505.75327 z M 388.29322,507.63227 C 389.2134,508.69349 389.80347,509.11187 390.01772,508.71508 C 390.23138,508.31937 389.60344,507.95694 388.29322,507.63227 z M 343.27582,589.06613 C 342.87021,590.46822 342.84503,591.24731 343.27582,591.24768 C 343.70656,591.24805 343.6792,590.46868 343.27582,589.06613 z M 298.3898,507.55265 C 297.06946,507.87593 296.43505,508.23796 296.64889,508.63546 C 296.8626,509.03275 297.46753,508.61304 298.3898,507.55265 z M 298.40622,505.67365 C 297.47727,504.59895 296.86434,504.19181 296.64889,504.59084 C 296.43353,504.98969 297.07468,505.34698 298.40622,505.67365 z M 338.85784,505.4348 C 354.98119,505.3572 371.78995,505.76851 381.57592,506.67685 C 363.82562,508.29356 322.92938,508.25777 305.13995,506.61315 C 313.12175,505.88921 325.73907,505.49794 338.85784,505.4348 z"
       style="opacity:1;fill:#ff0000;display:inline;filter:url(#filter5127)" />
  </g>
</svg>
