<?xml version="1.0" encoding="UTF-8" standalone="no"?>
<!-- Created with Inkscape (http://www.inkscape.org/) -->
<svg
   xmlns:dc="http://purl.org/dc/elements/1.1/"
   xmlns:cc="http://creativecommons.org/ns#"
   xmlns:rdf="http://www.w3.org/1999/02/22-rdf-syntax-ns#"
   xmlns:svg="http://www.w3.org/2000/svg"
   xmlns="http://www.w3.org/2000/svg"
   xmlns:sodipodi="http://sodipodi.sourceforge.net/DTD/sodipodi-0.dtd"
   xmlns:inkscape="http://www.inkscape.org/namespaces/inkscape"
   width="744.09448819"
   height="1052.3622047"
   id="svg2"
   sodipodi:version="0.32"
   inkscape:version="0.46"
   sodipodi:docname="card-7diamonds.svg"
   inkscape:output_extension="org.inkscape.output.svg.inkscape">
  <defs
     id="defs4">
    <inkscape:perspective
       sodipodi:type="inkscape:persp3d"
       inkscape:vp_x="-53.589892 : 517.60966 : 1"
       inkscape:vp_y="7.0616468e-14 : 1000 : 0"
       inkscape:vp_z="804.56871 : 517.60966 : 1"
       inkscape:persp3d-origin="375.48941 : 342.21596 : 1"
       id="perspective10" />
    <filter
       inkscape:collect="always"
       id="filter3254">
      <feGaussianBlur
         inkscape:collect="always"
         stdDeviation="7.7965407"
         id="feGaussianBlur3256" />
    </filter>
    <filter
       inkscape:collect="always"
       id="filter4966">
      <feGaussianBlur
         inkscape:collect="always"
         stdDeviation="1.4809308"
         id="feGaussianBlur4968" />
    </filter>
    <filter
       inkscape:collect="always"
       id="filter4970">
      <feGaussianBlur
         inkscape:collect="always"
         stdDeviation="1.4809308"
         id="feGaussianBlur4972" />
    </filter>
    <filter
       inkscape:collect="always"
       id="filter5111">
      <feGaussianBlur
         inkscape:collect="always"
         stdDeviation="1.7289448"
         id="feGaussianBlur5113" />
    </filter>
    <filter
       inkscape:collect="always"
       id="filter5115">
      <feGaussianBlur
         inkscape:collect="always"
         stdDeviation="1.7289448"
         id="feGaussianBlur5117" />
    </filter>
    <filter
       inkscape:collect="always"
       id="filter5119">
      <feGaussianBlur
         inkscape:collect="always"
         stdDeviation="1.7289448"
         id="feGaussianBlur5121" />
    </filter>
    <filter
       inkscape:collect="always"
       id="filter5123">
      <feGaussianBlur
         inkscape:collect="always"
         stdDeviation="1.7289448"
         id="feGaussianBlur5125" />
    </filter>
    <filter
       inkscape:collect="always"
       id="filter5127">
      <feGaussianBlur
         inkscape:collect="always"
         stdDeviation="1.7289448"
         id="feGaussianBlur5129" />
    </filter>
    <filter
       inkscape:collect="always"
       id="filter5131">
      <feGaussianBlur
         inkscape:collect="always"
         stdDeviation="1.7289448"
         id="feGaussianBlur5133" />
    </filter>
    <filter
       inkscape:collect="always"
       id="filter5135">
      <feGaussianBlur
         inkscape:collect="always"
         stdDeviation="1.7289448"
         id="feGaussianBlur5137" />
    </filter>
  </defs>
  <sodipodi:namedview
     id="base"
     pagecolor="#ffffff"
     bordercolor="#666666"
     borderopacity="1.0"
     gridtolerance="10000"
     guidetolerance="10"
     objecttolerance="10"
     inkscape:pageopacity="0.0"
     inkscape:pageshadow="2"
     inkscape:zoom="0.3"
     inkscape:cx="-243.37644"
     inkscape:cy="552.90829"
     inkscape:document-units="px"
     inkscape:current-layer="layer1"
     showgrid="false"
     inkscape:window-width="1152"
     inkscape:window-height="775"
     inkscape:window-x="0"
     inkscape:window-y="0"
     showguides="false" />
  <metadata
     id="metadata7">
    <rdf:RDF>
      <cc:Work
         rdf:about="">
        <dc:format>image/svg+xml</dc:format>
        <dc:type
           rdf:resource="http://purl.org/dc/dcmitype/StillImage" />
      </cc:Work>
    </rdf:RDF>
  </metadata>
  <g
     inkscape:label="Layer 1"
     inkscape:groupmode="layer"
     id="layer1"
     style="display:inline">
    <rect
       rx="60.60915"
       ry="63.63961"
       y="26.047195"
       x="24.243658"
       height="1006.1119"
       width="709.12708"
       id="rect3208"
       style="opacity:0.91666667;fill:#000000;filter:url(#filter3254)" />
    <rect
       style="fill:#ffffff"
       id="rect3206"
       width="709.12708"
       height="1006.1119"
       x="10.101523"
       y="7.8644519"
       ry="63.63961"
       rx="60.60915" />
    <text
       xml:space="preserve"
       style="font-size:225.65773009999998067px;font-style:normal;font-variant:normal;font-weight:normal;font-stretch:normal;fill:#ff0000;fill-opacity:1;stroke:none;stroke-width:1px;stroke-linecap:butt;stroke-linejoin:miter;stroke-opacity:1;filter:url(#filter4970);font-family:Gemelli;-inkscape-font-specification:Gemelli"
       x="47.257381"
       y="188.40356"
       id="text3475"
       transform="scale(1.0234483,0.9770889)"><tspan
         sodipodi:role="line"
         id="tspan3477"
         x="47.257381"
         y="188.40356">7</tspan></text>
    <text
       transform="scale(1.0234483,0.9770889)"
       id="text3487"
       y="980.57336"
       x="537.01221"
       style="font-size:225.65773010000000909px;font-style:normal;font-variant:normal;font-weight:normal;font-stretch:normal;fill:#ff0000;fill-opacity:1;stroke:none;stroke-width:1px;stroke-linecap:butt;stroke-linejoin:miter;stroke-opacity:1;filter:url(#filter4966);font-family:Gemelli;-inkscape-font-specification:Gemelli"
       xml:space="preserve"><tspan
         y="980.57336"
         x="537.01221"
         id="tspan3489"
         sodipodi:role="line">7</tspan></text>
    <path
       style="opacity:1;fill:#ff0000;filter:url(#filter5135)"
       d="M 366.858,222.83691 C 366.43046,222.83654 366.46322,223.60383 366.858,224.98661 C 367.25373,223.60712 367.28511,222.83728 366.858,222.83691 z M 366.858,224.98661 C 363.48657,236.73916 333.06257,293.34314 323.13806,306.72302 C 322.66307,306.63769 322.22768,306.55918 321.85701,306.46824 C 322.09247,306.74063 322.33755,307.06835 322.6125,307.42367 C 322.33941,307.77459 322.07439,308.07843 321.84059,308.34724 C 322.21126,308.25648 322.64569,308.17738 323.12164,308.09246 C 333.01601,321.47616 363.32241,378.02446 366.72661,389.86072 C 370.15006,378.02666 400.53965,321.5047 410.44654,308.15616 C 410.93212,308.2435 411.3678,308.33364 411.74401,308.42686 C 411.50733,308.15389 411.23266,307.84487 410.95568,307.48736 C 411.22849,307.13628 411.49377,306.81746 411.72759,306.54786 C 411.35559,306.63886 410.9244,306.71751 410.44654,306.80264 C 400.55002,293.42267 370.21829,236.75663 366.858,224.98661 z M 411.72759,306.54786 C 413.04981,306.2244 413.68248,305.86283 413.46851,305.46505 C 413.25371,305.06575 412.65776,305.47539 411.72759,306.54786 z M 411.74401,308.42686 C 412.66419,309.48808 413.25426,309.90646 413.46851,309.50967 C 413.68217,309.11396 413.05423,308.75153 411.74401,308.42686 z M 366.72661,389.86072 C 366.321,391.26281 366.29582,392.0419 366.72661,392.04227 C 367.15735,392.04264 367.12999,391.26327 366.72661,389.86072 z M 321.84059,308.34724 C 320.52025,308.67052 319.88584,309.03255 320.09968,309.43005 C 320.31339,309.82734 320.91832,309.40763 321.84059,308.34724 z M 321.85701,306.46824 C 320.92806,305.39354 320.31513,304.9864 320.09968,305.38543 C 319.88432,305.78428 320.52547,306.14157 321.85701,306.46824 z M 362.30863,306.22939 C 378.43198,306.15179 395.24074,306.5631 405.02671,307.47144 C 387.27641,309.08815 346.38017,309.05236 328.59074,307.40774 C 336.57254,306.6838 349.18986,306.29253 362.30863,306.22939 z"
       id="path4096" />
    <path
       style="opacity:1;fill:#ff0000;display:inline;filter:url(#filter5131)"
       d="M 510.3088,222.83691 C 509.88126,222.83654 509.91402,223.60383 510.3088,224.98661 C 510.70453,223.60712 510.73591,222.83728 510.3088,222.83691 z M 510.3088,224.98661 C 506.93737,236.73916 476.51337,293.34314 466.58886,306.72302 C 466.11387,306.63769 465.67848,306.55918 465.30781,306.46824 C 465.54327,306.74063 465.78835,307.06835 466.0633,307.42367 C 465.79021,307.77459 465.52519,308.07843 465.29139,308.34724 C 465.66206,308.25648 466.09649,308.17738 466.57244,308.09246 C 476.46681,321.47616 506.77321,378.02446 510.17741,389.86072 C 513.60086,378.02666 543.99045,321.5047 553.89734,308.15616 C 554.38292,308.2435 554.8186,308.33364 555.19481,308.42686 C 554.95813,308.15389 554.68346,307.84487 554.40648,307.48736 C 554.67929,307.13628 554.94457,306.81746 555.17839,306.54786 C 554.80639,306.63886 554.3752,306.71751 553.89734,306.80264 C 544.00082,293.42267 513.66909,236.75663 510.3088,224.98661 z M 555.17839,306.54786 C 556.50061,306.2244 557.13328,305.86283 556.91931,305.46505 C 556.70451,305.06575 556.10856,305.47539 555.17839,306.54786 z M 555.19481,308.42686 C 556.11499,309.48808 556.70506,309.90646 556.91931,309.50967 C 557.13297,309.11396 556.50503,308.75153 555.19481,308.42686 z M 510.17741,389.86072 C 509.7718,391.26281 509.74662,392.0419 510.17741,392.04227 C 510.60815,392.04264 510.58079,391.26327 510.17741,389.86072 z M 465.29139,308.34724 C 463.97105,308.67052 463.33664,309.03255 463.55048,309.43005 C 463.76419,309.82734 464.36912,309.40763 465.29139,308.34724 z M 465.30781,306.46824 C 464.37886,305.39354 463.76593,304.9864 463.55048,305.38543 C 463.33512,305.78428 463.97627,306.14157 465.30781,306.46824 z M 505.75943,306.22939 C 521.88278,306.15179 538.69154,306.5631 548.47751,307.47144 C 530.72721,309.08815 489.83097,309.05236 472.04154,307.40774 C 480.02334,306.6838 492.64066,306.29253 505.75943,306.22939 z"
       id="path4995" />
    <path
       style="opacity:1;fill:#ff0000;display:inline;filter:url(#filter5127)"
       d="M 223.40721,442.04227 C 222.97967,442.0419 223.01243,442.80919 223.40721,444.19197 C 223.80294,442.81248 223.83432,442.04264 223.40721,442.04227 z M 223.40721,444.19197 C 220.03578,455.94452 189.61178,512.5485 179.68727,525.92838 C 179.21228,525.84305 178.77689,525.76454 178.40622,525.6736 C 178.64168,525.94599 178.88676,526.27371 179.16171,526.62903 C 178.88862,526.97995 178.6236,527.28379 178.3898,527.5526 C 178.76047,527.46184 179.1949,527.38274 179.67085,527.29782 C 189.56522,540.68152 219.87162,597.22982 223.27582,609.06608 C 226.69927,597.23202 257.08886,540.71006 266.99575,527.36152 C 267.48133,527.44886 267.91701,527.539 268.29322,527.63222 C 268.05654,527.35925 267.78187,527.05023 267.50489,526.69272 C 267.7777,526.34164 268.04298,526.02282 268.2768,525.75322 C 267.9048,525.84422 267.47361,525.92287 266.99575,526.008 C 257.09923,512.62803 226.7675,455.96199 223.40721,444.19197 z M 268.2768,525.75322 C 269.59902,525.42976 270.23169,525.06819 270.01772,524.67041 C 269.80292,524.27111 269.20697,524.68075 268.2768,525.75322 z M 268.29322,527.63222 C 269.2134,528.69344 269.80347,529.11182 270.01772,528.71503 C 270.23138,528.31932 269.60344,527.95689 268.29322,527.63222 z M 223.27582,609.06608 C 222.87021,610.46817 222.84503,611.24726 223.27582,611.24763 C 223.70656,611.248 223.6792,610.46863 223.27582,609.06608 z M 178.3898,527.5526 C 177.06946,527.87588 176.43505,528.23791 176.64889,528.63541 C 176.8626,529.0327 177.46753,528.61299 178.3898,527.5526 z M 178.40622,525.6736 C 177.47727,524.5989 176.86434,524.19176 176.64889,524.59079 C 176.43353,524.98964 177.07468,525.34693 178.40622,525.6736 z M 218.85784,525.43475 C 234.98119,525.35715 251.78995,525.76846 261.57592,526.6768 C 243.82562,528.29351 202.92938,528.25772 185.13995,526.6131 C 193.12175,525.88916 205.73907,525.49789 218.85784,525.43475 z"
       id="path4997" />
    <path
       style="opacity:1;fill:#ff0000;display:inline;filter:url(#filter5123)"
       d="M 366.858,442.04227 C 366.43046,442.0419 366.46322,442.80919 366.858,444.19197 C 367.25373,442.81248 367.28511,442.04264 366.858,442.04227 z M 366.858,444.19197 C 363.48657,455.94452 333.06257,512.5485 323.13806,525.92838 C 322.66307,525.84305 322.22768,525.76454 321.85701,525.6736 C 322.09247,525.94599 322.33755,526.27371 322.6125,526.62903 C 322.33941,526.97995 322.07439,527.28379 321.84059,527.5526 C 322.21126,527.46184 322.64569,527.38274 323.12164,527.29782 C 333.01601,540.68152 363.32241,597.22982 366.72661,609.06608 C 370.15006,597.23202 400.53965,540.71006 410.44654,527.36152 C 410.93212,527.44886 411.3678,527.539 411.74401,527.63222 C 411.50733,527.35925 411.23266,527.05023 410.95568,526.69272 C 411.22849,526.34164 411.49377,526.02282 411.72759,525.75322 C 411.35559,525.84422 410.9244,525.92287 410.44654,526.008 C 400.55002,512.62803 370.21829,455.96199 366.858,444.19197 z M 411.72759,525.75322 C 413.04981,525.42976 413.68248,525.06819 413.46851,524.67041 C 413.25371,524.27111 412.65776,524.68075 411.72759,525.75322 z M 411.74401,527.63222 C 412.66419,528.69344 413.25426,529.11182 413.46851,528.71503 C 413.68217,528.31932 413.05423,527.95689 411.74401,527.63222 z M 366.72661,609.06608 C 366.321,610.46817 366.29582,611.24726 366.72661,611.24763 C 367.15735,611.248 367.12999,610.46863 366.72661,609.06608 z M 321.84059,527.5526 C 320.52025,527.87588 319.88584,528.23791 320.09968,528.63541 C 320.31339,529.0327 320.91832,528.61299 321.84059,527.5526 z M 321.85701,525.6736 C 320.92806,524.5989 320.31513,524.19176 320.09968,524.59079 C 319.88432,524.98964 320.52547,525.34693 321.85701,525.6736 z M 362.30863,525.43475 C 378.43198,525.35715 395.24074,525.76846 405.02671,526.6768 C 387.27641,528.29351 346.38017,528.25772 328.59074,526.6131 C 336.57254,525.88916 349.18986,525.49789 362.30863,525.43475 z"
       id="path4999" />
    <path
       style="opacity:1;fill:#ff0000;display:inline;filter:url(#filter5119)"
       d="M 510.3088,442.04227 C 509.88126,442.0419 509.91402,442.80919 510.3088,444.19197 C 510.70453,442.81248 510.73591,442.04264 510.3088,442.04227 z M 510.3088,444.19197 C 506.93737,455.94452 476.51337,512.5485 466.58886,525.92838 C 466.11387,525.84305 465.67848,525.76454 465.30781,525.6736 C 465.54327,525.94599 465.78835,526.27371 466.0633,526.62903 C 465.79021,526.97995 465.52519,527.28379 465.29139,527.5526 C 465.66206,527.46184 466.09649,527.38274 466.57244,527.29782 C 476.46681,540.68152 506.77321,597.22982 510.17741,609.06608 C 513.60086,597.23202 543.99045,540.71006 553.89734,527.36152 C 554.38292,527.44886 554.8186,527.539 555.19481,527.63222 C 554.95813,527.35925 554.68346,527.05023 554.40648,526.69272 C 554.67929,526.34164 554.94457,526.02282 555.17839,525.75322 C 554.80639,525.84422 554.3752,525.92287 553.89734,526.008 C 544.00082,512.62803 513.66909,455.96199 510.3088,444.19197 z M 555.17839,525.75322 C 556.50061,525.42976 557.13328,525.06819 556.91931,524.67041 C 556.70451,524.27111 556.10856,524.68075 555.17839,525.75322 z M 555.19481,527.63222 C 556.11499,528.69344 556.70506,529.11182 556.91931,528.71503 C 557.13297,528.31932 556.50503,527.95689 555.19481,527.63222 z M 510.17741,609.06608 C 509.7718,610.46817 509.74662,611.24726 510.17741,611.24763 C 510.60815,611.248 510.58079,610.46863 510.17741,609.06608 z M 465.29139,527.5526 C 463.97105,527.87588 463.33664,528.23791 463.55048,528.63541 C 463.76419,529.0327 464.36912,528.61299 465.29139,527.5526 z M 465.30781,525.6736 C 464.37886,524.5989 463.76593,524.19176 463.55048,524.59079 C 463.33512,524.98964 463.97627,525.34693 465.30781,525.6736 z M 505.75943,525.43475 C 521.88278,525.35715 538.69154,525.76846 548.47751,526.6768 C 530.72721,528.29351 489.83097,528.25772 472.04154,526.6131 C 480.02334,525.88916 492.64066,525.49789 505.75943,525.43475 z"
       id="path5001" />
    <path
       style="opacity:1;fill:#ff0000;display:inline;filter:url(#filter5115)"
       d="M 223.40721,661.24763 C 222.97967,661.24726 223.01243,662.01455 223.40721,663.39733 C 223.80294,662.01784 223.83432,661.248 223.40721,661.24763 z M 223.40721,663.39733 C 220.03578,675.14988 189.61178,731.75386 179.68727,745.13374 C 179.21228,745.04841 178.77689,744.9699 178.40622,744.87896 C 178.64168,745.15135 178.88676,745.47907 179.16171,745.83439 C 178.88862,746.18531 178.6236,746.48915 178.3898,746.75796 C 178.76047,746.6672 179.1949,746.5881 179.67085,746.50318 C 189.56522,759.88688 219.87162,816.43518 223.27582,828.27144 C 226.69927,816.43738 257.08886,759.91542 266.99575,746.56688 C 267.48133,746.65422 267.91701,746.74436 268.29322,746.83758 C 268.05654,746.56461 267.78187,746.25559 267.50489,745.89808 C 267.7777,745.547 268.04298,745.22818 268.2768,744.95858 C 267.9048,745.04958 267.47361,745.12823 266.99575,745.21336 C 257.09923,731.83339 226.7675,675.16735 223.40721,663.39733 z M 268.2768,744.95858 C 269.59902,744.63512 270.23169,744.27355 270.01772,743.87577 C 269.80292,743.47647 269.20697,743.88611 268.2768,744.95858 z M 268.29322,746.83758 C 269.2134,747.8988 269.80347,748.31718 270.01772,747.92039 C 270.23138,747.52468 269.60344,747.16225 268.29322,746.83758 z M 223.27582,828.27144 C 222.87021,829.67353 222.84503,830.45262 223.27582,830.45299 C 223.70656,830.45336 223.6792,829.67399 223.27582,828.27144 z M 178.3898,746.75796 C 177.06946,747.08124 176.43505,747.44327 176.64889,747.84077 C 176.8626,748.23806 177.46753,747.81835 178.3898,746.75796 z M 178.40622,744.87896 C 177.47727,743.80426 176.86434,743.39712 176.64889,743.79615 C 176.43353,744.195 177.07468,744.55229 178.40622,744.87896 z M 218.85784,744.64011 C 234.98119,744.56251 251.78995,744.97382 261.57592,745.88216 C 243.82562,747.49887 202.92938,747.46308 185.13995,745.81846 C 193.12175,745.09452 205.73907,744.70325 218.85784,744.64011 z"
       id="path5003" />
    <path
       style="opacity:1;fill:#ff0000;display:inline;filter:url(#filter5111)"
       d="M 223.40721,222.83692 C 222.97967,222.83655 223.01243,223.60384 223.40721,224.98662 C 223.80294,223.60713 223.83432,222.83729 223.40721,222.83692 z M 223.40721,224.98662 C 220.03578,236.73917 189.61178,293.34315 179.68727,306.72303 C 179.21228,306.6377 178.77689,306.55919 178.40622,306.46825 C 178.64168,306.74064 178.88676,307.06836 179.16171,307.42368 C 178.88862,307.7746 178.6236,308.07844 178.3898,308.34725 C 178.76047,308.25649 179.1949,308.17739 179.67085,308.09247 C 189.56522,321.47617 219.87162,378.02446 223.27582,389.86076 C 226.69927,378.02666 257.08886,321.50471 266.99575,308.15617 C 267.48133,308.24351 267.91701,308.33365 268.29322,308.42687 C 268.05654,308.1539 267.78187,307.84488 267.50489,307.48737 C 267.7777,307.13629 268.04298,306.81747 268.2768,306.54787 C 267.9048,306.63887 267.47361,306.71752 266.99575,306.80265 C 257.09923,293.42268 226.7675,236.75664 223.40721,224.98662 z M 268.2768,306.54787 C 269.59902,306.22441 270.23169,305.86284 270.01772,305.46506 C 269.80292,305.06576 269.20697,305.4754 268.2768,306.54787 z M 268.29322,308.42687 C 269.2134,309.48809 269.80347,309.90647 270.01772,309.50968 C 270.23138,309.11397 269.60344,308.75154 268.29322,308.42687 z M 223.27582,389.86076 C 222.87021,391.26286 222.84503,392.04196 223.27582,392.04226 C 223.70656,392.04266 223.6792,391.26326 223.27582,389.86076 z M 178.3898,308.34725 C 177.06946,308.67053 176.43505,309.03256 176.64889,309.43006 C 176.8626,309.82735 177.46753,309.40764 178.3898,308.34725 z M 178.40622,306.46825 C 177.47727,305.39355 176.86434,304.98641 176.64889,305.38544 C 176.43353,305.78429 177.07468,306.14158 178.40622,306.46825 z M 218.85784,306.2294 C 234.98119,306.1518 251.78995,306.56311 261.57592,307.47145 C 243.82562,309.08816 202.92938,309.05237 185.13995,307.40775 C 193.12175,306.68381 205.73907,306.29254 218.85784,306.2294 z"
       id="path5005" />
  </g>
</svg>
