<?xml version="1.0" encoding="UTF-8" standalone="no"?>
<!-- Created with Inkscape (http://www.inkscape.org/) -->
<svg
   xmlns:dc="http://purl.org/dc/elements/1.1/"
   xmlns:cc="http://creativecommons.org/ns#"
   xmlns:rdf="http://www.w3.org/1999/02/22-rdf-syntax-ns#"
   xmlns:svg="http://www.w3.org/2000/svg"
   xmlns="http://www.w3.org/2000/svg"
   xmlns:sodipodi="http://sodipodi.sourceforge.net/DTD/sodipodi-0.dtd"
   xmlns:inkscape="http://www.inkscape.org/namespaces/inkscape"
   width="640px"
   height="480px"
   id="svg2393"
   sodipodi:version="0.32"
   inkscape:version="0.46"
   sodipodi:docname="cards-clubs.svg"
   inkscape:output_extension="org.inkscape.output.svg.inkscape">
  <defs
     id="defs2395">
    <inkscape:perspective
       sodipodi:type="inkscape:persp3d"
       inkscape:vp_x="0 : 240 : 1"
       inkscape:vp_y="0 : 1000 : 0"
       inkscape:vp_z="640 : 240 : 1"
       inkscape:persp3d-origin="320 : 160 : 1"
       id="perspective2401" />
    <filter
       id="filter4970"
       inkscape:collect="always">
      <feGaussianBlur
         id="feGaussianBlur4972"
         stdDeviation="1.4809308"
         inkscape:collect="always" />
    </filter>
    <filter
       id="filter4966"
       inkscape:collect="always">
      <feGaussianBlur
         id="feGaussianBlur4968"
         stdDeviation="1.4809308"
         inkscape:collect="always" />
    </filter>
    <filter
       id="filter3254"
       inkscape:collect="always">
      <feGaussianBlur
         id="feGaussianBlur3256"
         stdDeviation="7.7965407"
         inkscape:collect="always" />
    </filter>
    <inkscape:perspective
       id="perspective10"
       inkscape:persp3d-origin="375.48941 : 342.21596 : 1"
       inkscape:vp_z="804.56871 : 517.60966 : 1"
       inkscape:vp_y="7.0616468e-14 : 1000 : 0"
       inkscape:vp_x="-53.589892 : 517.60966 : 1"
       sodipodi:type="inkscape:persp3d" />
    <inkscape:perspective
       id="perspective3513"
       inkscape:persp3d-origin="372.04724 : 350.78739 : 1"
       inkscape:vp_z="744.09448 : 526.18109 : 1"
       inkscape:vp_y="0 : 1000 : 0"
       inkscape:vp_x="0 : 526.18109 : 1"
       sodipodi:type="inkscape:persp3d" />
  </defs>
  <sodipodi:namedview
     id="base"
     pagecolor="#ffffff"
     bordercolor="#666666"
     borderopacity="1.0"
     inkscape:pageopacity="0.0"
     inkscape:pageshadow="2"
     inkscape:zoom="2"
     inkscape:cx="555.42282"
     inkscape:cy="169.58945"
     inkscape:current-layer="layer1"
     inkscape:document-units="px"
     showgrid="false" />
  <metadata
     id="metadata2398">
    <rdf:RDF>
      <cc:Work
         rdf:about="">
        <dc:format>image/svg+xml</dc:format>
        <dc:type
           rdf:resource="http://purl.org/dc/dcmitype/StillImage" />
      </cc:Work>
    </rdf:RDF>
  </metadata>
  <g
     id="layer1"
     inkscape:label="Layer 1"
     inkscape:groupmode="layer">
    <rect
       style="opacity:1;fill:#00ff00;fill-opacity:1;fill-rule:nonzero;stroke:#ffffff;stroke-width:1.24457645;stroke-linecap:butt;stroke-linejoin:miter;marker:none;marker-start:none;marker-mid:none;marker-end:none;stroke-miterlimit:4;stroke-dasharray:none;stroke-dashoffset:0;stroke-opacity:1;visibility:visible;display:inline;overflow:visible;enable-background:accumulate"
       id="rect2966"
       width="857.84351"
       height="619.75543"
       x="-28.877712"
       y="-8.8777122"
       rx="77.255814"
       ry="77.335289" />
    <g
       style="display:inline"
       id="g2508"
       inkscape:label="Layer 1"
       transform="matrix(0.1986935,0,0,0.1986935,5.65616,5.72353)">
      <rect
         style="opacity:0.91666667;fill:#000000;filter:url(#filter3254)"
         id="rect3208"
         width="709.12708"
         height="1006.1119"
         x="24.243658"
         y="26.047195"
         ry="63.63961"
         rx="60.60915" />
      <rect
         rx="60.60915"
         ry="63.63961"
         y="7.8644519"
         x="10.101523"
         height="1006.1119"
         width="709.12708"
         id="rect3206"
         style="fill:#ffffff" />
      <text
         transform="scale(1.0234483,0.9770889)"
         id="text3475"
         y="188.40356"
         x="47.257381"
         style="font-size:225.6577301px;font-style:normal;font-variant:normal;font-weight:normal;font-stretch:normal;fill:#000000;fill-opacity:1;stroke:none;stroke-width:1px;stroke-linecap:butt;stroke-linejoin:miter;stroke-opacity:1;filter:url(#filter4970);font-family:Gemelli;-inkscape-font-specification:Gemelli"
         xml:space="preserve"><tspan
           y="188.40356"
           x="47.257381"
           id="tspan3477"
           sodipodi:role="line">A</tspan></text>
      <text
         xml:space="preserve"
         style="font-size:225.6577301px;font-style:normal;font-variant:normal;font-weight:normal;font-stretch:normal;fill:#000000;fill-opacity:1;stroke:none;stroke-width:1px;stroke-linecap:butt;stroke-linejoin:miter;stroke-opacity:1;filter:url(#filter4966);font-family:Gemelli;-inkscape-font-specification:Gemelli"
         x="537.01221"
         y="980.57336"
         id="text3487"
         transform="scale(1.0234483,0.9770889)"><tspan
           sodipodi:role="line"
           id="tspan3489"
           x="537.01221"
           y="980.57336">A</tspan></text>
    </g>
    <path
       id="path3552"
       style="fill:#000000"
       d="M 742.90322,554.57808 L 742.90322,554.63331 C 742.77504,554.7997 734.64848,565.35216 731.90003,569.41236 C 728.11582,575.00268 729.67367,580.46559 733.79487,583.92566 C 736.66976,586.33935 739.97678,582.94154 741.71592,580.66405 C 740.8271,583.03125 739.55302,585.88758 738.20926,587.10443 C 735.67917,589.39557 727.48219,590.89411 727.48219,590.89411 L 742.94463,590.89411 L 758.40707,590.89411 C 758.40707,590.89411 750.20664,589.39556 747.67656,587.10443 C 746.35159,585.9046 745.094,583.11146 744.20786,580.76414 C 745.52668,582.46922 747.68585,584.72854 749.88202,584.754 C 750.6139,584.76248 751.3481,584.52036 752.05643,583.92566 C 756.17764,580.46559 757.73203,575.00268 753.94782,569.41236 C 751.19935,565.35213 743.07269,554.79954 742.94463,554.63331 L 742.94463,554.57808 C 742.94463,554.57808 742.92418,554.60536 742.92393,554.60569 C 742.92367,554.60536 742.90322,554.57808 742.90322,554.57808 z M 743.30731,570.62681 C 743.30674,574.839 743.20277,578.2425 743.07523,578.2239 C 742.94768,578.2053 742.84462,574.77161 742.84518,570.55941 C 742.84575,566.34722 742.94972,562.94372 743.07727,562.96232 C 743.2001,562.98023 743.30039,566.13337 743.30698,570.18416" />
    <path
       style="fill:#ff0000"
       d="M 783.01202,550.87832 C 782.9034,550.87822 782.91173,551.07315 783.01202,551.42444 C 783.11255,551.07399 783.12052,550.87841 783.01202,550.87832 z M 783.01202,551.42444 C 782.15552,554.41015 774.42638,568.79024 771.90508,572.18936 C 771.78441,572.16768 771.6738,572.14774 771.57964,572.12464 C 771.63945,572.19384 771.70171,572.27709 771.77157,572.36736 C 771.70219,572.45651 771.63486,572.5337 771.57547,572.60199 C 771.66963,572.57893 771.78,572.55884 771.90091,572.53726 C 774.41455,575.93736 782.11381,590.3033 782.97864,593.31027 C 783.84836,590.30386 791.56875,575.94461 794.08557,572.55345 C 794.20893,572.57564 794.31962,572.59853 794.41519,572.62222 C 794.35506,572.55287 794.28528,572.47436 794.21492,572.38354 C 794.28422,572.29435 794.35162,572.21335 794.41102,572.14486 C 794.31651,572.16798 794.20697,572.18796 794.08557,572.20959 C 791.57139,568.81044 783.86569,554.41458 783.01202,551.42444 z M 794.41102,572.14486 C 794.74693,572.06269 794.90766,571.97083 794.8533,571.86978 C 794.79873,571.76834 794.64733,571.8724 794.41102,572.14486 z M 794.41519,572.62222 C 794.64896,572.89182 794.79887,572.99811 794.8533,572.8973 C 794.90758,572.79677 794.74805,572.7047 794.41519,572.62222 z M 782.97864,593.31027 C 782.87559,593.66647 782.8692,593.8644 782.97864,593.86449 C 783.08807,593.86459 783.08112,593.66659 782.97864,593.31027 z M 771.57547,572.60199 C 771.24004,572.68412 771.07887,572.77609 771.13319,572.87708 C 771.18748,572.97801 771.34116,572.87138 771.57547,572.60199 z M 771.57964,572.12464 C 771.34364,571.85161 771.18793,571.74818 771.13319,571.84955 C 771.07848,571.95088 771.24136,572.04165 771.57964,572.12464 z M 781.85626,572.06396 C 785.95236,572.04424 790.22258,572.14874 792.70868,572.37949 C 788.19926,572.79022 777.80968,572.78112 773.29032,572.36331 C 775.31808,572.1794 778.52348,572.08 781.85626,572.06396 z"
       id="path4096" />
    <path
       id="rect3546"
       style="fill:#ff0000"
       d="M 775.57487,516.64893 C 774.843,516.64045 774.1088,516.88258 773.40047,517.47728 C 769.27926,520.93735 767.72486,526.40025 771.50908,531.99057 C 774.25755,536.0508 782.3842,546.6034 782.51226,546.76963 L 782.51226,546.82485 C 782.51226,546.82485 782.53272,546.79757 782.53297,546.79724 C 782.53322,546.79757 782.55368,546.82485 782.55368,546.82485 L 782.55368,546.76963 C 782.68186,546.60324 790.80841,536.05077 793.55686,531.99057 C 797.34108,526.40025 795.78323,520.93735 791.66202,517.47728 C 787.63394,514.09539 782.75219,522.12658 782.53297,522.49221 C 782.35495,522.19523 779.00643,516.68871 775.57487,516.64893 z M 776.78283,528.61716 C 777.87248,532.68597 778.65294,536.00041 778.52493,536.01545 C 778.39691,536.0305 777.40866,532.74048 776.31901,528.67166 C 775.22936,524.60285 774.4489,521.28841 774.57691,521.27337 C 774.70019,521.25888 775.61317,524.27862 776.66794,528.18968 M 789.13539,528.73675 C 788.04465,532.80528 787.06333,536.06589 786.94495,536.01491 C 786.82656,535.96394 787.61572,532.62057 788.70646,528.55205 C 789.7972,524.48352 790.77852,521.22291 790.89691,521.27389 C 791.01092,521.32298 790.2917,524.39464 789.24964,528.3091" />
    <path
       id="path3329"
       style="fill:#000000;display:inline"
       d="M 73.283799,63.070952 C 72.238664,63.070342 71.182834,63.131909 70.117636,63.269981 C 58.245091,64.809077 49.595762,74.922057 49.606084,86.537006 C 48.598392,86.541222 47.581812,86.603034 46.55565,86.736061 C 33.659543,88.407814 24.554625,100.18865 26.23344,113.03063 C 27.912254,125.87257 39.739395,134.94187 52.635501,133.27009 C 54.882368,132.97882 57.009127,132.36722 58.988818,131.51015 L 49.595575,150.23061 L 96.71954,150.23061 L 87.32631,131.51015 C 91.1103,133.15452 95.37003,133.83913 99.75947,133.27009 C 112.65558,131.59833 121.7605,119.8175 120.08169,106.97553 L 119.11395,102.70137 C 115.86948,92.830193 106.86767,86.485788 96.70904,86.537006 C 96.70814,85.535659 96.65294,84.528735 96.5197,83.509478 L 95.55197,79.235279 C 92.321987,69.408161 83.386701,63.076765 73.283799,63.070952 z M 73.519502,88.233605 C 73.518015,99.41151 73.242109,108.4434 72.903629,108.39404 C 72.565175,108.34468 72.291685,99.23268 72.29317,88.054746 C 72.294683,76.876803 72.570589,67.844943 72.909042,67.894302 C 73.235024,67.941829 73.501164,76.309335 73.518625,87.058941 M 47.143551,110.46505 C 50.035163,121.26246 52.106273,130.05802 51.766572,130.09793 C 51.426872,130.13787 48.80432,121.40712 45.91271,110.60967 C 43.0211,99.81225 40.949989,91.016705 41.28969,90.976793 C 41.616864,90.938343 44.039618,98.95184 46.838694,109.33064 M 99.26735,110.91538 C 96.37284,121.71206 93.768703,130.36476 93.454566,130.2295 C 93.140395,130.09421 95.23459,121.2219 98.12909,110.42524 C 101.02359,99.62859 103.62772,90.975857 103.94187,91.111147 C 104.24442,91.241418 102.33585,99.3927 99.57053,109.78055" />
    <g
       id="g2954">
      <rect
         transform="matrix(0.1986935,0,0,0.1986935,168.65616,6.72353)"
         rx="60.60915"
         ry="63.63961"
         y="26.047195"
         x="24.243658"
         height="1006.1119"
         width="709.12708"
         id="rect2936"
         style="opacity:0.91666667;fill:#000000;filter:url(#filter3254)" />
      <rect
         style="fill:#ffffff"
         id="rect2938"
         width="140.89894"
         height="199.9079"
         x="170.66327"
         y="8.2861452"
         ry="12.644777"
         rx="12.042645" />
      <text
         xml:space="preserve"
         style="font-size:225.6577301px;font-style:normal;font-variant:normal;font-weight:normal;font-stretch:normal;fill:#000000;fill-opacity:1;stroke:none;stroke-width:1px;stroke-linecap:butt;stroke-linejoin:miter;stroke-opacity:1;filter:url(#filter4970);font-family:Gemelli;-inkscape-font-specification:Gemelli"
         x="47.257381"
         y="188.40356"
         id="text2940"
         transform="matrix(0.2033525,0,0,0.1941412,168.65616,6.72353)"><tspan
           sodipodi:role="line"
           id="tspan2942"
           x="47.257381"
           y="188.40356">2</tspan></text>
      <text
         transform="matrix(0.2033525,0,0,0.1941412,168.65616,6.72353)"
         id="text2944"
         y="980.57336"
         x="537.01221"
         style="font-size:225.6577301px;font-style:normal;font-variant:normal;font-weight:normal;font-stretch:normal;fill:#000000;fill-opacity:1;stroke:none;stroke-width:1px;stroke-linecap:butt;stroke-linejoin:miter;stroke-opacity:1;filter:url(#filter4966);font-family:Gemelli;-inkscape-font-specification:Gemelli"
         xml:space="preserve"><tspan
           y="980.57336"
           x="537.01221"
           id="tspan2946"
           sodipodi:role="line">2</tspan></text>
    </g>
    <path
       d="M 239.24503,45.070949 C 238.62103,45.070584 237.99063,45.107346 237.35465,45.189778 C 230.266,46.108717 225.10181,52.146789 225.10798,59.081631 C 224.50633,59.084142 223.89936,59.121051 223.28668,59.200476 C 215.58692,60.198613 210.15072,67.232505 211.15307,74.899954 C 212.15542,82.567386 219.21696,87.982319 226.91673,86.984158 C 228.25825,86.810258 229.52805,86.445093 230.71005,85.933372 L 225.1017,97.11064 L 253.23762,97.11064 L 247.62928,85.933372 C 249.88856,86.915159 252.43188,87.323913 255.05265,86.984158 C 262.75242,85.986013 268.18861,78.952137 267.18627,71.284689 L 266.60846,68.732749 C 264.67132,62.839047 259.29668,59.051053 253.23135,59.081631 C 253.23081,58.483765 253.19786,57.882567 253.1183,57.274007 L 252.54051,54.722051 C 250.61201,48.854653 245.27709,45.074419 239.24503,45.070949 z M 239.38576,60.094606 C 239.38488,66.768501 239.22014,72.161096 239.01805,72.13163 C 238.81598,72.102157 238.65269,66.661732 238.65357,59.98782 C 238.65447,53.313893 238.81921,47.921315 239.02128,47.950788 C 239.21591,47.979165 239.37482,52.97508 239.38524,59.393253 M 223.6377,73.368148 C 225.36417,79.814868 226.60075,85.066359 226.39793,85.090185 C 226.1951,85.114036 224.62928,79.901241 222.90281,73.454496 C 221.17634,67.007768 219.93976,61.756293 220.14258,61.732458 C 220.33793,61.709494 221.78446,66.494048 223.45568,72.690832 M 254.75882,73.637018 C 253.03062,80.083307 251.47579,85.249499 251.28823,85.168741 C 251.10065,85.087967 252.35101,79.790652 254.07921,73.344379 C 255.8074,66.898114 257.36223,61.731898 257.54979,61.812672 C 257.73044,61.890455 256.5909,66.757271 254.93984,72.959458"
       style="fill:#000000;display:inline"
       id="path2962" />
    <path
       id="path2964"
       style="fill:#000000;display:inline"
       d="M 239.24503,117.11064 C 238.62103,117.11027 237.99063,117.14704 237.35465,117.22947 C 230.266,118.14841 225.10181,124.18648 225.10798,131.12132 C 224.50633,131.12383 223.89936,131.16074 223.28668,131.24017 C 215.58692,132.2383 210.15072,139.2722 211.15307,146.93964 C 212.15542,154.60708 219.21696,160.02201 226.91673,159.02385 C 228.25825,158.84995 229.52805,158.48478 230.71005,157.97306 L 225.1017,169.15033 L 253.23762,169.15033 L 247.62928,157.97306 C 249.88856,158.95485 252.43188,159.3636 255.05265,159.02385 C 262.75242,158.0257 268.18861,150.99183 267.18627,143.32438 L 266.60846,140.77244 C 264.67132,134.87874 259.29668,131.09074 253.23135,131.12132 C 253.23081,130.52346 253.19786,129.92226 253.1183,129.3137 L 252.54051,126.76174 C 250.61201,120.89434 245.27709,117.11411 239.24503,117.11064 z M 239.38576,132.1343 C 239.38488,138.80819 239.22014,144.20079 239.01805,144.17132 C 238.81598,144.14185 238.65269,138.70142 238.65357,132.02751 C 238.65447,125.35358 238.81921,119.961 239.02128,119.99048 C 239.21591,120.01885 239.37482,125.01477 239.38524,131.43294 M 223.6377,145.40784 C 225.36417,151.85456 226.60075,157.10605 226.39793,157.12988 C 226.1951,157.15373 224.62928,151.94093 222.90281,145.49419 C 221.17634,139.04746 219.93976,133.79598 220.14258,133.77215 C 220.33793,133.74918 221.78446,138.53374 223.45568,144.73052 M 254.75882,145.67671 C 253.03062,152.123 251.47579,157.28919 251.28823,157.20843 C 251.10065,157.12766 252.35101,151.83034 254.07921,145.38407 C 255.8074,138.9378 257.36223,133.77159 257.54979,133.85236 C 257.73044,133.93015 256.5909,138.79696 254.93984,144.99915" />
    <g
       id="g2988">
      <rect
         transform="matrix(0.1986935,0,0,0.1986935,332.65616,7.72353)"
         rx="60.60915"
         ry="63.63961"
         y="26.047195"
         x="24.243658"
         height="1006.1119"
         width="709.12708"
         id="rect2970"
         style="opacity:0.91666667;fill:#000000;filter:url(#filter3254)" />
      <rect
         style="fill:#ffffff"
         id="rect2972"
         width="140.89894"
         height="199.9079"
         x="334.66327"
         y="9.2861452"
         ry="12.644777"
         rx="12.042645" />
      <text
         xml:space="preserve"
         style="font-size:225.6577301px;font-style:normal;font-variant:normal;font-weight:normal;font-stretch:normal;fill:#000000;fill-opacity:1;stroke:none;stroke-width:1px;stroke-linecap:butt;stroke-linejoin:miter;stroke-opacity:1;filter:url(#filter4970);font-family:Gemelli;-inkscape-font-specification:Gemelli"
         x="47.257381"
         y="188.40356"
         id="text2974"
         transform="matrix(0.2033525,0,0,0.1941412,332.65616,7.72353)"><tspan
           sodipodi:role="line"
           id="tspan2976"
           x="47.257381"
           y="188.40356">3</tspan></text>
      <text
         transform="matrix(0.2033525,0,0,0.1941412,332.65616,7.72353)"
         id="text2978"
         y="980.57336"
         x="537.01221"
         style="font-size:225.6577301px;font-style:normal;font-variant:normal;font-weight:normal;font-stretch:normal;fill:#000000;fill-opacity:1;stroke:none;stroke-width:1px;stroke-linecap:butt;stroke-linejoin:miter;stroke-opacity:1;filter:url(#filter4966);font-family:Gemelli;-inkscape-font-specification:Gemelli"
         xml:space="preserve"><tspan
           y="980.57336"
           x="537.01221"
           id="tspan2980"
           sodipodi:role="line">3</tspan></text>
    </g>
    <path
       d="M 402.72226,35.110639 C 402.28678,35.110381 401.84683,35.136043 401.40298,35.19357 C 396.45587,35.834891 392.85182,40.048815 392.85612,44.888588 C 392.43623,44.890339 392.01263,44.9161 391.58505,44.971533 C 386.21145,45.668121 382.41756,50.577027 383.11709,55.928075 C 383.81663,61.279125 388.74482,65.058163 394.11843,64.361554 C 395.05467,64.240191 395.94086,63.985342 396.76576,63.628216 L 392.85174,71.428749 L 412.48759,71.428749 L 408.57357,63.628216 C 410.1503,64.313401 411.92527,64.598664 413.75428,64.361554 C 419.12789,63.664953 422.92177,58.756068 422.22224,53.405012 L 421.819,51.624032 C 420.46708,47.510863 416.71616,44.867247 412.48321,44.888588 C 412.48283,44.471346 412.45984,44.051773 412.40431,43.627063 L 412.00108,41.84607 C 410.65519,37.751255 406.93199,35.113062 402.72226,35.110639 z M 402.82048,45.59554 C 402.81986,50.253197 402.70489,54.016652 402.56386,53.996085 C 402.42283,53.975518 402.30887,50.178683 402.30949,45.521012 C 402.31012,40.863326 402.42509,37.099885 402.56611,37.120458 C 402.70194,37.140257 402.81284,40.626872 402.82011,45.106065 M 391.83002,54.859043 C 393.03491,59.35816 393.89791,63.023136 393.75637,63.039767 C 393.61481,63.056412 392.52204,59.418437 391.31715,54.919306 C 390.11226,50.420181 389.24926,46.755213 389.39081,46.738582 C 389.52714,46.722552 390.53666,50.061661 391.70299,54.386347 M 413.54922,55.046685 C 412.34312,59.545503 411.25802,63.150948 411.12712,63.094587 C 410.99621,63.038218 411.86883,59.341259 413.07493,54.842455 C 414.28102,50.343651 415.36612,46.738191 415.49702,46.79456 C 415.62309,46.84885 414.82782,50.245359 413.67555,54.573822"
       style="fill:#000000;display:inline"
       id="path2996" />
    <path
       id="path2998"
       style="fill:#000000;display:inline"
       d="M 402.72226,87.228751 C 402.28678,87.228493 401.84683,87.254154 401.40298,87.311682 C 396.45587,87.953003 392.85182,92.16693 392.85612,97.0067 C 392.43623,97.00845 392.01263,97.03421 391.58505,97.08964 C 386.21145,97.78623 382.41756,102.69514 383.11709,108.04619 C 383.81663,113.39723 388.74482,117.17627 394.11843,116.47966 C 395.05467,116.3583 395.94086,116.10345 396.76576,115.74633 L 392.85174,123.54686 L 412.48759,123.54686 L 408.57357,115.74633 C 410.1503,116.43151 411.92527,116.71677 413.75428,116.47966 C 419.12789,115.78306 422.92177,110.87418 422.22224,105.52312 L 421.819,103.74214 C 420.46708,99.62898 416.71616,96.98536 412.48321,97.0067 C 412.48283,96.58946 412.45984,96.16989 412.40431,95.74518 L 412.00108,93.96418 C 410.65519,89.869367 406.93199,87.231173 402.72226,87.228751 z M 402.82048,97.71365 C 402.81986,102.37131 402.70489,106.13476 402.56386,106.11419 C 402.42283,106.09363 402.30887,102.29679 402.30949,97.63912 C 402.31012,92.98144 402.42509,89.217996 402.56611,89.23857 C 402.70194,89.258369 402.81284,92.74498 402.82011,97.22418 M 391.83002,106.97715 C 393.03491,111.47627 393.89791,115.14125 393.75637,115.15788 C 393.61481,115.17452 392.52204,111.53655 391.31715,107.03742 C 390.11226,102.53829 389.24926,98.87333 389.39081,98.85669 C 389.52714,98.84066 390.53666,102.17977 391.70299,106.50446 M 413.54922,107.16479 C 412.34312,111.66361 411.25802,115.26906 411.12712,115.2127 C 410.99621,115.15633 411.86883,111.45937 413.07493,106.96056 C 414.28102,102.46176 415.36612,98.8563 415.49702,98.91267 C 415.62309,98.96696 414.82782,102.36347 413.67555,106.69193" />
    <path
       d="M 402.72226,139.34687 C 402.28678,139.34661 401.84683,139.37227 401.40298,139.4298 C 396.45587,140.07112 392.85182,144.28504 392.85612,149.12481 C 392.43623,149.12656 392.01263,149.15232 391.58505,149.20775 C 386.21145,149.90434 382.41756,154.81325 383.11709,160.1643 C 383.81663,165.51534 388.74482,169.29438 394.11843,168.59777 C 395.05467,168.47641 395.94086,168.22156 396.76576,167.86444 L 392.85174,175.66497 L 412.48759,175.66497 L 408.57357,167.86444 C 410.1503,168.54962 411.92527,168.83488 413.75428,168.59777 C 419.12789,167.90117 422.92177,162.99229 422.22224,157.64123 L 421.819,155.86025 C 420.46708,151.74708 416.71616,149.10347 412.48321,149.12481 C 412.48283,148.70757 412.45984,148.28799 412.40431,147.86328 L 412.00108,146.08229 C 410.65519,141.98749 406.93199,139.34929 402.72226,139.34687 z M 402.82048,149.83176 C 402.81986,154.48942 402.70489,158.25287 402.56386,158.2323 C 402.42283,158.21174 402.30887,154.4149 402.30949,149.75723 C 402.31012,145.09956 402.42509,141.33611 402.56611,141.35669 C 402.70194,141.37649 402.81284,144.8631 402.82011,149.34229 M 391.83002,159.09526 C 393.03491,163.59438 393.89791,167.25936 393.75637,167.27599 C 393.61481,167.29263 392.52204,163.65466 391.31715,159.15553 C 390.11226,154.6564 389.24926,150.99143 389.39081,150.9748 C 389.52714,150.95877 390.53666,154.29788 391.70299,158.62257 M 413.54922,159.2829 C 412.34312,163.78172 411.25802,167.38717 411.12712,167.33081 C 410.99621,167.27444 411.86883,163.57748 413.07493,159.07867 C 414.28102,154.57987 415.36612,150.97441 415.49702,151.03078 C 415.62309,151.08507 414.82782,154.48158 413.67555,158.81004"
       style="fill:#000000;display:inline"
       id="path3000" />
    <g
       id="g3022">
      <rect
         transform="matrix(0.1986935,0,0,0.1986935,493.65616,7.72353)"
         rx="60.60915"
         ry="63.63961"
         y="26.047195"
         x="24.243658"
         height="1006.1119"
         width="709.12708"
         id="rect3004"
         style="opacity:0.91666667;fill:#000000;filter:url(#filter3254)" />
      <rect
         style="fill:#ffffff"
         id="rect3006"
         width="140.89894"
         height="199.9079"
         x="495.66327"
         y="9.2861452"
         ry="12.644777"
         rx="12.042645" />
      <text
         xml:space="preserve"
         style="font-size:225.6577301px;font-style:normal;font-variant:normal;font-weight:normal;font-stretch:normal;fill:#000000;fill-opacity:1;stroke:none;stroke-width:1px;stroke-linecap:butt;stroke-linejoin:miter;stroke-opacity:1;filter:url(#filter4970);font-family:Gemelli;-inkscape-font-specification:Gemelli"
         x="47.257381"
         y="188.40356"
         id="text3008"
         transform="matrix(0.2033525,0,0,0.1941412,493.65616,7.72353)"><tspan
           sodipodi:role="line"
           id="tspan3010"
           x="47.257381"
           y="188.40356">4</tspan></text>
      <text
         transform="matrix(0.2033525,0,0,0.1941412,493.65616,7.72353)"
         id="text3012"
         y="980.57336"
         x="537.01221"
         style="font-size:225.6577301px;font-style:normal;font-variant:normal;font-weight:normal;font-stretch:normal;fill:#000000;fill-opacity:1;stroke:none;stroke-width:1px;stroke-linecap:butt;stroke-linejoin:miter;stroke-opacity:1;filter:url(#filter4966);font-family:Gemelli;-inkscape-font-specification:Gemelli"
         xml:space="preserve"><tspan
           y="980.57336"
           x="537.01221"
           id="tspan3014"
           sodipodi:role="line">4</tspan></text>
    </g>
    <path
       id="path3030"
       style="fill:#000000;display:inline"
       d="M 535.72226,54.110639 C 535.28678,54.110381 534.84683,54.136043 534.40298,54.19357 C 529.45587,54.834891 525.85182,59.048815 525.85612,63.888588 C 525.43623,63.890339 525.01263,63.9161 524.58505,63.971533 C 519.21145,64.668121 515.41756,69.577027 516.11709,74.928075 C 516.81663,80.279125 521.74482,84.058163 527.11843,83.361554 C 528.05467,83.240191 528.94086,82.985342 529.76576,82.628216 L 525.85174,90.428749 L 545.48759,90.428749 L 541.57357,82.628216 C 543.1503,83.313401 544.92527,83.598664 546.75428,83.361554 C 552.12789,82.664953 555.92177,77.756068 555.22224,72.405012 L 554.819,70.624032 C 553.46708,66.510863 549.71616,63.867247 545.48321,63.888588 C 545.48283,63.471346 545.45984,63.051773 545.40431,62.627063 L 545.00108,60.84607 C 543.65519,56.751255 539.93199,54.113062 535.72226,54.110639 z M 535.82048,64.59554 C 535.81986,69.253197 535.70489,73.016652 535.56386,72.996085 C 535.42283,72.975518 535.30887,69.178683 535.30949,64.521012 C 535.31012,59.863326 535.42509,56.099885 535.56611,56.120458 C 535.70194,56.140257 535.81284,59.626872 535.82011,64.106065 M 524.83002,73.859043 C 526.03491,78.35816 526.89791,82.023136 526.75637,82.039767 C 526.61481,82.056412 525.52204,78.418437 524.31715,73.919306 C 523.11226,69.420181 522.24926,65.755213 522.39081,65.738582 C 522.52714,65.722552 523.53666,69.061661 524.70299,73.386347 M 546.54922,74.046685 C 545.34312,78.545503 544.25802,82.150948 544.12712,82.094587 C 543.99621,82.038218 544.86883,78.341259 546.07493,73.842455 C 547.28102,69.343651 548.36612,65.738191 548.49702,65.79456 C 548.62309,65.84885 547.82782,69.245359 546.67555,73.573822" />
    <path
       d="M 589.99362,54.110639 C 589.55814,54.110381 589.11819,54.136043 588.67434,54.19357 C 583.72723,54.834891 580.12318,59.048815 580.12748,63.888588 C 579.70759,63.890339 579.28399,63.9161 578.85641,63.971533 C 573.48281,64.668121 569.68892,69.577027 570.38845,74.928075 C 571.08799,80.279125 576.01618,84.058163 581.38979,83.361554 C 582.32603,83.240191 583.21222,82.985342 584.03712,82.628216 L 580.1231,90.428749 L 599.75895,90.428749 L 595.84493,82.628216 C 597.42166,83.313401 599.19663,83.598664 601.02564,83.361554 C 606.39925,82.664953 610.19313,77.756068 609.4936,72.405012 L 609.09036,70.624032 C 607.73844,66.510863 603.98752,63.867247 599.75457,63.888588 C 599.75419,63.471346 599.7312,63.051773 599.67567,62.627063 L 599.27244,60.84607 C 597.92655,56.751255 594.20335,54.113062 589.99362,54.110639 z M 590.09184,64.59554 C 590.09122,69.253197 589.97625,73.016652 589.83522,72.996085 C 589.69419,72.975518 589.58023,69.178683 589.58085,64.521012 C 589.58148,59.863326 589.69645,56.099885 589.83747,56.120458 C 589.9733,56.140257 590.0842,59.626872 590.09147,64.106065 M 579.10138,73.859043 C 580.30627,78.35816 581.16927,82.023136 581.02773,82.039767 C 580.88617,82.056412 579.7934,78.418437 578.58851,73.919306 C 577.38362,69.420181 576.52062,65.755213 576.66217,65.738582 C 576.7985,65.722552 577.80802,69.061661 578.97435,73.386347 M 600.82058,74.046685 C 599.61448,78.545503 598.52938,82.150948 598.39848,82.094587 C 598.26757,82.038218 599.14019,78.341259 600.34629,73.842455 C 601.55238,69.343651 602.63748,65.738191 602.76838,65.79456 C 602.89445,65.84885 602.09918,69.245359 600.94691,73.573822"
       style="fill:#000000;display:inline"
       id="path3032" />
    <path
       id="path3034"
       style="fill:#000000;display:inline"
       d="M 535.72226,120.42875 C 535.28678,120.42849 534.84683,120.45415 534.40298,120.51168 C 529.45587,121.153 525.85182,125.36692 525.85612,130.2067 C 525.43623,130.20845 525.01263,130.23421 524.58505,130.28964 C 519.21145,130.98623 515.41756,135.89514 516.11709,141.24619 C 516.81663,146.59723 521.74482,150.37627 527.11843,149.67966 C 528.05467,149.5583 528.94086,149.30345 529.76576,148.94633 L 525.85174,156.74686 L 545.48759,156.74686 L 541.57357,148.94633 C 543.1503,149.63151 544.92527,149.91677 546.75428,149.67966 C 552.12789,148.98306 555.92177,144.07418 555.22224,138.72312 L 554.819,136.94214 C 553.46708,132.82897 549.71616,130.18536 545.48321,130.2067 C 545.48283,129.78946 545.45984,129.36988 545.40431,128.94517 L 545.00108,127.16418 C 543.65519,123.06937 539.93199,120.43117 535.72226,120.42875 z M 535.82048,130.91365 C 535.81986,135.57131 535.70489,139.33476 535.56386,139.31419 C 535.42283,139.29363 535.30887,135.49679 535.30949,130.83912 C 535.31012,126.18144 535.42509,122.418 535.56611,122.43857 C 535.70194,122.45837 535.81284,125.94498 535.82011,130.42418 M 524.83002,140.17715 C 526.03491,144.67627 526.89791,148.34125 526.75637,148.35788 C 526.61481,148.37452 525.52204,144.73655 524.31715,140.23742 C 523.11226,135.73829 522.24926,132.07332 522.39081,132.05669 C 522.52714,132.04066 523.53666,135.37977 524.70299,139.70446 M 546.54922,140.36479 C 545.34312,144.86361 544.25802,148.46906 544.12712,148.4127 C 543.99621,148.35633 544.86883,144.65937 546.07493,140.16057 C 547.28102,135.66176 548.36612,132.0563 548.49702,132.11267 C 548.62309,132.16696 547.82782,135.56347 546.67555,139.89193" />
    <path
       d="M 589.99362,120.42875 C 589.55814,120.42849 589.11819,120.45415 588.67434,120.51168 C 583.72723,121.153 580.12318,125.36692 580.12748,130.2067 C 579.70759,130.20845 579.28399,130.23421 578.85641,130.28964 C 573.48281,130.98623 569.68892,135.89514 570.38845,141.24619 C 571.08799,146.59723 576.01618,150.37627 581.38979,149.67966 C 582.32603,149.5583 583.21222,149.30345 584.03712,148.94633 L 580.1231,156.74686 L 599.75895,156.74686 L 595.84493,148.94633 C 597.42166,149.63151 599.19663,149.91677 601.02564,149.67966 C 606.39925,148.98306 610.19313,144.07418 609.4936,138.72312 L 609.09036,136.94214 C 607.73844,132.82897 603.98752,130.18536 599.75457,130.2067 C 599.75419,129.78946 599.7312,129.36988 599.67567,128.94517 L 599.27244,127.16418 C 597.92655,123.06937 594.20335,120.43117 589.99362,120.42875 z M 590.09184,130.91365 C 590.09122,135.57131 589.97625,139.33476 589.83522,139.31419 C 589.69419,139.29363 589.58023,135.49679 589.58085,130.83912 C 589.58148,126.18144 589.69645,122.418 589.83747,122.43857 C 589.9733,122.45837 590.0842,125.94498 590.09147,130.42418 M 579.10138,140.17715 C 580.30627,144.67627 581.16927,148.34125 581.02773,148.35788 C 580.88617,148.37452 579.7934,144.73655 578.58851,140.23742 C 577.38362,135.73829 576.52062,132.07332 576.66217,132.05669 C 576.7985,132.04066 577.80802,135.37977 578.97435,139.70446 M 600.82058,140.36479 C 599.61448,144.86361 598.52938,148.46906 598.39848,148.4127 C 598.26757,148.35633 599.14019,144.65937 600.34629,140.16057 C 601.55238,135.66176 602.63748,132.0563 602.76838,132.11267 C 602.89445,132.16696 602.09918,135.56347 600.94691,139.89193"
       style="fill:#000000;display:inline"
       id="path3036" />
    <g
       transform="matrix(0.1986935,0,0,0.1986935,654.65616,9.72353)"
       inkscape:label="Layer 1"
       id="g3052"
       style="display:inline">
      <rect
         rx="60.60915"
         ry="63.63961"
         y="26.047195"
         x="24.243658"
         height="1006.1119"
         width="709.12708"
         id="rect3054"
         style="opacity:0.91666667;fill:#000000;filter:url(#filter3254)" />
      <rect
         style="fill:#ffffff"
         id="rect3056"
         width="709.12708"
         height="1006.1119"
         x="10.101523"
         y="7.8644519"
         ry="63.63961"
         rx="60.60915" />
      <text
         xml:space="preserve"
         style="font-size:225.6577301px;font-style:normal;font-variant:normal;font-weight:normal;font-stretch:normal;fill:#000000;fill-opacity:1;stroke:none;stroke-width:1px;stroke-linecap:butt;stroke-linejoin:miter;stroke-opacity:1;filter:url(#filter4970);font-family:Gemelli;-inkscape-font-specification:Gemelli"
         x="47.257381"
         y="188.40356"
         id="text3058"
         transform="scale(1.0234483,0.9770889)"><tspan
           sodipodi:role="line"
           id="tspan3060"
           x="47.257381"
           y="188.40356">5</tspan></text>
      <text
         transform="scale(1.0234483,0.9770889)"
         id="text3062"
         y="980.57336"
         x="537.01221"
         style="font-size:225.6577301px;font-style:normal;font-variant:normal;font-weight:normal;font-stretch:normal;fill:#000000;fill-opacity:1;stroke:none;stroke-width:1px;stroke-linecap:butt;stroke-linejoin:miter;stroke-opacity:1;filter:url(#filter4966);font-family:Gemelli;-inkscape-font-specification:Gemelli"
         xml:space="preserve"><tspan
           y="980.57336"
           x="537.01221"
           id="tspan3064"
           sodipodi:role="line">5</tspan></text>
    </g>
    <path
       d="M 695.72226,47.42875 C 695.28678,47.42849 694.84683,47.45415 694.40298,47.51168 C 689.45587,48.153 685.85182,52.36692 685.85612,57.2067 C 685.43623,57.20845 685.01263,57.23421 684.58505,57.28964 C 679.21145,57.98623 675.41756,62.89514 676.11709,68.24619 C 676.81663,73.59723 681.74482,77.37627 687.11843,76.67966 C 688.05467,76.5583 688.94086,76.30345 689.76576,75.94633 L 685.85174,83.74686 L 705.48759,83.74686 L 701.57357,75.94633 C 703.1503,76.63151 704.92527,76.91677 706.75428,76.67966 C 712.12789,75.98306 715.92177,71.07418 715.22224,65.72312 L 714.819,63.94214 C 713.46708,59.82897 709.71616,57.18536 705.48321,57.2067 C 705.48283,56.78946 705.45984,56.36988 705.40431,55.94517 L 705.00108,54.16418 C 703.65519,50.06937 699.93199,47.43117 695.72226,47.42875 z M 695.82048,57.91365 C 695.81986,62.57131 695.70489,66.33476 695.56386,66.31419 C 695.42283,66.29363 695.30887,62.49679 695.30949,57.83912 C 695.31012,53.18144 695.42509,49.418 695.56611,49.43857 C 695.70194,49.45837 695.81284,52.94498 695.82011,57.42418 M 684.83002,67.17715 C 686.03491,71.67627 686.89791,75.34125 686.75637,75.35788 C 686.61481,75.37452 685.52204,71.73655 684.31715,67.23742 C 683.11226,62.73829 682.24926,59.07332 682.39081,59.05669 C 682.52714,59.04066 683.53666,62.37977 684.70299,66.70446 M 706.54922,67.36479 C 705.34312,71.86361 704.25802,75.46906 704.12712,75.4127 C 703.99621,75.35633 704.86883,71.65937 706.07493,67.16057 C 707.28102,62.66176 708.36612,59.0563 708.49702,59.11267 C 708.62309,59.16696 707.82782,62.56347 706.67555,66.89193"
       style="fill:#000000;display:inline"
       id="path3066" />
    <path
       id="path3068"
       style="fill:#000000;display:inline"
       d="M 749.99362,47.42875 C 749.55814,47.42849 749.11819,47.45415 748.67434,47.51168 C 743.72723,48.153 740.12318,52.36692 740.12748,57.2067 C 739.70759,57.20845 739.28399,57.23421 738.85641,57.28964 C 733.48281,57.98623 729.68892,62.89514 730.38845,68.24619 C 731.08799,73.59723 736.01618,77.37627 741.38979,76.67966 C 742.32603,76.5583 743.21222,76.30345 744.03712,75.94633 L 740.1231,83.74686 L 759.75895,83.74686 L 755.84493,75.94633 C 757.42166,76.63151 759.19663,76.91677 761.02564,76.67966 C 766.39925,75.98306 770.19313,71.07418 769.4936,65.72312 L 769.09036,63.94214 C 767.73844,59.82897 763.98752,57.18536 759.75457,57.2067 C 759.75419,56.78946 759.7312,56.36988 759.67567,55.94517 L 759.27244,54.16418 C 757.92655,50.06937 754.20335,47.43117 749.99362,47.42875 z M 750.09184,57.91365 C 750.09122,62.57131 749.97625,66.33476 749.83522,66.31419 C 749.69419,66.29363 749.58023,62.49679 749.58085,57.83912 C 749.58148,53.18144 749.69645,49.418 749.83747,49.43857 C 749.9733,49.45837 750.0842,52.94498 750.09147,57.42418 M 739.10138,67.17715 C 740.30627,71.67627 741.16927,75.34125 741.02773,75.35788 C 740.88617,75.37452 739.7934,71.73655 738.58851,67.23742 C 737.38362,62.73829 736.52062,59.07332 736.66217,59.05669 C 736.7985,59.04066 737.80802,62.37977 738.97435,66.70446 M 760.82058,67.36479 C 759.61448,71.86361 758.52938,75.46906 758.39848,75.4127 C 758.26757,75.35633 759.14019,71.65937 760.34629,67.16057 C 761.55238,62.66176 762.63748,59.0563 762.76838,59.11267 C 762.89445,59.16696 762.09918,62.56347 760.94691,66.89193" />
    <path
       id="path3070"
       style="fill:#000000;display:inline"
       d="M 696.72226,138.42875 C 696.28678,138.42849 695.84683,138.45415 695.40298,138.51168 C 690.45587,139.153 686.85182,143.36692 686.85612,148.2067 C 686.43623,148.20845 686.01263,148.23421 685.58505,148.28964 C 680.21145,148.98623 676.41756,153.89514 677.11709,159.24619 C 677.81663,164.59723 682.74482,168.37627 688.11843,167.67966 C 689.05467,167.5583 689.94086,167.30345 690.76576,166.94633 L 686.85174,174.74686 L 706.48759,174.74686 L 702.57357,166.94633 C 704.1503,167.63151 705.92527,167.91677 707.75428,167.67966 C 713.12789,166.98306 716.92177,162.07418 716.22224,156.72312 L 715.819,154.94214 C 714.46708,150.82897 710.71616,148.18536 706.48321,148.2067 C 706.48283,147.78946 706.45984,147.36988 706.40431,146.94517 L 706.00108,145.16418 C 704.65519,141.06937 700.93199,138.43117 696.72226,138.42875 z M 696.82048,148.91365 C 696.81986,153.57131 696.70489,157.33476 696.56386,157.31419 C 696.42283,157.29363 696.30887,153.49679 696.30949,148.83912 C 696.31012,144.18144 696.42509,140.418 696.56611,140.43857 C 696.70194,140.45837 696.81284,143.94498 696.82011,148.42418 M 685.83002,158.17715 C 687.03491,162.67627 687.89791,166.34125 687.75637,166.35788 C 687.61481,166.37452 686.52204,162.73655 685.31715,158.23742 C 684.11226,153.73829 683.24926,150.07332 683.39081,150.05669 C 683.52714,150.04066 684.53666,153.37977 685.70299,157.70446 M 707.54922,158.36479 C 706.34312,162.86361 705.25802,166.46906 705.12712,166.4127 C 704.99621,166.35633 705.86883,162.65937 707.07493,158.16057 C 708.28102,153.66176 709.36612,150.0563 709.49702,150.11267 C 709.62309,150.16696 708.82782,153.56347 707.67555,157.89193" />
    <path
       d="M 750.99362,138.42875 C 750.55814,138.42849 750.11819,138.45415 749.67434,138.51168 C 744.72723,139.153 741.12318,143.36692 741.12748,148.2067 C 740.70759,148.20845 740.28399,148.23421 739.85641,148.28964 C 734.48281,148.98623 730.68892,153.89514 731.38845,159.24619 C 732.08799,164.59723 737.01618,168.37627 742.38979,167.67966 C 743.32603,167.5583 744.21222,167.30345 745.03712,166.94633 L 741.1231,174.74686 L 760.75895,174.74686 L 756.84493,166.94633 C 758.42166,167.63151 760.19663,167.91677 762.02564,167.67966 C 767.39925,166.98306 771.19313,162.07418 770.4936,156.72312 L 770.09036,154.94214 C 768.73844,150.82897 764.98752,148.18536 760.75457,148.2067 C 760.75419,147.78946 760.7312,147.36988 760.67567,146.94517 L 760.27244,145.16418 C 758.92655,141.06937 755.20335,138.43117 750.99362,138.42875 z M 751.09184,148.91365 C 751.09122,153.57131 750.97625,157.33476 750.83522,157.31419 C 750.69419,157.29363 750.58023,153.49679 750.58085,148.83912 C 750.58148,144.18144 750.69645,140.418 750.83747,140.43857 C 750.9733,140.45837 751.0842,143.94498 751.09147,148.42418 M 740.10138,158.17715 C 741.30627,162.67627 742.16927,166.34125 742.02773,166.35788 C 741.88617,166.37452 740.7934,162.73655 739.58851,158.23742 C 738.38362,153.73829 737.52062,150.07332 737.66217,150.05669 C 737.7985,150.04066 738.80802,153.37977 739.97435,157.70446 M 761.82058,158.36479 C 760.61448,162.86361 759.52938,166.46906 759.39848,166.4127 C 759.26757,166.35633 760.14019,162.65937 761.34629,158.16057 C 762.55238,153.66176 763.63748,150.0563 763.76838,150.11267 C 763.89445,150.16696 763.09918,153.56347 761.94691,157.89193"
       style="fill:#000000;display:inline"
       id="path3072" />
    <path
       id="path3074"
       style="fill:#000000;display:inline"
       d="M 720.72226,94.42875 C 720.28678,94.42849 719.84683,94.45415 719.40298,94.51168 C 714.45587,95.153 710.85182,99.36692 710.85612,104.2067 C 710.43623,104.20845 710.01263,104.23421 709.58505,104.28964 C 704.21145,104.98623 700.41756,109.89514 701.11709,115.24619 C 701.81663,120.59723 706.74482,124.37627 712.11843,123.67966 C 713.05467,123.5583 713.94086,123.30345 714.76576,122.94633 L 710.85174,130.74686 L 730.48759,130.74686 L 726.57357,122.94633 C 728.1503,123.63151 729.92527,123.91677 731.75428,123.67966 C 737.12789,122.98306 740.92177,118.07418 740.22224,112.72312 L 739.819,110.94214 C 738.46708,106.82897 734.71616,104.18536 730.48321,104.2067 C 730.48283,103.78946 730.45984,103.36988 730.40431,102.94517 L 730.00108,101.16418 C 728.65519,97.06937 724.93199,94.43117 720.72226,94.42875 z M 720.82048,104.91365 C 720.81986,109.57131 720.70489,113.33476 720.56386,113.31419 C 720.42283,113.29363 720.30887,109.49679 720.30949,104.83912 C 720.31012,100.18144 720.42509,96.418 720.56611,96.43857 C 720.70194,96.45837 720.81284,99.94498 720.82011,104.42418 M 709.83002,114.17715 C 711.03491,118.67627 711.89791,122.34125 711.75637,122.35788 C 711.61481,122.37452 710.52204,118.73655 709.31715,114.23742 C 708.11226,109.73829 707.24926,106.07332 707.39081,106.05669 C 707.52714,106.04066 708.53666,109.37977 709.70299,113.70446 M 731.54922,114.36479 C 730.34312,118.86361 729.25802,122.46906 729.12712,122.4127 C 728.99621,122.35633 729.86883,118.65937 731.07493,114.16057 C 732.28102,109.66176 733.36612,106.0563 733.49702,106.11267 C 733.62309,106.16696 732.82782,109.56347 731.67555,113.89193" />
    <g
       transform="matrix(0.1986935,0,0,0.1986935,1.65616,243.72353)"
       inkscape:label="Layer 1"
       id="g3076"
       style="display:inline">
      <rect
         rx="60.60915"
         ry="63.63961"
         y="26.047195"
         x="24.243658"
         height="1006.1119"
         width="709.12708"
         id="rect3078"
         style="opacity:0.91666667;fill:#000000;filter:url(#filter3254)" />
      <rect
         style="fill:#ffffff"
         id="rect3080"
         width="709.12708"
         height="1006.1119"
         x="10.101523"
         y="7.8644519"
         ry="63.63961"
         rx="60.60915" />
      <text
         xml:space="preserve"
         style="font-size:225.6577301px;font-style:normal;font-variant:normal;font-weight:normal;font-stretch:normal;fill:#000000;fill-opacity:1;stroke:none;stroke-width:1px;stroke-linecap:butt;stroke-linejoin:miter;stroke-opacity:1;filter:url(#filter4970);font-family:Gemelli;-inkscape-font-specification:Gemelli"
         x="47.257381"
         y="188.40356"
         id="text3082"
         transform="scale(1.0234483,0.9770889)"><tspan
           sodipodi:role="line"
           id="tspan3084"
           x="47.257381"
           y="188.40356">6</tspan></text>
      <text
         transform="scale(1.0234483,0.9770889)"
         id="text3086"
         y="980.57336"
         x="537.01221"
         style="font-size:225.6577301px;font-style:normal;font-variant:normal;font-weight:normal;font-stretch:normal;fill:#000000;fill-opacity:1;stroke:none;stroke-width:1px;stroke-linecap:butt;stroke-linejoin:miter;stroke-opacity:1;filter:url(#filter4966);font-family:Gemelli;-inkscape-font-specification:Gemelli"
         xml:space="preserve"><tspan
           y="980.57336"
           x="537.01221"
           id="tspan3088"
           sodipodi:role="line">6</tspan></text>
    </g>
    <path
       id="path3090"
       style="fill:#000000;display:inline"
       d="M 43.72226,277.11064 C 43.28678,277.11038 42.84683,277.13604 42.40298,277.19357 C 37.45587,277.83489 33.85182,282.04881 33.85612,286.88859 C 33.43623,286.89034 33.01263,286.9161 32.58505,286.97153 C 27.21145,287.66812 23.41756,292.57703 24.11709,297.92807 C 24.81663,303.27913 29.74482,307.05816 35.11843,306.36155 C 36.05467,306.24019 36.94086,305.98534 37.76576,305.62822 L 33.85174,313.42875 L 53.48759,313.42875 L 49.57357,305.62822 C 51.1503,306.3134 52.92527,306.59866 54.75428,306.36155 C 60.12789,305.66495 63.92177,300.75607 63.22224,295.40501 L 62.819,293.62403 C 61.46708,289.51086 57.71616,286.86725 53.48321,286.88859 C 53.48283,286.47135 53.45984,286.05177 53.40431,285.62706 L 53.00108,283.84607 C 51.65519,279.75126 47.93199,277.11306 43.72226,277.11064 z M 43.82048,287.59554 C 43.81986,292.2532 43.70489,296.01665 43.56386,295.99608 C 43.42283,295.97552 43.30887,292.17868 43.30949,287.52101 C 43.31012,282.86333 43.42509,279.09988 43.56611,279.12046 C 43.70194,279.14026 43.81284,282.62687 43.82011,287.10607 M 32.83002,296.85904 C 34.03491,301.35816 34.89791,305.02314 34.75637,305.03977 C 34.61481,305.05641 33.52204,301.41844 32.31715,296.91931 C 31.11226,292.42018 30.24926,288.75521 30.39081,288.73858 C 30.52714,288.72255 31.53666,292.06166 32.70299,296.38635 M 54.54922,297.04669 C 53.34312,301.5455 52.25802,305.15095 52.12712,305.09459 C 51.99621,305.03822 52.86883,301.34126 54.07493,296.84245 C 55.28102,292.34365 56.36612,288.73819 56.49702,288.79456 C 56.62309,288.84885 55.82782,292.24536 54.67555,296.57382" />
    <path
       d="M 43.72226,328.42875 C 43.28678,328.42849 42.84683,328.45415 42.40298,328.51168 C 37.45587,329.153 33.85182,333.36693 33.85612,338.2067 C 33.43623,338.20845 33.01263,338.23421 32.58505,338.28964 C 27.21145,338.98623 23.41756,343.89514 24.11709,349.24619 C 24.81663,354.59723 29.74482,358.37627 35.11843,357.67966 C 36.05467,357.5583 36.94086,357.30345 37.76576,356.94633 L 33.85174,364.74686 L 53.48759,364.74686 L 49.57357,356.94633 C 51.1503,357.63151 52.92527,357.91677 54.75428,357.67966 C 60.12789,356.98306 63.92177,352.07418 63.22224,346.72312 L 62.819,344.94214 C 61.46708,340.82898 57.71616,338.18536 53.48321,338.2067 C 53.48283,337.78946 53.45984,337.36989 53.40431,336.94518 L 53.00108,335.16418 C 51.65519,331.06937 47.93199,328.43117 43.72226,328.42875 z M 43.82048,338.91365 C 43.81986,343.57131 43.70489,347.33476 43.56386,347.31419 C 43.42283,347.29363 43.30887,343.49679 43.30949,338.83912 C 43.31012,334.18144 43.42509,330.418 43.56611,330.43857 C 43.70194,330.45837 43.81284,333.94498 43.82011,338.42418 M 32.83002,348.17715 C 34.03491,352.67627 34.89791,356.34125 34.75637,356.35788 C 34.61481,356.37452 33.52204,352.73655 32.31715,348.23742 C 31.11226,343.73829 30.24926,340.07333 30.39081,340.05669 C 30.52714,340.04066 31.53666,343.37977 32.70299,347.70446 M 54.54922,348.36479 C 53.34312,352.86361 52.25802,356.46906 52.12712,356.4127 C 51.99621,356.35633 52.86883,352.65937 54.07493,348.16056 C 55.28102,343.66176 56.36612,340.0563 56.49702,340.11267 C 56.62309,340.16696 55.82782,343.56347 54.67555,347.89193"
       style="fill:#000000;display:inline"
       id="path3092" />
    <path
       id="path3094"
       style="fill:#000000;display:inline"
       d="M 43.72226,379.74687 C 43.28678,379.74661 42.84683,379.77227 42.40298,379.8298 C 37.45587,380.47112 33.85182,384.68504 33.85612,389.52481 C 33.43623,389.52656 33.01263,389.55232 32.58505,389.60775 C 27.21145,390.30434 23.41756,395.21325 24.11709,400.5643 C 24.81663,405.91534 29.74482,409.69438 35.11843,408.99777 C 36.05467,408.87641 36.94086,408.62156 37.76576,408.26444 L 33.85174,416.06497 L 53.48759,416.06497 L 49.57357,408.26444 C 51.1503,408.94962 52.92527,409.23488 54.75428,408.99777 C 60.12789,408.30117 63.92177,403.39229 63.22224,398.04123 L 62.819,396.26025 C 61.46708,392.14708 57.71616,389.50347 53.48321,389.52481 C 53.48283,389.10757 53.45984,388.68799 53.40431,388.26328 L 53.00108,386.48229 C 51.65519,382.38749 47.93199,379.74929 43.72226,379.74687 z M 43.82048,390.23176 C 43.81986,394.88942 43.70489,398.65287 43.56386,398.6323 C 43.42283,398.61174 43.30887,394.8149 43.30949,390.15723 C 43.31012,385.49956 43.42509,381.73611 43.56611,381.75669 C 43.70194,381.77649 43.81284,385.2631 43.82011,389.74229 M 32.83002,399.49526 C 34.03491,403.99438 34.89791,407.65936 34.75637,407.67599 C 34.61481,407.69263 33.52204,404.05466 32.31715,399.55553 C 31.11226,395.0564 30.24926,391.39143 30.39081,391.3748 C 30.52714,391.35877 31.53666,394.69788 32.70299,399.02257 M 54.54922,399.6829 C 53.34312,404.18172 52.25802,407.78717 52.12712,407.73081 C 51.99621,407.67444 52.86883,403.97748 54.07493,399.47867 C 55.28102,394.97987 56.36612,391.37441 56.49702,391.43078 C 56.62309,391.48507 55.82782,394.88158 54.67555,399.21004" />
    <path
       d="M 97.99362,277.11064 C 97.55814,277.11038 97.11819,277.13604 96.67434,277.19357 C 91.72723,277.83489 88.12318,282.04881 88.12748,286.88859 C 87.70759,286.89034 87.28399,286.9161 86.85641,286.97153 C 81.48281,287.66812 77.68892,292.57703 78.38845,297.92807 C 79.08799,303.27913 84.01618,307.05816 89.38979,306.36155 C 90.32603,306.24019 91.21222,305.98534 92.03712,305.62822 L 88.1231,313.42875 L 107.75895,313.42875 L 103.84493,305.62822 C 105.42166,306.3134 107.19663,306.59866 109.02564,306.36155 C 114.39925,305.66495 118.19313,300.75607 117.4936,295.40501 L 117.09036,293.62403 C 115.73844,289.51086 111.98752,286.86725 107.75457,286.88859 C 107.75419,286.47135 107.7312,286.05177 107.67567,285.62706 L 107.27244,283.84607 C 105.92655,279.75126 102.20335,277.11306 97.99362,277.11064 z M 98.09184,287.59554 C 98.09122,292.2532 97.97625,296.01665 97.83522,295.99608 C 97.69419,295.97552 97.58023,292.17868 97.58085,287.52101 C 97.58148,282.86333 97.69645,279.09988 97.83747,279.12046 C 97.9733,279.14026 98.0842,282.62687 98.09147,287.10607 M 87.10138,296.85904 C 88.30627,301.35816 89.16927,305.02314 89.02773,305.03977 C 88.88617,305.05641 87.7934,301.41844 86.58851,296.91931 C 85.38362,292.42018 84.52062,288.75521 84.66217,288.73858 C 84.7985,288.72255 85.80802,292.06166 86.97435,296.38635 M 108.82058,297.04669 C 107.61448,301.5455 106.52938,305.15095 106.39848,305.09459 C 106.26757,305.03822 107.14019,301.34126 108.34629,296.84245 C 109.55238,292.34365 110.63748,288.73819 110.76838,288.79456 C 110.89445,288.84885 110.09918,292.24536 108.94691,296.57382"
       style="fill:#000000;display:inline"
       id="path3096" />
    <path
       id="path3098"
       style="fill:#000000;display:inline"
       d="M 97.99362,328.42875 C 97.55814,328.42849 97.11819,328.45415 96.67434,328.51168 C 91.72723,329.153 88.12318,333.36693 88.12748,338.2067 C 87.70759,338.20845 87.28399,338.23421 86.85641,338.28964 C 81.48281,338.98623 77.68892,343.89514 78.38845,349.24619 C 79.08799,354.59723 84.01618,358.37627 89.38979,357.67966 C 90.32603,357.5583 91.21222,357.30345 92.03712,356.94633 L 88.1231,364.74686 L 107.75895,364.74686 L 103.84493,356.94633 C 105.42166,357.63151 107.19663,357.91677 109.02564,357.67966 C 114.39925,356.98306 118.19313,352.07418 117.4936,346.72312 L 117.09036,344.94214 C 115.73844,340.82898 111.98752,338.18536 107.75457,338.2067 C 107.75419,337.78946 107.7312,337.36989 107.67567,336.94518 L 107.27244,335.16418 C 105.92655,331.06937 102.20335,328.43117 97.99362,328.42875 z M 98.09184,338.91365 C 98.09122,343.57131 97.97625,347.33476 97.83522,347.31419 C 97.69419,347.29363 97.58023,343.49679 97.58085,338.83912 C 97.58148,334.18144 97.69645,330.418 97.83747,330.43857 C 97.9733,330.45837 98.0842,333.94498 98.09147,338.42418 M 87.10138,348.17715 C 88.30627,352.67627 89.16927,356.34125 89.02773,356.35788 C 88.88617,356.37452 87.7934,352.73655 86.58851,348.23742 C 85.38362,343.73829 84.52062,340.07333 84.66217,340.05669 C 84.7985,340.04066 85.80802,343.37977 86.97435,347.70446 M 108.82058,348.36479 C 107.61448,352.86361 106.52938,356.46906 106.39848,356.4127 C 106.26757,356.35633 107.14019,352.65937 108.34629,348.16056 C 109.55238,343.66176 110.63748,340.0563 110.76838,340.11267 C 110.89445,340.16696 110.09918,343.56347 108.94691,347.89193" />
    <path
       d="M 97.99362,379.74687 C 97.55814,379.74661 97.11819,379.77227 96.67434,379.8298 C 91.72723,380.47112 88.12318,384.68504 88.12748,389.52481 C 87.70759,389.52656 87.28399,389.55232 86.85641,389.60775 C 81.48281,390.30434 77.68892,395.21325 78.38845,400.5643 C 79.08799,405.91534 84.01618,409.69438 89.38979,408.99777 C 90.32603,408.87641 91.21222,408.62156 92.03712,408.26444 L 88.1231,416.06497 L 107.75895,416.06497 L 103.84493,408.26444 C 105.42166,408.94962 107.19663,409.23488 109.02564,408.99777 C 114.39925,408.30117 118.19313,403.39229 117.4936,398.04123 L 117.09036,396.26025 C 115.73844,392.14708 111.98752,389.50347 107.75457,389.52481 C 107.75419,389.10757 107.7312,388.68799 107.67567,388.26328 L 107.27244,386.48229 C 105.92655,382.38749 102.20335,379.74929 97.99362,379.74687 z M 98.09184,390.23176 C 98.09122,394.88942 97.97625,398.65287 97.83522,398.6323 C 97.69419,398.61174 97.58023,394.8149 97.58085,390.15723 C 97.58148,385.49956 97.69645,381.73611 97.83747,381.75669 C 97.9733,381.77649 98.0842,385.2631 98.09147,389.74229 M 87.10138,399.49526 C 88.30627,403.99438 89.16927,407.65936 89.02773,407.67599 C 88.88617,407.69263 87.7934,404.05466 86.58851,399.55553 C 85.38362,395.0564 84.52062,391.39143 84.66217,391.3748 C 84.7985,391.35877 85.80802,394.69788 86.97435,399.02257 M 108.82058,399.6829 C 107.61448,404.18172 106.52938,407.78717 106.39848,407.73081 C 106.26757,407.67444 107.14019,403.97748 108.34629,399.47867 C 109.55238,394.97987 110.63748,391.37441 110.76838,391.43078 C 110.89445,391.48507 110.09918,394.88158 108.94691,399.21004"
       style="fill:#000000;display:inline"
       id="path3100" />
    <g
       transform="matrix(0.1986935,0,0,0.1986935,164.65616,241.72353)"
       inkscape:label="Layer 1"
       id="g3102"
       style="display:inline">
      <rect
         rx="60.60915"
         ry="63.63961"
         y="26.047195"
         x="24.243658"
         height="1006.1119"
         width="709.12708"
         id="rect3104"
         style="opacity:0.91666667;fill:#000000;filter:url(#filter3254)" />
      <rect
         style="fill:#ffffff"
         id="rect3106"
         width="709.12708"
         height="1006.1119"
         x="10.101523"
         y="7.8644519"
         ry="63.63961"
         rx="60.60915" />
      <text
         xml:space="preserve"
         style="font-size:225.6577301px;font-style:normal;font-variant:normal;font-weight:normal;font-stretch:normal;fill:#000000;fill-opacity:1;stroke:none;stroke-width:1px;stroke-linecap:butt;stroke-linejoin:miter;stroke-opacity:1;filter:url(#filter4970);font-family:Gemelli;-inkscape-font-specification:Gemelli"
         x="47.257381"
         y="188.40356"
         id="text3108"
         transform="scale(1.0234483,0.9770889)"><tspan
           sodipodi:role="line"
           id="tspan3110"
           x="47.257381"
           y="188.40356">7</tspan></text>
      <text
         transform="scale(1.0234483,0.9770889)"
         id="text3112"
         y="980.57336"
         x="537.01221"
         style="font-size:225.6577301px;font-style:normal;font-variant:normal;font-weight:normal;font-stretch:normal;fill:#000000;fill-opacity:1;stroke:none;stroke-width:1px;stroke-linecap:butt;stroke-linejoin:miter;stroke-opacity:1;filter:url(#filter4966);font-family:Gemelli;-inkscape-font-specification:Gemelli"
         xml:space="preserve"><tspan
           y="980.57336"
           x="537.01221"
           id="tspan3114"
           sodipodi:role="line">7</tspan></text>
    </g>
    <path
       d="M 205.828,267.47981 C 205.43442,267.47958 205.03679,267.50277 204.63565,267.55477 C 200.16451,268.13438 196.90722,271.94287 196.91111,276.317 C 196.53161,276.31858 196.14877,276.34186 195.76233,276.39196 C 190.90574,277.02153 187.47687,281.45814 188.10909,286.29434 C 188.74133,291.13056 193.19536,294.546 198.05197,293.91641 C 198.89813,293.80673 199.69905,293.5764 200.44459,293.25364 L 196.90715,300.30366 L 214.65378,300.30366 L 211.11634,293.25364 C 212.54137,293.8729 214.14556,294.13071 215.7986,293.91641 C 220.6552,293.28684 224.08406,288.85025 223.45183,284.01403 L 223.08739,282.40441 C 221.86554,278.68698 218.47551,276.29771 214.64982,276.317 C 214.64948,275.93991 214.6287,275.56069 214.57851,275.17685 L 214.21408,273.56721 C 212.99768,269.86637 209.6327,267.482 205.828,267.47981 z M 205.91677,276.95593 C 205.91621,281.16547 205.8123,284.56683 205.68484,284.54823 C 205.55738,284.52965 205.45438,281.09812 205.45494,276.88857 C 205.45551,272.67902 205.55942,269.27766 205.68687,269.29626 C 205.80963,269.31416 205.90986,272.46531 205.91643,276.51356 M 195.98373,285.32817 C 197.07269,289.39441 197.85266,292.70678 197.72474,292.72181 C 197.5968,292.73685 196.60917,289.44889 195.5202,285.38264 C 194.43124,281.31638 193.65127,278.00403 193.7792,277.989 C 193.90242,277.97451 194.81481,280.99236 195.86892,284.90096 M 215.61327,285.49776 C 214.52321,289.56373 213.54251,292.82229 213.4242,292.77135 C 213.30589,292.72041 214.09455,289.37914 215.18461,285.31317 C 216.27466,281.24722 217.25536,277.98865 217.37366,278.03959 C 217.4876,278.08866 216.76885,281.15838 215.72744,285.07039"
       style="fill:#000000;display:inline"
       id="path3116" />
    <path
       id="path3118"
       style="fill:#000000;display:inline"
       d="M 205.828,325.30366 C 205.43442,325.30342 205.03679,325.32662 204.63565,325.37861 C 200.16451,325.95823 196.90722,329.76672 196.91111,334.14085 C 196.53161,334.14243 196.14877,334.16571 195.76233,334.21581 C 190.90574,334.84538 187.47687,339.28199 188.10909,344.1182 C 188.74133,348.9544 193.19536,352.36985 198.05197,351.74026 C 198.89813,351.63058 199.69905,351.40025 200.44459,351.07749 L 196.90715,358.12751 L 214.65378,358.12751 L 211.11634,351.07749 C 212.54137,351.69674 214.14556,351.95456 215.7986,351.74026 C 220.6552,351.11068 224.08406,346.6741 223.45183,341.83788 L 223.08739,340.22825 C 221.86554,336.51083 218.47551,334.12156 214.64982,334.14085 C 214.64948,333.76375 214.6287,333.38455 214.57851,333.0007 L 214.21408,331.39106 C 212.99768,327.69022 209.6327,325.30585 205.828,325.30366 z M 205.91677,334.77978 C 205.91621,338.98931 205.8123,342.39067 205.68484,342.37208 C 205.55738,342.3535 205.45438,338.92196 205.45494,334.71242 C 205.45551,330.50287 205.55942,327.10152 205.68687,327.12011 C 205.80963,327.138 205.90986,330.28916 205.91643,334.3374 M 195.98373,343.15201 C 197.07269,347.21826 197.85266,350.53062 197.72474,350.54565 C 197.5968,350.56069 196.60917,347.27274 195.5202,343.20648 C 194.43124,339.14023 193.65127,335.82788 193.7792,335.81284 C 193.90242,335.79836 194.81481,338.8162 195.86892,342.7248 M 215.61327,343.3216 C 214.52321,347.38758 213.54251,350.64613 213.4242,350.5952 C 213.30589,350.54425 214.09455,347.20299 215.18461,343.13702 C 216.27466,339.07106 217.25536,335.81249 217.37366,335.86344 C 217.4876,335.9125 216.76885,338.98223 215.72744,342.89423" />
    <path
       d="M 205.828,368.12752 C 205.43442,368.12729 205.03679,368.15048 204.63565,368.20247 C 200.16451,368.78209 196.90722,372.59058 196.91111,376.9647 C 196.53161,376.96628 196.14877,376.98956 195.76233,377.03966 C 190.90574,377.66923 187.47687,382.10584 188.10909,386.94205 C 188.74133,391.77825 193.19536,395.1937 198.05197,394.56411 C 198.89813,394.45443 199.69905,394.2241 200.44459,393.90134 L 196.90715,400.95136 L 214.65378,400.95136 L 211.11634,393.90134 C 212.54137,394.5206 214.14556,394.77841 215.7986,394.56411 C 220.6552,393.93454 224.08406,389.49795 223.45183,384.66173 L 223.08739,383.05211 C 221.86554,379.33468 218.47551,376.94541 214.64982,376.9647 C 214.64948,376.5876 214.6287,376.20839 214.57851,375.82455 L 214.21408,374.21491 C 212.99768,370.51408 209.6327,368.12971 205.828,368.12752 z M 205.91677,377.60363 C 205.91621,381.81317 205.8123,385.21453 205.68484,385.19593 C 205.55738,385.17735 205.45438,381.74582 205.45494,377.53627 C 205.45551,373.32673 205.55942,369.92537 205.68687,369.94397 C 205.80963,369.96187 205.90986,373.11302 205.91643,377.16126 M 195.98373,385.97587 C 197.07269,390.04211 197.85266,393.35448 197.72474,393.36951 C 197.5968,393.38455 196.60917,390.09659 195.5202,386.03034 C 194.43124,381.96408 193.65127,378.65173 193.7792,378.6367 C 193.90242,378.62221 194.81481,381.64006 195.86892,385.54866 M 215.61327,386.14545 C 214.52321,390.21143 213.54251,393.46999 213.4242,393.41905 C 213.30589,393.36811 214.09455,390.02684 215.18461,385.96087 C 216.27466,381.89491 217.25536,378.63635 217.37366,378.68729 C 217.4876,378.73636 216.76885,381.80608 215.72744,385.71809"
       style="fill:#000000;display:inline"
       id="path3120" />
    <path
       id="path3122"
       style="fill:#000000;display:inline"
       d="M 266.32095,267.47981 C 265.92737,267.47958 265.52975,267.50277 265.1286,267.55477 C 260.65747,268.13438 257.40017,271.94287 257.40406,276.317 C 257.02457,276.31858 256.64172,276.34186 256.25528,276.39196 C 251.39869,277.02153 247.96982,281.45814 248.60205,286.29434 C 249.23428,291.13056 253.68832,294.546 258.54492,293.91641 C 259.39108,293.80673 260.19201,293.5764 260.93754,293.25364 L 257.4001,300.30366 L 275.14673,300.30366 L 271.60929,293.25364 C 273.03432,293.8729 274.63852,294.13071 276.29155,293.91641 C 281.14815,293.28684 284.57701,288.85025 283.94479,284.01403 L 283.58034,282.40441 C 282.35849,278.68698 278.96846,276.29771 275.14277,276.317 C 275.14243,275.93991 275.12165,275.56069 275.07147,275.17685 L 274.70703,273.56721 C 273.49063,269.86637 270.12565,267.482 266.32095,267.47981 z M 266.40972,276.95593 C 266.40916,281.16547 266.30525,284.56683 266.17779,284.54823 C 266.05033,284.52965 265.94734,281.09812 265.9479,276.88857 C 265.94847,272.67902 266.05237,269.27766 266.17983,269.29626 C 266.30259,269.31416 266.40282,272.46531 266.40939,276.51356 M 256.47668,285.32817 C 257.56565,289.39441 258.34562,292.70678 258.21769,292.72181 C 258.08975,292.73685 257.10212,289.44889 256.01316,285.38264 C 254.92419,281.31638 254.14423,278.00403 254.27216,277.989 C 254.39537,277.97451 255.30776,280.99236 256.36188,284.90096 M 276.10622,285.49776 C 275.01616,289.56373 274.03546,292.82229 273.91716,292.77135 C 273.79884,292.72041 274.58751,289.37914 275.67756,285.31317 C 276.76761,281.24722 277.74831,277.98865 277.86662,278.03959 C 277.98056,278.08866 277.2618,281.15838 276.2204,285.07039" />
    <path
       d="M 266.32095,325.30366 C 265.92737,325.30342 265.52975,325.32662 265.1286,325.37861 C 260.65747,325.95823 257.40017,329.76672 257.40406,334.14085 C 257.02457,334.14243 256.64172,334.16571 256.25528,334.21581 C 251.39869,334.84538 247.96982,339.28199 248.60205,344.1182 C 249.23428,348.9544 253.68832,352.36985 258.54492,351.74026 C 259.39108,351.63058 260.19201,351.40025 260.93754,351.07749 L 257.4001,358.12751 L 275.14673,358.12751 L 271.60929,351.07749 C 273.03432,351.69674 274.63852,351.95456 276.29155,351.74026 C 281.14815,351.11068 284.57701,346.6741 283.94479,341.83788 L 283.58034,340.22825 C 282.35849,336.51083 278.96846,334.12156 275.14277,334.14085 C 275.14243,333.76375 275.12165,333.38455 275.07147,333.0007 L 274.70703,331.39106 C 273.49063,327.69022 270.12565,325.30585 266.32095,325.30366 z M 266.40972,334.77978 C 266.40916,338.98931 266.30525,342.39067 266.17779,342.37208 C 266.05033,342.3535 265.94734,338.92196 265.9479,334.71242 C 265.94847,330.50287 266.05237,327.10152 266.17983,327.12011 C 266.30259,327.138 266.40282,330.28916 266.40939,334.3374 M 256.47668,343.15201 C 257.56565,347.21826 258.34562,350.53062 258.21769,350.54565 C 258.08975,350.56069 257.10212,347.27274 256.01316,343.20648 C 254.92419,339.14023 254.14423,335.82788 254.27216,335.81284 C 254.39537,335.79836 255.30776,338.8162 256.36188,342.7248 M 276.10622,343.3216 C 275.01616,347.38758 274.03546,350.64613 273.91716,350.5952 C 273.79884,350.54425 274.58751,347.20299 275.67756,343.13702 C 276.76761,339.07106 277.74831,335.81249 277.86662,335.86344 C 277.98056,335.9125 277.2618,338.98223 276.2204,342.89423"
       style="fill:#000000;display:inline"
       id="path3124" />
    <path
       id="path3126"
       style="fill:#000000;display:inline"
       d="M 266.32095,368.12752 C 265.92737,368.12729 265.52975,368.15048 265.1286,368.20247 C 260.65747,368.78209 257.40017,372.59058 257.40406,376.9647 C 257.02457,376.96628 256.64172,376.98956 256.25528,377.03966 C 251.39869,377.66923 247.96982,382.10584 248.60205,386.94205 C 249.23428,391.77825 253.68832,395.1937 258.54492,394.56411 C 259.39108,394.45443 260.19201,394.2241 260.93754,393.90134 L 257.4001,400.95136 L 275.14673,400.95136 L 271.60929,393.90134 C 273.03432,394.5206 274.63852,394.77841 276.29155,394.56411 C 281.14815,393.93454 284.57701,389.49795 283.94479,384.66173 L 283.58034,383.05211 C 282.35849,379.33468 278.96846,376.94541 275.14277,376.9647 C 275.14243,376.5876 275.12165,376.20839 275.07147,375.82455 L 274.70703,374.21491 C 273.49063,370.51408 270.12565,368.12971 266.32095,368.12752 z M 266.40972,377.60363 C 266.40916,381.81317 266.30525,385.21453 266.17779,385.19593 C 266.05033,385.17735 265.94734,381.74582 265.9479,377.53627 C 265.94847,373.32673 266.05237,369.92537 266.17983,369.94397 C 266.30259,369.96187 266.40282,373.11302 266.40939,377.16126 M 256.47668,385.97587 C 257.56565,390.04211 258.34562,393.35448 258.21769,393.36951 C 258.08975,393.38455 257.10212,390.09659 256.01316,386.03034 C 254.92419,381.96408 254.14423,378.65173 254.27216,378.6367 C 254.39537,378.62221 255.30776,381.64006 256.36188,385.54866 M 276.10622,386.14545 C 275.01616,390.21143 274.03546,393.46999 273.91716,393.41905 C 273.79884,393.36811 274.58751,390.02684 275.67756,385.96087 C 276.76761,381.89491 277.74831,378.63635 277.86662,378.68729 C 277.98056,378.73636 277.2618,381.80608 276.2204,385.71809" />
    <path
       id="path3128"
       style="fill:#000000;display:inline"
       d="M 236.828,297.47981 C 236.43442,297.47958 236.03679,297.50277 235.63565,297.55477 C 231.16451,298.13438 227.90722,301.94287 227.91111,306.317 C 227.53161,306.31858 227.14877,306.34186 226.76233,306.39196 C 221.90574,307.02153 218.47687,311.45814 219.10909,316.29434 C 219.74133,321.13056 224.19536,324.546 229.05197,323.91641 C 229.89813,323.80673 230.69905,323.5764 231.44459,323.25364 L 227.90715,330.30366 L 245.65378,330.30366 L 242.11634,323.25364 C 243.54137,323.8729 245.14556,324.13071 246.7986,323.91641 C 251.6552,323.28684 255.08406,318.85025 254.45183,314.01403 L 254.08739,312.40441 C 252.86554,308.68698 249.47551,306.29771 245.64982,306.317 C 245.64948,305.93991 245.6287,305.56069 245.57851,305.17685 L 245.21408,303.56721 C 243.99768,299.86637 240.6327,297.482 236.828,297.47981 z M 236.91677,306.95593 C 236.91621,311.16547 236.8123,314.56683 236.68484,314.54823 C 236.55738,314.52965 236.45438,311.09812 236.45494,306.88857 C 236.45551,302.67902 236.55942,299.27766 236.68687,299.29626 C 236.80963,299.31416 236.90986,302.46531 236.91643,306.51356 M 226.98373,315.32817 C 228.07269,319.39441 228.85266,322.70678 228.72474,322.72181 C 228.5968,322.73685 227.60917,319.44889 226.5202,315.38264 C 225.43124,311.31638 224.65127,308.00403 224.7792,307.989 C 224.90242,307.97451 225.81481,310.99236 226.86892,314.90096 M 246.61327,315.49776 C 245.52321,319.56373 244.54251,322.82229 244.4242,322.77135 C 244.30589,322.72041 245.09455,319.37914 246.18461,315.31317 C 247.27466,311.24722 248.25536,307.98865 248.37366,308.03959 C 248.4876,308.08866 247.76885,311.15838 246.72744,315.07039" />
    <g
       transform="matrix(0.1986935,0,0,0.1986935,334.65616,238.72353)"
       inkscape:label="Layer 1"
       id="g3186"
       style="display:inline">
      <rect
         rx="60.60915"
         ry="63.63961"
         y="26.047195"
         x="24.243658"
         height="1006.1119"
         width="709.12708"
         id="rect3188"
         style="opacity:0.91666667;fill:#000000;filter:url(#filter3254)" />
      <rect
         style="fill:#ffffff"
         id="rect3190"
         width="709.12708"
         height="1006.1119"
         x="10.101523"
         y="7.8644519"
         ry="63.63961"
         rx="60.60915" />
      <text
         xml:space="preserve"
         style="font-size:225.6577301px;font-style:normal;font-variant:normal;font-weight:normal;font-stretch:normal;fill:#000000;fill-opacity:1;stroke:none;stroke-width:1px;stroke-linecap:butt;stroke-linejoin:miter;stroke-opacity:1;filter:url(#filter4970);font-family:Gemelli;-inkscape-font-specification:Gemelli"
         x="47.257381"
         y="188.40356"
         id="text3192"
         transform="scale(1.0234483,0.9770889)"><tspan
           sodipodi:role="line"
           id="tspan3194"
           x="47.257381"
           y="188.40356">J</tspan></text>
      <text
         transform="scale(1.0234483,0.9770889)"
         id="text3196"
         y="980.57336"
         x="537.01221"
         style="font-size:225.6577301px;font-style:normal;font-variant:normal;font-weight:normal;font-stretch:normal;fill:#000000;fill-opacity:1;stroke:none;stroke-width:1px;stroke-linecap:butt;stroke-linejoin:miter;stroke-opacity:1;filter:url(#filter4966);font-family:Gemelli;-inkscape-font-specification:Gemelli"
         xml:space="preserve"><tspan
           y="980.57336"
           x="537.01221"
           id="tspan3198"
           sodipodi:role="line">J</tspan></text>
    </g>
    <path
       style="opacity:1;fill:#000000;fill-opacity:1;fill-rule:nonzero;stroke:#ffffff;stroke-width:1;stroke-linecap:butt;stroke-linejoin:miter;marker:none;marker-start:none;marker-mid:none;marker-end:none;stroke-miterlimit:4;stroke-dasharray:none;stroke-dashoffset:0;stroke-opacity:1;visibility:visible;display:inline;overflow:visible;enable-background:accumulate"
       d="M 404,270.21875 C 395.83534,270.21875 389.21875,277.05933 389.21875,285.5 C 389.21875,291.73001 392.82604,297.08656 398,299.46875 L 398,310.21875 L 365.65625,287.40625 L 361.21875,293.6875 L 398,319.65625 L 398,344 L 410,344 L 410,322.90625 L 453.15625,316.21875 L 451.96875,308.625 L 410,315.125 L 410,299.46875 C 415.17397,297.08656 418.78124,291.73001 418.78125,285.5 C 418.78125,277.05934 412.16467,270.21876 404,270.21875 z"
       id="rect4024" />
    <path
       id="path4046"
       d="M 403.875,413.5 C 412.03966,413.5 418.65625,406.65942 418.65625,398.21875 C 418.65625,391.98874 415.04896,386.63219 409.875,384.25 L 409.875,373.5 L 442.21875,396.3125 L 446.65625,390.03125 L 409.875,364.0625 L 409.875,339.71875 L 397.875,339.71875 L 397.875,360.8125 L 354.71875,367.5 L 355.90625,375.09375 L 397.875,368.59375 L 397.875,384.25 C 392.70103,386.63219 389.09376,391.98874 389.09375,398.21875 C 389.09375,406.65941 395.71033,413.49999 403.875,413.5 z"
       style="opacity:1;fill:#000000;fill-opacity:1;fill-rule:nonzero;stroke:#ffffff;stroke-width:1;stroke-linecap:butt;stroke-linejoin:miter;marker:none;marker-start:none;marker-mid:none;marker-end:none;stroke-miterlimit:4;stroke-dasharray:none;stroke-dashoffset:0;stroke-opacity:1;visibility:visible;display:inline;overflow:visible;enable-background:accumulate" />
    <g
       id="g4073">
      <rect
         transform="matrix(0.1986935,0,0,0.1986935,497.65616,239.72353)"
         style="opacity:0.91666667;fill:#000000;filter:url(#filter3254)"
         id="rect4055"
         width="709.12708"
         height="1006.1119"
         x="24.243658"
         y="26.047195"
         ry="63.63961"
         rx="60.60915" />
      <rect
         rx="12.042645"
         ry="12.644777"
         y="241.28615"
         x="499.66327"
         height="199.9079"
         width="140.89894"
         id="rect4057"
         style="fill:#ffffff" />
      <text
         transform="matrix(0.2033525,0,0,0.1941412,497.65616,239.72353)"
         id="text4059"
         y="188.40356"
         x="47.257381"
         style="font-size:225.6577301px;font-style:normal;font-variant:normal;font-weight:normal;font-stretch:normal;fill:#000000;fill-opacity:1;stroke:none;stroke-width:1px;stroke-linecap:butt;stroke-linejoin:miter;stroke-opacity:1;filter:url(#filter4970);font-family:Gemelli;-inkscape-font-specification:Gemelli"
         xml:space="preserve"><tspan
           y="188.40356"
           x="47.257381"
           id="tspan4061"
           sodipodi:role="line">Q</tspan></text>
      <text
         xml:space="preserve"
         style="font-size:225.6577301px;font-style:normal;font-variant:normal;font-weight:normal;font-stretch:normal;fill:#000000;fill-opacity:1;stroke:none;stroke-width:1px;stroke-linecap:butt;stroke-linejoin:miter;stroke-opacity:1;filter:url(#filter4966);font-family:Gemelli;-inkscape-font-specification:Gemelli"
         x="537.01221"
         y="980.57336"
         id="text4063"
         transform="matrix(0.2033525,0,0,0.1941412,484.65616,239.72353)"><tspan
           sodipodi:role="line"
           id="tspan4065"
           x="537.01221"
           y="980.57336">Q</tspan></text>
    </g>
    <path
       style="opacity:1;fill:#000000;fill-opacity:1;fill-rule:nonzero;stroke:#ffffff;stroke-width:1;stroke-linecap:butt;stroke-linejoin:miter;marker:none;marker-start:none;marker-mid:none;marker-end:none;stroke-miterlimit:4;stroke-dasharray:none;stroke-dashoffset:0;stroke-opacity:1;visibility:visible;display:inline;overflow:visible;enable-background:accumulate"
       d="M 568.375 275.21875 C 560.21033 275.21876 553.59375 282.05934 553.59375 290.5 C 553.59375 290.79473 553.60907 291.0844 553.625 291.375 C 552.87804 293.77785 553 296.83258 553 297 L 550.5 309.75 C 550.5 310.027 550.872 314.5 554.75 314.5 C 558.628 314.5 560 311.777 560 311.5 L 560 303.09375 C 560.74629 303.62583 561.53809 304.08342 562.375 304.46875 L 562.375 320.125 L 520.40625 313.625 L 519.21875 321.21875 L 562.375 327.90625 L 562.375 349 L 574.375 349 L 574.375 324.65625 L 611.15625 298.6875 L 606.71875 292.40625 L 586.75 306.5 L 584.75 296.25 C 584.74999 296.02494 585.01774 290.54359 583.03125 288.5 C 582.08402 281.00452 575.88404 275.21875 568.375 275.21875 z M 577.75 302.3125 L 577.75 310.75 C 577.75 310.87628 578.07228 311.50301 578.75 312.15625 L 574.375 315.21875 L 574.375 304.46875 C 575.59598 303.90659 576.73033 303.17833 577.75 302.3125 z "
       id="path4081" />
    <path
       id="path4090"
       d="M 568.5,418 C 576.66467,417.99999 583.28125,411.15941 583.28125,402.71875 C 583.28125,402.42402 583.26593,402.13435 583.25,401.84375 C 583.99696,399.4409 583.875,396.38617 583.875,396.21875 L 586.375,383.46875 C 586.375,383.19175 586.003,378.71875 582.125,378.71875 C 578.247,378.71875 576.875,381.44175 576.875,381.71875 L 576.875,390.125 C 576.12871,389.59292 575.33691,389.13533 574.5,388.75 L 574.5,373.09375 L 616.46875,379.59375 L 617.65625,372 L 574.5,365.3125 L 574.5,344.21875 L 562.5,344.21875 L 562.5,368.5625 L 525.71875,394.53125 L 530.15625,400.8125 L 550.125,386.71875 L 552.125,396.96875 C 552.12501,397.19381 551.85726,402.67516 553.84375,404.71875 C 554.79098,412.21423 560.99096,418 568.5,418 z M 559.125,390.90625 L 559.125,382.46875 C 559.125,382.34247 558.80272,381.71574 558.125,381.0625 L 562.5,378 L 562.5,388.75 C 561.27902,389.31216 560.14467,390.04042 559.125,390.90625 z"
       style="opacity:1;fill:#000000;fill-opacity:1;fill-rule:nonzero;stroke:#ffffff;stroke-width:1;stroke-linecap:butt;stroke-linejoin:miter;marker:none;marker-start:none;marker-mid:none;marker-end:none;stroke-miterlimit:4;stroke-dasharray:none;stroke-dashoffset:0;stroke-opacity:1;visibility:visible;display:inline;overflow:visible;enable-background:accumulate" />
    <g
       transform="matrix(0.1986935,0,0,0.1986935,658.65616,239.72353)"
       inkscape:label="Layer 1"
       id="g4106"
       style="display:inline">
      <rect
         rx="60.60915"
         ry="63.63961"
         y="26.047195"
         x="24.243658"
         height="1006.1119"
         width="709.12708"
         id="rect4108"
         style="opacity:0.91666667;fill:#000000;filter:url(#filter3254)" />
      <rect
         style="fill:#ffffff"
         id="rect4110"
         width="709.12708"
         height="1006.1119"
         x="10.101523"
         y="7.8644519"
         ry="63.63961"
         rx="60.60915" />
      <text
         xml:space="preserve"
         style="font-size:225.6577301px;font-style:normal;font-variant:normal;font-weight:normal;font-stretch:normal;fill:#000000;fill-opacity:1;stroke:none;stroke-width:1px;stroke-linecap:butt;stroke-linejoin:miter;stroke-opacity:1;filter:url(#filter4970);font-family:Gemelli;-inkscape-font-specification:Gemelli"
         x="47.257381"
         y="188.40356"
         id="text4112"
         transform="scale(1.0234483,0.9770889)"><tspan
           sodipodi:role="line"
           id="tspan4114"
           x="47.257381"
           y="188.40356">K</tspan></text>
      <text
         transform="scale(1.0234483,0.9770889)"
         id="text4116"
         y="980.57336"
         x="537.01221"
         style="font-size:225.6577301px;font-style:normal;font-variant:normal;font-weight:normal;font-stretch:normal;fill:#000000;fill-opacity:1;stroke:none;stroke-width:1px;stroke-linecap:butt;stroke-linejoin:miter;stroke-opacity:1;filter:url(#filter4966);font-family:Gemelli;-inkscape-font-specification:Gemelli"
         xml:space="preserve"><tspan
           y="980.57336"
           x="537.01221"
           id="tspan4118"
           sodipodi:role="line">K</tspan></text>
    </g>
    <path
       style="opacity:1;fill:#000000;fill-opacity:1;fill-rule:nonzero;stroke:#ffffff;stroke-width:1;stroke-linecap:butt;stroke-linejoin:miter;marker:none;marker-start:none;marker-mid:none;marker-end:none;stroke-miterlimit:4;stroke-dasharray:none;stroke-dashoffset:0;stroke-opacity:1;visibility:visible;display:inline;overflow:visible;enable-background:accumulate"
       d="M 728.1875 261.875 C 724.21683 261.83573 725.81505 264.67708 728.125 267.59375 C 730.49827 264.71844 732.16455 261.91434 728.1875 261.875 z M 728.125 267.59375 C 727.09268 268.84444 725.92262 270.0924 725.03125 271.15625 C 723.68918 270.79339 722.02691 270.40475 720.46875 269.96875 C 720.36927 271.59387 720.1901 273.29621 720.09375 274.6875 C 718.78198 275.1859 717.19422 275.86734 715.65625 276.4375 C 716.33837 277.5087 717.01383 278.60899 717.625 279.625 C 716.37608 280.90089 715.34165 282.42652 714.59375 284.09375 C 711.56335 283.01277 709.08395 282.77275 710.15625 286.1875 C 710.9646 288.76167 712.25053 288.44729 713.625 287.03125 C 713.37494 288.14556 713.21875 289.30696 713.21875 290.5 C 713.21875 296.73001 716.82604 302.08656 722 304.46875 L 722 315.21875 L 689.65625 292.40625 L 685.21875 298.6875 L 722 324.65625 L 722 349 L 734 349 L 734 327.90625 L 777.15625 321.21875 L 775.96875 313.625 L 734 320.125 L 734 304.46875 C 739.17397 302.08656 742.78124 296.73001 742.78125 290.5 C 742.78125 289.50955 742.67402 288.53167 742.5 287.59375 C 743.75506 288.81703 744.91094 288.93624 745.71875 286.53125 C 746.83814 283.19863 744.47558 283.33937 741.5 284.3125 C 740.76339 282.60058 739.72934 281.02952 738.46875 279.71875 C 739.08003 278.74364 739.72987 277.70471 740.40625 276.6875 C 738.88801 276.08905 737.32536 275.36496 736.03125 274.84375 C 735.96245 273.45082 735.81732 271.75184 735.75 270.125 C 734.18302 270.53024 732.50553 270.8824 731.15625 271.21875 C 730.28269 270.13308 729.13573 268.86995 728.125 267.59375 z M 735.75 270.125 C 739.34856 269.19438 742.31181 267.92636 739.125 265.5625 C 735.93762 263.19821 735.59628 266.41038 735.75 270.125 z M 740.40625 276.6875 C 743.86795 278.052 747.03348 278.75747 745.84375 274.96875 C 744.65408 271.18025 742.46638 273.58925 740.40625 276.6875 z M 715.65625 276.4375 C 713.65785 273.29921 711.54559 270.86085 710.28125 274.625 C 709.02005 278.37982 712.1788 277.72666 715.65625 276.4375 z M 720.46875 269.96875 C 720.6959 266.25796 720.38972 263.04301 717.15625 265.34375 C 713.92316 267.64421 716.88908 268.96711 720.46875 269.96875 z "
       id="path4120" />
    <path
       id="path4129"
       d="M 728.1875,434.9996 C 724.21683,435.03887 725.81505,432.19752 728.125,429.28085 C 730.49827,432.15616 732.16455,434.96026 728.1875,434.9996 z M 728.125,429.28085 C 727.09268,428.03016 725.92262,426.7822 725.03125,425.71835 C 723.68918,426.08121 722.02691,426.46985 720.46875,426.90585 C 720.36927,425.28073 720.1901,423.57839 720.09375,422.1871 C 718.78198,421.6887 717.19422,421.00726 715.65625,420.4371 C 716.33837,419.3659 717.01383,418.26561 717.625,417.2496 C 716.37608,415.97371 715.34165,414.44808 714.59375,412.78085 C 711.56335,413.86183 709.08395,414.10185 710.15625,410.6871 C 710.9646,408.11293 712.25053,408.42731 713.625,409.84335 C 713.37494,408.72904 713.21875,407.56764 713.21875,406.3746 C 713.21875,400.14459 716.82604,394.78804 722,392.40585 L 722,381.65585 L 689.65625,404.46835 L 685.21875,398.1871 L 722,372.21835 L 722,347.8746 L 734,347.8746 L 734,368.96835 L 777.15625,375.65585 L 775.96875,383.2496 L 734,376.7496 L 734,392.40585 C 739.17397,394.78804 742.78124,400.14459 742.78125,406.3746 C 742.78125,407.36505 742.67402,408.34293 742.5,409.28085 C 743.75506,408.05757 744.91094,407.93836 745.71875,410.34335 C 746.83814,413.67597 744.47558,413.53523 741.5,412.5621 C 740.76339,414.27402 739.72934,415.84508 738.46875,417.15585 C 739.08003,418.13096 739.72987,419.16989 740.40625,420.1871 C 738.88801,420.78555 737.32536,421.50964 736.03125,422.03085 C 735.96245,423.42378 735.81732,425.12276 735.75,426.7496 C 734.18302,426.34436 732.50553,425.9922 731.15625,425.65585 C 730.28269,426.74152 729.13573,428.00465 728.125,429.28085 z M 735.75,426.7496 C 739.34856,427.68022 742.31181,428.94824 739.125,431.3121 C 735.93762,433.67639 735.59628,430.46422 735.75,426.7496 z M 740.40625,420.1871 C 743.86795,418.8226 747.03348,418.11713 745.84375,421.90585 C 744.65408,425.69435 742.46638,423.28535 740.40625,420.1871 z M 715.65625,420.4371 C 713.65785,423.57539 711.54559,426.01375 710.28125,422.2496 C 709.02005,418.49478 712.1788,419.14794 715.65625,420.4371 z M 720.46875,426.90585 C 720.6959,430.61664 720.38972,433.83159 717.15625,431.53085 C 713.92316,429.23039 716.88908,427.90749 720.46875,426.90585 z"
       style="opacity:1;fill:#000000;fill-opacity:1;fill-rule:nonzero;stroke:#ffffff;stroke-width:1;stroke-linecap:butt;stroke-linejoin:miter;marker:none;marker-start:none;marker-mid:none;marker-end:none;stroke-miterlimit:4;stroke-dasharray:none;stroke-dashoffset:0;stroke-opacity:1;visibility:visible;display:inline;overflow:visible;enable-background:accumulate" />
  </g>
</svg>
