<?xml version="1.0" encoding="UTF-8" standalone="no"?>
<!-- Created with Inkscape (http://www.inkscape.org/) -->
<svg
   xmlns:dc="http://purl.org/dc/elements/1.1/"
   xmlns:cc="http://creativecommons.org/ns#"
   xmlns:rdf="http://www.w3.org/1999/02/22-rdf-syntax-ns#"
   xmlns:svg="http://www.w3.org/2000/svg"
   xmlns="http://www.w3.org/2000/svg"
   xmlns:sodipodi="http://sodipodi.sourceforge.net/DTD/sodipodi-0.dtd"
   xmlns:inkscape="http://www.inkscape.org/namespaces/inkscape"
   width="640px"
   height="480px"
   id="svg2393"
   sodipodi:version="0.32"
   inkscape:version="0.46"
   sodipodi:docname="cards-diamonds.svg"
   inkscape:output_extension="org.inkscape.output.svg.inkscape">
  <defs
     id="defs2395">
    <inkscape:perspective
       sodipodi:type="inkscape:persp3d"
       inkscape:vp_x="0 : 240 : 1"
       inkscape:vp_y="0 : 1000 : 0"
       inkscape:vp_z="640 : 240 : 1"
       inkscape:persp3d-origin="320 : 160 : 1"
       id="perspective2401" />
    <filter
       id="filter4970"
       inkscape:collect="always">
      <feGaussianBlur
         id="feGaussianBlur4972"
         stdDeviation="1.4809308"
         inkscape:collect="always" />
    </filter>
    <filter
       id="filter4966"
       inkscape:collect="always">
      <feGaussianBlur
         id="feGaussianBlur4968"
         stdDeviation="1.4809308"
         inkscape:collect="always" />
    </filter>
    <filter
       id="filter3254"
       inkscape:collect="always">
      <feGaussianBlur
         id="feGaussianBlur3256"
         stdDeviation="7.7965407"
         inkscape:collect="always" />
    </filter>
    <inkscape:perspective
       id="perspective10"
       inkscape:persp3d-origin="375.48941 : 342.21596 : 1"
       inkscape:vp_z="804.56871 : 517.60966 : 1"
       inkscape:vp_y="7.0616468e-14 : 1000 : 0"
       inkscape:vp_x="-53.589892 : 517.60966 : 1"
       sodipodi:type="inkscape:persp3d" />
    <inkscape:perspective
       id="perspective3513"
       inkscape:persp3d-origin="372.04724 : 350.78739 : 1"
       inkscape:vp_z="744.09448 : 526.18109 : 1"
       inkscape:vp_y="0 : 1000 : 0"
       inkscape:vp_x="0 : 526.18109 : 1"
       sodipodi:type="inkscape:persp3d" />
  </defs>
  <sodipodi:namedview
     id="base"
     pagecolor="#ffffff"
     bordercolor="#666666"
     borderopacity="1.0"
     inkscape:pageopacity="0.0"
     inkscape:pageshadow="2"
     inkscape:zoom="1.07"
     inkscape:cx="318.84006"
     inkscape:cy="267.41748"
     inkscape:current-layer="layer1"
     inkscape:document-units="px"
     showgrid="false"
     inkscape:window-width="1280"
     inkscape:window-height="949"
     inkscape:window-x="0"
     inkscape:window-y="25" />
  <metadata
     id="metadata2398">
    <rdf:RDF>
      <cc:Work
         rdf:about="">
        <dc:format>image/svg+xml</dc:format>
        <dc:type
           rdf:resource="http://purl.org/dc/dcmitype/StillImage" />
      </cc:Work>
    </rdf:RDF>
  </metadata>
  <g
     inkscape:groupmode="layer"
     id="layer3"
     inkscape:label="bg"
     style="display:none">
    <rect
       style="opacity:1;fill:#00ff00;fill-opacity:1;fill-rule:nonzero;stroke:#ffffff;stroke-width:0.87088841;stroke-linecap:butt;stroke-linejoin:miter;marker:none;marker-start:none;marker-mid:none;marker-end:none;stroke-miterlimit:4;stroke-dasharray:none;stroke-dashoffset:0;stroke-opacity:1;visibility:visible;display:inline;overflow:visible;enable-background:accumulate"
       id="rect2966"
       width="600.27325"
       height="433.67191"
       x="19.489544"
       y="16.435081"
       rx="0"
       ry="54.115124" />
  </g>
  <g
     id="layer1"
     inkscape:label="Layer 1"
     inkscape:groupmode="layer"
     style="display:inline">
    <g
       style="display:inline"
       id="g2508"
       inkscape:label="Layer 1"
       transform="matrix(0.1390351,0,0,0.1390351,41.829387,27.320841)">
      <rect
         style="opacity:0.91666667;fill:#000000;filter:url(#filter3254)"
         id="rect3208"
         width="709.12708"
         height="1006.1119"
         x="24.243658"
         y="26.047195"
         ry="63.63961"
         rx="60.60915" />
      <rect
         rx="60.60915"
         ry="63.63961"
         y="7.8644519"
         x="10.101523"
         height="1006.1119"
         width="709.12708"
         id="rect3206"
         style="fill:#ffffff" />
      <text
         transform="scale(1.0234483,0.9770889)"
         id="text3475"
         y="188.40356"
         x="47.257381"
         style="font-size:225.6577301px;font-style:normal;font-variant:normal;font-weight:normal;font-stretch:normal;fill:#ff0000;fill-opacity:1;stroke:none;stroke-width:1px;stroke-linecap:butt;stroke-linejoin:miter;stroke-opacity:1;filter:url(#filter4970);font-family:Gemelli;-inkscape-font-specification:Gemelli"
         xml:space="preserve"><tspan
           y="188.40356"
           x="47.257381"
           id="tspan3477"
           sodipodi:role="line">A</tspan></text>
      <text
         xml:space="preserve"
         style="font-size:225.6577301px;font-style:normal;font-variant:normal;font-weight:normal;font-stretch:normal;fill:#ff0000;fill-opacity:1;stroke:none;stroke-width:1px;stroke-linecap:butt;stroke-linejoin:miter;stroke-opacity:1;filter:url(#filter4966);font-family:Gemelli;-inkscape-font-specification:Gemelli"
         x="537.01221"
         y="980.57336"
         id="text3487"
         transform="scale(1.0234483,0.9770889)"><tspan
           sodipodi:role="line"
           id="tspan3489"
           x="537.01221"
           y="980.57336">A</tspan></text>
    </g>
    <g
       id="g2988"
       transform="matrix(0.6997468,0,0,0.6997468,37.871507,23.315819)">
      <rect
         transform="matrix(0.1986935,0,0,0.1986935,332.65616,7.72353)"
         rx="60.60915"
         ry="63.63961"
         y="26.047195"
         x="24.243658"
         height="1006.1119"
         width="709.12708"
         id="rect2970"
         style="opacity:0.91666667;fill:#000000;filter:url(#filter3254)" />
      <rect
         style="fill:#ffffff"
         id="rect2972"
         width="140.89894"
         height="199.9079"
         x="334.66327"
         y="9.2861452"
         ry="12.644777"
         rx="12.042645" />
      <text
         xml:space="preserve"
         style="font-size:225.6577301px;font-style:normal;font-variant:normal;font-weight:normal;font-stretch:normal;fill:#ff0000;fill-opacity:1;stroke:none;stroke-width:1px;stroke-linecap:butt;stroke-linejoin:miter;stroke-opacity:1;filter:url(#filter4970);font-family:Gemelli;-inkscape-font-specification:Gemelli"
         x="47.257381"
         y="188.40356"
         id="text2974"
         transform="matrix(0.2033525,0,0,0.1941412,332.65616,7.72353)"><tspan
           sodipodi:role="line"
           id="tspan2976"
           x="47.257381"
           y="188.40356">3</tspan></text>
      <text
         transform="matrix(0.2033525,0,0,0.1941412,332.65616,7.72353)"
         id="text2978"
         y="980.57336"
         x="537.01221"
         style="font-size:225.6577301px;font-style:normal;font-variant:normal;font-weight:normal;font-stretch:normal;fill:#ff0000;fill-opacity:1;stroke:none;stroke-width:1px;stroke-linecap:butt;stroke-linejoin:miter;stroke-opacity:1;filter:url(#filter4966);font-family:Gemelli;-inkscape-font-specification:Gemelli"
         xml:space="preserve"><tspan
           y="980.57336"
           x="537.01221"
           id="tspan2980"
           sodipodi:role="line">3</tspan></text>
    </g>
    <g
       id="g3022"
       transform="matrix(0.6997468,0,0,0.6997468,37.871507,23.315819)">
      <rect
         transform="matrix(0.1986935,0,0,0.1986935,493.65616,7.72353)"
         rx="60.60915"
         ry="63.63961"
         y="26.047195"
         x="24.243658"
         height="1006.1119"
         width="709.12708"
         id="rect3004"
         style="opacity:0.91666667;fill:#000000;filter:url(#filter3254)" />
      <rect
         style="fill:#ffffff"
         id="rect3006"
         width="140.89894"
         height="199.9079"
         x="495.66327"
         y="9.2861452"
         ry="12.644777"
         rx="12.042645" />
      <text
         xml:space="preserve"
         style="font-size:225.6577301px;font-style:normal;font-variant:normal;font-weight:normal;font-stretch:normal;fill:#ff0000;fill-opacity:1;stroke:none;stroke-width:1px;stroke-linecap:butt;stroke-linejoin:miter;stroke-opacity:1;filter:url(#filter4970);font-family:Gemelli;-inkscape-font-specification:Gemelli"
         x="47.257381"
         y="188.40356"
         id="text3008"
         transform="matrix(0.2033525,0,0,0.1941412,493.65616,7.72353)"><tspan
           sodipodi:role="line"
           id="tspan3010"
           x="47.257381"
           y="188.40356">4</tspan></text>
      <text
         transform="matrix(0.2033525,0,0,0.1941412,493.65616,7.72353)"
         id="text3012"
         y="980.57336"
         x="537.01221"
         style="font-size:225.6577301px;font-style:normal;font-variant:normal;font-weight:normal;font-stretch:normal;fill:#ff0000;fill-opacity:1;stroke:none;stroke-width:1px;stroke-linecap:butt;stroke-linejoin:miter;stroke-opacity:1;filter:url(#filter4966);font-family:Gemelli;-inkscape-font-specification:Gemelli"
         xml:space="preserve"><tspan
           y="980.57336"
           x="537.01221"
           id="tspan3014"
           sodipodi:role="line">4</tspan></text>
    </g>
    <g
       transform="matrix(0.1390351,0,0,0.1390351,39.030397,193.86058)"
       inkscape:label="Layer 1"
       id="g3076"
       style="display:inline">
      <rect
         rx="60.60915"
         ry="63.63961"
         y="26.047195"
         x="24.243658"
         height="1006.1119"
         width="709.12708"
         id="rect3078"
         style="opacity:0.91666667;fill:#000000;filter:url(#filter3254)" />
      <rect
         style="fill:#ffffff"
         id="rect3080"
         width="709.12708"
         height="1006.1119"
         x="10.101523"
         y="7.8644519"
         ry="63.63961"
         rx="60.60915" />
      <text
         xml:space="preserve"
         style="font-size:225.6577301px;font-style:normal;font-variant:normal;font-weight:normal;font-stretch:normal;fill:#ff0000;fill-opacity:1;stroke:none;stroke-width:1px;stroke-linecap:butt;stroke-linejoin:miter;stroke-opacity:1;filter:url(#filter4970);font-family:Gemelli;-inkscape-font-specification:Gemelli"
         x="47.257381"
         y="188.40356"
         id="text3082"
         transform="scale(1.0234483,0.9770889)"><tspan
           sodipodi:role="line"
           id="tspan3084"
           x="47.257381"
           y="188.40356">6</tspan></text>
      <text
         transform="scale(1.0234483,0.9770889)"
         id="text3086"
         y="980.57336"
         x="537.01221"
         style="font-size:225.6577301px;font-style:normal;font-variant:normal;font-weight:normal;font-stretch:normal;fill:#ff0000;fill-opacity:1;stroke:none;stroke-width:1px;stroke-linecap:butt;stroke-linejoin:miter;stroke-opacity:1;filter:url(#filter4966);font-family:Gemelli;-inkscape-font-specification:Gemelli"
         xml:space="preserve"><tspan
           y="980.57336"
           x="537.01221"
           id="tspan3088"
           sodipodi:role="line">6</tspan></text>
    </g>
    <g
       transform="matrix(0.1390351,0,0,0.1390351,272.04609,190.36185)"
       inkscape:label="Layer 1"
       id="g3186"
       style="display:inline">
      <rect
         rx="60.60915"
         ry="63.63961"
         y="26.047195"
         x="24.243658"
         height="1006.1119"
         width="709.12708"
         id="rect3188"
         style="opacity:0.91666667;fill:#000000;filter:url(#filter3254)" />
      <rect
         style="fill:#ffffff"
         id="rect3190"
         width="709.12708"
         height="1006.1119"
         x="10.101523"
         y="7.8644519"
         ry="63.63961"
         rx="60.60915" />
      <text
         xml:space="preserve"
         style="font-size:225.6577301px;font-style:normal;font-variant:normal;font-weight:normal;font-stretch:normal;fill:#ff0000;fill-opacity:1;stroke:none;stroke-width:1px;stroke-linecap:butt;stroke-linejoin:miter;stroke-opacity:1;filter:url(#filter4970);font-family:Gemelli;-inkscape-font-specification:Gemelli"
         x="47.257381"
         y="188.40356"
         id="text3192"
         transform="scale(1.0234483,0.9770889)"><tspan
           sodipodi:role="line"
           id="tspan3194"
           x="47.257381"
           y="188.40356">J</tspan></text>
      <text
         transform="scale(1.0234483,0.9770889)"
         id="text3196"
         y="980.57336"
         x="537.01221"
         style="font-size:225.6577301px;font-style:normal;font-variant:normal;font-weight:normal;font-stretch:normal;fill:#ff0000;fill-opacity:1;stroke:none;stroke-width:1px;stroke-linecap:butt;stroke-linejoin:miter;stroke-opacity:1;filter:url(#filter4966);font-family:Gemelli;-inkscape-font-specification:Gemelli"
         xml:space="preserve"><tspan
           y="980.57336"
           x="537.01221"
           id="tspan3198"
           sodipodi:role="line">J</tspan></text>
    </g>
    <path
       style="opacity:1;fill:#ff0000;fill-opacity:1;fill-rule:nonzero;stroke:#ffffff;stroke-width:0.69974685;stroke-linecap:butt;stroke-linejoin:miter;marker:none;marker-start:none;marker-mid:none;marker-end:none;stroke-miterlimit:4;stroke-dasharray:none;stroke-dashoffset:0;stroke-opacity:1;visibility:visible;display:inline;overflow:visible;enable-background:accumulate"
       d="M 320.56922,212.40053 C 314.85603,212.40053 310.22609,217.1872 310.22609,223.09353 C 310.22609,227.45296 312.75028,231.20119 316.37074,232.86812 L 316.37074,240.3904 L 293.73831,224.42743 L 290.63318,228.82271 L 316.37074,246.99426 L 316.37074,264.02872 L 324.7677,264.02872 L 324.7677,249.26844 L 354.96615,244.58888 L 354.1352,239.27518 L 324.7677,243.82353 L 324.7677,232.86812 C 328.38817,231.20119 330.91235,227.45296 330.91236,223.09353 C 330.91236,217.18721 326.28243,212.40053 320.56922,212.40053 z"
       id="rect4024" />
    <path
       id="path4046"
       d="M 320.48175,312.66113 C 326.19495,312.66113 330.82489,307.87445 330.82489,301.96812 C 330.82489,297.60869 328.3007,293.86046 324.68024,292.19353 L 324.68024,284.67125 L 347.31267,300.63423 L 350.4178,296.23894 L 324.68024,278.06739 L 324.68024,261.03293 L 316.28327,261.03293 L 316.28327,275.79322 L 286.08483,280.47277 L 286.91577,285.78647 L 316.28327,281.23812 L 316.28327,292.19353 C 312.6628,293.86046 310.13863,297.60869 310.13862,301.96812 C 310.13862,307.87445 314.76855,312.66112 320.48175,312.66113 z"
       style="opacity:1;fill:#ff0000;fill-opacity:1;fill-rule:nonzero;stroke:#ffffff;stroke-width:0.69974685;stroke-linecap:butt;stroke-linejoin:miter;marker:none;marker-start:none;marker-mid:none;marker-end:none;stroke-miterlimit:4;stroke-dasharray:none;stroke-dashoffset:0;stroke-opacity:1;visibility:visible;display:inline;overflow:visible;enable-background:accumulate" />
    <g
       id="g4073"
       transform="matrix(0.6997468,0,0,0.6997468,37.871507,23.315819)">
      <rect
         transform="matrix(0.1986935,0,0,0.1986935,497.65616,239.72353)"
         style="opacity:0.91666667;fill:#000000;filter:url(#filter3254)"
         id="rect4055"
         width="709.12708"
         height="1006.1119"
         x="24.243658"
         y="26.047195"
         ry="63.63961"
         rx="60.60915" />
      <rect
         rx="12.042645"
         ry="12.644777"
         y="241.28615"
         x="499.66327"
         height="199.9079"
         width="140.89894"
         id="rect4057"
         style="fill:#ffffff" />
      <text
         transform="matrix(0.2033525,0,0,0.1941412,497.65616,239.72353)"
         id="text4059"
         y="188.40356"
         x="47.257381"
         style="font-size:225.6577301px;font-style:normal;font-variant:normal;font-weight:normal;font-stretch:normal;fill:#ff0000;fill-opacity:1;stroke:none;stroke-width:1px;stroke-linecap:butt;stroke-linejoin:miter;stroke-opacity:1;filter:url(#filter4970);font-family:Gemelli;-inkscape-font-specification:Gemelli"
         xml:space="preserve"><tspan
           y="188.40356"
           x="47.257381"
           id="tspan4061"
           sodipodi:role="line">Q</tspan></text>
      <text
         xml:space="preserve"
         style="font-size:225.6577301px;font-style:normal;font-variant:normal;font-weight:normal;font-stretch:normal;fill:#ff0000;fill-opacity:1;stroke:none;stroke-width:1px;stroke-linecap:butt;stroke-linejoin:miter;stroke-opacity:1;filter:url(#filter4966);font-family:Gemelli;-inkscape-font-specification:Gemelli"
         x="537.01221"
         y="980.57336"
         id="text4063"
         transform="matrix(0.2033525,0,0,0.1941412,484.65616,239.72353)"><tspan
           sodipodi:role="line"
           id="tspan4065"
           x="537.01221"
           y="980.57336">Q</tspan></text>
    </g>
    <path
       style="opacity:1;fill:#ff0000;fill-opacity:1;fill-rule:nonzero;stroke:#ffffff;stroke-width:0.69974685;stroke-linecap:butt;stroke-linejoin:miter;marker:none;marker-start:none;marker-mid:none;marker-end:none;stroke-miterlimit:4;stroke-dasharray:none;stroke-dashoffset:0;stroke-opacity:1;visibility:visible;display:inline;overflow:visible;enable-background:accumulate"
       d="M 435.59011,215.89926 C 429.87691,215.89927 425.24697,220.68594 425.24697,226.59227 C 425.24697,226.7985 425.25769,227.0012 425.26884,227.20455 C 424.74616,228.88593 424.8315,231.02347 424.8315,231.14062 L 423.08213,240.06239 C 423.08213,240.25622 423.34244,243.38619 426.05606,243.38619 C 428.76968,243.38619 429.72973,241.48078 429.72973,241.28695 L 429.72973,235.4047 C 430.25194,235.77702 430.806,236.09722 431.39163,236.36686 L 431.39163,247.32227 L 402.02413,242.77391 L 401.19318,248.08761 L 431.39163,252.76717 L 431.39163,267.52746 L 439.78859,267.52746 L 439.78859,250.49299 L 465.52615,232.32144 L 462.42102,227.92616 L 448.44796,237.78822 L 447.04846,230.61581 C 447.04845,230.45833 447.23581,226.62277 445.84577,225.19277 C 445.18295,219.94784 440.84453,215.89926 435.59011,215.89926 z M 442.15023,234.85803 L 442.15023,240.76214 C 442.15023,240.8505 442.37575,241.28906 442.84998,241.74616 L 439.78859,243.88913 L 439.78859,236.36686 C 440.64297,235.97349 441.43672,235.46389 442.15023,234.85803 z"
       id="path4081" />
    <path
       id="path4090"
       d="M 435.67758,315.80999 C 441.39078,315.80998 446.02071,311.02331 446.02071,305.11698 C 446.02071,304.91074 446.00999,304.70805 445.99884,304.5047 C 446.52152,302.82332 446.43618,300.68578 446.43618,300.56863 L 448.18555,291.64685 C 448.18555,291.45302 447.92524,288.32306 445.21163,288.32306 C 442.49801,288.32306 441.53796,290.22847 441.53796,290.4223 L 441.53796,296.30454 C 441.01574,295.93222 440.46168,295.61203 439.87606,295.34239 L 439.87606,284.38698 L 469.24356,288.93534 L 470.07451,283.62163 L 439.87606,278.94208 L 439.87606,264.18179 L 431.47909,264.18179 L 431.47909,281.21625 L 405.74153,299.3878 L 408.84666,303.78309 L 422.81973,293.92103 L 424.21922,301.09344 C 424.21923,301.25092 424.03187,305.08648 425.42191,306.51647 C 426.08473,311.76141 430.42315,315.80999 435.67758,315.80999 z M 429.11745,296.85122 L 429.11745,290.94711 C 429.11745,290.85874 428.89193,290.42019 428.4177,289.96309 L 431.47909,287.82011 L 431.47909,295.34239 C 430.62472,295.73576 429.83096,296.24536 429.11745,296.85122 z"
       style="opacity:1;fill:#ff0000;fill-opacity:1;fill-rule:nonzero;stroke:#ffffff;stroke-width:0.69974685;stroke-linecap:butt;stroke-linejoin:miter;marker:none;marker-start:none;marker-mid:none;marker-end:none;stroke-miterlimit:4;stroke-dasharray:none;stroke-dashoffset:0;stroke-opacity:1;visibility:visible;display:inline;overflow:visible;enable-background:accumulate" />
    <g
       transform="matrix(0.1390351,0,0,0.1390351,498.76406,191.06159)"
       inkscape:label="Layer 1"
       id="g4106"
       style="display:inline">
      <rect
         rx="60.60915"
         ry="63.63961"
         y="26.047195"
         x="24.243658"
         height="1006.1119"
         width="709.12708"
         id="rect4108"
         style="opacity:0.91666667;fill:#000000;filter:url(#filter3254)" />
      <rect
         style="fill:#ffffff"
         id="rect4110"
         width="709.12708"
         height="1006.1119"
         x="10.101523"
         y="7.8644519"
         ry="63.63961"
         rx="60.60915" />
      <text
         xml:space="preserve"
         style="font-size:225.6577301px;font-style:normal;font-variant:normal;font-weight:normal;font-stretch:normal;fill:#ff0000;fill-opacity:1;stroke:none;stroke-width:1px;stroke-linecap:butt;stroke-linejoin:miter;stroke-opacity:1;filter:url(#filter4970);font-family:Gemelli;-inkscape-font-specification:Gemelli"
         x="47.257381"
         y="188.40356"
         id="text4112"
         transform="scale(1.0234483,0.9770889)"><tspan
           sodipodi:role="line"
           id="tspan4114"
           x="47.257381"
           y="188.40356">K</tspan></text>
      <text
         transform="scale(1.0234483,0.9770889)"
         id="text4116"
         y="980.57336"
         x="537.01221"
         style="font-size:225.6577301px;font-style:normal;font-variant:normal;font-weight:normal;font-stretch:normal;fill:#ff0000;fill-opacity:1;stroke:none;stroke-width:1px;stroke-linecap:butt;stroke-linejoin:miter;stroke-opacity:1;filter:url(#filter4966);font-family:Gemelli;-inkscape-font-specification:Gemelli"
         xml:space="preserve"><tspan
           y="980.57336"
           x="537.01221"
           id="tspan4118"
           sodipodi:role="line">K</tspan></text>
    </g>
    <path
       style="opacity:1;fill:#ff0000;fill-opacity:1;fill-rule:nonzero;stroke:#ffffff;stroke-width:0.69974685;stroke-linecap:butt;stroke-linejoin:miter;marker:none;marker-start:none;marker-mid:none;marker-end:none;stroke-miterlimit:4;stroke-dasharray:none;stroke-dashoffset:0;stroke-opacity:1;visibility:visible;display:inline;overflow:visible;enable-background:accumulate"
       d="M 547.4184,206.56201 C 544.63993,206.53454 545.75828,208.52276 547.37466,210.56369 C 549.03535,208.5517 550.20132,206.58954 547.4184,206.56201 z M 547.37466,210.56369 C 546.6523,211.43886 545.83355,212.31211 545.20982,213.05654 C 544.27071,212.80263 543.10754,212.53068 542.01723,212.22559 C 541.94762,213.36276 541.82224,214.55397 541.75482,215.52752 C 540.83691,215.87627 539.72588,216.35311 538.64969,216.75208 C 539.12701,217.50165 539.59966,218.27157 540.02732,218.98252 C 539.15339,219.87532 538.42955,220.94288 537.90621,222.10951 C 535.7857,221.3531 534.05075,221.18515 534.80109,223.57461 C 535.36673,225.37588 536.26655,225.15589 537.22833,224.16502 C 537.05335,224.94476 536.94406,225.75744 536.94406,226.59227 C 536.94406,230.9517 539.46825,234.69993 543.08871,236.36686 L 543.08871,243.88913 L 520.45628,227.92616 L 517.35115,232.32144 L 543.08871,250.49299 L 543.08871,267.52746 L 551.48568,267.52746 L 551.48568,252.76717 L 581.68412,248.08761 L 580.85317,242.77391 L 551.48568,247.32227 L 551.48568,236.36686 C 555.10614,234.69993 557.63032,230.9517 557.63033,226.59227 C 557.63033,225.8992 557.55529,225.21493 557.43352,224.55863 C 558.31175,225.41461 559.12057,225.49803 559.68583,223.81515 C 560.46912,221.48316 558.81593,221.58164 556.73378,222.26258 C 556.21834,221.06467 555.49476,219.96533 554.61267,219.04812 C 555.04041,218.36579 555.49513,217.6388 555.96843,216.92701 C 554.90604,216.50825 553.81259,216.00157 552.90704,215.63686 C 552.85889,214.66216 552.75734,213.4733 552.71023,212.33493 C 551.61374,212.61849 550.43992,212.86491 549.49577,213.10027 C 548.8845,212.34058 548.08192,211.45671 547.37466,210.56369 z M 552.71023,212.33493 C 555.22831,211.68373 557.30184,210.79643 555.07188,209.14233 C 552.84152,207.48793 552.60267,209.73563 552.71023,212.33493 z M 555.96843,216.92701 C 558.39074,217.88182 560.60581,218.37547 559.7733,215.72432 C 558.94083,213.07333 557.41,214.75902 555.96843,216.92701 z M 538.64969,216.75208 C 537.25132,214.55607 535.77327,212.84983 534.88856,215.48379 C 534.00603,218.11121 536.21636,217.65416 538.64969,216.75208 z M 542.01723,212.22559 C 542.17617,209.62898 541.96192,207.37933 539.69931,208.98926 C 537.43697,210.599 539.51236,211.5247 542.01723,212.22559 z"
       id="path4120" />
    <path
       id="path4129"
       d="M 547.4184,327.7054 C 544.63993,327.73288 545.75828,325.74466 547.37466,323.70373 C 549.03535,325.71572 550.20132,327.67788 547.4184,327.7054 z M 547.37466,323.70373 C 546.6523,322.82856 545.83355,321.9553 545.20982,321.21088 C 544.27071,321.46479 543.10754,321.73674 542.01723,322.04183 C 541.94762,320.90465 541.82224,319.71345 541.75482,318.7399 C 540.83691,318.39114 539.72588,317.91431 538.64969,317.51534 C 539.12701,316.76577 539.59966,315.99585 540.02732,315.2849 C 539.15339,314.3921 538.42955,313.32454 537.90621,312.1579 C 535.7857,312.91432 534.05075,313.08227 534.80109,310.69281 C 535.36673,308.89154 536.26655,309.11153 537.22833,310.1024 C 537.05335,309.32266 536.94406,308.50998 536.94406,307.67515 C 536.94406,303.31572 539.46825,299.56749 543.08871,297.90056 L 543.08871,290.37828 L 520.45628,306.34126 L 517.35115,301.94597 L 543.08871,283.77442 L 543.08871,266.73996 L 551.48568,266.73996 L 551.48568,281.50025 L 581.68412,286.1798 L 580.85317,291.49351 L 551.48568,286.94515 L 551.48568,297.90056 C 555.10614,299.56749 557.63032,303.31572 557.63033,307.67515 C 557.63033,308.36821 557.55529,309.05248 557.43352,309.70879 C 558.31175,308.8528 559.12057,308.76939 559.68583,310.45227 C 560.46912,312.78426 558.81593,312.68578 556.73378,312.00483 C 556.21834,313.20274 555.49476,314.30209 554.61267,315.2193 C 555.04041,315.90163 555.49513,316.62861 555.96843,317.3404 C 554.90604,317.75917 553.81259,318.26585 552.90704,318.63056 C 552.85889,319.60526 552.75734,320.79412 552.71023,321.93249 C 551.61374,321.64893 550.43992,321.4025 549.49577,321.16714 C 548.8845,321.92684 548.08192,322.81071 547.37466,323.70373 z M 552.71023,321.93249 C 555.22831,322.58369 557.30184,323.47098 555.07188,325.12509 C 552.84152,326.77949 552.60267,324.53179 552.71023,321.93249 z M 555.96843,317.3404 C 558.39074,316.3856 560.60581,315.89195 559.7733,318.54309 C 558.94083,321.19408 557.41,319.50839 555.96843,317.3404 z M 538.64969,317.51534 C 537.25132,319.71135 535.77327,321.41758 534.88856,318.78363 C 534.00603,316.15621 536.21636,316.61325 538.64969,317.51534 z M 542.01723,322.04183 C 542.17617,324.63844 541.96192,326.88809 539.69931,325.27816 C 537.43697,323.66842 539.51236,322.74272 542.01723,322.04183 z"
       style="opacity:1;fill:#ff0000;fill-opacity:1;fill-rule:nonzero;stroke:#ffffff;stroke-width:0.69974685;stroke-linecap:butt;stroke-linejoin:miter;marker:none;marker-start:none;marker-mid:none;marker-end:none;stroke-miterlimit:4;stroke-dasharray:none;stroke-dashoffset:0;stroke-opacity:1;visibility:visible;display:inline;overflow:visible;enable-background:accumulate" />
    <path
       style="fill:#ff0000"
       d="M 89.430877,67.449551 C 89.151837,67.449411 89.173237,67.725979 89.430877,68.224401 C 89.689137,67.727175 89.709607,67.449677 89.430877,67.449551 z M 89.430877,68.224401 C 87.230547,72.460606 67.374557,92.863467 60.897387,97.686227 C 60.587397,97.655466 60.303237,97.627175 60.061347,97.594399 C 60.214997,97.69258 60.374937,97.810698 60.554407,97.938779 C 60.376177,98.065266 60.203207,98.174783 60.050627,98.271677 C 60.292527,98.238957 60.576067,98.210456 60.886677,98.179835 C 67.344167,103.00399 87.123397,123.38677 89.345127,127.65314 C 91.579417,123.38756 111.41293,103.01427 117.87858,98.202808 C 118.19549,98.234289 118.47986,98.266772 118.72538,98.30038 C 118.5709,98.201982 118.39164,98.090589 118.21089,97.961738 C 118.38892,97.835189 118.56206,97.720262 118.71466,97.623089 C 118.47187,97.655893 118.19046,97.684239 117.87858,97.71493 C 111.41971,92.892121 91.623937,72.466889 89.430877,68.224401 z M 118.71466,97.623089 C 119.57761,97.506504 119.99052,97.376169 119.85087,97.232798 C 119.71068,97.088874 119.32174,97.236513 118.71466,97.623089 z M 118.72538,98.30038 C 119.32592,98.682897 119.71104,98.833707 119.85087,98.690671 C 119.99032,98.548035 119.58048,98.417406 118.72538,98.30038 z M 89.345127,127.65314 C 89.080387,128.15852 89.063977,128.43935 89.345127,128.43948 C 89.626247,128.43962 89.608397,128.15869 89.345127,127.65314 z M 60.050627,98.271677 C 59.188917,98.388206 58.774877,98.518694 58.914427,98.661982 C 59.053897,98.805185 59.448697,98.653893 60.050627,98.271677 z M 60.061347,97.594399 C 59.455067,97.207019 59.055047,97.060268 58.914427,97.204094 C 58.773877,97.347864 59.192307,97.476653 60.061347,97.594399 z M 86.461757,97.508309 C 96.984547,97.480326 107.95465,97.628596 114.34139,97.955986 C 102.75679,98.538742 76.066177,98.525832 64.456047,97.933034 C 69.665317,97.672099 77.899917,97.531065 86.461757,97.508309 z"
       id="path4096" />
    <g
       id="g3834">
      <g
         transform="matrix(0.6997468,0,0,0.6997468,37.871507,23.315819)"
         id="g2954">
        <rect
           style="opacity:0.91666667;fill:#000000;filter:url(#filter3254)"
           id="rect2936"
           width="709.12708"
           height="1006.1119"
           x="24.243658"
           y="26.047195"
           ry="63.63961"
           rx="60.60915"
           transform="matrix(0.1986935,0,0,0.1986935,168.65616,6.72353)" />
        <rect
           rx="12.042645"
           ry="12.644777"
           y="8.2861452"
           x="170.66327"
           height="199.9079"
           width="140.89894"
           id="rect2938"
           style="fill:#ffffff" />
        <text
           transform="matrix(0.2033525,0,0,0.1941412,168.65616,6.72353)"
           id="text2940"
           y="188.40356"
           x="47.257381"
           style="font-size:225.6577301px;font-style:normal;font-variant:normal;font-weight:normal;font-stretch:normal;fill:#ff0000;fill-opacity:1;stroke:none;stroke-width:1px;stroke-linecap:butt;stroke-linejoin:miter;stroke-opacity:1;filter:url(#filter4970);font-family:Gemelli;-inkscape-font-specification:Gemelli"
           xml:space="preserve"><tspan
             y="188.40356"
             x="47.257381"
             id="tspan2942"
             sodipodi:role="line">2</tspan></text>
        <text
           xml:space="preserve"
           style="font-size:225.6577301px;font-style:normal;font-variant:normal;font-weight:normal;font-stretch:normal;fill:#ff0000;fill-opacity:1;stroke:none;stroke-width:1px;stroke-linecap:butt;stroke-linejoin:miter;stroke-opacity:1;filter:url(#filter4966);font-family:Gemelli;-inkscape-font-specification:Gemelli"
           x="537.01221"
           y="980.57336"
           id="text2944"
           transform="matrix(0.2033525,0,0,0.1941412,168.65616,6.72353)"><tspan
             sodipodi:role="line"
             id="tspan2946"
             x="537.01221"
             y="980.57336">2</tspan></text>
      </g>
      <path
         style="fill:#ff0000"
         d="M 205.26073,54.854108 C 205.08058,54.854025 205.09439,55.019153 205.26073,55.316743 C 205.42746,55.019867 205.44068,54.854183 205.26073,54.854108 z M 205.26073,55.316743 C 203.84019,57.846022 191.02104,70.027817 186.83935,72.907303 C 186.63921,72.888942 186.45576,72.87205 186.29959,72.852478 C 186.39879,72.911096 186.50205,72.981623 186.61791,73.058091 C 186.50285,73.133615 186.39117,73.199006 186.29267,73.256854 C 186.44884,73.237318 186.63189,73.2203 186.83243,73.202022 C 191.00142,76.082341 203.771,88.252149 205.20537,90.799437 C 206.64784,88.252618 219.45247,76.088485 223.62673,73.215737 C 223.83133,73.234533 224.01492,73.25393 224.17342,73.273991 C 224.0737,73.215241 223.95796,73.148737 223.84127,73.071799 C 223.95621,72.996241 224.06799,72.927624 224.16651,72.869608 C 224.00976,72.889194 223.82808,72.90612 223.62673,72.92444 C 219.45684,70.044926 206.67658,57.849773 205.26073,55.316743 z M 224.16651,72.869608 C 224.72363,72.799997 224.99021,72.722178 224.90005,72.636578 C 224.80954,72.550649 224.55844,72.638796 224.16651,72.869608 z M 224.17342,73.273991 C 224.56114,73.502382 224.80977,73.592425 224.90005,73.507021 C 224.99008,73.421855 224.72549,73.343868 224.17342,73.273991 z M 205.20537,90.799437 C 205.03445,91.101182 205.02386,91.268856 205.20537,91.268933 C 205.38686,91.269016 205.37533,91.101287 205.20537,90.799437 z M 186.29267,73.256854 C 185.73634,73.32643 185.46904,73.40434 185.55913,73.489891 C 185.64917,73.575393 185.90406,73.485063 186.29267,73.256854 z M 186.29959,72.852478 C 185.90817,72.62119 185.64992,72.533568 185.55913,72.619441 C 185.46839,72.705279 185.73853,72.782174 186.29959,72.852478 z M 203.34385,72.801074 C 210.13742,72.784371 217.21978,72.872896 221.34309,73.068371 C 213.86401,73.416313 196.6324,73.408602 189.13683,73.054663 C 192.49996,72.898871 197.81628,72.814663 203.34385,72.801074 z"
         id="path4571" />
      <path
         id="path4573"
         d="M 205.26073,105.26317 C 205.08058,105.26309 205.09439,105.42821 205.26073,105.72581 C 205.42746,105.42893 205.44068,105.26325 205.26073,105.26317 z M 205.26073,105.72581 C 203.84019,108.25508 191.02104,120.43688 186.83935,123.31636 C 186.63921,123.298 186.45576,123.28111 186.29959,123.26154 C 186.39879,123.32016 186.50205,123.39069 186.61791,123.46715 C 186.50285,123.54268 186.39117,123.60807 186.29267,123.66592 C 186.44884,123.64638 186.63189,123.62936 186.83243,123.61108 C 191.00142,126.4914 203.771,138.66121 205.20537,141.20849 C 206.64784,138.66168 219.45247,126.49754 223.62673,123.6248 C 223.83133,123.64359 224.01492,123.66299 224.17342,123.68305 C 224.0737,123.6243 223.95796,123.5578 223.84127,123.48086 C 223.95621,123.4053 224.06799,123.33669 224.16651,123.27867 C 224.00976,123.29826 223.82808,123.31518 223.62673,123.3335 C 219.45684,120.45399 206.67658,108.25883 205.26073,105.72581 z M 224.16651,123.27867 C 224.72363,123.20906 224.99021,123.13124 224.90005,123.04564 C 224.80954,122.95971 224.55844,123.04786 224.16651,123.27867 z M 224.17342,123.68305 C 224.56114,123.91144 224.80977,124.00149 224.90005,123.91608 C 224.99008,123.83092 224.72549,123.75293 224.17342,123.68305 z M 205.20537,141.20849 C 205.03445,141.51024 205.02386,141.67791 205.20537,141.67799 C 205.38686,141.67807 205.37533,141.51034 205.20537,141.20849 z M 186.29267,123.66592 C 185.73634,123.73549 185.46904,123.8134 185.55913,123.89895 C 185.64917,123.98446 185.90406,123.89412 186.29267,123.66592 z M 186.29959,123.26154 C 185.90817,123.03025 185.64992,122.94263 185.55913,123.0285 C 185.46839,123.11434 185.73853,123.19124 186.29959,123.26154 z M 203.34385,123.21014 C 210.13742,123.19343 217.21978,123.28196 221.34309,123.47743 C 213.86401,123.82537 196.6324,123.81766 189.13683,123.46372 C 192.49996,123.30793 197.81628,123.22373 203.34385,123.21014 z"
         style="fill:#ff0000" />
    </g>
    <path
       style="fill:#ff0000"
       d="M 319.65993,48.584376 C 319.53421,48.584318 319.54385,48.699559 319.65993,48.907243 C 319.7763,48.700058 319.78552,48.584429 319.65993,48.584376 z M 319.65993,48.907243 C 318.66855,50.672392 309.72219,59.173899 306.80382,61.183453 C 306.66415,61.170638 306.53612,61.15885 306.42713,61.145191 C 306.49636,61.186099 306.56843,61.23532 306.64929,61.288686 C 306.56898,61.341393 306.49104,61.387029 306.4223,61.4274 C 306.53129,61.413765 306.65905,61.401889 306.799,61.389134 C 309.70849,63.399268 318.62027,71.89241 319.6213,73.670127 C 320.62798,71.892737 329.56422,63.403556 332.4774,61.398705 C 332.62018,61.411822 332.7483,61.425359 332.85893,61.439359 C 332.78933,61.398358 332.70856,61.351946 332.62711,61.298253 C 332.70733,61.245521 332.78534,61.197635 332.8541,61.157146 C 332.74471,61.170815 332.61791,61.182627 332.4774,61.195412 C 329.56727,59.185839 320.64804,50.67501 319.65993,48.907243 z M 332.8541,61.157146 C 333.2429,61.108565 333.42895,61.054257 333.36603,60.994518 C 333.30287,60.934549 333.12762,60.996066 332.8541,61.157146 z M 332.85893,61.439359 C 333.12951,61.59875 333.30303,61.66159 333.36603,61.601988 C 333.42886,61.542552 333.24421,61.488125 332.85893,61.439359 z M 319.6213,73.670127 C 319.50202,73.880711 319.49462,73.997728 319.6213,73.997781 C 319.74796,73.99784 319.73991,73.880784 319.6213,73.670127 z M 306.4223,61.4274 C 306.03405,61.475956 305.8475,61.530328 305.91037,61.590033 C 305.97321,61.649704 306.15109,61.586664 306.4223,61.4274 z M 306.42713,61.145191 C 306.15397,60.983779 305.97373,60.922629 305.91037,60.982558 C 305.84705,61.042463 306.03558,61.096127 306.42713,61.145191 z M 318.32216,61.109317 C 323.06333,61.09766 328.00604,61.159441 330.88367,61.295859 C 325.66408,61.538684 313.63831,61.533302 308.40722,61.286293 C 310.75432,61.177568 314.46452,61.118801 318.32216,61.109317 z"
       id="path4575" />
    <path
       id="path4577"
       d="M 319.65993,84.354034 C 319.53421,84.353976 319.54385,84.469217 319.65993,84.676901 C 319.7763,84.469716 319.78552,84.354087 319.65993,84.354034 z M 319.65993,84.676901 C 318.66855,86.44205 309.72219,94.943555 306.80382,96.953109 C 306.66415,96.940297 306.53612,96.928506 306.42713,96.914847 C 306.49636,96.955754 306.56843,97.004974 306.64929,97.058344 C 306.56898,97.111049 306.49104,97.156686 306.4223,97.197055 C 306.53129,97.183424 306.65905,97.171549 306.799,97.158793 C 309.70849,99.168927 318.62027,107.66207 319.6213,109.43978 C 320.62798,107.6624 329.56422,99.173217 332.4774,97.168365 C 332.62018,97.181478 332.7483,97.195018 332.85893,97.20902 C 332.78933,97.168015 332.70856,97.121601 332.62711,97.067909 C 332.70733,97.015176 332.78534,96.967293 332.8541,96.926805 C 332.74471,96.940471 332.61791,96.952283 332.4774,96.965068 C 329.56727,94.9555 320.64804,86.444668 319.65993,84.676901 z M 332.8541,96.926805 C 333.2429,96.878222 333.42895,96.823915 333.36603,96.764177 C 333.30287,96.704209 333.12762,96.765724 332.8541,96.926805 z M 332.85893,97.20902 C 333.12951,97.368409 333.30303,97.431246 333.36603,97.371648 C 333.42886,97.312212 333.24421,97.257786 332.85893,97.20902 z M 319.6213,109.43978 C 319.50202,109.65037 319.49462,109.76738 319.6213,109.76744 C 319.74796,109.7675 319.73991,109.65044 319.6213,109.43978 z M 306.4223,97.197055 C 306.03405,97.245617 305.8475,97.299987 305.91037,97.35969 C 305.97321,97.419364 306.15109,97.356324 306.4223,97.197055 z M 306.42713,96.914847 C 306.15397,96.753436 305.97373,96.692285 305.91037,96.752219 C 305.84705,96.812124 306.03558,96.865788 306.42713,96.914847 z M 318.32216,96.878978 C 323.06333,96.86732 328.00604,96.929101 330.88367,97.065516 C 325.66408,97.308342 313.63831,97.302961 308.40722,97.055951 C 310.75432,96.947224 314.46452,96.888459 318.32216,96.878978 z"
       style="fill:#ff0000" />
    <path
       style="fill:#ff0000"
       d="M 319.65993,120.82344 C 319.53421,120.82338 319.54385,120.93863 319.65993,121.1463 C 319.7763,120.93912 319.78552,120.82349 319.65993,120.82344 z M 319.65993,121.1463 C 318.66855,122.91146 309.72219,131.41296 306.80382,133.42251 C 306.66415,133.4097 306.53612,133.39791 306.42713,133.38425 C 306.49636,133.42515 306.56843,133.47438 306.64929,133.52774 C 306.56898,133.58045 306.49104,133.62609 306.4223,133.66646 C 306.53129,133.65282 306.65905,133.64095 306.799,133.62819 C 309.70849,135.63833 318.62027,144.13147 319.6213,145.90918 C 320.62798,144.1318 329.56422,135.64262 332.4774,133.63777 C 332.62018,133.65088 332.7483,133.66442 332.85893,133.67842 C 332.78933,133.63742 332.70856,133.591 332.62711,133.53731 C 332.70733,133.48458 332.78534,133.43669 332.8541,133.39621 C 332.74471,133.40987 332.61791,133.42168 332.4774,133.43447 C 329.56727,131.4249 320.64804,122.91407 319.65993,121.1463 z M 332.8541,133.39621 C 333.2429,133.34762 333.42895,133.29332 333.36603,133.23358 C 333.30287,133.17361 333.12762,133.23512 332.8541,133.39621 z M 332.85893,133.67842 C 333.12951,133.83781 333.30303,133.90065 333.36603,133.84105 C 333.42886,133.78161 333.24421,133.72719 332.85893,133.67842 z M 319.6213,145.90918 C 319.50202,146.11977 319.49462,146.23678 319.6213,146.23684 C 319.74796,146.2369 319.73991,146.11984 319.6213,145.90918 z M 306.4223,133.66646 C 306.03405,133.71502 305.8475,133.76939 305.91037,133.82909 C 305.97321,133.88877 306.15109,133.82573 306.4223,133.66646 z M 306.42713,133.38425 C 306.15397,133.22284 305.97373,133.16169 305.91037,133.22162 C 305.84705,133.28152 306.03558,133.33519 306.42713,133.38425 z M 318.32216,133.34838 C 323.06333,133.33672 328.00604,133.3985 330.88367,133.53492 C 325.66408,133.77774 313.63831,133.77236 308.40722,133.52535 C 310.75432,133.41663 314.46452,133.35786 318.32216,133.34838 z"
       id="path4579" />
    <path
       id="path4583"
       d="M 412.72626,61.179819 C 412.60053,61.179761 412.61018,61.295002 412.72626,61.502686 C 412.84263,61.295501 412.85185,61.179872 412.72626,61.179819 z M 412.72626,61.502686 C 411.73488,63.267835 402.78852,71.769342 399.87015,73.778896 C 399.73048,73.766081 399.60245,73.754293 399.49346,73.740634 C 399.56269,73.781542 399.63476,73.830762 399.71561,73.884129 C 399.63531,73.936836 399.55737,73.982472 399.48863,74.022843 C 399.59762,74.009208 399.72537,73.997331 399.86532,73.984576 C 402.77482,75.994711 411.68659,84.487853 412.68762,86.26557 C 413.69431,84.48818 422.63054,75.998999 425.54372,73.994148 C 425.68651,74.007264 425.81463,74.020802 425.92525,74.034802 C 425.85566,73.993801 425.77488,73.947389 425.69344,73.893695 C 425.77366,73.840964 425.85167,73.793077 425.92043,73.752589 C 425.81103,73.766258 425.68424,73.77807 425.54372,73.790855 C 422.6336,71.781282 413.71437,63.270453 412.72626,61.502686 z M 425.92043,73.752589 C 426.30923,73.704008 426.49528,73.649699 426.43236,73.589961 C 426.36919,73.529992 426.19395,73.591508 425.92043,73.752589 z M 425.92525,74.034802 C 426.19584,74.194193 426.36935,74.257033 426.43236,74.19743 C 426.49519,74.137995 426.31053,74.083568 425.92525,74.034802 z M 412.68762,86.26557 C 412.56835,86.476154 412.56095,86.59317 412.68762,86.593224 C 412.81429,86.593283 412.80624,86.476227 412.68762,86.26557 z M 399.48863,74.022843 C 399.10037,74.071399 398.91383,74.125771 398.9767,74.185476 C 399.03954,74.245147 399.21742,74.182107 399.48863,74.022843 z M 399.49346,73.740634 C 399.2203,73.579222 399.04006,73.518071 398.9767,73.578 C 398.91337,73.637906 399.10191,73.69157 399.49346,73.740634 z M 411.38849,73.70476 C 416.12966,73.693103 421.07237,73.754884 423.94999,73.891302 C 418.73041,74.134126 406.70464,74.128745 401.47355,73.881736 C 403.82064,73.773011 407.53085,73.714244 411.38849,73.70476 z"
       style="fill:#ff0000" />
    <path
       style="fill:#ff0000"
       d="M 450.70222,61.179819 C 450.57649,61.179761 450.58614,61.295002 450.70222,61.502686 C 450.81859,61.295501 450.82781,61.179872 450.70222,61.179819 z M 450.70222,61.502686 C 449.71084,63.267835 440.76448,71.769342 437.84611,73.778896 C 437.70644,73.766081 437.57841,73.754293 437.46942,73.740634 C 437.53865,73.781542 437.61072,73.830762 437.69157,73.884129 C 437.61127,73.936836 437.53333,73.982472 437.46459,74.022843 C 437.57358,74.009208 437.70133,73.997331 437.84128,73.984576 C 440.75078,75.994711 449.66255,84.487853 450.66358,86.26557 C 451.67027,84.48818 460.6065,75.998999 463.51968,73.994148 C 463.66247,74.007264 463.79059,74.020802 463.90121,74.034802 C 463.83162,73.993801 463.75084,73.947389 463.6694,73.893695 C 463.74962,73.840964 463.82763,73.793077 463.89638,73.752589 C 463.78699,73.766258 463.6602,73.77807 463.51968,73.790855 C 460.60956,71.781282 451.69033,63.270453 450.70222,61.502686 z M 463.89638,73.752589 C 464.28519,73.704008 464.47124,73.649699 464.40832,73.589961 C 464.34515,73.529992 464.16991,73.591508 463.89638,73.752589 z M 463.90121,74.034802 C 464.1718,74.194193 464.34531,74.257033 464.40832,74.19743 C 464.47115,74.137995 464.28649,74.083568 463.90121,74.034802 z M 450.66358,86.26557 C 450.54431,86.476154 450.53691,86.59317 450.66358,86.593224 C 450.79025,86.593283 450.7822,86.476227 450.66358,86.26557 z M 437.46459,74.022843 C 437.07633,74.071399 436.88979,74.125771 436.95266,74.185476 C 437.0155,74.245147 437.19338,74.182107 437.46459,74.022843 z M 437.46942,73.740634 C 437.19626,73.579222 437.01602,73.518071 436.95266,73.578 C 436.88933,73.637906 437.07787,73.69157 437.46942,73.740634 z M 449.36445,73.70476 C 454.10562,73.693103 459.04833,73.754884 461.92595,73.891302 C 456.70637,74.134126 444.6806,74.128745 439.44951,73.881736 C 441.7966,73.773011 445.50681,73.714244 449.36445,73.70476 z"
       id="path4585" />
    <path
       id="path4587"
       d="M 450.70222,107.58563 C 450.57649,107.58557 450.58614,107.70081 450.70222,107.90849 C 450.81859,107.70131 450.82781,107.58568 450.70222,107.58563 z M 450.70222,107.90849 C 449.71084,109.67365 440.76448,118.17515 437.84611,120.1847 C 437.70644,120.17189 437.57841,120.1601 437.46942,120.14644 C 437.53865,120.18735 437.61072,120.23657 437.69157,120.28994 C 437.61127,120.34264 437.53333,120.38828 437.46459,120.42865 C 437.57358,120.41502 437.70133,120.40314 437.84128,120.39039 C 440.75078,122.40052 449.66255,130.89366 450.66358,132.67137 C 451.67027,130.89399 460.6065,122.40481 463.51968,120.39996 C 463.66247,120.41307 463.79059,120.42661 463.90121,120.44062 C 463.83162,120.39961 463.75084,120.3532 463.6694,120.2995 C 463.74962,120.24677 463.82763,120.19889 463.89638,120.1584 C 463.78699,120.17207 463.6602,120.18388 463.51968,120.19666 C 460.60956,118.18709 451.69033,109.67626 450.70222,107.90849 z M 463.89638,120.1584 C 464.28519,120.10982 464.47124,120.05551 464.40832,119.99577 C 464.34515,119.9358 464.16991,119.99732 463.89638,120.1584 z M 463.90121,120.44062 C 464.1718,120.6 464.34531,120.66284 464.40832,120.60324 C 464.47115,120.54381 464.28649,120.48938 463.90121,120.44062 z M 450.66358,132.67137 C 450.54431,132.88196 450.53691,132.99897 450.66358,132.99903 C 450.79025,132.99909 450.7822,132.88203 450.66358,132.67137 z M 437.46459,120.42865 C 437.07633,120.47721 436.88979,120.53158 436.95266,120.59128 C 437.0155,120.65096 437.19338,120.58792 437.46459,120.42865 z M 437.46942,120.14644 C 437.19626,119.98503 437.01602,119.92388 436.95266,119.98381 C 436.88933,120.04372 437.07787,120.09738 437.46942,120.14644 z M 449.36445,120.11057 C 454.10562,120.09892 459.04833,120.1607 461.92595,120.29711 C 456.70637,120.53994 444.6806,120.53456 439.44951,120.28755 C 441.7966,120.17882 445.50681,120.12005 449.36445,120.11057 z"
       style="fill:#ff0000" />
    <path
       style="fill:#ff0000"
       d="M 412.72626,107.58563 C 412.60053,107.58557 412.61018,107.70081 412.72626,107.90849 C 412.84263,107.70131 412.85185,107.58568 412.72626,107.58563 z M 412.72626,107.90849 C 411.73488,109.67365 402.78852,118.17515 399.87015,120.1847 C 399.73048,120.17189 399.60245,120.1601 399.49346,120.14644 C 399.56269,120.18735 399.63476,120.23657 399.71561,120.28994 C 399.63531,120.34264 399.55737,120.38828 399.48863,120.42865 C 399.59762,120.41502 399.72537,120.40314 399.86532,120.39039 C 402.77482,122.40052 411.68659,130.89366 412.68762,132.67137 C 413.69431,130.89399 422.63054,122.40481 425.54372,120.39996 C 425.68651,120.41307 425.81463,120.42661 425.92525,120.44062 C 425.85566,120.39961 425.77488,120.3532 425.69344,120.2995 C 425.77366,120.24677 425.85167,120.19889 425.92043,120.1584 C 425.81103,120.17207 425.68424,120.18388 425.54372,120.19666 C 422.6336,118.18709 413.71437,109.67626 412.72626,107.90849 z M 425.92043,120.1584 C 426.30923,120.10982 426.49528,120.05551 426.43236,119.99577 C 426.36919,119.9358 426.19395,119.99732 425.92043,120.1584 z M 425.92525,120.44062 C 426.19584,120.6 426.36935,120.66284 426.43236,120.60324 C 426.49519,120.54381 426.31053,120.48938 425.92525,120.44062 z M 412.68762,132.67137 C 412.56835,132.88196 412.56095,132.99897 412.68762,132.99903 C 412.81429,132.99909 412.80624,132.88203 412.68762,132.67137 z M 399.48863,120.42865 C 399.10037,120.47721 398.91383,120.53158 398.9767,120.59128 C 399.03954,120.65096 399.21742,120.58792 399.48863,120.42865 z M 399.49346,120.14644 C 399.2203,119.98503 399.04006,119.92388 398.9767,119.98381 C 398.91337,120.04372 399.10191,120.09738 399.49346,120.14644 z M 411.38849,120.11057 C 416.12966,120.09892 421.07237,120.1607 423.94999,120.29711 C 418.73041,120.53994 406.70464,120.53456 401.47355,120.28755 C 403.82064,120.17882 407.53085,120.12005 411.38849,120.11057 z"
       id="path4589" />
    <g
       id="g3807">
      <g
         style="display:inline"
         id="g3052"
         inkscape:label="Layer 1"
         transform="matrix(0.1390351,0,0,0.1390351,495.96508,30.119828)">
        <rect
           style="opacity:0.91666667;fill:#000000;filter:url(#filter3254)"
           id="rect3054"
           width="709.12708"
           height="1006.1119"
           x="24.243658"
           y="26.047195"
           ry="63.63961"
           rx="60.60915" />
        <rect
           rx="60.60915"
           ry="63.63961"
           y="7.8644519"
           x="10.101523"
           height="1006.1119"
           width="709.12708"
           id="rect3056"
           style="fill:#ffffff" />
        <text
           transform="scale(1.0234483,0.9770889)"
           id="text3058"
           y="188.40356"
           x="47.257381"
           style="font-size:225.6577301px;font-style:normal;font-variant:normal;font-weight:normal;font-stretch:normal;fill:#ff0000;fill-opacity:1;stroke:none;stroke-width:1px;stroke-linecap:butt;stroke-linejoin:miter;stroke-opacity:1;filter:url(#filter4970);font-family:Gemelli;-inkscape-font-specification:Gemelli"
           xml:space="preserve"><tspan
             y="188.40356"
             x="47.257381"
             id="tspan3060"
             sodipodi:role="line">5</tspan></text>
        <text
           xml:space="preserve"
           style="font-size:225.6577301px;font-style:normal;font-variant:normal;font-weight:normal;font-stretch:normal;fill:#ff0000;fill-opacity:1;stroke:none;stroke-width:1px;stroke-linecap:butt;stroke-linejoin:miter;stroke-opacity:1;filter:url(#filter4966);font-family:Gemelli;-inkscape-font-specification:Gemelli"
           x="537.01221"
           y="980.57336"
           id="text3062"
           transform="scale(1.0234483,0.9770889)"><tspan
             sodipodi:role="line"
             id="tspan3064"
             x="537.01221"
             y="980.57336">5</tspan></text>
      </g>
      <path
         style="fill:#ff0000"
         d="M 524.68575,56.504111 C 524.56003,56.504053 524.56967,56.619293 524.68575,56.826977 C 524.80212,56.619792 524.81134,56.504163 524.68575,56.504111 z M 524.68575,56.826977 C 523.69437,58.592127 514.74801,67.093634 511.82964,69.103187 C 511.68997,69.090373 511.56194,69.078584 511.45295,69.064926 C 511.52218,69.105834 511.59425,69.155054 511.67511,69.20842 C 511.5948,69.261127 511.51686,69.306763 511.44812,69.347135 C 511.55711,69.3335 511.68487,69.321623 511.82482,69.308868 C 514.73431,71.319003 523.64609,79.812144 524.64712,81.589862 C 525.6538,79.812472 534.59004,71.32329 537.50322,69.318439 C 537.646,69.331556 537.77412,69.345093 537.88475,69.359094 C 537.81515,69.318093 537.73438,69.271681 537.65293,69.217987 C 537.73315,69.165256 537.81116,69.117369 537.87992,69.07688 C 537.77053,69.090549 537.64373,69.102362 537.50322,69.115147 C 534.59309,67.105573 525.67386,58.594744 524.68575,56.826977 z M 537.87992,69.07688 C 538.26872,69.0283 538.45477,68.973991 538.39185,68.914252 C 538.32869,68.854283 538.15344,68.9158 537.87992,69.07688 z M 537.88475,69.359094 C 538.15533,69.518484 538.32885,69.581324 538.39185,69.521722 C 538.45468,69.462286 538.27003,69.40786 537.88475,69.359094 z M 524.64712,81.589862 C 524.52784,81.800446 524.52044,81.917462 524.64712,81.917516 C 524.77378,81.917575 524.76573,81.800518 524.64712,81.589862 z M 511.44812,69.347135 C 511.05987,69.395691 510.87332,69.450062 510.93619,69.509768 C 510.99903,69.569439 511.17691,69.506398 511.44812,69.347135 z M 511.45295,69.064926 C 511.17979,68.903513 510.99955,68.842363 510.93619,68.902292 C 510.87287,68.962198 511.0614,69.015862 511.45295,69.064926 z M 523.34798,69.029052 C 528.08915,69.017395 533.03186,69.079176 535.90949,69.215594 C 530.6899,69.458418 518.66413,69.453037 513.43304,69.206028 C 515.78013,69.097303 519.49034,69.038536 523.34798,69.029052 z"
         id="path4591" />
      <path
         id="path4593"
         d="M 562.66171,56.504111 C 562.53599,56.504053 562.54563,56.619293 562.66171,56.826977 C 562.77808,56.619792 562.7873,56.504163 562.66171,56.504111 z M 562.66171,56.826977 C 561.67033,58.592127 552.72397,67.093634 549.8056,69.103187 C 549.66593,69.090373 549.5379,69.078584 549.42891,69.064926 C 549.49814,69.105834 549.57021,69.155054 549.65106,69.20842 C 549.57076,69.261127 549.49282,69.306763 549.42408,69.347135 C 549.53307,69.3335 549.66083,69.321623 549.80078,69.308868 C 552.71027,71.319003 561.62205,79.812144 562.62308,81.589862 C 563.62976,79.812472 572.566,71.32329 575.47918,69.318439 C 575.62196,69.331556 575.75008,69.345093 575.86071,69.359094 C 575.79111,69.318093 575.71034,69.271681 575.62889,69.217987 C 575.70911,69.165256 575.78712,69.117369 575.85588,69.07688 C 575.74649,69.090549 575.61969,69.102362 575.47918,69.115147 C 572.56905,67.105573 563.64982,58.594744 562.66171,56.826977 z M 575.85588,69.07688 C 576.24468,69.0283 576.43073,68.973991 576.36781,68.914252 C 576.30465,68.854283 576.1294,68.9158 575.85588,69.07688 z M 575.86071,69.359094 C 576.13129,69.518484 576.30481,69.581324 576.36781,69.521722 C 576.43064,69.462286 576.24599,69.40786 575.86071,69.359094 z M 562.62308,81.589862 C 562.5038,81.800446 562.4964,81.917462 562.62308,81.917516 C 562.74974,81.917575 562.74169,81.800518 562.62308,81.589862 z M 549.42408,69.347135 C 549.03583,69.395691 548.84928,69.450062 548.91215,69.509768 C 548.97499,69.569439 549.15287,69.506398 549.42408,69.347135 z M 549.42891,69.064926 C 549.15575,68.903513 548.97551,68.842363 548.91215,68.902292 C 548.84883,68.962198 549.03736,69.015862 549.42891,69.064926 z M 561.32394,69.029052 C 566.06511,69.017395 571.00782,69.079176 573.88545,69.215594 C 568.66586,69.458418 556.64009,69.453037 551.409,69.206028 C 553.75609,69.097303 557.4663,69.038536 561.32394,69.029052 z"
         style="fill:#ff0000" />
      <path
         style="fill:#ff0000"
         d="M 542.17942,89.392212 C 542.0537,89.392153 542.06334,89.507394 542.17942,89.715078 C 542.29579,89.507893 542.30501,89.392264 542.17942,89.392212 z M 542.17942,89.715078 C 541.18804,91.480227 532.24168,99.981732 529.32331,101.99129 C 529.18364,101.97847 529.05561,101.96668 528.94662,101.95302 C 529.01585,101.99393 529.08792,102.04315 529.16878,102.09652 C 529.08847,102.14923 529.01053,102.19486 528.94179,102.23523 C 529.05078,102.2216 529.17854,102.20973 529.31849,102.19697 C 532.22798,104.2071 541.13976,112.70025 542.14079,114.47796 C 543.14747,112.70058 552.08371,104.21139 554.99689,102.20654 C 555.13967,102.21966 555.26779,102.2332 555.37842,102.2472 C 555.30882,102.20619 555.22805,102.15978 555.1466,102.10609 C 555.22682,102.05335 555.30483,102.00547 555.37359,101.96498 C 555.2642,101.97865 555.1374,101.99046 554.99689,102.00325 C 552.08676,99.993677 543.16753,91.482845 542.17942,89.715078 z M 555.37359,101.96498 C 555.76239,101.9164 555.94844,101.86209 555.88552,101.80235 C 555.82236,101.74239 555.64711,101.8039 555.37359,101.96498 z M 555.37842,102.2472 C 555.649,102.40659 555.82252,102.46942 555.88552,102.40983 C 555.94835,102.35039 555.7637,102.29596 555.37842,102.2472 z M 542.14079,114.47796 C 542.02151,114.68855 542.01411,114.80556 542.14079,114.80562 C 542.26745,114.80567 542.2594,114.68862 542.14079,114.47796 z M 528.94179,102.23523 C 528.55354,102.28379 528.36699,102.33817 528.42986,102.39787 C 528.4927,102.45754 528.67058,102.3945 528.94179,102.23523 z M 528.94662,101.95302 C 528.67346,101.79161 528.49322,101.73046 528.42986,101.7904 C 528.36654,101.8503 528.55507,101.90397 528.94662,101.95302 z M 540.84165,101.91716 C 545.58282,101.9055 550.52553,101.96728 553.40316,102.10369 C 548.18357,102.34652 536.1578,102.34114 530.92671,102.09413 C 533.27381,101.9854 536.98401,101.92664 540.84165,101.91716 z"
         id="path4595" />
      <path
         id="path4597"
         d="M 525.3855,120.18107 C 525.25977,120.18102 525.26942,120.29626 525.3855,120.50394 C 525.50186,120.29675 525.51109,120.18112 525.3855,120.18107 z M 525.3855,120.50394 C 524.39412,122.26909 515.44776,130.77059 512.52939,132.78014 C 512.38971,132.76733 512.26169,132.75554 512.1527,132.74188 C 512.22193,132.78279 512.294,132.83201 512.37485,132.88538 C 512.29455,132.93808 512.21661,132.98372 512.14787,133.02409 C 512.25686,133.01046 512.38461,132.99858 512.52456,132.98583 C 515.43406,134.99596 524.34583,143.4891 525.34686,145.26682 C 526.35355,143.48943 535.28978,135.00025 538.20296,132.9954 C 538.34575,133.00851 538.47387,133.02205 538.58449,133.03605 C 538.5149,132.99505 538.43412,132.94863 538.35268,132.89494 C 538.4329,132.84221 538.51091,132.79433 538.57966,132.75384 C 538.47027,132.7675 538.34348,132.77932 538.20296,132.7921 C 535.29283,130.78253 526.37361,122.27171 525.3855,120.50394 z M 538.57966,132.75384 C 538.96847,132.70526 539.15452,132.65095 539.0916,132.59121 C 539.02843,132.53124 538.85319,132.59276 538.57966,132.75384 z M 538.58449,133.03605 C 538.85508,133.19544 539.02859,133.25828 539.0916,133.19868 C 539.15443,133.13925 538.96977,133.08482 538.58449,133.03605 z M 525.34686,145.26682 C 525.22758,145.47741 525.22019,145.59442 525.34686,145.59447 C 525.47352,145.59453 525.46548,145.47748 525.34686,145.26682 z M 512.14787,133.02409 C 511.75961,133.07265 511.57307,133.12702 511.63594,133.18672 C 511.69878,133.2464 511.87666,133.18336 512.14787,133.02409 z M 512.1527,132.74188 C 511.87954,132.58047 511.6993,132.51932 511.63594,132.57925 C 511.57261,132.63916 511.76115,132.69282 512.1527,132.74188 z M 524.04773,132.70601 C 528.7889,132.69435 533.73161,132.75613 536.60923,132.89255 C 531.38965,133.13538 519.36387,133.12999 514.13278,132.88298 C 516.47988,132.77426 520.19009,132.71549 524.04773,132.70601 z"
         style="fill:#ff0000" />
      <path
         style="fill:#ff0000"
         d="M 563.36146,120.18107 C 563.23573,120.18102 563.24538,120.29626 563.36146,120.50394 C 563.47782,120.29675 563.48705,120.18112 563.36146,120.18107 z M 563.36146,120.50394 C 562.37008,122.26909 553.42371,130.77059 550.50535,132.78014 C 550.36567,132.76733 550.23765,132.75554 550.12866,132.74188 C 550.19789,132.78279 550.26996,132.83201 550.35081,132.88538 C 550.27051,132.93808 550.19257,132.98372 550.12383,133.02409 C 550.23282,133.01046 550.36057,132.99858 550.50052,132.98583 C 553.41002,134.99596 562.32179,143.4891 563.32282,145.26682 C 564.32951,143.48943 573.26574,135.00025 576.17892,132.9954 C 576.32171,133.00851 576.44983,133.02205 576.56045,133.03605 C 576.49086,132.99505 576.41008,132.94863 576.32864,132.89494 C 576.40886,132.84221 576.48687,132.79433 576.55562,132.75384 C 576.44623,132.7675 576.31944,132.77932 576.17892,132.7921 C 573.26879,130.78253 564.34957,122.27171 563.36146,120.50394 z M 576.55562,132.75384 C 576.94443,132.70526 577.13048,132.65095 577.06756,132.59121 C 577.00439,132.53124 576.82915,132.59276 576.55562,132.75384 z M 576.56045,133.03605 C 576.83104,133.19544 577.00455,133.25828 577.06756,133.19868 C 577.13039,133.13925 576.94573,133.08482 576.56045,133.03605 z M 563.32282,145.26682 C 563.20354,145.47741 563.19615,145.59442 563.32282,145.59447 C 563.44948,145.59453 563.44144,145.47748 563.32282,145.26682 z M 550.12383,133.02409 C 549.73557,133.07265 549.54903,133.12702 549.6119,133.18672 C 549.67474,133.2464 549.85262,133.18336 550.12383,133.02409 z M 550.12866,132.74188 C 549.8555,132.58047 549.67526,132.51932 549.6119,132.57925 C 549.54857,132.63916 549.73711,132.69282 550.12866,132.74188 z M 562.02369,132.70601 C 566.76486,132.69435 571.70757,132.75613 574.58519,132.89255 C 569.36561,133.13538 557.33983,133.12999 552.10874,132.88298 C 554.45584,132.77426 558.16605,132.71549 562.02369,132.70601 z"
         id="path4599" />
    </g>
    <path
       id="path4601"
       d="M 68.450817,217.22336 C 68.325097,217.2233 68.334737,217.33854 68.450817,217.54622 C 68.567187,217.33904 68.576407,217.22341 68.450817,217.22336 z M 68.450817,217.54622 C 67.459437,219.31137 58.513077,227.81288 55.594707,229.82243 C 55.455037,229.80962 55.327007,229.79783 55.218017,229.78417 C 55.287247,229.82508 55.359317,229.8743 55.440167,229.92767 C 55.359867,229.98037 55.281927,230.02601 55.213187,230.06638 C 55.322177,230.05275 55.449937,230.04087 55.589887,230.02811 C 58.499377,232.03825 67.411157,240.53139 68.412187,242.30911 C 69.418867,240.53172 78.355107,232.04254 81.268277,230.03769 C 81.411067,230.0508 81.539187,230.06434 81.649807,230.07834 C 81.580217,230.03734 81.499447,229.99092 81.417997,229.93723 C 81.498217,229.8845 81.576227,229.83662 81.644987,229.79613 C 81.535587,229.80979 81.408797,229.82161 81.268277,229.83439 C 78.358157,227.82482 69.438927,219.31399 68.450817,217.54622 z M 81.644987,229.79613 C 82.033787,229.74754 82.219837,229.69324 82.156917,229.6335 C 82.093747,229.57353 81.918507,229.63505 81.644987,229.79613 z M 81.649807,230.07834 C 81.920397,230.23773 82.093917,230.30057 82.156917,230.24097 C 82.219747,230.18153 82.035097,230.12711 81.649807,230.07834 z M 68.412187,242.30911 C 68.292907,242.51969 68.285507,242.63671 68.412187,242.63676 C 68.538847,242.63682 68.530797,242.51976 68.412187,242.30911 z M 55.213187,230.06638 C 54.824937,230.11494 54.638387,230.16931 54.701257,230.22901 C 54.764097,230.28869 54.941977,230.22565 55.213187,230.06638 z M 55.218017,229.78417 C 54.944857,229.62276 54.764617,229.56161 54.701257,229.62154 C 54.637937,229.68145 54.826467,229.73511 55.218017,229.78417 z M 67.113047,229.7483 C 71.854217,229.73664 76.796927,229.79842 79.674557,229.93484 C 74.454967,230.17766 62.429197,230.17228 57.198107,229.92527 C 59.545197,229.81655 63.255407,229.75778 67.113047,229.7483 z"
       style="fill:#ff0000" />
    <path
       style="fill:#ff0000"
       d="M 106.42678,217.22336 C 106.30106,217.2233 106.3107,217.33854 106.42678,217.54622 C 106.54315,217.33904 106.55237,217.22341 106.42678,217.22336 z M 106.42678,217.54622 C 105.4354,219.31137 96.489037,227.81288 93.570667,229.82243 C 93.430997,229.80962 93.302967,229.79783 93.193977,229.78417 C 93.263207,229.82508 93.335277,229.8743 93.416127,229.92767 C 93.335827,229.98037 93.257887,230.02601 93.189147,230.06638 C 93.298137,230.05275 93.425897,230.04087 93.565847,230.02811 C 96.475337,232.03825 105.38712,240.53139 106.38815,242.30911 C 107.39483,240.53172 116.33107,232.04254 119.24425,230.03769 C 119.38703,230.0508 119.51515,230.06434 119.62578,230.07834 C 119.55618,230.03734 119.47541,229.99092 119.39396,229.93723 C 119.47418,229.8845 119.55219,229.83662 119.62095,229.79613 C 119.51156,229.80979 119.38476,229.82161 119.24425,229.83439 C 116.33412,227.82482 107.41489,219.31399 106.42678,217.54622 z M 119.62095,229.79613 C 120.00975,229.74754 120.1958,229.69324 120.13288,229.6335 C 120.06972,229.57353 119.89447,229.63505 119.62095,229.79613 z M 119.62578,230.07834 C 119.89636,230.23773 120.06988,230.30057 120.13288,230.24097 C 120.19571,230.18153 120.01106,230.12711 119.62578,230.07834 z M 106.38815,242.30911 C 106.26887,242.51969 106.26147,242.63671 106.38815,242.63676 C 106.51481,242.63682 106.50676,242.51976 106.38815,242.30911 z M 93.189147,230.06638 C 92.800897,230.11494 92.614347,230.16931 92.677217,230.22901 C 92.740057,230.28869 92.917937,230.22565 93.189147,230.06638 z M 93.193977,229.78417 C 92.920817,229.62276 92.740577,229.56161 92.677217,229.62154 C 92.613897,229.68145 92.802427,229.73511 93.193977,229.78417 z M 105.08901,229.7483 C 109.83018,229.73664 114.77289,229.79842 117.65052,229.93484 C 112.43093,230.17766 100.40516,230.17228 95.174067,229.92527 C 97.521157,229.81655 101.23137,229.75778 105.08901,229.7483 z"
       id="path4603" />
    <path
       id="path4605"
       d="M 106.42678,253.13296 C 106.30106,253.13291 106.3107,253.24815 106.42678,253.45583 C 106.54315,253.24865 106.55237,253.13301 106.42678,253.13296 z M 106.42678,253.45583 C 105.4354,255.22098 96.489037,263.72248 93.570667,265.73204 C 93.430997,265.71923 93.302967,265.70744 93.193977,265.69378 C 93.263207,265.73468 93.335277,265.7839 93.416127,265.83727 C 93.335827,265.88998 93.257887,265.93562 93.189147,265.97598 C 93.298137,265.96235 93.425897,265.95048 93.565847,265.93772 C 96.475337,267.94786 105.38712,276.441 106.38815,278.21871 C 107.39483,276.44133 116.33107,267.95215 119.24425,265.9473 C 119.38703,265.96041 119.51515,265.97395 119.62578,265.98795 C 119.55618,265.94695 119.47541,265.90053 119.39396,265.84684 C 119.47418,265.79411 119.55219,265.74622 119.62095,265.70574 C 119.51156,265.7194 119.38476,265.73121 119.24425,265.744 C 116.33412,263.73443 107.41489,255.2236 106.42678,253.45583 z M 119.62095,265.70574 C 120.00975,265.65715 120.1958,265.60284 120.13288,265.54311 C 120.06972,265.48314 119.89447,265.54465 119.62095,265.70574 z M 119.62578,265.98795 C 119.89636,266.14734 120.06988,266.21018 120.13288,266.15058 C 120.19571,266.09114 120.01106,266.03672 119.62578,265.98795 z M 106.38815,278.21871 C 106.26887,278.4293 106.26147,278.54631 106.38815,278.54637 C 106.51481,278.54643 106.50676,278.42937 106.38815,278.21871 z M 93.189147,265.97598 C 92.800897,266.02455 92.614347,266.07892 92.677217,266.13862 C 92.740057,266.19829 92.917937,266.13525 93.189147,265.97598 z M 93.193977,265.69378 C 92.920817,265.53237 92.740577,265.47122 92.677217,265.53115 C 92.613897,265.59105 92.802427,265.64472 93.193977,265.69378 z M 105.08901,265.65791 C 109.83018,265.64625 114.77289,265.70803 117.65052,265.84445 C 112.43093,266.08727 100.40516,266.08189 95.174067,265.83488 C 97.521157,265.72615 101.23137,265.66739 105.08901,265.65791 z"
       style="fill:#ff0000" />
    <path
       style="fill:#ff0000"
       d="M 68.450817,253.13296 C 68.325097,253.13291 68.334737,253.24815 68.450817,253.45583 C 68.567187,253.24865 68.576407,253.13301 68.450817,253.13296 z M 68.450817,253.45583 C 67.459437,255.22098 58.513077,263.72248 55.594707,265.73204 C 55.455037,265.71923 55.327007,265.70744 55.218017,265.69378 C 55.287247,265.73468 55.359317,265.7839 55.440167,265.83727 C 55.359867,265.88998 55.281927,265.93562 55.213187,265.97598 C 55.322177,265.96235 55.449937,265.95048 55.589887,265.93772 C 58.499377,267.94786 67.411157,276.441 68.412187,278.21871 C 69.418867,276.44133 78.355107,267.95215 81.268287,265.9473 C 81.411067,265.96041 81.539187,265.97395 81.649817,265.98795 C 81.580217,265.94695 81.499447,265.90053 81.417997,265.84684 C 81.498217,265.79411 81.576227,265.74622 81.644987,265.70574 C 81.535597,265.7194 81.408797,265.73121 81.268287,265.744 C 78.358157,263.73443 69.438927,255.2236 68.450817,253.45583 z M 81.644987,265.70574 C 82.033787,265.65715 82.219837,265.60284 82.156917,265.54311 C 82.093757,265.48314 81.918507,265.54465 81.644987,265.70574 z M 81.649817,265.98795 C 81.920397,266.14734 82.093917,266.21018 82.156917,266.15058 C 82.219747,266.09114 82.035097,266.03672 81.649817,265.98795 z M 68.412187,278.21871 C 68.292907,278.4293 68.285507,278.54631 68.412187,278.54637 C 68.538847,278.54643 68.530797,278.42937 68.412187,278.21871 z M 55.213187,265.97598 C 54.824937,266.02455 54.638387,266.07892 54.701257,266.13862 C 54.764097,266.19829 54.941977,266.13525 55.213187,265.97598 z M 55.218017,265.69378 C 54.944857,265.53237 54.764617,265.47122 54.701257,265.53115 C 54.637937,265.59105 54.826467,265.64472 55.218017,265.69378 z M 67.113047,265.65791 C 71.854217,265.64625 76.796927,265.70803 79.674557,265.84445 C 74.454967,266.08727 62.429197,266.08189 57.198107,265.83488 C 59.545197,265.72615 63.255407,265.66739 67.113047,265.65791 z"
       id="path4607" />
    <path
       id="path4609"
       d="M 68.450817,289.04257 C 68.325097,289.04252 68.334737,289.15776 68.450817,289.36544 C 68.567187,289.15825 68.576407,289.04262 68.450817,289.04257 z M 68.450817,289.36544 C 67.459437,291.13059 58.513077,299.63209 55.594707,301.64165 C 55.455037,301.62883 55.327007,301.61704 55.218017,301.60338 C 55.287247,301.64429 55.359317,301.69351 55.440167,301.74688 C 55.359867,301.79959 55.281927,301.84522 55.213187,301.88559 C 55.322177,301.87196 55.449937,301.86009 55.589887,301.84733 C 58.499377,303.85746 67.411157,312.35061 68.412187,314.12832 C 69.418867,312.35094 78.355107,303.86175 81.268287,301.8569 C 81.411067,301.87002 81.539187,301.88356 81.649817,301.89756 C 81.580217,301.85655 81.499447,301.81014 81.417997,301.75645 C 81.498217,301.70371 81.576227,301.65583 81.644987,301.61534 C 81.535597,301.62901 81.408797,301.64082 81.268287,301.65361 C 78.358157,299.64404 69.438927,291.13321 68.450817,289.36544 z M 81.644987,301.61534 C 82.033787,301.56676 82.219837,301.51245 82.156917,301.45271 C 82.093757,301.39275 81.918507,301.45426 81.644987,301.61534 z M 81.649817,301.89756 C 81.920397,302.05695 82.093917,302.11978 82.156917,302.06019 C 82.219747,302.00075 82.035097,301.94632 81.649817,301.89756 z M 68.412187,314.12832 C 68.292907,314.33891 68.285507,314.45592 68.412187,314.45598 C 68.538847,314.45603 68.530797,314.33898 68.412187,314.12832 z M 55.213187,301.88559 C 54.824937,301.93415 54.638387,301.98852 54.701257,302.04823 C 54.764097,302.1079 54.941977,302.04486 55.213187,301.88559 z M 55.218017,301.60338 C 54.944857,301.44197 54.764617,301.38082 54.701257,301.44076 C 54.637937,301.50066 54.826467,301.55433 55.218017,301.60338 z M 67.113047,301.56752 C 71.854217,301.55586 76.796927,301.61764 79.674557,301.75405 C 74.454967,301.99688 62.429197,301.9915 57.198107,301.74449 C 59.545197,301.63576 63.255407,301.577 67.113047,301.56752 z"
       style="fill:#ff0000" />
    <path
       style="fill:#ff0000"
       d="M 106.42678,289.04257 C 106.30106,289.04252 106.3107,289.15776 106.42678,289.36544 C 106.54315,289.15825 106.55237,289.04262 106.42678,289.04257 z M 106.42678,289.36544 C 105.4354,291.13059 96.489037,299.63209 93.570667,301.64165 C 93.430997,301.62883 93.302967,301.61704 93.193977,301.60338 C 93.263207,301.64429 93.335277,301.69351 93.416127,301.74688 C 93.335827,301.79959 93.257887,301.84522 93.189147,301.88559 C 93.298137,301.87196 93.425897,301.86009 93.565847,301.84733 C 96.475337,303.85746 105.38712,312.35061 106.38815,314.12832 C 107.39483,312.35094 116.33107,303.86175 119.24425,301.8569 C 119.38703,301.87002 119.51515,301.88356 119.62578,301.89756 C 119.55618,301.85655 119.47541,301.81014 119.39396,301.75645 C 119.47418,301.70371 119.55219,301.65583 119.62095,301.61534 C 119.51156,301.62901 119.38476,301.64082 119.24425,301.65361 C 116.33412,299.64404 107.41489,291.13321 106.42678,289.36544 z M 119.62095,301.61534 C 120.00975,301.56676 120.1958,301.51245 120.13288,301.45271 C 120.06972,301.39275 119.89447,301.45426 119.62095,301.61534 z M 119.62578,301.89756 C 119.89636,302.05695 120.06988,302.11978 120.13288,302.06019 C 120.19571,302.00075 120.01106,301.94632 119.62578,301.89756 z M 106.38815,314.12832 C 106.26887,314.33891 106.26147,314.45592 106.38815,314.45598 C 106.51481,314.45603 106.50676,314.33898 106.38815,314.12832 z M 93.189147,301.88559 C 92.800897,301.93415 92.614347,301.98852 92.677217,302.04823 C 92.740057,302.1079 92.917937,302.04486 93.189147,301.88559 z M 93.193977,301.60338 C 92.920817,301.44197 92.740577,301.38082 92.677217,301.44076 C 92.613897,301.50066 92.802427,301.55433 93.193977,301.60338 z M 105.08901,301.56752 C 109.83018,301.55586 114.77289,301.61764 117.65052,301.75405 C 112.43093,301.99688 100.40516,301.9915 95.174067,301.74449 C 97.521157,301.63576 101.23137,301.577 105.08901,301.56752 z"
       id="path4611" />
    <g
       id="g4892">
      <g
         style="display:inline"
         id="g3102"
         inkscape:label="Layer 1"
         transform="matrix(0.1390351,0,0,0.1390351,153.08913,192.46109)">
        <rect
           style="opacity:0.91666667;fill:#000000;filter:url(#filter3254)"
           id="rect3104"
           width="709.12708"
           height="1006.1119"
           x="24.243658"
           y="26.047195"
           ry="63.63961"
           rx="60.60915" />
        <rect
           rx="60.60915"
           ry="63.63961"
           y="7.8644519"
           x="10.101523"
           height="1006.1119"
           width="709.12708"
           id="rect3106"
           style="fill:#ffffff" />
        <text
           transform="scale(1.0234483,0.9770889)"
           id="text3108"
           y="188.40356"
           x="47.257381"
           style="font-size:225.6577301px;font-style:normal;font-variant:normal;font-weight:normal;font-stretch:normal;fill:#ff0000;fill-opacity:1;stroke:none;stroke-width:1px;stroke-linecap:butt;stroke-linejoin:miter;stroke-opacity:1;filter:url(#filter4970);font-family:Gemelli;-inkscape-font-specification:Gemelli"
           xml:space="preserve"><tspan
             y="188.40356"
             x="47.257381"
             id="tspan3110"
             sodipodi:role="line">7</tspan></text>
        <text
           xml:space="preserve"
           style="font-size:225.6577301px;font-style:normal;font-variant:normal;font-weight:normal;font-stretch:normal;fill:#ff0000;fill-opacity:1;stroke:none;stroke-width:1px;stroke-linecap:butt;stroke-linejoin:miter;stroke-opacity:1;filter:url(#filter4966);font-family:Gemelli;-inkscape-font-specification:Gemelli"
           x="537.01221"
           y="980.57336"
           id="text3112"
           transform="scale(1.0234483,0.9770889)"><tspan
             sodipodi:role="line"
             id="tspan3114"
             x="537.01221"
             y="980.57336">7</tspan></text>
      </g>
      <path
         style="fill:#ff0000"
         d="M 183.2093,208.03918 C 183.08358,208.03912 183.09322,208.15437 183.2093,208.36204 C 183.32567,208.15486 183.33489,208.03923 183.2093,208.03918 z M 183.2093,208.36204 C 182.21792,210.1272 173.27156,218.6287 170.35319,220.63825 C 170.21352,220.62544 170.08549,220.61365 169.9765,220.59999 C 170.04573,220.6409 170.1178,220.69012 170.19865,220.74349 C 170.11835,220.79619 170.04041,220.84183 169.97167,220.8822 C 170.08066,220.86857 170.20842,220.85669 170.34837,220.84394 C 173.25786,222.85407 182.16964,231.34721 183.17067,233.12493 C 184.17735,231.34754 193.11359,222.85836 196.02676,220.85351 C 196.16955,220.86662 196.29767,220.88016 196.40829,220.89417 C 196.3387,220.85316 196.25793,220.80675 196.17648,220.75305 C 196.2567,220.70032 196.33471,220.65244 196.40347,220.61195 C 196.29408,220.62562 196.16728,220.63743 196.02676,220.65021 C 193.11664,218.64065 184.19741,210.12981 183.2093,208.36204 z M 196.40347,220.61195 C 196.79227,220.56337 196.97832,220.50906 196.9154,220.44932 C 196.85224,220.38935 196.67699,220.45087 196.40347,220.61195 z M 196.40829,220.89417 C 196.67888,221.05355 196.8524,221.11639 196.9154,221.05679 C 196.97823,220.99736 196.79358,220.94293 196.40829,220.89417 z M 183.17067,233.12493 C 183.05139,233.33552 183.04399,233.45253 183.17067,233.45258 C 183.29733,233.45264 183.28928,233.33559 183.17067,233.12493 z M 169.97167,220.8822 C 169.58342,220.93076 169.39687,220.98513 169.45974,221.04484 C 169.52258,221.10451 169.70046,221.04147 169.97167,220.8822 z M 169.9765,220.59999 C 169.70334,220.43858 169.5231,220.37743 169.45974,220.43736 C 169.39642,220.49727 169.58495,220.55093 169.9765,220.59999 z M 181.87153,220.56412 C 186.6127,220.55247 191.55541,220.61425 194.43304,220.75066 C 189.21345,220.99349 177.18768,220.98811 171.95659,220.7411 C 174.30368,220.63237 178.01389,220.5736 181.87153,220.56412 z"
         id="path4613" />
      <path
         id="path4615"
         d="M 225.53908,208.03918 C 225.41336,208.03912 225.423,208.15437 225.53908,208.36204 C 225.65545,208.15486 225.66467,208.03923 225.53908,208.03918 z M 225.53908,208.36204 C 224.5477,210.1272 215.60134,218.6287 212.68298,220.63825 C 212.5433,220.62544 212.41528,220.61365 212.30628,220.59999 C 212.37552,220.6409 212.44758,220.69012 212.52844,220.74349 C 212.44814,220.79619 212.3702,220.84183 212.30146,220.8822 C 212.41045,220.86857 212.5382,220.85669 212.67815,220.84394 C 215.58765,222.85407 224.49942,231.34721 225.50045,233.12493 C 226.50713,231.34754 235.44337,222.85836 238.35655,220.85351 C 238.49933,220.86662 238.62746,220.88016 238.73808,220.89417 C 238.66848,220.85316 238.58771,220.80675 238.50627,220.75305 C 238.58649,220.70032 238.66449,220.65244 238.73325,220.61195 C 238.62386,220.62562 238.49707,220.63743 238.35655,220.65021 C 235.44642,218.64065 226.5272,210.12981 225.53908,208.36204 z M 238.73325,220.61195 C 239.12206,220.56337 239.30811,220.50906 239.24519,220.44932 C 239.18202,220.38935 239.00678,220.45087 238.73325,220.61195 z M 238.73808,220.89417 C 239.00866,221.05355 239.18218,221.11639 239.24519,221.05679 C 239.30802,220.99736 239.12336,220.94293 238.73808,220.89417 z M 225.50045,233.12493 C 225.38117,233.33552 225.37378,233.45253 225.50045,233.45258 C 225.62711,233.45264 225.61907,233.33559 225.50045,233.12493 z M 212.30146,220.8822 C 211.9132,220.93076 211.72666,220.98513 211.78953,221.04484 C 211.85237,221.10451 212.03025,221.04147 212.30146,220.8822 z M 212.30628,220.59999 C 212.03312,220.43858 211.85288,220.37743 211.78953,220.43736 C 211.7262,220.49727 211.91473,220.55093 212.30628,220.59999 z M 224.20132,220.56412 C 228.94248,220.55247 233.8852,220.61425 236.76282,220.75066 C 231.54323,220.99349 219.51746,220.98811 214.28637,220.7411 C 216.63347,220.63237 220.34367,220.5736 224.20132,220.56412 z"
         style="fill:#ff0000" />
      <path
         id="path4617"
         d="M 204.90145,229.03158 C 204.77573,229.03153 204.78537,229.14677 204.90145,229.35445 C 205.01782,229.14727 205.02704,229.03163 204.90145,229.03158 z M 204.90145,229.35445 C 203.91007,231.1196 194.96371,239.62111 192.04535,241.63066 C 191.90567,241.61785 191.77764,241.60606 191.66865,241.5924 C 191.73788,241.6333 191.80995,241.68252 191.89081,241.73589 C 191.8105,241.7886 191.73257,241.83424 191.66382,241.8746 C 191.77282,241.86097 191.90057,241.8491 192.04052,241.83634 C 194.95002,243.84648 203.86179,252.33962 204.86282,254.11733 C 205.8695,252.33995 214.80574,243.85077 217.71892,241.84592 C 217.8617,241.85903 217.98982,241.87257 218.10045,241.88657 C 218.03085,241.84557 217.95008,241.79915 217.86863,241.74546 C 217.94885,241.69273 218.02686,241.64484 218.09562,241.60436 C 217.98623,241.61802 217.85943,241.62983 217.71892,241.64262 C 214.80879,239.63305 205.88956,231.12222 204.90145,229.35445 z M 218.09562,241.60436 C 218.48443,241.55577 218.67047,241.50146 218.60755,241.44173 C 218.54439,241.38176 218.36914,241.44327 218.09562,241.60436 z M 218.10045,241.88657 C 218.37103,242.04596 218.54455,242.1088 218.60755,242.0492 C 218.67038,241.98976 218.48573,241.93534 218.10045,241.88657 z M 204.86282,254.11733 C 204.74354,254.32792 204.73614,254.44493 204.86282,254.44499 C 204.98948,254.44505 204.98143,254.32799 204.86282,254.11733 z M 191.66382,241.8746 C 191.27557,241.92317 191.08902,241.97754 191.15189,242.03724 C 191.21473,242.09691 191.39261,242.03387 191.66382,241.8746 z M 191.66865,241.5924 C 191.39549,241.43099 191.21525,241.36984 191.15189,241.42977 C 191.08857,241.48967 191.2771,241.54334 191.66865,241.5924 z M 203.56368,241.55653 C 208.30485,241.54487 213.24756,241.60665 216.12519,241.74307 C 210.9056,241.98589 198.87983,241.98051 193.64874,241.7335 C 195.99584,241.62477 199.70604,241.56601 203.56368,241.55653 z"
         style="fill:#ff0000" />
      <path
         id="path4619"
         d="M 183.2093,248.50134 C 183.08358,248.50128 183.09322,248.61653 183.2093,248.8242 C 183.32567,248.61702 183.33489,248.50139 183.2093,248.50134 z M 183.2093,248.8242 C 182.21792,250.58936 173.27156,259.09086 170.35319,261.10041 C 170.21352,261.0876 170.08549,261.07581 169.9765,261.06215 C 170.04573,261.10306 170.1178,261.15228 170.19865,261.20565 C 170.11835,261.25835 170.04041,261.30399 169.97167,261.34436 C 170.08066,261.33073 170.20842,261.31885 170.34837,261.3061 C 173.25786,263.31623 182.16964,271.80938 183.17067,273.58709 C 184.17735,271.8097 193.11359,263.32052 196.02676,261.31567 C 196.16955,261.32878 196.29767,261.34232 196.40829,261.35633 C 196.3387,261.31532 196.25793,261.26891 196.17648,261.21522 C 196.2567,261.16248 196.33471,261.1146 196.40347,261.07411 C 196.29408,261.08778 196.16728,261.09959 196.02676,261.11237 C 193.11664,259.10281 184.19741,250.59197 183.2093,248.8242 z M 196.40347,261.07411 C 196.79227,261.02553 196.97832,260.97122 196.9154,260.91148 C 196.85224,260.85151 196.67699,260.91303 196.40347,261.07411 z M 196.40829,261.35633 C 196.67888,261.51571 196.8524,261.57855 196.9154,261.51895 C 196.97823,261.45952 196.79358,261.40509 196.40829,261.35633 z M 183.17067,273.58709 C 183.05139,273.79768 183.04399,273.91469 183.17067,273.91475 C 183.29733,273.9148 183.28928,273.79775 183.17067,273.58709 z M 169.97167,261.34436 C 169.58342,261.39292 169.39687,261.44729 169.45974,261.507 C 169.52258,261.56667 169.70046,261.50363 169.97167,261.34436 z M 169.9765,261.06215 C 169.70334,260.90074 169.5231,260.83959 169.45974,260.89952 C 169.39642,260.95943 169.58495,261.01309 169.9765,261.06215 z M 181.87153,261.02628 C 186.6127,261.01463 191.55541,261.07641 194.43304,261.21282 C 189.21345,261.45565 177.18768,261.45027 171.95659,261.20326 C 174.30368,261.09453 178.01389,261.03577 181.87153,261.02628 z"
         style="fill:#ff0000" />
      <path
         style="fill:#ff0000"
         d="M 225.53908,248.50134 C 225.41336,248.50128 225.423,248.61653 225.53908,248.8242 C 225.65545,248.61702 225.66467,248.50139 225.53908,248.50134 z M 225.53908,248.8242 C 224.5477,250.58936 215.60134,259.09086 212.68298,261.10041 C 212.5433,261.0876 212.41528,261.07581 212.30628,261.06215 C 212.37552,261.10306 212.44758,261.15228 212.52844,261.20565 C 212.44814,261.25835 212.3702,261.30399 212.30146,261.34436 C 212.41045,261.33073 212.5382,261.31885 212.67815,261.3061 C 215.58765,263.31623 224.49942,271.80938 225.50045,273.58709 C 226.50713,271.8097 235.44337,263.32052 238.35655,261.31567 C 238.49933,261.32878 238.62746,261.34232 238.73808,261.35633 C 238.66848,261.31532 238.58771,261.26891 238.50627,261.21522 C 238.58649,261.16248 238.66449,261.1146 238.73325,261.07411 C 238.62386,261.08778 238.49707,261.09959 238.35655,261.11237 C 235.44642,259.10281 226.5272,250.59197 225.53908,248.8242 z M 238.73325,261.07411 C 239.12206,261.02553 239.30811,260.97122 239.24519,260.91148 C 239.18202,260.85151 239.00678,260.91303 238.73325,261.07411 z M 238.73808,261.35633 C 239.00866,261.51571 239.18218,261.57855 239.24519,261.51895 C 239.30802,261.45952 239.12336,261.40509 238.73808,261.35633 z M 225.50045,273.58709 C 225.38117,273.79768 225.37378,273.91469 225.50045,273.91475 C 225.62711,273.9148 225.61907,273.79775 225.50045,273.58709 z M 212.30146,261.34436 C 211.9132,261.39292 211.72666,261.44729 211.78953,261.507 C 211.85237,261.56667 212.03025,261.50363 212.30146,261.34436 z M 212.30628,261.06215 C 212.03312,260.90074 211.85288,260.83959 211.78953,260.89952 C 211.7262,260.95943 211.91473,261.01309 212.30628,261.06215 z M 224.20132,261.02628 C 228.94248,261.01463 233.8852,261.07641 236.76282,261.21282 C 231.54323,261.45565 219.51746,261.45027 214.28637,261.20326 C 216.63347,261.09453 220.34367,261.03577 224.20132,261.02628 z"
         id="path4621" />
      <path
         id="path4623"
         d="M 225.53908,278.4666 C 225.41336,278.46654 225.423,278.58178 225.53908,278.78946 C 225.65545,278.58228 225.66467,278.46665 225.53908,278.4666 z M 225.53908,278.78946 C 224.5477,280.55461 215.60134,289.05612 212.68298,291.06567 C 212.5433,291.05286 212.41528,291.04107 212.30628,291.02741 C 212.37552,291.06832 212.44758,291.11754 212.52844,291.17091 C 212.44814,291.22361 212.3702,291.26925 212.30146,291.30962 C 212.41045,291.29599 212.5382,291.28411 212.67815,291.27136 C 215.58765,293.28149 224.49942,301.77463 225.50045,303.55235 C 226.50713,301.77496 235.44337,293.28578 238.35655,291.28093 C 238.49933,291.29404 238.62746,291.30758 238.73808,291.32158 C 238.66848,291.28058 238.58771,291.23416 238.50627,291.18047 C 238.58649,291.12774 238.66449,291.07986 238.73325,291.03937 C 238.62386,291.05304 238.49707,291.06485 238.35655,291.07763 C 235.44642,289.06806 226.5272,280.55723 225.53908,278.78946 z M 238.73325,291.03937 C 239.12206,290.99079 239.30811,290.93648 239.24519,290.87674 C 239.18202,290.81677 239.00678,290.87829 238.73325,291.03937 z M 238.73808,291.32158 C 239.00866,291.48097 239.18218,291.54381 239.24519,291.48421 C 239.30802,291.42478 239.12336,291.37035 238.73808,291.32158 z M 225.50045,303.55235 C 225.38117,303.76294 225.37378,303.87995 225.50045,303.88 C 225.62711,303.88006 225.61907,303.76301 225.50045,303.55235 z M 212.30146,291.30962 C 211.9132,291.35818 211.72666,291.41255 211.78953,291.47225 C 211.85237,291.53193 212.03025,291.46889 212.30146,291.30962 z M 212.30628,291.02741 C 212.03312,290.866 211.85288,290.80485 211.78953,290.86478 C 211.7262,290.92469 211.91473,290.97835 212.30628,291.02741 z M 224.20132,290.99154 C 228.94248,290.97988 233.8852,291.04166 236.76282,291.17808 C 231.54323,291.42091 219.51746,291.41553 214.28637,291.16851 C 216.63347,291.05979 220.34367,291.00102 224.20132,290.99154 z"
         style="fill:#ff0000" />
      <path
         style="fill:#ff0000"
         d="M 183.2093,278.4666 C 183.08358,278.46654 183.09322,278.58178 183.2093,278.78946 C 183.32567,278.58228 183.33489,278.46665 183.2093,278.4666 z M 183.2093,278.78946 C 182.21792,280.55461 173.27156,289.05612 170.35319,291.06567 C 170.21352,291.05286 170.08549,291.04107 169.9765,291.02741 C 170.04573,291.06832 170.1178,291.11754 170.19865,291.17091 C 170.11835,291.22361 170.04041,291.26925 169.97167,291.30962 C 170.08066,291.29599 170.20842,291.28411 170.34837,291.27136 C 173.25786,293.28149 182.16964,301.77463 183.17067,303.55235 C 184.17735,301.77496 193.11359,293.28578 196.02676,291.28093 C 196.16955,291.29404 196.29767,291.30758 196.40829,291.32158 C 196.3387,291.28058 196.25793,291.23416 196.17648,291.18047 C 196.2567,291.12774 196.33471,291.07986 196.40347,291.03937 C 196.29408,291.05304 196.16728,291.06485 196.02676,291.07763 C 193.11664,289.06806 184.19741,280.55723 183.2093,278.78946 z M 196.40347,291.03937 C 196.79227,290.99079 196.97832,290.93648 196.9154,290.87674 C 196.85224,290.81677 196.67699,290.87829 196.40347,291.03937 z M 196.40829,291.32158 C 196.67888,291.48097 196.8524,291.54381 196.9154,291.48421 C 196.97823,291.42478 196.79358,291.37035 196.40829,291.32158 z M 183.17067,303.55235 C 183.05139,303.76294 183.04399,303.87995 183.17067,303.88 C 183.29733,303.88006 183.28928,303.76301 183.17067,303.55235 z M 169.97167,291.30962 C 169.58342,291.35818 169.39687,291.41255 169.45974,291.47225 C 169.52258,291.53193 169.70046,291.46889 169.97167,291.30962 z M 169.9765,291.02741 C 169.70334,290.866 169.5231,290.80485 169.45974,290.86478 C 169.39642,290.92469 169.58495,290.97835 169.9765,291.02741 z M 181.87153,290.99154 C 186.6127,290.97988 191.55541,291.04166 194.43304,291.17808 C 189.21345,291.42091 177.18768,291.41553 171.95659,291.16851 C 174.30368,291.05979 178.01389,291.00102 181.87153,290.99154 z"
         id="path4625" />
    </g>
    <path
       id="path4629"
       d="M 355.34702,197.3496 C 355.22129,197.34954 355.23094,197.46478 355.34702,197.67246 C 355.46339,197.46528 355.47261,197.34965 355.34702,197.3496 z M 355.34702,197.67246 C 354.35564,199.43762 345.40928,207.93912 342.49091,209.94867 C 342.35124,209.93586 342.22321,209.92407 342.11422,209.91041 C 342.18345,209.95132 342.25552,210.00054 342.33637,210.05391 C 342.25607,210.10661 342.17813,210.15225 342.10939,210.19262 C 342.21838,210.17899 342.34614,210.16711 342.48608,210.15436 C 345.39558,212.16449 354.30736,220.65763 355.30839,222.43535 C 356.31507,220.65796 365.2513,212.16878 368.16448,210.16393 C 368.30727,210.17704 368.43539,210.19058 368.54601,210.20458 C 368.47642,210.16358 368.39565,210.11717 368.3142,210.06347 C 368.39442,210.01074 368.47243,209.96286 368.54119,209.92237 C 368.43179,209.93604 368.305,209.94785 368.16448,209.96063 C 365.25436,207.95106 356.33513,199.44023 355.34702,197.67246 z M 368.54119,209.92237 C 368.92999,209.87379 369.11604,209.81948 369.05312,209.75974 C 368.98995,209.69977 368.81471,209.76129 368.54119,209.92237 z M 368.54601,210.20458 C 368.8166,210.36397 368.99012,210.42681 369.05312,210.36721 C 369.11595,210.30778 368.93129,210.25335 368.54601,210.20458 z M 355.30839,222.43535 C 355.18911,222.64594 355.18171,222.76295 355.30839,222.763 C 355.43505,222.76306 355.427,222.64601 355.30839,222.43535 z M 342.10939,210.19262 C 341.72114,210.24118 341.53459,210.29555 341.59746,210.35525 C 341.6603,210.41493 341.83818,210.35189 342.10939,210.19262 z M 342.11422,209.91041 C 341.84106,209.749 341.66082,209.68785 341.59746,209.74778 C 341.53413,209.80769 341.72267,209.86135 342.11422,209.91041 z M 354.00925,209.87454 C 358.75042,209.86288 363.69313,209.92467 366.57075,210.06108 C 361.35117,210.30391 349.3254,210.29853 344.09431,210.05152 C 346.4414,209.94279 350.15161,209.88402 354.00925,209.87454 z"
       style="fill:#ff0000" />
    <path
       style="fill:#ff0000"
       d="M 469.40575,197.3496 C 469.28003,197.34954 469.28967,197.46478 469.40575,197.67246 C 469.52212,197.46528 469.53134,197.34964 469.40575,197.3496 z M 469.40575,197.67246 C 468.41437,199.43761 459.46801,207.93912 456.54965,209.94867 C 456.40997,209.93586 456.28194,209.92407 456.17295,209.91041 C 456.24218,209.95132 456.31425,210.00054 456.39511,210.05391 C 456.3148,210.10661 456.23687,210.15225 456.16812,210.19262 C 456.27711,210.17899 456.40487,210.16711 456.54482,210.15435 C 459.45432,212.16449 468.36609,220.65763 469.36712,222.43534 C 470.3738,220.65796 479.31004,212.16878 482.22322,210.16393 C 482.366,210.17704 482.49412,210.19058 482.60475,210.20458 C 482.53515,210.16358 482.45438,210.11716 482.37293,210.06347 C 482.45315,210.01074 482.53116,209.96285 482.59992,209.92237 C 482.49053,209.93603 482.36373,209.94784 482.22322,209.96063 C 479.31309,207.95106 470.39386,199.44023 469.40575,197.67246 z M 482.59992,209.92237 C 482.98873,209.87378 483.17477,209.81948 483.11185,209.75974 C 483.04869,209.69977 482.87344,209.76129 482.59992,209.92237 z M 482.60475,210.20458 C 482.87533,210.36397 483.04885,210.42681 483.11185,210.36721 C 483.17468,210.30777 482.99003,210.25335 482.60475,210.20458 z M 469.36712,222.43534 C 469.24784,222.64593 469.24044,222.76295 469.36712,222.763 C 469.49378,222.76306 469.48573,222.646 469.36712,222.43534 z M 456.16812,210.19262 C 455.77987,210.24118 455.59332,210.29555 455.65619,210.35525 C 455.71903,210.41493 455.89691,210.35189 456.16812,210.19262 z M 456.17295,209.91041 C 455.89979,209.749 455.71955,209.68785 455.65619,209.74778 C 455.59287,209.80769 455.7814,209.86135 456.17295,209.91041 z M 468.06798,209.87454 C 472.80915,209.86288 477.75186,209.92466 480.62949,210.06108 C 475.4099,210.3039 463.38413,210.29852 458.15304,210.05151 C 460.50014,209.94279 464.21034,209.88402 468.06798,209.87454 z"
       id="path4631" />
    <path
       style="fill:#ff0000"
       d="M 579.96587,197.3496 C 579.84015,197.34954 579.84979,197.46478 579.96587,197.67246 C 580.08224,197.46528 580.09146,197.34964 579.96587,197.3496 z M 579.96587,197.67246 C 578.97448,199.43761 570.02804,207.93912 567.10965,209.94867 C 566.96998,209.93586 566.84195,209.92407 566.73295,209.91041 C 566.80219,209.95132 566.87426,210.00054 566.95511,210.05391 C 566.87481,210.10661 566.79687,210.15225 566.72812,210.19262 C 566.83712,210.17899 566.96488,210.16711 567.10482,210.15435 C 570.01434,212.16449 578.9262,220.65763 579.92724,222.43534 C 580.93393,220.65796 589.87025,212.16878 592.78344,210.16393 C 592.92623,210.17704 593.05436,210.19058 593.16498,210.20458 C 593.09539,210.16358 593.01461,210.11716 592.93316,210.06347 C 593.01338,210.01074 593.0914,209.96285 593.16016,209.92237 C 593.05076,209.93603 592.92396,209.94784 592.78344,209.96063 C 589.8733,207.95106 580.95399,199.44023 579.96587,197.67246 z M 593.16016,209.92237 C 593.54896,209.87378 593.73501,209.81948 593.67209,209.75974 C 593.60892,209.69977 593.43368,209.76129 593.16016,209.92237 z M 593.16498,210.20458 C 593.43557,210.36397 593.60909,210.42681 593.67209,210.36721 C 593.73492,210.30777 593.55026,210.25335 593.16498,210.20458 z M 579.92724,222.43534 C 579.80796,222.64593 579.80056,222.76295 579.92724,222.763 C 580.0539,222.76306 580.04585,222.646 579.92724,222.43534 z M 566.72812,210.19262 C 566.33987,210.24118 566.15332,210.29555 566.21619,210.35525 C 566.27903,210.41493 566.45691,210.35189 566.72812,210.19262 z M 566.73295,209.91041 C 566.45979,209.749 566.27955,209.68785 566.21619,209.74778 C 566.15287,209.80769 566.3414,209.86135 566.73295,209.91041 z M 578.62809,209.87454 C 583.3693,209.86288 588.31205,209.92466 591.1897,210.06108 C 585.97007,210.3039 573.9442,210.29852 568.71306,210.05151 C 571.06017,209.94279 574.77042,209.88402 578.62809,209.87454 z"
       id="path4635" />
  </g>
</svg>
