<?xml version="1.0" encoding="UTF-8" standalone="no"?>
<!-- Created with Inkscape (http://www.inkscape.org/) -->
<svg
   xmlns:dc="http://purl.org/dc/elements/1.1/"
   xmlns:cc="http://creativecommons.org/ns#"
   xmlns:rdf="http://www.w3.org/1999/02/22-rdf-syntax-ns#"
   xmlns:svg="http://www.w3.org/2000/svg"
   xmlns="http://www.w3.org/2000/svg"
   xmlns:sodipodi="http://sodipodi.sourceforge.net/DTD/sodipodi-0.dtd"
   xmlns:inkscape="http://www.inkscape.org/namespaces/inkscape"
   width="640px"
   height="480px"
   id="svg2393"
   sodipodi:version="0.32"
   inkscape:version="0.46"
   sodipodi:docname="cards-spades.svg"
   inkscape:output_extension="org.inkscape.output.svg.inkscape">
  <defs
     id="defs2395">
    <inkscape:perspective
       sodipodi:type="inkscape:persp3d"
       inkscape:vp_x="0 : 240 : 1"
       inkscape:vp_y="0 : 1000 : 0"
       inkscape:vp_z="640 : 240 : 1"
       inkscape:persp3d-origin="320 : 160 : 1"
       id="perspective2401" />
    <filter
       id="filter4970"
       inkscape:collect="always">
      <feGaussianBlur
         id="feGaussianBlur4972"
         stdDeviation="1.4809308"
         inkscape:collect="always" />
    </filter>
    <filter
       id="filter4966"
       inkscape:collect="always">
      <feGaussianBlur
         id="feGaussianBlur4968"
         stdDeviation="1.4809308"
         inkscape:collect="always" />
    </filter>
    <filter
       id="filter3254"
       inkscape:collect="always">
      <feGaussianBlur
         id="feGaussianBlur3256"
         stdDeviation="7.7965407"
         inkscape:collect="always" />
    </filter>
    <inkscape:perspective
       id="perspective10"
       inkscape:persp3d-origin="375.48941 : 342.21596 : 1"
       inkscape:vp_z="804.56871 : 517.60966 : 1"
       inkscape:vp_y="7.0616468e-14 : 1000 : 0"
       inkscape:vp_x="-53.589892 : 517.60966 : 1"
       sodipodi:type="inkscape:persp3d" />
    <inkscape:perspective
       id="perspective3513"
       inkscape:persp3d-origin="372.04724 : 350.78739 : 1"
       inkscape:vp_z="744.09448 : 526.18109 : 1"
       inkscape:vp_y="0 : 1000 : 0"
       inkscape:vp_x="0 : 526.18109 : 1"
       sodipodi:type="inkscape:persp3d" />
  </defs>
  <sodipodi:namedview
     id="base"
     pagecolor="#ffffff"
     bordercolor="#666666"
     borderopacity="1.0"
     inkscape:pageopacity="0.0"
     inkscape:pageshadow="2"
     inkscape:zoom="1"
     inkscape:cx="336.6589"
     inkscape:cy="238.39052"
     inkscape:current-layer="layer1"
     inkscape:document-units="px"
     showgrid="false"
     inkscape:window-width="1280"
     inkscape:window-height="949"
     inkscape:window-x="0"
     inkscape:window-y="25" />
  <metadata
     id="metadata2398">
    <rdf:RDF>
      <cc:Work
         rdf:about="">
        <dc:format>image/svg+xml</dc:format>
        <dc:type
           rdf:resource="http://purl.org/dc/dcmitype/StillImage" />
      </cc:Work>
    </rdf:RDF>
  </metadata>
  <g
     inkscape:groupmode="layer"
     id="layer2"
     inkscape:label="bg"
     style="display:inline">
    <rect
       style="opacity:1;fill:#00ff00;fill-opacity:1;fill-rule:nonzero;stroke:#ffffff;stroke-width:0.87088817;stroke-linecap:butt;stroke-linejoin:miter;marker:none;marker-start:none;marker-mid:none;marker-end:none;stroke-miterlimit:4;stroke-dasharray:none;stroke-dashoffset:0;stroke-opacity:1;visibility:visible;display:inline;overflow:visible;enable-background:accumulate"
       id="rect2966"
       width="600.27313"
       height="433.67178"
       x="13.863434"
       y="12.164108"
       rx="0"
       ry="54.115108" />
  </g>
  <g
     id="layer1"
     inkscape:label="Layer 1"
     inkscape:groupmode="layer"
     style="display:inline">
    <g
       id="g2954"
       transform="matrix(0.6997466,0,0,0.6997466,41.142526,23.60493)">
      <rect
         transform="matrix(0.1986935,0,0,0.1986935,168.65616,6.72353)"
         rx="60.60915"
         ry="63.63961"
         y="26.047195"
         x="24.243658"
         height="1006.1119"
         width="709.12708"
         id="rect2936"
         style="opacity:0.91666667;fill:#000000;filter:url(#filter3254)" />
      <rect
         style="fill:#ffffff"
         id="rect2938"
         width="140.89894"
         height="199.9079"
         x="170.66327"
         y="8.2861452"
         ry="12.644777"
         rx="12.042645" />
      <text
         xml:space="preserve"
         style="font-size:225.6577301px;font-style:normal;font-variant:normal;font-weight:normal;font-stretch:normal;fill:#000000;fill-opacity:1;stroke:none;stroke-width:1px;stroke-linecap:butt;stroke-linejoin:miter;stroke-opacity:1;filter:url(#filter4970);font-family:Gemelli;-inkscape-font-specification:Gemelli"
         x="47.257381"
         y="188.40356"
         id="text2940"
         transform="matrix(0.2033525,0,0,0.1941412,168.65616,6.72353)"><tspan
           sodipodi:role="line"
           id="tspan2942"
           x="47.257381"
           y="188.40356">2</tspan></text>
      <text
         transform="matrix(0.2033525,0,0,0.1941412,168.65616,6.72353)"
         id="text2944"
         y="980.57336"
         x="537.01221"
         style="font-size:225.6577301px;font-style:normal;font-variant:normal;font-weight:normal;font-stretch:normal;fill:#000000;fill-opacity:1;stroke:none;stroke-width:1px;stroke-linecap:butt;stroke-linejoin:miter;stroke-opacity:1;filter:url(#filter4966);font-family:Gemelli;-inkscape-font-specification:Gemelli"
         xml:space="preserve"><tspan
           y="980.57336"
           x="537.01221"
           id="tspan2946"
           sodipodi:role="line">2</tspan></text>
    </g>
    <g
       id="g2988"
       transform="matrix(0.6997466,0,0,0.6997466,41.142526,23.60493)">
      <rect
         transform="matrix(0.1986935,0,0,0.1986935,332.65616,7.72353)"
         rx="60.60915"
         ry="63.63961"
         y="26.047195"
         x="24.243658"
         height="1006.1119"
         width="709.12708"
         id="rect2970"
         style="opacity:0.91666667;fill:#000000;filter:url(#filter3254)" />
      <rect
         style="fill:#ffffff"
         id="rect2972"
         width="140.89894"
         height="199.9079"
         x="334.66327"
         y="9.2861452"
         ry="12.644777"
         rx="12.042645" />
      <text
         xml:space="preserve"
         style="font-size:225.6577301px;font-style:normal;font-variant:normal;font-weight:normal;font-stretch:normal;fill:#000000;fill-opacity:1;stroke:none;stroke-width:1px;stroke-linecap:butt;stroke-linejoin:miter;stroke-opacity:1;filter:url(#filter4970);font-family:Gemelli;-inkscape-font-specification:Gemelli"
         x="47.257381"
         y="188.40356"
         id="text2974"
         transform="matrix(0.2033525,0,0,0.1941412,332.65616,7.72353)"><tspan
           sodipodi:role="line"
           id="tspan2976"
           x="47.257381"
           y="188.40356">3</tspan></text>
      <text
         transform="matrix(0.2033525,0,0,0.1941412,332.65616,7.72353)"
         id="text2978"
         y="980.57336"
         x="537.01221"
         style="font-size:225.6577301px;font-style:normal;font-variant:normal;font-weight:normal;font-stretch:normal;fill:#000000;fill-opacity:1;stroke:none;stroke-width:1px;stroke-linecap:butt;stroke-linejoin:miter;stroke-opacity:1;filter:url(#filter4966);font-family:Gemelli;-inkscape-font-specification:Gemelli"
         xml:space="preserve"><tspan
           y="980.57336"
           x="537.01221"
           id="tspan2980"
           sodipodi:role="line">3</tspan></text>
    </g>
    <g
       id="g3022"
       transform="matrix(0.6997466,0,0,0.6997466,41.142526,23.60493)">
      <rect
         transform="matrix(0.1986935,0,0,0.1986935,493.65616,7.72353)"
         rx="60.60915"
         ry="63.63961"
         y="26.047195"
         x="24.243658"
         height="1006.1119"
         width="709.12708"
         id="rect3004"
         style="opacity:0.91666667;fill:#000000;filter:url(#filter3254)" />
      <rect
         style="fill:#ffffff"
         id="rect3006"
         width="140.89894"
         height="199.9079"
         x="495.66327"
         y="9.2861452"
         ry="12.644777"
         rx="12.042645" />
      <text
         xml:space="preserve"
         style="font-size:225.6577301px;font-style:normal;font-variant:normal;font-weight:normal;font-stretch:normal;fill:#000000;fill-opacity:1;stroke:none;stroke-width:1px;stroke-linecap:butt;stroke-linejoin:miter;stroke-opacity:1;filter:url(#filter4970);font-family:Gemelli;-inkscape-font-specification:Gemelli"
         x="47.257381"
         y="188.40356"
         id="text3008"
         transform="matrix(0.2033525,0,0,0.1941412,493.65616,7.72353)"><tspan
           sodipodi:role="line"
           id="tspan3010"
           x="47.257381"
           y="188.40356">4</tspan></text>
      <text
         transform="matrix(0.2033525,0,0,0.1941412,493.65616,7.72353)"
         id="text3012"
         y="980.57336"
         x="537.01221"
         style="font-size:225.6577301px;font-style:normal;font-variant:normal;font-weight:normal;font-stretch:normal;fill:#000000;fill-opacity:1;stroke:none;stroke-width:1px;stroke-linecap:butt;stroke-linejoin:miter;stroke-opacity:1;filter:url(#filter4966);font-family:Gemelli;-inkscape-font-specification:Gemelli"
         xml:space="preserve"><tspan
           y="980.57336"
           x="537.01221"
           id="tspan3014"
           sodipodi:role="line">4</tspan></text>
    </g>
    <g
       transform="matrix(0.1390351,0,0,0.1390351,499.23597,30.40894)"
       inkscape:label="Layer 1"
       id="g3052"
       style="display:inline">
      <rect
         rx="60.60915"
         ry="63.63961"
         y="26.047195"
         x="24.243658"
         height="1006.1119"
         width="709.12708"
         id="rect3054"
         style="opacity:0.91666667;fill:#000000;filter:url(#filter3254)" />
      <rect
         style="fill:#ffffff"
         id="rect3056"
         width="709.12708"
         height="1006.1119"
         x="10.101523"
         y="7.8644519"
         ry="63.63961"
         rx="60.60915" />
      <text
         xml:space="preserve"
         style="font-size:225.6577301px;font-style:normal;font-variant:normal;font-weight:normal;font-stretch:normal;fill:#000000;fill-opacity:1;stroke:none;stroke-width:1px;stroke-linecap:butt;stroke-linejoin:miter;stroke-opacity:1;filter:url(#filter4970);font-family:Gemelli;-inkscape-font-specification:Gemelli"
         x="47.257381"
         y="188.40356"
         id="text3058"
         transform="scale(1.0234483,0.9770889)"><tspan
           sodipodi:role="line"
           id="tspan3060"
           x="47.257381"
           y="188.40356">5</tspan></text>
      <text
         transform="scale(1.0234483,0.9770889)"
         id="text3062"
         y="980.57336"
         x="537.01221"
         style="font-size:225.6577301px;font-style:normal;font-variant:normal;font-weight:normal;font-stretch:normal;fill:#000000;fill-opacity:1;stroke:none;stroke-width:1px;stroke-linecap:butt;stroke-linejoin:miter;stroke-opacity:1;filter:url(#filter4966);font-family:Gemelli;-inkscape-font-specification:Gemelli"
         xml:space="preserve"><tspan
           y="980.57336"
           x="537.01221"
           id="tspan3064"
           sodipodi:role="line">5</tspan></text>
    </g>
    <path
       d="M 565.89821,56.794 L 565.89821,56.83265 C 565.78431,56.94909 558.563,64.33342 556.12071,67.17464 C 552.75806,71.0866 554.14237,74.9094 557.80448,77.33066 C 560.35913,79.01969 563.29775,76.642 564.84316,75.04827 C 564.05335,76.70478 562.9212,78.70357 561.72713,79.55508 C 559.47887,81.15836 552.195,82.207 552.195,82.207 L 565.93501,82.207 L 579.675,82.207 C 579.675,82.207 572.38805,81.15835 570.13982,79.55508 C 568.96243,78.71548 567.84494,76.76091 567.05752,75.11832 C 568.22943,76.31148 570.14807,77.89249 572.0996,77.91032 C 572.74994,77.91625 573.40237,77.74682 574.03179,77.33066 C 577.69392,74.9094 579.07515,71.0866 575.71248,67.17464 C 573.27018,64.3334 566.04879,56.94898 565.93501,56.83265 L 565.93501,56.794 C 565.93501,56.794 565.91683,56.81309 565.9166,56.81332 C 565.91638,56.81309 565.89821,56.794 565.89821,56.794 z M 566.25728,68.02448 C 566.25677,70.97205 566.16439,73.35374 566.05105,73.34072 C 565.93771,73.3277 565.84612,70.9249 565.84663,67.97731 C 565.84713,65.02974 565.93953,62.64806 566.05287,62.66106 C 566.16202,62.6736 566.25114,64.88009 566.25699,67.71472"
       style="fill:#000000"
       id="path2848" />
    <path
       id="path2852"
       style="fill:#000000"
       d="M 527.89821,120.794 L 527.89821,120.83265 C 527.78431,120.94909 520.563,128.33342 518.12071,131.17464 C 514.75806,135.0866 516.14237,138.9094 519.80448,141.33066 C 522.35913,143.01969 525.29775,140.642 526.84316,139.04827 C 526.05335,140.70478 524.9212,142.70357 523.72713,143.55508 C 521.47887,145.15836 514.195,146.207 514.195,146.207 L 527.93501,146.207 L 541.675,146.207 C 541.675,146.207 534.38805,145.15835 532.13982,143.55508 C 530.96243,142.71548 529.84494,140.76091 529.05752,139.11832 C 530.22943,140.31148 532.14807,141.89249 534.0996,141.91032 C 534.74994,141.91625 535.40237,141.74682 536.03179,141.33066 C 539.69392,138.9094 541.07515,135.0866 537.71248,131.17464 C 535.27018,128.3334 528.04879,120.94898 527.93501,120.83265 L 527.93501,120.794 C 527.93501,120.794 527.91683,120.81309 527.9166,120.81332 C 527.91638,120.81309 527.89821,120.794 527.89821,120.794 z M 528.25728,132.02448 C 528.25677,134.97205 528.16439,137.35374 528.05105,137.34072 C 527.93771,137.3277 527.84612,134.9249 527.84663,131.97731 C 527.84713,129.02974 527.93953,126.64806 528.05287,126.66106 C 528.16202,126.6736 528.25114,128.88009 528.25699,131.71472" />
    <path
       d="M 565.89821,120.794 L 565.89821,120.83265 C 565.78431,120.94909 558.563,128.33342 556.12071,131.17464 C 552.75806,135.0866 554.14237,138.9094 557.80448,141.33066 C 560.35913,143.01969 563.29775,140.642 564.84316,139.04827 C 564.05335,140.70478 562.9212,142.70357 561.72713,143.55508 C 559.47887,145.15836 552.195,146.207 552.195,146.207 L 565.93501,146.207 L 579.675,146.207 C 579.675,146.207 572.38805,145.15835 570.13982,143.55508 C 568.96243,142.71548 567.84494,140.76091 567.05752,139.11832 C 568.22943,140.31148 570.14807,141.89249 572.0996,141.91032 C 572.74994,141.91625 573.40237,141.74682 574.03179,141.33066 C 577.69392,138.9094 579.07515,135.0866 575.71248,131.17464 C 573.27018,128.3334 566.04879,120.94898 565.93501,120.83265 L 565.93501,120.794 C 565.93501,120.794 565.91683,120.81309 565.9166,120.81332 C 565.91638,120.81309 565.89821,120.794 565.89821,120.794 z M 566.25728,132.02448 C 566.25677,134.97205 566.16439,137.35374 566.05105,137.34072 C 565.93771,137.3277 565.84612,134.9249 565.84663,131.97731 C 565.84713,129.02974 565.93953,126.64806 566.05287,126.66106 C 566.16202,126.6736 566.25114,128.88009 566.25699,131.71472"
       style="fill:#000000"
       id="path2854" />
    <path
       d="M 545.89821,88.794 L 545.89821,88.83265 C 545.78431,88.94909 538.563,96.33342 536.12071,99.17464 C 532.75806,103.0866 534.14237,106.9094 537.80448,109.33066 C 540.35913,111.01969 543.29775,108.642 544.84316,107.04827 C 544.05335,108.70478 542.9212,110.70357 541.72713,111.55508 C 539.47887,113.15836 532.195,114.207 532.195,114.207 L 545.93501,114.207 L 559.675,114.207 C 559.675,114.207 552.38805,113.15835 550.13982,111.55508 C 548.96243,110.71548 547.84494,108.76091 547.05752,107.11832 C 548.22943,108.31148 550.14807,109.89249 552.0996,109.91032 C 552.74994,109.91625 553.40237,109.74682 554.03179,109.33066 C 557.69392,106.9094 559.07515,103.0866 555.71248,99.17464 C 553.27018,96.3334 546.04879,88.94898 545.93501,88.83265 L 545.93501,88.794 C 545.93501,88.794 545.91683,88.81309 545.9166,88.81332 C 545.91638,88.81309 545.89821,88.794 545.89821,88.794 z M 546.25728,100.02448 C 546.25677,102.97205 546.16439,105.35374 546.05105,105.34072 C 545.93771,105.3277 545.84612,102.9249 545.84663,99.97731 C 545.84713,97.02974 545.93953,94.64806 546.05287,94.66106 C 546.16202,94.6736 546.25114,96.88009 546.25699,99.71472"
       style="fill:#000000"
       id="path2850" />
    <g
       transform="matrix(0.1390351,0,0,0.1390351,42.301418,194.14965)"
       inkscape:label="Layer 1"
       id="g3076"
       style="display:inline">
      <rect
         rx="60.60915"
         ry="63.63961"
         y="26.047195"
         x="24.243658"
         height="1006.1119"
         width="709.12708"
         id="rect3078"
         style="opacity:0.91666667;fill:#000000;filter:url(#filter3254)" />
      <rect
         style="fill:#ffffff"
         id="rect3080"
         width="709.12708"
         height="1006.1119"
         x="10.101523"
         y="7.8644519"
         ry="63.63961"
         rx="60.60915" />
      <text
         xml:space="preserve"
         style="font-size:225.6577301px;font-style:normal;font-variant:normal;font-weight:normal;font-stretch:normal;fill:#000000;fill-opacity:1;stroke:none;stroke-width:1px;stroke-linecap:butt;stroke-linejoin:miter;stroke-opacity:1;filter:url(#filter4970);font-family:Gemelli;-inkscape-font-specification:Gemelli"
         x="47.257381"
         y="188.40356"
         id="text3082"
         transform="scale(1.0234483,0.9770889)"><tspan
           sodipodi:role="line"
           id="tspan3084"
           x="47.257381"
           y="188.40356">6</tspan></text>
      <text
         transform="scale(1.0234483,0.9770889)"
         id="text3086"
         y="980.57336"
         x="537.01221"
         style="font-size:225.6577301px;font-style:normal;font-variant:normal;font-weight:normal;font-stretch:normal;fill:#000000;fill-opacity:1;stroke:none;stroke-width:1px;stroke-linecap:butt;stroke-linejoin:miter;stroke-opacity:1;filter:url(#filter4966);font-family:Gemelli;-inkscape-font-specification:Gemelli"
         xml:space="preserve"><tspan
           y="980.57336"
           x="537.01221"
           id="tspan3088"
           sodipodi:role="line">6</tspan></text>
    </g>
    <path
       d="M 72.400135,217.66763 L 72.400135,217.70628 C 72.286235,217.82272 65.064925,225.20705 62.622635,228.04827 C 59.259985,231.96023 60.644295,235.78303 64.306405,238.20429 C 66.861055,239.89332 69.799675,237.51563 71.345085,235.9219 C 70.555275,237.57841 69.423125,239.5772 68.229055,240.42871 C 65.980795,242.03199 58.696925,243.08063 58.696925,243.08063 L 72.436935,243.08063 L 86.176925,243.08063 C 86.176925,243.08063 78.889975,242.03198 76.641745,240.42871 C 75.464355,239.58911 74.346865,237.63454 73.559445,235.99195 C 74.731355,237.18511 76.649995,238.76612 78.601525,238.78395 C 79.251865,238.78988 79.904295,238.62045 80.533715,238.20429 C 84.195845,235.78303 85.577075,231.96023 82.214405,228.04827 C 79.772105,225.20703 72.550715,217.82261 72.436935,217.70628 L 72.436935,217.66763 C 72.436935,217.66763 72.418755,217.68672 72.418525,217.68695 C 72.418305,217.68672 72.400135,217.66763 72.400135,217.66763 z M 72.759205,228.89811 C 72.758695,231.84568 72.666315,234.22737 72.552975,234.21435 C 72.439635,234.20133 72.348045,231.79853 72.348555,228.85094 C 72.349055,225.90337 72.441455,223.52169 72.554795,223.53469 C 72.663945,223.54723 72.753065,225.75372 72.758915,228.58835"
       style="fill:#000000"
       id="path2856" />
    <path
       id="path2860"
       style="fill:#000000"
       d="M 72.400135,253.66763 L 72.400135,253.70628 C 72.286235,253.82272 65.064925,261.20705 62.622635,264.04827 C 59.259985,267.96023 60.644295,271.78303 64.306405,274.20429 C 66.861055,275.89332 69.799675,273.51563 71.345085,271.9219 C 70.555275,273.57841 69.423125,275.5772 68.229055,276.42871 C 65.980795,278.03199 58.696925,279.08063 58.696925,279.08063 L 72.436935,279.08063 L 86.176925,279.08063 C 86.176925,279.08063 78.889975,278.03198 76.641745,276.42871 C 75.464355,275.58911 74.346865,273.63454 73.559445,271.99195 C 74.731355,273.18511 76.649995,274.76612 78.601525,274.78395 C 79.251865,274.78988 79.904295,274.62045 80.533715,274.20429 C 84.195845,271.78303 85.577075,267.96023 82.214405,264.04827 C 79.772105,261.20703 72.550715,253.82261 72.436935,253.70628 L 72.436935,253.66763 C 72.436935,253.66763 72.418755,253.68672 72.418525,253.68695 C 72.418305,253.68672 72.400135,253.66763 72.400135,253.66763 z M 72.759205,264.89811 C 72.758695,267.84568 72.666315,270.22737 72.552975,270.21435 C 72.439635,270.20133 72.348045,267.79853 72.348555,264.85094 C 72.349055,261.90337 72.441455,259.52169 72.554795,259.53469 C 72.663945,259.54723 72.753065,261.75372 72.758915,264.58835" />
    <path
       d="M 72.400135,289.66763 L 72.400135,289.70628 C 72.286235,289.82272 65.064925,297.20705 62.622635,300.04827 C 59.259985,303.96023 60.644295,307.78303 64.306405,310.20429 C 66.861055,311.89332 69.799675,309.51563 71.345085,307.9219 C 70.555275,309.57841 69.423125,311.5772 68.229055,312.42871 C 65.980795,314.03199 58.696925,315.08063 58.696925,315.08063 L 72.436935,315.08063 L 86.176925,315.08063 C 86.176925,315.08063 78.889975,314.03198 76.641745,312.42871 C 75.464355,311.58911 74.346865,309.63454 73.559445,307.99195 C 74.731355,309.18511 76.649995,310.76612 78.601525,310.78395 C 79.251865,310.78988 79.904295,310.62045 80.533715,310.20429 C 84.195845,307.78303 85.577075,303.96023 82.214405,300.04827 C 79.772105,297.20703 72.550715,289.82261 72.436935,289.70628 L 72.436935,289.66763 C 72.436935,289.66763 72.418755,289.68672 72.418525,289.68695 C 72.418305,289.68672 72.400135,289.66763 72.400135,289.66763 z M 72.759205,300.89811 C 72.758695,303.84568 72.666315,306.22737 72.552975,306.21435 C 72.439635,306.20133 72.348045,303.79853 72.348555,300.85094 C 72.349055,297.90337 72.441455,295.52169 72.554795,295.53469 C 72.663945,295.54723 72.753065,297.75372 72.758915,300.58835"
       style="fill:#000000"
       id="path2866" />
    <path
       id="path2858"
       style="fill:#000000"
       d="M 106.40014,217.66763 L 106.40014,217.70628 C 106.28624,217.82272 99.06493,225.20705 96.62263,228.04827 C 93.259985,231.96023 94.644295,235.78303 98.3064,238.20429 C 100.86106,239.89332 103.79968,237.51563 105.34508,235.9219 C 104.55527,237.57841 103.42313,239.5772 102.22906,240.42871 C 99.9808,242.03199 92.696925,243.08063 92.696925,243.08063 L 106.43694,243.08063 L 120.17692,243.08063 C 120.17692,243.08063 112.88997,242.03198 110.64175,240.42871 C 109.46436,239.58911 108.34687,237.63454 107.55944,235.99195 C 108.73136,237.18511 110.65,238.76612 112.60153,238.78395 C 113.25187,238.78988 113.9043,238.62045 114.53372,238.20429 C 118.19584,235.78303 119.57707,231.96023 116.21441,228.04827 C 113.7721,225.20703 106.55071,217.82261 106.43694,217.70628 L 106.43694,217.66763 C 106.43694,217.66763 106.41876,217.68672 106.41853,217.68695 C 106.41831,217.68672 106.40014,217.66763 106.40014,217.66763 z M 106.75921,228.89811 C 106.7587,231.84568 106.66631,234.22737 106.55297,234.21435 C 106.43964,234.20133 106.34804,231.79853 106.34856,228.85094 C 106.34906,225.90337 106.44146,223.52169 106.55479,223.53469 C 106.66394,223.54723 106.75307,225.75372 106.75892,228.58835" />
    <path
       d="M 106.40014,253.66763 L 106.40014,253.70628 C 106.28624,253.82272 99.06493,261.20705 96.62263,264.04827 C 93.259985,267.96023 94.644295,271.78303 98.3064,274.20429 C 100.86106,275.89332 103.79968,273.51563 105.34508,271.9219 C 104.55527,273.57841 103.42313,275.5772 102.22906,276.42871 C 99.9808,278.03199 92.696925,279.08063 92.696925,279.08063 L 106.43694,279.08063 L 120.17692,279.08063 C 120.17692,279.08063 112.88997,278.03198 110.64175,276.42871 C 109.46436,275.58911 108.34687,273.63454 107.55944,271.99195 C 108.73136,273.18511 110.65,274.76612 112.60153,274.78395 C 113.25187,274.78988 113.9043,274.62045 114.53372,274.20429 C 118.19584,271.78303 119.57707,267.96023 116.21441,264.04827 C 113.7721,261.20703 106.55071,253.82261 106.43694,253.70628 L 106.43694,253.66763 C 106.43694,253.66763 106.41876,253.68672 106.41853,253.68695 C 106.41831,253.68672 106.40014,253.66763 106.40014,253.66763 z M 106.75921,264.89811 C 106.7587,267.84568 106.66631,270.22737 106.55297,270.21435 C 106.43964,270.20133 106.34804,267.79853 106.34856,264.85094 C 106.34906,261.90337 106.44146,259.52169 106.55479,259.53469 C 106.66394,259.54723 106.75307,261.75372 106.75892,264.58835"
       style="fill:#000000"
       id="path2862" />
    <path
       id="path2864"
       style="fill:#000000"
       d="M 106.40014,289.66763 L 106.40014,289.70628 C 106.28624,289.82272 99.06493,297.20705 96.62263,300.04827 C 93.259985,303.96023 94.644295,307.78303 98.3064,310.20429 C 100.86106,311.89332 103.79968,309.51563 105.34508,307.9219 C 104.55527,309.57841 103.42313,311.5772 102.22906,312.42871 C 99.9808,314.03199 92.696925,315.08063 92.696925,315.08063 L 106.43694,315.08063 L 120.17692,315.08063 C 120.17692,315.08063 112.88997,314.03198 110.64175,312.42871 C 109.46436,311.58911 108.34687,309.63454 107.55944,307.99195 C 108.73136,309.18511 110.65,310.76612 112.60153,310.78395 C 113.25187,310.78988 113.9043,310.62045 114.53372,310.20429 C 118.19584,307.78303 119.57707,303.96023 116.21441,300.04827 C 113.7721,297.20703 106.55071,289.82261 106.43694,289.70628 L 106.43694,289.66763 C 106.43694,289.66763 106.41876,289.68672 106.41853,289.68695 C 106.41831,289.68672 106.40014,289.66763 106.40014,289.66763 z M 106.75921,300.89811 C 106.7587,303.84568 106.66631,306.22737 106.55297,306.21435 C 106.43964,306.20133 106.34804,303.79853 106.34856,300.85094 C 106.34906,297.90337 106.44146,295.52169 106.55479,295.53469 C 106.66394,295.54723 106.75307,297.75372 106.75892,300.58835" />
    <g
       transform="matrix(0.1390351,0,0,0.1390351,156.36012,192.75016)"
       inkscape:label="Layer 1"
       id="g3102"
       style="display:inline">
      <rect
         rx="60.60915"
         ry="63.63961"
         y="26.047195"
         x="24.243658"
         height="1006.1119"
         width="709.12708"
         id="rect3104"
         style="opacity:0.91666667;fill:#000000;filter:url(#filter3254)" />
      <rect
         style="fill:#ffffff"
         id="rect3106"
         width="709.12708"
         height="1006.1119"
         x="10.101523"
         y="7.8644519"
         ry="63.63961"
         rx="60.60915" />
      <text
         xml:space="preserve"
         style="font-size:225.6577301px;font-style:normal;font-variant:normal;font-weight:normal;font-stretch:normal;fill:#000000;fill-opacity:1;stroke:none;stroke-width:1px;stroke-linecap:butt;stroke-linejoin:miter;stroke-opacity:1;filter:url(#filter4970);font-family:Gemelli;-inkscape-font-specification:Gemelli"
         x="47.257381"
         y="188.40356"
         id="text3108"
         transform="scale(1.0234483,0.9770889)"><tspan
           sodipodi:role="line"
           id="tspan3110"
           x="47.257381"
           y="188.40356">7</tspan></text>
      <text
         transform="scale(1.0234483,0.9770889)"
         id="text3112"
         y="980.57336"
         x="537.01221"
         style="font-size:225.6577301px;font-style:normal;font-variant:normal;font-weight:normal;font-stretch:normal;fill:#000000;fill-opacity:1;stroke:none;stroke-width:1px;stroke-linecap:butt;stroke-linejoin:miter;stroke-opacity:1;filter:url(#filter4966);font-family:Gemelli;-inkscape-font-specification:Gemelli"
         xml:space="preserve"><tspan
           y="980.57336"
           x="537.01221"
           id="tspan3114"
           sodipodi:role="line">7</tspan></text>
    </g>
    <path
       d="M 185.5961,278.35035 L 185.5961,278.389 C 185.4822,278.50544 178.26089,285.88977 175.81859,288.73099 C 172.45594,292.64295 173.84025,296.46575 177.50236,298.88701 C 180.05702,300.57604 182.99564,298.19835 184.54104,296.60462 C 183.75123,298.26113 182.61909,300.25992 181.42502,301.11143 C 179.17676,302.71471 171.89288,303.76335 171.89288,303.76335 L 185.6329,303.76335 L 199.37288,303.76335 C 199.37288,303.76335 192.08593,302.7147 189.83771,301.11143 C 188.66032,300.27183 187.54283,298.31726 186.7554,296.67467 C 187.92732,297.86783 189.84596,299.44884 191.79749,299.46667 C 192.44783,299.4726 193.10026,299.30317 193.72968,298.88701 C 197.3918,296.46575 198.77303,292.64295 195.41037,288.73099 C 192.96806,285.88975 185.74667,278.50533 185.6329,278.389 L 185.6329,278.35035 C 185.6329,278.35035 185.61472,278.36944 185.61449,278.36967 C 185.61427,278.36944 185.5961,278.35035 185.5961,278.35035 z M 185.95517,289.58083 C 185.95466,292.5284 185.86227,294.91009 185.74893,294.89707 C 185.6356,294.88405 185.544,292.48125 185.54452,289.53366 C 185.54502,286.58609 185.63742,284.20441 185.75075,284.21741 C 185.8599,284.22995 185.94903,286.43644 185.95488,289.27107"
       style="fill:#000000"
       id="path2878" />
    <path
       d="M 185.5961,208.35035 L 185.5961,208.389 C 185.4822,208.50544 178.26089,215.88977 175.81859,218.73099 C 172.45594,222.64295 173.84025,226.46575 177.50236,228.88701 C 180.05702,230.57604 182.99564,228.19835 184.54104,226.60462 C 183.75123,228.26113 182.61909,230.25992 181.42502,231.11143 C 179.17676,232.71471 171.89288,233.76335 171.89288,233.76335 L 185.6329,233.76335 L 199.37288,233.76335 C 199.37288,233.76335 192.08593,232.7147 189.83771,231.11143 C 188.66032,230.27183 187.54283,228.31726 186.7554,226.67467 C 187.92732,227.86783 189.84596,229.44884 191.79749,229.46667 C 192.44783,229.4726 193.10026,229.30317 193.72968,228.88701 C 197.3918,226.46575 198.77303,222.64295 195.41037,218.73099 C 192.96806,215.88975 185.74667,208.50533 185.6329,208.389 L 185.6329,208.35035 C 185.6329,208.35035 185.61472,208.36944 185.61449,208.36967 C 185.61427,208.36944 185.5961,208.35035 185.5961,208.35035 z M 185.95517,219.58083 C 185.95466,222.5284 185.86227,224.91009 185.74893,224.89707 C 185.6356,224.88405 185.544,222.48125 185.54452,219.53366 C 185.54502,216.58609 185.63742,214.20441 185.75075,214.21741 C 185.8599,214.22995 185.94903,216.43644 185.95488,219.27107"
       style="fill:#000000"
       id="path2868" />
    <path
       id="path2874"
       style="fill:#000000"
       d="M 185.5961,248.35035 L 185.5961,248.389 C 185.4822,248.50544 178.26089,255.88977 175.81859,258.73099 C 172.45594,262.64295 173.84025,266.46575 177.50236,268.88701 C 180.05702,270.57604 182.99564,268.19835 184.54104,266.60462 C 183.75123,268.26113 182.61909,270.25992 181.42502,271.11143 C 179.17676,272.71471 171.89288,273.76335 171.89288,273.76335 L 185.6329,273.76335 L 199.37288,273.76335 C 199.37288,273.76335 192.08593,272.7147 189.83771,271.11143 C 188.66032,270.27183 187.54283,268.31726 186.7554,266.67467 C 187.92732,267.86783 189.84596,269.44884 191.79749,269.46667 C 192.44783,269.4726 193.10026,269.30317 193.72968,268.88701 C 197.3918,266.46575 198.77303,262.64295 195.41037,258.73099 C 192.96806,255.88975 185.74667,248.50533 185.6329,248.389 L 185.6329,248.35035 C 185.6329,248.35035 185.61472,248.36944 185.61449,248.36967 C 185.61427,248.36944 185.5961,248.35035 185.5961,248.35035 z M 185.95517,259.58083 C 185.95466,262.5284 185.86227,264.91009 185.74893,264.89707 C 185.6356,264.88405 185.544,262.48125 185.54452,259.53366 C 185.54502,256.58609 185.63742,254.20441 185.75075,254.21741 C 185.8599,254.22995 185.94903,256.43644 185.95488,259.27107" />
    <path
       id="path2870"
       style="fill:#000000"
       d="M 227.5961,208.35035 L 227.5961,208.389 C 227.4822,208.50544 220.26089,215.88977 217.81859,218.73099 C 214.45594,222.64295 215.84025,226.46575 219.50236,228.88701 C 222.05702,230.57604 224.99564,228.19835 226.54104,226.60462 C 225.75123,228.26113 224.61909,230.25992 223.42502,231.11143 C 221.17676,232.71471 213.89288,233.76335 213.89288,233.76335 L 227.6329,233.76335 L 241.37288,233.76335 C 241.37288,233.76335 234.08593,232.7147 231.83771,231.11143 C 230.66032,230.27183 229.54283,228.31726 228.7554,226.67467 C 229.92732,227.86783 231.84596,229.44884 233.79749,229.46667 C 234.44783,229.4726 235.10026,229.30317 235.72968,228.88701 C 239.3918,226.46575 240.77303,222.64295 237.41037,218.73099 C 234.96806,215.88975 227.74667,208.50533 227.6329,208.389 L 227.6329,208.35035 C 227.6329,208.35035 227.61472,208.36944 227.61449,208.36967 C 227.61427,208.36944 227.5961,208.35035 227.5961,208.35035 z M 227.95517,219.58083 C 227.95466,222.5284 227.86227,224.91009 227.74893,224.89707 C 227.6356,224.88405 227.544,222.48125 227.54452,219.53366 C 227.54502,216.58609 227.63742,214.20441 227.75075,214.21741 C 227.8599,214.22995 227.94903,216.43644 227.95488,219.27107" />
    <path
       d="M 227.5961,248.35035 L 227.5961,248.389 C 227.4822,248.50544 220.26089,255.88977 217.81859,258.73099 C 214.45594,262.64295 215.84025,266.46575 219.50236,268.88701 C 222.05702,270.57604 224.99564,268.19835 226.54104,266.60462 C 225.75123,268.26113 224.61909,270.25992 223.42502,271.11143 C 221.17676,272.71471 213.89288,273.76335 213.89288,273.76335 L 227.6329,273.76335 L 241.37288,273.76335 C 241.37288,273.76335 234.08593,272.7147 231.83771,271.11143 C 230.66032,270.27183 229.54283,268.31726 228.7554,266.67467 C 229.92732,267.86783 231.84596,269.44884 233.79749,269.46667 C 234.44783,269.4726 235.10026,269.30317 235.72968,268.88701 C 239.3918,266.46575 240.77303,262.64295 237.41037,258.73099 C 234.96806,255.88975 227.74667,248.50533 227.6329,248.389 L 227.6329,248.35035 C 227.6329,248.35035 227.61472,248.36944 227.61449,248.36967 C 227.61427,248.36944 227.5961,248.35035 227.5961,248.35035 z M 227.95517,259.58083 C 227.95466,262.5284 227.86227,264.91009 227.74893,264.89707 C 227.6356,264.88405 227.544,262.48125 227.54452,259.53366 C 227.54502,256.58609 227.63742,254.20441 227.75075,254.21741 C 227.8599,254.22995 227.94903,256.43644 227.95488,259.27107"
       style="fill:#000000"
       id="path2876" />
    <path
       d="M 206.889,227.9968 L 206.889,228.03545 C 206.7751,228.15189 199.55379,235.53622 197.11149,238.37744 C 193.74884,242.2894 195.13315,246.1122 198.79526,248.53346 C 201.34992,250.22249 204.28854,247.8448 205.83394,246.25107 C 205.04413,247.90758 203.91199,249.90637 202.71792,250.75788 C 200.46966,252.36116 193.18578,253.4098 193.18578,253.4098 L 206.9258,253.4098 L 220.66578,253.4098 C 220.66578,253.4098 213.37883,252.36115 211.13061,250.75788 C 209.95322,249.91828 208.83573,247.96371 208.0483,246.32112 C 209.22022,247.51428 211.13886,249.09529 213.09039,249.11312 C 213.74073,249.11905 214.39316,248.94962 215.02258,248.53346 C 218.6847,246.1122 220.06593,242.2894 216.70327,238.37744 C 214.26096,235.5362 207.03957,228.15178 206.9258,228.03545 L 206.9258,227.9968 C 206.9258,227.9968 206.90762,228.01589 206.90739,228.01612 C 206.90717,228.01589 206.889,227.9968 206.889,227.9968 z M 207.24807,239.22728 C 207.24756,242.17485 207.15517,244.55654 207.04183,244.54352 C 206.9285,244.5305 206.8369,242.1277 206.83742,239.18011 C 206.83792,236.23254 206.93032,233.85086 207.04365,233.86386 C 207.1528,233.8764 207.24193,236.08289 207.24778,238.91752"
       style="fill:#000000"
       id="path2872" />
    <path
       id="path2880"
       style="fill:#000000"
       d="M 227.5961,278.35035 L 227.5961,278.389 C 227.4822,278.50544 220.26089,285.88977 217.81859,288.73099 C 214.45594,292.64295 215.84025,296.46575 219.50236,298.88701 C 222.05702,300.57604 224.99564,298.19835 226.54104,296.60462 C 225.75123,298.26113 224.61909,300.25992 223.42502,301.11143 C 221.17676,302.71471 213.89288,303.76335 213.89288,303.76335 L 227.6329,303.76335 L 241.37288,303.76335 C 241.37288,303.76335 234.08593,302.7147 231.83771,301.11143 C 230.66032,300.27183 229.54283,298.31726 228.7554,296.67467 C 229.92732,297.86783 231.84596,299.44884 233.79749,299.46667 C 234.44783,299.4726 235.10026,299.30317 235.72968,298.88701 C 239.3918,296.46575 240.77303,292.64295 237.41037,288.73099 C 234.96806,285.88975 227.74667,278.50533 227.6329,278.389 L 227.6329,278.35035 C 227.6329,278.35035 227.61472,278.36944 227.61449,278.36967 C 227.61427,278.36944 227.5961,278.35035 227.5961,278.35035 z M 227.95517,289.58083 C 227.95466,292.5284 227.86227,294.91009 227.74893,294.89707 C 227.6356,294.88405 227.544,292.48125 227.54452,289.53366 C 227.54502,286.58609 227.63742,284.20441 227.75075,284.21741 C 227.8599,284.22995 227.94903,286.43644 227.95488,289.27107" />
    <g
       id="g4871">
      <g
         style="display:inline"
         id="g3186"
         inkscape:label="Layer 1"
         transform="matrix(0.1390351,0,0,0.1390351,275.31705,190.65092)">
        <rect
           style="opacity:0.91666667;fill:#000000;filter:url(#filter3254)"
           id="rect3188"
           width="709.12708"
           height="1006.1119"
           x="24.243658"
           y="26.047195"
           ry="63.63961"
           rx="60.60915" />
        <rect
           rx="60.60915"
           ry="63.63961"
           y="7.8644519"
           x="10.101523"
           height="1006.1119"
           width="709.12708"
           id="rect3190"
           style="fill:#ffffff" />
        <text
           transform="scale(1.0234483,0.9770889)"
           id="text3192"
           y="188.40356"
           x="47.257381"
           style="font-size:225.6577301px;font-style:normal;font-variant:normal;font-weight:normal;font-stretch:normal;fill:#000000;fill-opacity:1;stroke:none;stroke-width:1px;stroke-linecap:butt;stroke-linejoin:miter;stroke-opacity:1;filter:url(#filter4970);font-family:Gemelli;-inkscape-font-specification:Gemelli"
           xml:space="preserve"><tspan
             y="188.40356"
             x="47.257381"
             id="tspan3194"
             sodipodi:role="line">J</tspan></text>
        <text
           xml:space="preserve"
           style="font-size:225.6577301px;font-style:normal;font-variant:normal;font-weight:normal;font-stretch:normal;fill:#000000;fill-opacity:1;stroke:none;stroke-width:1px;stroke-linecap:butt;stroke-linejoin:miter;stroke-opacity:1;filter:url(#filter4966);font-family:Gemelli;-inkscape-font-specification:Gemelli"
           x="537.01221"
           y="980.57336"
           id="text3196"
           transform="scale(1.0234483,0.9770889)"><tspan
             sodipodi:role="line"
             id="tspan3198"
             x="537.01221"
             y="980.57336">J</tspan></text>
      </g>
      <path
         id="rect4024"
         d="M 323.84017,212.68959 C 318.12698,212.68959 313.49704,217.47627 313.49704,223.3826 C 313.49704,227.74203 316.02123,231.49025 319.64169,233.15718 L 319.64169,240.67946 L 297.00926,224.71649 L 293.90413,229.11177 L 319.64169,247.28332 L 319.64169,264.31778 L 328.03865,264.31778 L 328.03865,249.5575 L 358.23709,244.87794 L 357.40614,239.56424 L 328.03865,244.11259 L 328.03865,233.15718 C 331.65912,231.49025 334.18329,227.74203 334.1833,223.3826 C 334.1833,217.47627 329.55337,212.6896 323.84017,212.68959 z"
         style="opacity:1;fill:#000000;fill-opacity:1;fill-rule:nonzero;stroke:#ffffff;stroke-width:0.69974667;stroke-linecap:butt;stroke-linejoin:miter;marker:none;marker-start:none;marker-mid:none;marker-end:none;stroke-miterlimit:4;stroke-dasharray:none;stroke-dashoffset:0;stroke-opacity:1;visibility:visible;display:inline;overflow:visible;enable-background:accumulate" />
      <path
         style="opacity:1;fill:#000000;fill-opacity:1;fill-rule:nonzero;stroke:#ffffff;stroke-width:0.69974667;stroke-linecap:butt;stroke-linejoin:miter;marker:none;marker-start:none;marker-mid:none;marker-end:none;stroke-miterlimit:4;stroke-dasharray:none;stroke-dashoffset:0;stroke-opacity:1;visibility:visible;display:inline;overflow:visible;enable-background:accumulate"
         d="M 323.7527,312.95017 C 329.46589,312.95017 334.09583,308.16349 334.09583,302.25716 C 334.09583,297.89774 331.57164,294.14951 327.95118,292.48258 L 327.95118,284.9603 L 350.58361,300.92327 L 353.68874,296.52799 L 327.95118,278.35644 L 327.95118,261.32199 L 319.55422,261.32199 L 319.55422,276.08227 L 289.35578,280.76182 L 290.18673,286.07552 L 319.55422,281.52717 L 319.55422,292.48258 C 315.93375,294.14951 313.40958,297.89774 313.40957,302.25716 C 313.40957,308.16349 318.0395,312.95016 323.7527,312.95017 z"
         id="path4046" />
    </g>
    <g
       id="g4073"
       transform="matrix(0.6997466,0,0,0.6997466,41.142526,23.60493)">
      <rect
         transform="matrix(0.1986935,0,0,0.1986935,497.65616,239.72353)"
         style="opacity:0.91666667;fill:#000000;filter:url(#filter3254)"
         id="rect4055"
         width="709.12708"
         height="1006.1119"
         x="24.243658"
         y="26.047195"
         ry="63.63961"
         rx="60.60915" />
      <rect
         rx="12.042645"
         ry="12.644777"
         y="241.28615"
         x="499.66327"
         height="199.9079"
         width="140.89894"
         id="rect4057"
         style="fill:#ffffff" />
      <text
         transform="matrix(0.2033525,0,0,0.1941412,497.65616,239.72353)"
         id="text4059"
         y="188.40356"
         x="47.257381"
         style="font-size:225.6577301px;font-style:normal;font-variant:normal;font-weight:normal;font-stretch:normal;fill:#000000;fill-opacity:1;stroke:none;stroke-width:1px;stroke-linecap:butt;stroke-linejoin:miter;stroke-opacity:1;filter:url(#filter4970);font-family:Gemelli;-inkscape-font-specification:Gemelli"
         xml:space="preserve"><tspan
           y="188.40356"
           x="47.257381"
           id="tspan4061"
           sodipodi:role="line">Q</tspan></text>
      <text
         xml:space="preserve"
         style="font-size:225.6577301px;font-style:normal;font-variant:normal;font-weight:normal;font-stretch:normal;fill:#000000;fill-opacity:1;stroke:none;stroke-width:1px;stroke-linecap:butt;stroke-linejoin:miter;stroke-opacity:1;filter:url(#filter4966);font-family:Gemelli;-inkscape-font-specification:Gemelli"
         x="537.01221"
         y="980.57336"
         id="text4063"
         transform="matrix(0.2033525,0,0,0.1941412,484.65616,239.72353)"><tspan
           sodipodi:role="line"
           id="tspan4065"
           x="537.01221"
           y="980.57336">Q</tspan></text>
    </g>
    <path
       style="opacity:1;fill:#000000;fill-opacity:1;fill-rule:nonzero;stroke:#ffffff;stroke-width:0.69974667;stroke-linecap:butt;stroke-linejoin:miter;marker:none;marker-start:none;marker-mid:none;marker-end:none;stroke-miterlimit:4;stroke-dasharray:none;stroke-dashoffset:0;stroke-opacity:1;visibility:visible;display:inline;overflow:visible;enable-background:accumulate"
       d="M 438.86102,216.18833 C 433.14782,216.18833 428.51789,220.97501 428.51789,226.88133 C 428.51789,227.08757 428.52861,227.29026 428.53976,227.49361 C 428.01708,229.175 428.10242,231.31253 428.10242,231.42968 L 426.35305,240.35145 C 426.35305,240.54528 426.61336,243.67525 429.32697,243.67525 C 432.04059,243.67525 433.00064,241.76984 433.00064,241.57601 L 433.00064,235.69376 C 433.52286,236.06609 434.07692,236.38628 434.66254,236.65592 L 434.66254,247.61132 L 405.29505,243.06297 L 404.4641,248.37667 L 434.66254,253.05623 L 434.66254,267.81651 L 443.0595,267.81651 L 443.0595,250.78205 L 468.79706,232.61051 L 465.69193,228.21522 L 451.71887,238.07728 L 450.31937,230.90487 C 450.31937,230.74739 450.50672,226.91183 449.11668,225.48184 C 448.45386,220.2369 444.11545,216.18833 438.86102,216.18833 z M 445.42115,235.14709 L 445.42115,241.0512 C 445.42115,241.13956 445.64666,241.57812 446.12089,242.03522 L 443.0595,244.17819 L 443.0595,236.65592 C 443.91388,236.26255 444.70764,235.75295 445.42115,235.14709 z"
       id="path4081" />
    <path
       id="path4090"
       d="M 438.94849,316.09903 C 444.66169,316.09902 449.29162,311.31235 449.29162,305.40602 C 449.29162,305.19979 449.2809,304.99709 449.26975,304.79375 C 449.79244,303.11236 449.7071,300.97482 449.7071,300.85767 L 451.45646,291.9359 C 451.45646,291.74207 451.19616,288.6121 448.48254,288.6121 C 445.76892,288.6121 444.80887,290.51751 444.80887,290.71134 L 444.80887,296.59359 C 444.28666,296.22127 443.7326,295.90107 443.14697,295.63144 L 443.14697,284.67603 L 472.51446,289.22438 L 473.34541,283.91068 L 443.14697,279.23113 L 443.14697,264.47085 L 434.75001,264.47085 L 434.75001,281.5053 L 409.01246,299.67685 L 412.11758,304.07213 L 426.09065,294.21008 L 427.49014,301.38248 C 427.49015,301.53997 427.30279,305.37552 428.69283,306.80552 C 429.35565,312.05045 433.69407,316.09903 438.94849,316.09903 z M 432.38837,297.14027 L 432.38837,291.23615 C 432.38837,291.14779 432.16285,290.70924 431.68862,290.25214 L 434.75001,288.10916 L 434.75001,295.63144 C 433.89563,296.02481 433.10188,296.53441 432.38837,297.14027 z"
       style="opacity:1;fill:#000000;fill-opacity:1;fill-rule:nonzero;stroke:#ffffff;stroke-width:0.69974667;stroke-linecap:butt;stroke-linejoin:miter;marker:none;marker-start:none;marker-mid:none;marker-end:none;stroke-miterlimit:4;stroke-dasharray:none;stroke-dashoffset:0;stroke-opacity:1;visibility:visible;display:inline;overflow:visible;enable-background:accumulate" />
    <g
       id="g2840">
      <g
         transform="matrix(0.1390351,0,0,0.1390351,45.100405,27.60995)"
         inkscape:label="Layer 1"
         id="g2508"
         style="display:inline">
        <rect
           rx="60.60915"
           ry="63.63961"
           y="26.047195"
           x="24.243658"
           height="1006.1119"
           width="709.12708"
           id="rect3208"
           style="opacity:0.91666667;fill:#000000;filter:url(#filter3254)" />
        <rect
           style="fill:#ffffff"
           id="rect3206"
           width="709.12708"
           height="1006.1119"
           x="10.101523"
           y="7.8644519"
           ry="63.63961"
           rx="60.60915" />
        <text
           xml:space="preserve"
           style="font-size:225.6577301px;font-style:normal;font-variant:normal;font-weight:normal;font-stretch:normal;fill:#000000;fill-opacity:1;stroke:none;stroke-width:1px;stroke-linecap:butt;stroke-linejoin:miter;stroke-opacity:1;filter:url(#filter4970);font-family:Gemelli;-inkscape-font-specification:Gemelli"
           x="47.257381"
           y="188.40356"
           id="text3475"
           transform="scale(1.0234483,0.9770889)"><tspan
             sodipodi:role="line"
             id="tspan3477"
             x="47.257381"
             y="188.40356">A</tspan></text>
        <text
           transform="scale(1.0234483,0.9770889)"
           id="text3487"
           y="980.57336"
           x="537.01221"
           style="font-size:225.6577301px;font-style:normal;font-variant:normal;font-weight:normal;font-stretch:normal;fill:#000000;fill-opacity:1;stroke:none;stroke-width:1px;stroke-linecap:butt;stroke-linejoin:miter;stroke-opacity:1;filter:url(#filter4966);font-family:Gemelli;-inkscape-font-specification:Gemelli"
           xml:space="preserve"><tspan
             y="980.57336"
             x="537.01221"
             id="tspan3489"
             sodipodi:role="line">A</tspan></text>
      </g>
      <path
         id="path10593"
         style="fill:#000000"
         d="M 92.246195,67.738 L 92.246195,67.83076 C 91.972853,68.1102 74.642506,85.83226 68.781285,92.65105 C 60.711279,102.03956 64.033476,111.21411 72.822139,117.02502 C 78.953014,121.07862 86.005392,115.37228 89.714211,111.5474 C 87.818751,115.52293 85.101716,120.31992 82.23608,122.36351 C 76.840503,126.21131 59.36,128.728 59.36,128.728 L 92.334513,128.728 L 125.309,128.728 C 125.309,128.728 107.82112,126.21129 102.4256,122.36351 C 99.600012,120.34851 96.918147,115.65764 95.028416,111.71549 C 97.840871,114.57903 102.44541,118.37339 107.12886,118.41616 C 108.68963,118.43039 110.25537,118.02378 111.76591,117.02502 C 120.5546,111.21411 123.86943,102.03956 115.79938,92.65105 C 109.93814,85.83221 92.60758,68.10994 92.334513,67.83076 L 92.334513,67.738 C 92.334513,67.738 92.290902,67.78382 92.290354,67.78437 C 92.289805,67.78382 92.246195,67.738 92.246195,67.738 z M 93.107935,94.69063 C 93.106716,101.76467 92.885003,107.48059 92.613004,107.44935 C 92.341005,107.41812 92.121211,101.65148 92.12243,94.57742 C 92.12362,87.50338 92.345363,81.78746 92.617362,81.81868 C 92.879304,81.84878 93.093185,87.14424 93.107234,93.94722" />
    </g>
    <path
       id="path3552"
       style="fill:#000000"
       d="M 208.44828,55.143 L 208.44828,55.19838 C 208.28507,55.36523 197.93769,65.94645 194.43814,70.01771 C 189.6198,75.62327 191.60338,81.10106 196.85081,84.57056 C 200.51135,86.99082 204.7221,83.58376 206.93651,81.30006 C 205.80479,83.67371 204.18254,86.53783 202.47156,87.75799 C 199.25004,90.05537 188.813,91.558 188.813,91.558 L 208.50101,91.558 L 228.189,91.558 C 228.189,91.558 217.74756,90.05536 214.52607,87.75799 C 212.839,86.5549 211.23775,83.75414 210.10945,81.40043 C 211.78868,83.11015 214.5379,85.37562 217.33423,85.40116 C 218.26611,85.40966 219.20097,85.16688 220.10287,84.57056 C 225.35031,81.10106 227.32948,75.62327 222.51112,70.01771 C 219.01156,65.94642 208.66405,55.36507 208.50101,55.19838 L 208.50101,55.143 C 208.50101,55.143 208.47497,55.17036 208.47464,55.17069 C 208.47432,55.17036 208.44828,55.143 208.44828,55.143 z M 208.96279,71.23547 C 208.96207,75.45913 208.82969,78.87191 208.66729,78.85326 C 208.50488,78.83461 208.37365,75.39156 208.37438,71.16788 C 208.37509,66.94422 208.50749,63.53144 208.66989,63.55008 C 208.82629,63.56805 208.95399,66.72979 208.96238,70.79161" />
    <path
       d="M 208.44828,105.552 L 208.44828,105.60738 C 208.28507,105.77423 197.93769,116.35545 194.43814,120.42671 C 189.6198,126.03227 191.60338,131.51006 196.85081,134.97956 C 200.51135,137.39982 204.7221,133.99276 206.93651,131.70906 C 205.80479,134.08271 204.18254,136.94683 202.47156,138.16699 C 199.25004,140.46437 188.813,141.967 188.813,141.967 L 208.50101,141.967 L 228.189,141.967 C 228.189,141.967 217.74756,140.46436 214.52607,138.16699 C 212.839,136.9639 211.23775,134.16314 210.10945,131.80943 C 211.78868,133.51915 214.5379,135.78462 217.33423,135.81016 C 218.26611,135.81866 219.20097,135.57588 220.10287,134.97956 C 225.35031,131.51006 227.32948,126.03227 222.51112,120.42671 C 219.01156,116.35542 208.66405,105.77407 208.50101,105.60738 L 208.50101,105.552 C 208.50101,105.552 208.47497,105.57936 208.47464,105.57969 C 208.47432,105.57936 208.44828,105.552 208.44828,105.552 z M 208.96279,121.64447 C 208.96207,125.86813 208.82969,129.28091 208.66729,129.26226 C 208.50488,129.24361 208.37365,125.80056 208.37438,121.57688 C 208.37509,117.35322 208.50749,113.94044 208.66989,113.95908 C 208.82629,113.97705 208.95399,117.13879 208.96238,121.20061"
       style="fill:#000000"
       id="path2830" />
    <path
       d="M 322.87221,48.174 L 322.87221,48.212648 C 322.75831,48.329088 315.537,55.713423 313.09471,58.55464 C 309.73206,62.466602 311.11637,66.289397 314.77848,68.710663 C 317.33313,70.399694 320.27175,68.022003 321.81716,66.428273 C 321.02735,68.084777 319.8952,70.083565 318.70113,70.93508 C 316.45287,72.538357 309.169,73.587 309.169,73.587 L 322.90901,73.587 L 336.649,73.587 C 336.649,73.587 329.36205,72.53835 327.11382,70.93508 C 325.93643,70.095478 324.81894,68.140907 324.03152,66.498319 C 325.20343,67.691484 327.12207,69.272492 329.0736,69.290315 C 329.72394,69.296247 330.37637,69.126818 331.00579,68.710663 C 334.66792,66.289397 336.04915,62.466602 332.68648,58.55464 C 330.24418,55.713402 323.02279,48.328976 322.90901,48.212648 L 322.90901,48.174 C 322.90901,48.174 322.89083,48.193094 322.8906,48.193324 C 322.89038,48.193094 322.87221,48.174 322.87221,48.174 z M 323.23128,59.40448 C 323.23077,62.352053 323.13839,64.733736 323.02505,64.720721 C 322.91171,64.707705 322.82012,62.304898 322.82063,59.357311 C 322.82113,56.409738 322.91353,54.028055 323.02687,54.041064 C 323.13602,54.053604 323.22514,56.260093 323.23099,59.094723"
       style="fill:#000000"
       id="path2832" />
    <path
       id="path2834"
       style="fill:#000000"
       d="M 322.87221,84.643 L 322.87221,84.681648 C 322.75831,84.798088 315.537,92.182423 313.09471,95.02364 C 309.73206,98.935602 311.11637,102.7584 314.77848,105.17966 C 317.33313,106.86869 320.27175,104.491 321.81716,102.89727 C 321.02735,104.55378 319.8952,106.55257 318.70113,107.40408 C 316.45287,109.00736 309.169,110.056 309.169,110.056 L 322.90901,110.056 L 336.649,110.056 C 336.649,110.056 329.36205,109.00735 327.11382,107.40408 C 325.93643,106.56448 324.81894,104.60991 324.03152,102.96732 C 325.20343,104.16048 327.12207,105.74149 329.0736,105.75932 C 329.72394,105.76525 330.37637,105.59582 331.00579,105.17966 C 334.66792,102.7584 336.04915,98.935602 332.68648,95.02364 C 330.24418,92.182402 323.02279,84.797976 322.90901,84.681648 L 322.90901,84.643 C 322.90901,84.643 322.89083,84.662094 322.8906,84.662324 C 322.89038,84.662094 322.87221,84.643 322.87221,84.643 z M 323.23128,95.87348 C 323.23077,98.821053 323.13839,101.20274 323.02505,101.18972 C 322.91171,101.1767 322.82012,98.773898 322.82063,95.826311 C 322.82113,92.878738 322.91353,90.497055 323.02687,90.510064 C 323.13602,90.522604 323.22514,92.729093 323.23099,95.563723" />
    <path
       d="M 322.87221,121.113 L 322.87221,121.15165 C 322.75831,121.26809 315.537,128.65242 313.09471,131.49364 C 309.73206,135.4056 311.11637,139.2284 314.77848,141.64966 C 317.33313,143.33869 320.27175,140.961 321.81716,139.36727 C 321.02735,141.02378 319.8952,143.02257 318.70113,143.87408 C 316.45287,145.47736 309.169,146.526 309.169,146.526 L 322.90901,146.526 L 336.649,146.526 C 336.649,146.526 329.36205,145.47735 327.11382,143.87408 C 325.93643,143.03448 324.81894,141.07991 324.03152,139.43732 C 325.20343,140.63048 327.12207,142.21149 329.0736,142.22932 C 329.72394,142.23525 330.37637,142.06582 331.00579,141.64966 C 334.66792,139.2284 336.04915,135.4056 332.68648,131.49364 C 330.24418,128.6524 323.02279,121.26798 322.90901,121.15165 L 322.90901,121.113 C 322.90901,121.113 322.89083,121.13209 322.8906,121.13232 C 322.89038,121.13209 322.87221,121.113 322.87221,121.113 z M 323.23128,132.34348 C 323.23077,135.29105 323.13839,137.67274 323.02505,137.65972 C 322.91171,137.6467 322.82012,135.2439 322.82063,132.29631 C 322.82113,129.34874 322.91353,126.96706 323.02687,126.98006 C 323.13602,126.9926 323.22514,129.19909 323.23099,132.03372"
       style="fill:#000000"
       id="path2836" />
    <path
       id="path2838"
       style="fill:#000000"
       d="M 415.93921,61.469 L 415.93921,61.50765 C 415.82531,61.62409 408.604,69.00842 406.16171,71.84964 C 402.79906,75.7616 404.18337,79.5844 407.84548,82.00566 C 410.40013,83.69469 413.33875,81.317 414.88416,79.72327 C 414.09435,81.37978 412.9622,83.37857 411.76813,84.23008 C 409.51987,85.83336 402.236,86.882 402.236,86.882 L 415.97601,86.882 L 429.716,86.882 C 429.716,86.882 422.42905,85.83335 420.18082,84.23008 C 419.00343,83.39048 417.88594,81.43591 417.09852,79.79332 C 418.27043,80.98648 420.18907,82.56749 422.1406,82.58532 C 422.79094,82.59125 423.44337,82.42182 424.07279,82.00566 C 427.73492,79.5844 429.11615,75.7616 425.75348,71.84964 C 423.31118,69.0084 416.08979,61.62398 415.97601,61.50765 L 415.97601,61.469 C 415.97601,61.469 415.95783,61.48809 415.9576,61.48832 C 415.95738,61.48809 415.93921,61.469 415.93921,61.469 z M 416.29828,72.69948 C 416.29777,75.64705 416.20539,78.02874 416.09205,78.01572 C 415.97871,78.0027 415.88712,75.5999 415.88763,72.65231 C 415.88813,69.70474 415.98053,67.32306 416.09387,67.33606 C 416.20302,67.3486 416.29214,69.55509 416.29799,72.38972" />
    <path
       d="M 453.91521,61.469 L 453.91521,61.50765 C 453.80131,61.62409 446.58,69.00842 444.13771,71.84964 C 440.77506,75.7616 442.15937,79.5844 445.82148,82.00566 C 448.37613,83.69469 451.31475,81.317 452.86016,79.72327 C 452.07035,81.37978 450.9382,83.37857 449.74413,84.23008 C 447.49587,85.83336 440.212,86.882 440.212,86.882 L 453.95201,86.882 L 467.692,86.882 C 467.692,86.882 460.40505,85.83335 458.15682,84.23008 C 456.97943,83.39048 455.86194,81.43591 455.07452,79.79332 C 456.24643,80.98648 458.16507,82.56749 460.1166,82.58532 C 460.76694,82.59125 461.41937,82.42182 462.04879,82.00566 C 465.71092,79.5844 467.09215,75.7616 463.72948,71.84964 C 461.28718,69.0084 454.06579,61.62398 453.95201,61.50765 L 453.95201,61.469 C 453.95201,61.469 453.93383,61.48809 453.9336,61.48832 C 453.93338,61.48809 453.91521,61.469 453.91521,61.469 z M 454.27428,72.69948 C 454.27377,75.64705 454.18139,78.02874 454.06805,78.01572 C 453.95471,78.0027 453.86312,75.5999 453.86363,72.65231 C 453.86413,69.70474 453.95653,67.32306 454.06987,67.33606 C 454.17902,67.3486 454.26814,69.55509 454.27399,72.38972"
       style="fill:#000000"
       id="path2840" />
    <path
       d="M 415.93921,107.875 L 415.93921,107.91365 C 415.82531,108.03009 408.604,115.41442 406.16171,118.25564 C 402.79906,122.1676 404.18337,125.9904 407.84548,128.41166 C 410.40013,130.10069 413.33875,127.723 414.88416,126.12927 C 414.09435,127.78578 412.9622,129.78457 411.76813,130.63608 C 409.51987,132.23936 402.236,133.288 402.236,133.288 L 415.97601,133.288 L 429.716,133.288 C 429.716,133.288 422.42905,132.23935 420.18082,130.63608 C 419.00343,129.79648 417.88594,127.84191 417.09852,126.19932 C 418.27043,127.39248 420.18907,128.97349 422.1406,128.99132 C 422.79094,128.99725 423.44337,128.82782 424.07279,128.41166 C 427.73492,125.9904 429.11615,122.1676 425.75348,118.25564 C 423.31118,115.4144 416.08979,108.02998 415.97601,107.91365 L 415.97601,107.875 C 415.97601,107.875 415.95783,107.89409 415.9576,107.89432 C 415.95738,107.89409 415.93921,107.875 415.93921,107.875 z M 416.29828,119.10548 C 416.29777,122.05305 416.20539,124.43474 416.09205,124.42172 C 415.97871,124.4087 415.88712,122.0059 415.88763,119.05831 C 415.88813,116.11074 415.98053,113.72906 416.09387,113.74206 C 416.20302,113.7546 416.29214,115.96109 416.29799,118.79572"
       style="fill:#000000"
       id="path2842" />
    <path
       id="path2844"
       style="fill:#000000"
       d="M 453.91521,107.875 L 453.91521,107.91365 C 453.80131,108.03009 446.58,115.41442 444.13771,118.25564 C 440.77506,122.1676 442.15937,125.9904 445.82148,128.41166 C 448.37613,130.10069 451.31475,127.723 452.86016,126.12927 C 452.07035,127.78578 450.9382,129.78457 449.74413,130.63608 C 447.49587,132.23936 440.212,133.288 440.212,133.288 L 453.95201,133.288 L 467.692,133.288 C 467.692,133.288 460.40505,132.23935 458.15682,130.63608 C 456.97943,129.79648 455.86194,127.84191 455.07452,126.19932 C 456.24643,127.39248 458.16507,128.97349 460.1166,128.99132 C 460.76694,128.99725 461.41937,128.82782 462.04879,128.41166 C 465.71092,125.9904 467.09215,122.1676 463.72948,118.25564 C 461.28718,115.4144 454.06579,108.02998 453.95201,107.91365 L 453.95201,107.875 C 453.95201,107.875 453.93383,107.89409 453.9336,107.89432 C 453.93338,107.89409 453.91521,107.875 453.91521,107.875 z M 454.27428,119.10548 C 454.27377,122.05305 454.18139,124.43474 454.06805,124.42172 C 453.95471,124.4087 453.86312,122.0059 453.86363,119.05831 C 453.86413,116.11074 453.95653,113.72906 454.06987,113.74206 C 454.17902,113.7546 454.26814,115.96109 454.27399,118.79572" />
    <path
       id="path2846"
       style="fill:#000000"
       d="M 527.89821,56.794 L 527.89821,56.83265 C 527.78431,56.94909 520.563,64.33342 518.12071,67.17464 C 514.75806,71.0866 516.14237,74.9094 519.80448,77.33066 C 522.35913,79.01969 525.29775,76.642 526.84316,75.04827 C 526.05335,76.70478 524.9212,78.70357 523.72713,79.55508 C 521.47887,81.15836 514.195,82.207 514.195,82.207 L 527.93501,82.207 L 541.675,82.207 C 541.675,82.207 534.38805,81.15835 532.13982,79.55508 C 530.96243,78.71548 529.84494,76.76091 529.05752,75.11832 C 530.22943,76.31148 532.14807,77.89249 534.0996,77.91032 C 534.74994,77.91625 535.40237,77.74682 536.03179,77.33066 C 539.69392,74.9094 541.07515,71.0866 537.71248,67.17464 C 535.27018,64.3334 528.04879,56.94898 527.93501,56.83265 L 527.93501,56.794 C 527.93501,56.794 527.91683,56.81309 527.9166,56.81332 C 527.91638,56.81309 527.89821,56.794 527.89821,56.794 z M 528.25728,68.02448 C 528.25677,70.97205 528.16439,73.35374 528.05105,73.34072 C 527.93771,73.3277 527.84612,70.9249 527.84663,67.97731 C 527.84713,65.02974 527.93953,62.64806 528.05287,62.66106 C 528.16202,62.6736 528.25114,64.88009 528.25699,67.71472" />
    <path
       d="M 358.5961,197.35035 L 358.5961,197.389 C 358.4822,197.50544 351.26089,204.88977 348.81859,207.73099 C 345.45594,211.64295 346.84025,215.46575 350.50236,217.88701 C 353.05702,219.57604 355.99564,217.19835 357.54104,215.60462 C 356.75123,217.26113 355.61909,219.25992 354.42502,220.11143 C 352.17676,221.71471 344.89288,222.76335 344.89288,222.76335 L 358.6329,222.76335 L 372.37288,222.76335 C 372.37288,222.76335 365.08593,221.7147 362.83771,220.11143 C 361.66032,219.27183 360.54283,217.31726 359.7554,215.67467 C 360.92732,216.86783 362.84596,218.44884 364.79749,218.46667 C 365.44783,218.4726 366.10026,218.30317 366.72968,217.88701 C 370.3918,215.46575 371.77303,211.64295 368.41037,207.73099 C 365.96806,204.88975 358.74667,197.50533 358.6329,197.389 L 358.6329,197.35035 C 358.6329,197.35035 358.61472,197.36944 358.61449,197.36967 C 358.61427,197.36944 358.5961,197.35035 358.5961,197.35035 z M 358.95517,208.58083 C 358.95466,211.5284 358.86227,213.91009 358.74893,213.89707 C 358.6356,213.88405 358.544,211.48125 358.54452,208.53366 C 358.54502,205.58609 358.63742,203.20441 358.75075,203.21741 C 358.8599,203.22995 358.94903,205.43644 358.95488,208.27107"
       style="fill:#000000"
       id="path3645" />
    <path
       id="path3647"
       style="fill:#000000"
       d="M 474.5961,197.35 L 474.5961,197.38865 C 474.4822,197.50509 467.26089,204.88942 464.81859,207.73064 C 461.45594,211.6426 462.84025,215.4654 466.50236,217.88666 C 469.05702,219.57569 471.99564,217.198 473.54104,215.60427 C 472.75123,217.26078 471.61909,219.25957 470.42502,220.11108 C 468.17676,221.71436 460.89288,222.763 460.89288,222.763 L 474.6329,222.763 L 488.37288,222.763 C 488.37288,222.763 481.08593,221.71435 478.83771,220.11108 C 477.66032,219.27148 476.54283,217.31691 475.7554,215.67432 C 476.92732,216.86748 478.84596,218.44849 480.79749,218.46632 C 481.44783,218.47225 482.10026,218.30282 482.72968,217.88666 C 486.3918,215.4654 487.77303,211.6426 484.41037,207.73064 C 481.96806,204.8894 474.74667,197.50498 474.6329,197.38865 L 474.6329,197.35 C 474.6329,197.35 474.61472,197.36909 474.61449,197.36932 C 474.61427,197.36909 474.5961,197.35 474.5961,197.35 z M 474.95517,208.58048 C 474.95466,211.52805 474.86227,213.90974 474.74893,213.89672 C 474.6356,213.8837 474.544,211.4809 474.54452,208.53331 C 474.54502,205.58574 474.63742,203.20406 474.75075,203.21706 C 474.8599,203.2296 474.94903,205.43609 474.95488,208.27072" />
    <g
       id="g3657">
      <g
         id="g2850">
        <g
           transform="matrix(0.1390351,0,0,0.1390351,502.03496,191.35067)"
           inkscape:label="Layer 1"
           id="g4106"
           style="display:inline">
          <rect
             rx="60.60915"
             ry="63.63961"
             y="26.047195"
             x="24.243658"
             height="1006.1119"
             width="709.12708"
             id="rect4108"
             style="opacity:0.91666667;fill:#000000;filter:url(#filter3254)" />
          <rect
             style="fill:#ffffff"
             id="rect4110"
             width="709.12708"
             height="1006.1119"
             x="10.101523"
             y="7.8644519"
             ry="63.63961"
             rx="60.60915" />
          <text
             xml:space="preserve"
             style="font-size:225.6577301px;font-style:normal;font-variant:normal;font-weight:normal;font-stretch:normal;fill:#000000;fill-opacity:1;stroke:none;stroke-width:1px;stroke-linecap:butt;stroke-linejoin:miter;stroke-opacity:1;filter:url(#filter4970);font-family:Gemelli;-inkscape-font-specification:Gemelli"
             x="47.257381"
             y="188.40356"
             id="text4112"
             transform="scale(1.0234483,0.9770889)"><tspan
               sodipodi:role="line"
               id="tspan4114"
               x="47.257381"
               y="188.40356">K</tspan></text>
          <text
             transform="scale(1.0234483,0.9770889)"
             id="text4116"
             y="980.57336"
             x="537.01221"
             style="font-size:225.6577301px;font-style:normal;font-variant:normal;font-weight:normal;font-stretch:normal;fill:#000000;fill-opacity:1;stroke:none;stroke-width:1px;stroke-linecap:butt;stroke-linejoin:miter;stroke-opacity:1;filter:url(#filter4966);font-family:Gemelli;-inkscape-font-specification:Gemelli"
             xml:space="preserve"><tspan
               y="980.57336"
               x="537.01221"
               id="tspan4118"
               sodipodi:role="line">K</tspan></text>
        </g>
        <path
           style="opacity:1;fill:#000000;fill-opacity:1;fill-rule:nonzero;stroke:#ffffff;stroke-width:0.69974667;stroke-linecap:butt;stroke-linejoin:miter;marker:none;marker-start:none;marker-mid:none;marker-end:none;stroke-miterlimit:4;stroke-dasharray:none;stroke-dashoffset:0;stroke-opacity:1;visibility:visible;display:inline;overflow:visible;enable-background:accumulate"
           d="M 550.68928,206.85108 C 547.91082,206.8236 549.02917,208.81183 550.64555,210.85276 C 552.30624,208.84077 553.47221,206.87861 550.68928,206.85108 z M 550.64555,210.85276 C 549.92319,211.72793 549.10444,212.60118 548.48071,213.34561 C 547.5416,213.0917 546.37843,212.81975 545.28811,212.51466 C 545.2185,213.65183 545.09313,214.84304 545.02571,215.81659 C 544.1078,216.16534 542.99677,216.64218 541.92058,217.04114 C 542.39789,217.79071 542.87054,218.56064 543.29821,219.27159 C 542.42428,220.16439 541.70044,221.23194 541.1771,222.39858 C 539.05659,221.64217 537.32164,221.47421 538.07198,223.86367 C 538.63762,225.66494 539.53744,225.44495 540.49922,224.45408 C 540.32424,225.23382 540.21495,226.0465 540.21495,226.88133 C 540.21495,231.24076 542.73914,234.98899 546.3596,236.65592 L 546.3596,244.17819 L 523.72717,228.21522 L 520.62204,232.61051 L 546.3596,250.78205 L 546.3596,267.81651 L 554.75656,267.81651 L 554.75656,253.05623 L 584.955,248.37667 L 584.12405,243.06297 L 554.75656,247.61132 L 554.75656,236.65592 C 558.37703,234.98899 560.9012,231.24076 560.90121,226.88133 C 560.90121,226.18827 560.82618,225.504 560.70441,224.84769 C 561.58263,225.70368 562.39145,225.78709 562.95672,224.10421 C 563.74001,221.77222 562.08681,221.8707 560.00466,222.55165 C 559.48922,221.35374 558.76565,220.25439 557.88355,219.33719 C 558.31129,218.65486 558.76602,217.92787 559.23931,217.21608 C 558.17693,216.79732 557.08347,216.29064 556.17792,215.92592 C 556.12978,214.95122 556.02822,213.76237 555.98112,212.62399 C 554.88463,212.90756 553.71081,213.15398 552.76666,213.38934 C 552.15539,212.62965 551.3528,211.74578 550.64555,210.85276 z M 555.98112,212.62399 C 558.4992,211.97279 560.57272,211.0855 558.34276,209.4314 C 556.1124,207.77699 555.87355,210.0247 555.98112,212.62399 z M 559.23931,217.21608 C 561.66163,218.17088 563.87669,218.66453 563.04418,216.01339 C 562.21172,213.3624 560.68088,215.04809 559.23931,217.21608 z M 541.92058,217.04114 C 540.52221,214.84514 539.04416,213.1389 538.15944,215.77285 C 537.27692,218.40028 539.48725,217.94323 541.92058,217.04114 z M 545.28811,212.51466 C 545.44706,209.91804 545.23281,207.66839 542.9702,209.27833 C 540.70786,210.88807 542.78325,211.81376 545.28811,212.51466 z"
           id="path4120" />
        <path
           id="path4129"
           d="M 550.68928,327.99444 C 547.91082,328.02192 549.02917,326.03369 550.64555,323.99276 C 552.30624,326.00475 553.47221,327.96691 550.68928,327.99444 z M 550.64555,323.99276 C 549.92319,323.1176 549.10444,322.24434 548.48071,321.49992 C 547.5416,321.75383 546.37843,322.02578 545.28811,322.33087 C 545.2185,321.19369 545.09313,320.00249 545.02571,319.02894 C 544.1078,318.68018 542.99677,318.20335 541.92058,317.80438 C 542.39789,317.05481 542.87054,316.28489 543.29821,315.57394 C 542.42428,314.68114 541.70044,313.61358 541.1771,312.44694 C 539.05659,313.20336 537.32164,313.37131 538.07198,310.98185 C 538.63762,309.18058 539.53744,309.40057 540.49922,310.39144 C 540.32424,309.6117 540.21495,308.79902 540.21495,307.96419 C 540.21495,303.60476 542.73914,299.85654 546.3596,298.18961 L 546.3596,290.66733 L 523.72717,306.6303 L 520.62204,302.23502 L 546.3596,284.06347 L 546.3596,267.02901 L 554.75656,267.02901 L 554.75656,281.78929 L 584.955,286.46885 L 584.12405,291.78255 L 554.75656,287.2342 L 554.75656,298.18961 C 558.37703,299.85654 560.9012,303.60476 560.90121,307.96419 C 560.90121,308.65726 560.82618,309.34153 560.70441,309.99783 C 561.58263,309.14185 562.39145,309.05843 562.95672,310.74131 C 563.74001,313.0733 562.08681,312.97482 560.00466,312.29388 C 559.48922,313.49179 558.76565,314.59113 557.88355,315.50834 C 558.31129,316.19067 558.76602,316.91765 559.23931,317.62944 C 558.17693,318.04821 557.08347,318.55489 556.17792,318.9196 C 556.12978,319.8943 556.02822,321.08315 555.98112,322.22153 C 554.88463,321.93797 553.71081,321.69154 552.76666,321.45618 C 552.15539,322.21588 551.3528,323.09975 550.64555,323.99276 z M 555.98112,322.22153 C 558.4992,322.87273 560.57272,323.76002 558.34276,325.41412 C 556.1124,327.06853 555.87355,324.82082 555.98112,322.22153 z M 559.23931,317.62944 C 561.66163,316.67464 563.87669,316.18099 563.04418,318.83213 C 562.21172,321.48312 560.68088,319.79743 559.23931,317.62944 z M 541.92058,317.80438 C 540.52221,320.00039 539.04416,321.70662 538.15944,319.07267 C 537.27692,316.44525 539.48725,316.90229 541.92058,317.80438 z M 545.28811,322.33087 C 545.44706,324.92748 545.23281,327.17713 542.9702,325.56719 C 540.70786,323.95746 542.78325,323.03176 545.28811,322.33087 z"
           style="opacity:1;fill:#000000;fill-opacity:1;fill-rule:nonzero;stroke:#ffffff;stroke-width:0.69974667;stroke-linecap:butt;stroke-linejoin:miter;marker:none;marker-start:none;marker-mid:none;marker-end:none;stroke-miterlimit:4;stroke-dasharray:none;stroke-dashoffset:0;stroke-opacity:1;visibility:visible;display:inline;overflow:visible;enable-background:accumulate" />
      </g>
      <path
         id="path3649"
         style="fill:#000000"
         d="M 585.5961,197.35 L 585.5961,197.38865 C 585.4822,197.50509 578.26089,204.88942 575.81859,207.73064 C 572.45594,211.6426 573.84025,215.4654 577.50236,217.88666 C 580.05702,219.57569 582.99564,217.198 584.54104,215.60427 C 583.75123,217.26078 582.61909,219.25957 581.42502,220.11108 C 579.17676,221.71436 571.89288,222.763 571.89288,222.763 L 585.6329,222.763 L 599.37288,222.763 C 599.37288,222.763 592.08593,221.71435 589.83771,220.11108 C 588.66032,219.27148 587.54283,217.31691 586.7554,215.67432 C 587.92732,216.86748 589.84596,218.44849 591.79749,218.46632 C 592.44783,218.47225 593.10026,218.30282 593.72968,217.88666 C 597.3918,215.4654 598.77303,211.6426 595.41037,207.73064 C 592.96806,204.8894 585.74667,197.50498 585.6329,197.38865 L 585.6329,197.35 C 585.6329,197.35 585.61472,197.36909 585.61449,197.36932 C 585.61427,197.36909 585.5961,197.35 585.5961,197.35 z M 585.95517,208.58048 C 585.95466,211.52805 585.86227,213.90974 585.74893,213.89672 C 585.6356,213.8837 585.544,211.4809 585.54452,208.53331 C 585.54502,205.58574 585.63742,203.20406 585.75075,203.21706 C 585.8599,203.2296 585.94903,205.43609 585.95488,208.27072" />
    </g>
  </g>
</svg>
