<?xml version="1.0" encoding="UTF-8" standalone="no"?>
<!-- Created with Inkscape (http://www.inkscape.org/) -->
<svg
   xmlns:dc="http://purl.org/dc/elements/1.1/"
   xmlns:cc="http://creativecommons.org/ns#"
   xmlns:rdf="http://www.w3.org/1999/02/22-rdf-syntax-ns#"
   xmlns:svg="http://www.w3.org/2000/svg"
   xmlns="http://www.w3.org/2000/svg"
   xmlns:sodipodi="http://sodipodi.sourceforge.net/DTD/sodipodi-0.dtd"
   xmlns:inkscape="http://www.inkscape.org/namespaces/inkscape"
   width="744.09448819"
   height="1052.3622047"
   id="svg2"
   sodipodi:version="0.32"
   inkscape:version="0.46"
   sodipodi:docname="card-4clubs.svg"
   inkscape:output_extension="org.inkscape.output.svg.inkscape">
  <defs
     id="defs4">
    <inkscape:perspective
       sodipodi:type="inkscape:persp3d"
       inkscape:vp_x="-53.589892 : 517.60966 : 1"
       inkscape:vp_y="7.0616468e-14 : 1000 : 0"
       inkscape:vp_z="804.56871 : 517.60966 : 1"
       inkscape:persp3d-origin="375.48941 : 342.21596 : 1"
       id="perspective10" />
    <filter
       inkscape:collect="always"
       id="filter3254">
      <feGaussianBlur
         inkscape:collect="always"
         stdDeviation="7.7965407"
         id="feGaussianBlur3256" />
    </filter>
    <filter
       inkscape:collect="always"
       id="filter4966">
      <feGaussianBlur
         inkscape:collect="always"
         stdDeviation="1.4809308"
         id="feGaussianBlur4968" />
    </filter>
    <filter
       inkscape:collect="always"
       id="filter4970">
      <feGaussianBlur
         inkscape:collect="always"
         stdDeviation="1.4809308"
         id="feGaussianBlur4972" />
    </filter>
    <filter
       inkscape:collect="always"
       id="filter6411">
      <feGaussianBlur
         inkscape:collect="always"
         stdDeviation="1.6819006"
         id="feGaussianBlur6413" />
    </filter>
  </defs>
  <sodipodi:namedview
     id="base"
     pagecolor="#ffffff"
     bordercolor="#666666"
     borderopacity="1.0"
     gridtolerance="10000"
     guidetolerance="10"
     objecttolerance="10"
     inkscape:pageopacity="0.0"
     inkscape:pageshadow="2"
     inkscape:zoom="0.3"
     inkscape:cx="-585.14437"
     inkscape:cy="552.90829"
     inkscape:document-units="px"
     inkscape:current-layer="layer1"
     showgrid="false"
     inkscape:window-width="1152"
     inkscape:window-height="775"
     inkscape:window-x="0"
     inkscape:window-y="0"
     showguides="false" />
  <metadata
     id="metadata7">
    <rdf:RDF>
      <cc:Work
         rdf:about="">
        <dc:format>image/svg+xml</dc:format>
        <dc:type
           rdf:resource="http://purl.org/dc/dcmitype/StillImage" />
      </cc:Work>
    </rdf:RDF>
  </metadata>
  <g
     inkscape:label="Layer 1"
     inkscape:groupmode="layer"
     id="layer1"
     style="display:inline">
    <rect
       rx="60.60915"
       ry="63.63961"
       y="26.047195"
       x="24.243658"
       height="1006.1119"
       width="709.12708"
       id="rect3208"
       style="opacity:0.91666667;fill:#000000;filter:url(#filter3254)" />
    <rect
       style="fill:#ffffff"
       id="rect3206"
       width="709.12708"
       height="1006.1119"
       x="10.101523"
       y="7.8644519"
       ry="63.63961"
       rx="60.60915" />
    <text
       xml:space="preserve"
       style="font-size:225.6577301px;font-style:normal;font-variant:normal;font-weight:normal;font-stretch:normal;fill:#000000;fill-opacity:1;stroke:none;stroke-width:1px;stroke-linecap:butt;stroke-linejoin:miter;stroke-opacity:1;filter:url(#filter4970);font-family:Gemelli;-inkscape-font-specification:Gemelli"
       x="47.257381"
       y="188.40356"
       id="text3475"
       transform="scale(1.0234483,0.9770889)"><tspan
         sodipodi:role="line"
         id="tspan3477"
         x="47.257381"
         y="188.40356">4</tspan></text>
    <text
       transform="scale(1.0234483,0.9770889)"
       id="text3487"
       y="980.57336"
       x="537.01221"
       style="font-size:225.6577301px;font-style:normal;font-variant:normal;font-weight:normal;font-stretch:normal;fill:#000000;fill-opacity:1;stroke:none;stroke-width:1px;stroke-linecap:butt;stroke-linejoin:miter;stroke-opacity:1;filter:url(#filter4966);font-family:Gemelli;-inkscape-font-specification:Gemelli"
       xml:space="preserve"><tspan
         y="980.57336"
         x="537.01221"
         id="tspan3489"
         sodipodi:role="line">4</tspan></text>
    <path
       id="path3329"
       style="opacity:1;fill:#000000;display:inline;filter:url(#filter6411)"
       d="M 288.25533,243.67181 C 283.4104,243.66902 278.51591,243.95439 273.57799,244.59452 C 218.54023,251.72926 178.44439,298.61023 178.49228,352.4538 C 173.82086,352.47333 169.10826,352.75985 164.35132,353.3765 C 104.56864,361.12636 62.360813,415.73894 70.143333,475.27061 C 77.925843,534.80228 132.75303,576.84495 192.53572,569.09508 C 202.95165,567.74482 212.81068,564.90962 221.98791,560.93643 L 178.44351,647.71922 L 396.89685,647.71922 L 353.35247,560.93643 C 370.89403,568.55927 390.64089,571.7329 410.98902,569.09508 C 470.77171,561.34524 512.97954,506.73265 505.19702,447.20097 L 500.71093,427.38712 C 485.67053,381.62722 443.94057,352.21631 396.84809,352.4538 C 396.84397,347.81183 396.58806,343.14397 395.97037,338.41898 L 391.48427,318.60512 C 376.51097,273.04936 335.0895,243.69872 288.25533,243.67181 z M 289.34809,360.31865 C 289.34116,412.13635 288.06211,454.00558 286.49307,453.77675 C 284.92401,453.54793 283.6562,411.30727 283.66314,359.48958 C 283.67006,307.67187 284.94912,265.80265 286.51816,266.03147 C 288.02924,266.25184 289.26305,305.04123 289.34403,354.8733 M 167.07665,463.3773 C 180.48137,513.43114 190.08245,554.20476 188.50765,554.38983 C 186.93284,554.5749 174.77554,514.1017 161.37082,464.04785 C 147.96611,413.994 138.36503,373.22041 139.93983,373.03533 C 141.45647,372.85709 152.68766,410.00543 165.66337,458.11856 M 408.7077,465.46503 C 395.2896,515.51528 383.21758,555.62681 381.76124,554.99967 C 380.30487,554.37256 390.01295,513.24309 403.43104,463.19283 C 416.84914,413.14256 428.92116,373.03104 430.37752,373.65816 C 431.78007,374.26212 422.9324,412.04914 410.11314,460.20417"
       transform="matrix(0.4555094,0,0,0.4555094,117.68895,169.34369)" />
    <path
       id="path10078"
       style="opacity:1;fill:#000000;display:inline;filter:url(#filter6411)"
       d="M 288.25533,243.67181 C 283.4104,243.66902 278.51591,243.95439 273.57799,244.59452 C 218.54023,251.72926 178.44439,298.61023 178.49228,352.4538 C 173.82086,352.47333 169.10826,352.75985 164.35132,353.3765 C 104.56864,361.12636 62.360813,415.73894 70.143333,475.27061 C 77.925843,534.80228 132.75303,576.84495 192.53572,569.09508 C 202.95165,567.74482 212.81068,564.90962 221.98791,560.93643 L 178.44351,647.71922 L 396.89685,647.71922 L 353.35247,560.93643 C 370.89403,568.55927 390.64089,571.7329 410.98902,569.09508 C 470.77171,561.34524 512.97954,506.73265 505.19702,447.20097 L 500.71093,427.38712 C 485.67053,381.62722 443.94057,352.21631 396.84809,352.4538 C 396.84397,347.81183 396.58806,343.14397 395.97037,338.41898 L 391.48427,318.60512 C 376.51097,273.04936 335.0895,243.69872 288.25533,243.67181 z M 289.34809,360.31865 C 289.34116,412.13635 288.06211,454.00558 286.49307,453.77675 C 284.92401,453.54793 283.6562,411.30727 283.66314,359.48958 C 283.67006,307.67187 284.94912,265.80265 286.51816,266.03147 C 288.02924,266.25184 289.26305,305.04123 289.34403,354.8733 M 167.07665,463.3773 C 180.48137,513.43114 190.08245,554.20476 188.50765,554.38983 C 186.93284,554.5749 174.77554,514.1017 161.37082,464.04785 C 147.96611,413.994 138.36503,373.22041 139.93983,373.03533 C 141.45647,372.85709 152.68766,410.00543 165.66337,458.11856 M 408.7077,465.46503 C 395.2896,515.51528 383.21758,555.62681 381.76124,554.99967 C 380.30487,554.37256 390.01295,513.24309 403.43104,463.19283 C 416.84914,413.14256 428.92116,373.03104 430.37752,373.65816 C 431.78007,374.26212 422.9324,412.04914 410.11314,460.20417"
       transform="matrix(0.4555094,0,0,0.4555094,366.70231,169.34369)" />
    <path
       id="path10080"
       style="opacity:1;fill:#000000;display:inline;filter:url(#filter6411)"
       d="M 288.25533,243.67181 C 283.4104,243.66902 278.51591,243.95439 273.57799,244.59452 C 218.54023,251.72926 178.44439,298.61023 178.49228,352.4538 C 173.82086,352.47333 169.10826,352.75985 164.35132,353.3765 C 104.56864,361.12636 62.360813,415.73894 70.143333,475.27061 C 77.925843,534.80228 132.75303,576.84495 192.53572,569.09508 C 202.95165,567.74482 212.81068,564.90962 221.98791,560.93643 L 178.44351,647.71922 L 396.89685,647.71922 L 353.35247,560.93643 C 370.89403,568.55927 390.64089,571.7329 410.98902,569.09508 C 470.77171,561.34524 512.97954,506.73265 505.19702,447.20097 L 500.71093,427.38712 C 485.67053,381.62722 443.94057,352.21631 396.84809,352.4538 C 396.84397,347.81183 396.58806,343.14397 395.97037,338.41898 L 391.48427,318.60512 C 376.51097,273.04936 335.0895,243.69872 288.25533,243.67181 z M 289.34809,360.31865 C 289.34116,412.13635 288.06211,454.00558 286.49307,453.77675 C 284.92401,453.54793 283.6562,411.30727 283.66314,359.48958 C 283.67006,307.67187 284.94912,265.80265 286.51816,266.03147 C 288.02924,266.25184 289.26305,305.04123 289.34403,354.8733 M 167.07665,463.3773 C 180.48137,513.43114 190.08245,554.20476 188.50765,554.38983 C 186.93284,554.5749 174.77554,514.1017 161.37082,464.04785 C 147.96611,413.994 138.36503,373.22041 139.93983,373.03533 C 141.45647,372.85709 152.68766,410.00543 165.66337,458.11856 M 408.7077,465.46503 C 395.2896,515.51528 383.21758,555.62681 381.76124,554.99967 C 380.30487,554.37256 390.01295,513.24309 403.43104,463.19283 C 416.84914,413.14256 428.92116,373.03104 430.37752,373.65816 C 431.78007,374.26212 422.9324,412.04914 410.11314,460.20417"
       transform="matrix(0.4555094,0,0,0.4555094,117.68895,423.39109)" />
    <path
       id="path10082"
       style="opacity:1;fill:#000000;display:inline;filter:url(#filter6411)"
       d="M 288.25533,243.67181 C 283.4104,243.66902 278.51591,243.95439 273.57799,244.59452 C 218.54023,251.72926 178.44439,298.61023 178.49228,352.4538 C 173.82086,352.47333 169.10826,352.75985 164.35132,353.3765 C 104.56864,361.12636 62.360813,415.73894 70.143333,475.27061 C 77.925843,534.80228 132.75303,576.84495 192.53572,569.09508 C 202.95165,567.74482 212.81068,564.90962 221.98791,560.93643 L 178.44351,647.71922 L 396.89685,647.71922 L 353.35247,560.93643 C 370.89403,568.55927 390.64089,571.7329 410.98902,569.09508 C 470.77171,561.34524 512.97954,506.73265 505.19702,447.20097 L 500.71093,427.38712 C 485.67053,381.62722 443.94057,352.21631 396.84809,352.4538 C 396.84397,347.81183 396.58806,343.14397 395.97037,338.41898 L 391.48427,318.60512 C 376.51097,273.04936 335.0895,243.69872 288.25533,243.67181 z M 289.34809,360.31865 C 289.34116,412.13635 288.06211,454.00558 286.49307,453.77675 C 284.92401,453.54793 283.6562,411.30727 283.66314,359.48958 C 283.67006,307.67187 284.94912,265.80265 286.51816,266.03147 C 288.02924,266.25184 289.26305,305.04123 289.34403,354.8733 M 167.07665,463.3773 C 180.48137,513.43114 190.08245,554.20476 188.50765,554.38983 C 186.93284,554.5749 174.77554,514.1017 161.37082,464.04785 C 147.96611,413.994 138.36503,373.22041 139.93983,373.03533 C 141.45647,372.85709 152.68766,410.00543 165.66337,458.11856 M 408.7077,465.46503 C 395.2896,515.51528 383.21758,555.62681 381.76124,554.99967 C 380.30487,554.37256 390.01295,513.24309 403.43104,463.19283 C 416.84914,413.14256 428.92116,373.03104 430.37752,373.65816 C 431.78007,374.26212 422.9324,412.04914 410.11314,460.20417"
       transform="matrix(0.4555094,0,0,0.4555094,366.70231,423.39109)" />
  </g>
</svg>
