<?xml version="1.0" encoding="UTF-8" standalone="no"?>
<!-- Created with Inkscape (http://www.inkscape.org/) -->
<svg
   xmlns:dc="http://purl.org/dc/elements/1.1/"
   xmlns:cc="http://creativecommons.org/ns#"
   xmlns:rdf="http://www.w3.org/1999/02/22-rdf-syntax-ns#"
   xmlns:svg="http://www.w3.org/2000/svg"
   xmlns="http://www.w3.org/2000/svg"
   xmlns:sodipodi="http://sodipodi.sourceforge.net/DTD/sodipodi-0.dtd"
   xmlns:inkscape="http://www.inkscape.org/namespaces/inkscape"
   width="744.09448819"
   height="1052.3622047"
   id="svg2"
   sodipodi:version="0.32"
   inkscape:version="0.46"
   sodipodi:docname="card-7hearts.svg"
   inkscape:output_extension="org.inkscape.output.svg.inkscape">
  <defs
     id="defs4">
    <inkscape:perspective
       sodipodi:type="inkscape:persp3d"
       inkscape:vp_x="-53.589892 : 517.60966 : 1"
       inkscape:vp_y="7.0616468e-14 : 1000 : 0"
       inkscape:vp_z="804.56871 : 517.60966 : 1"
       inkscape:persp3d-origin="375.48941 : 342.21596 : 1"
       id="perspective10" />
    <filter
       inkscape:collect="always"
       id="filter3254">
      <feGaussianBlur
         inkscape:collect="always"
         stdDeviation="7.7965407"
         id="feGaussianBlur3256" />
    </filter>
    <filter
       inkscape:collect="always"
       id="filter4966">
      <feGaussianBlur
         inkscape:collect="always"
         stdDeviation="1.4809308"
         id="feGaussianBlur4968" />
    </filter>
    <filter
       inkscape:collect="always"
       id="filter4970">
      <feGaussianBlur
         inkscape:collect="always"
         stdDeviation="1.4809308"
         id="feGaussianBlur4972" />
    </filter>
    <filter
       inkscape:collect="always"
       id="filter5111">
      <feGaussianBlur
         inkscape:collect="always"
         stdDeviation="1.7289448"
         id="feGaussianBlur5113" />
    </filter>
    <filter
       inkscape:collect="always"
       id="filter5115">
      <feGaussianBlur
         inkscape:collect="always"
         stdDeviation="1.7289448"
         id="feGaussianBlur5117" />
    </filter>
    <filter
       inkscape:collect="always"
       id="filter5119">
      <feGaussianBlur
         inkscape:collect="always"
         stdDeviation="1.7289448"
         id="feGaussianBlur5121" />
    </filter>
    <filter
       inkscape:collect="always"
       id="filter5123">
      <feGaussianBlur
         inkscape:collect="always"
         stdDeviation="1.7289448"
         id="feGaussianBlur5125" />
    </filter>
    <filter
       inkscape:collect="always"
       id="filter5127">
      <feGaussianBlur
         inkscape:collect="always"
         stdDeviation="1.7289448"
         id="feGaussianBlur5129" />
    </filter>
    <filter
       inkscape:collect="always"
       id="filter5131">
      <feGaussianBlur
         inkscape:collect="always"
         stdDeviation="1.7289448"
         id="feGaussianBlur5133" />
    </filter>
    <filter
       inkscape:collect="always"
       id="filter5135">
      <feGaussianBlur
         inkscape:collect="always"
         stdDeviation="1.7289448"
         id="feGaussianBlur5137" />
    </filter>
  </defs>
  <sodipodi:namedview
     id="base"
     pagecolor="#ffffff"
     bordercolor="#666666"
     borderopacity="1.0"
     gridtolerance="10000"
     guidetolerance="10"
     objecttolerance="10"
     inkscape:pageopacity="0.0"
     inkscape:pageshadow="2"
     inkscape:zoom="0.3"
     inkscape:cx="-243.37644"
     inkscape:cy="552.90829"
     inkscape:document-units="px"
     inkscape:current-layer="layer1"
     showgrid="false"
     inkscape:window-width="1152"
     inkscape:window-height="775"
     inkscape:window-x="0"
     inkscape:window-y="0"
     showguides="false" />
  <metadata
     id="metadata7">
    <rdf:RDF>
      <cc:Work
         rdf:about="">
        <dc:format>image/svg+xml</dc:format>
        <dc:type
           rdf:resource="http://purl.org/dc/dcmitype/StillImage" />
      </cc:Work>
    </rdf:RDF>
  </metadata>
  <g
     inkscape:label="Layer 1"
     inkscape:groupmode="layer"
     id="layer1"
     style="display:inline">
    <rect
       rx="60.60915"
       ry="63.63961"
       y="26.047195"
       x="24.243658"
       height="1006.1119"
       width="709.12708"
       id="rect3208"
       style="opacity:0.91666667;fill:#000000;filter:url(#filter3254)" />
    <rect
       style="fill:#ffffff"
       id="rect3206"
       width="709.12708"
       height="1006.1119"
       x="10.101523"
       y="7.8644519"
       ry="63.63961"
       rx="60.60915" />
    <text
       xml:space="preserve"
       style="font-size:225.65773009999998067px;font-style:normal;font-variant:normal;font-weight:normal;font-stretch:normal;fill:#ff0000;fill-opacity:1;stroke:none;stroke-width:1px;stroke-linecap:butt;stroke-linejoin:miter;stroke-opacity:1;filter:url(#filter4970);font-family:Gemelli;-inkscape-font-specification:Gemelli"
       x="47.257381"
       y="188.40356"
       id="text3475"
       transform="scale(1.0234483,0.9770889)"><tspan
         sodipodi:role="line"
         id="tspan3477"
         x="47.257381"
         y="188.40356">7</tspan></text>
    <text
       transform="scale(1.0234483,0.9770889)"
       id="text3487"
       y="980.57336"
       x="537.01221"
       style="font-size:225.65773010000000909px;font-style:normal;font-variant:normal;font-weight:normal;font-stretch:normal;fill:#ff0000;fill-opacity:1;stroke:none;stroke-width:1px;stroke-linecap:butt;stroke-linejoin:miter;stroke-opacity:1;filter:url(#filter4966);font-family:Gemelli;-inkscape-font-specification:Gemelli"
       xml:space="preserve"><tspan
         y="980.57336"
         x="537.01221"
         id="tspan3489"
         sodipodi:role="line">7</tspan></text>
    <path
       id="rect3546"
       style="opacity:1;fill:#ff0000"
       d="M 164.80597,239.08605 C 161.57484,239.04859 158.33343,240.11756 155.20623,242.74309 C 137.01162,258.01886 130.14916,282.13691 146.856,306.81746 C 158.99015,324.74287 194.86831,371.33124 195.43367,372.06513 L 195.43367,372.30893 C 195.43367,372.30893 195.52397,372.18849 195.52509,372.18703 C 195.52621,372.18849 195.61652,372.30893 195.61652,372.30893 L 195.61652,372.06513 C 196.18242,371.33054 232.06014,324.74274 244.19419,306.81746 C 260.90103,282.13691 254.02333,258.01886 235.82872,242.74309 C 218.04522,227.81249 196.49292,263.26919 195.52509,264.88341 C 194.73916,263.57226 179.95585,239.26167 164.80597,239.08605 z M 170.13894,291.92425 C 174.94961,309.88756 178.39525,324.52038 177.83008,324.5868 C 177.26492,324.65322 172.90191,310.12821 168.09123,292.1649 C 163.28056,274.2016 159.83492,259.56878 160.40009,259.50236 C 160.94437,259.43839 164.97503,272.77017 169.63174,290.037 M 224.67395,292.45227 C 219.85847,310.41428 215.52607,324.80948 215.00342,324.58442 C 214.48076,324.35937 217.96479,309.59884 222.78027,291.63681 C 227.59575,273.67479 231.92815,259.27959 232.45081,259.50464 C 232.95416,259.7214 229.77891,273.28239 225.17833,290.56424" />
    <path
       id="path8476"
       style="opacity:1;fill:#ff0000;display:inline"
       d="M 331.17807,239.08605 C 327.94694,239.04859 324.70553,240.11756 321.57833,242.74309 C 303.38372,258.01886 296.52126,282.13691 313.2281,306.81746 C 325.36225,324.74287 361.24041,371.33124 361.80577,372.06513 L 361.80577,372.30893 C 361.80577,372.30893 361.89607,372.18849 361.89719,372.18703 C 361.89831,372.18849 361.98862,372.30893 361.98862,372.30893 L 361.98862,372.06513 C 362.55452,371.33054 398.43224,324.74274 410.56629,306.81746 C 427.27313,282.13691 420.39543,258.01886 402.20082,242.74309 C 384.41732,227.81249 362.86502,263.26919 361.89719,264.88341 C 361.11126,263.57226 346.32795,239.26167 331.17807,239.08605 z M 336.51104,291.92425 C 341.32171,309.88756 344.76735,324.52038 344.20218,324.5868 C 343.63702,324.65322 339.27401,310.12821 334.46333,292.1649 C 329.65266,274.2016 326.20702,259.56878 326.77219,259.50236 C 327.31647,259.43839 331.34713,272.77017 336.00384,290.037 M 391.04605,292.45227 C 386.23057,310.41428 381.89817,324.80948 381.37552,324.58442 C 380.85286,324.35937 384.33689,309.59884 389.15237,291.63681 C 393.96785,273.67479 398.30025,259.27959 398.82291,259.50464 C 399.32626,259.7214 396.15101,273.28239 391.55043,290.56424" />
    <path
       id="path8478"
       style="opacity:1;fill:#ff0000;display:inline"
       d="M 497.55017,239.08605 C 494.31904,239.04859 491.07763,240.11756 487.95043,242.74309 C 469.75582,258.01886 462.89336,282.13691 479.6002,306.81746 C 491.73435,324.74287 527.61251,371.33124 528.17787,372.06513 L 528.17787,372.30893 C 528.17787,372.30893 528.26817,372.18849 528.26929,372.18703 C 528.27041,372.18849 528.36072,372.30893 528.36072,372.30893 L 528.36072,372.06513 C 528.92662,371.33054 564.80434,324.74274 576.93839,306.81746 C 593.64523,282.13691 586.76753,258.01886 568.57292,242.74309 C 550.78942,227.81249 529.23712,263.26919 528.26929,264.88341 C 527.48336,263.57226 512.70005,239.26167 497.55017,239.08605 z M 502.88314,291.92425 C 507.69381,309.88756 511.13945,324.52038 510.57428,324.5868 C 510.00912,324.65322 505.64611,310.12821 500.83543,292.1649 C 496.02476,274.2016 492.57912,259.56878 493.14429,259.50236 C 493.68857,259.43839 497.71923,272.77017 502.37594,290.037 M 557.41815,292.45227 C 552.60267,310.41428 548.27027,324.80948 547.74762,324.58442 C 547.22496,324.35937 550.70899,309.59884 555.52447,291.63681 C 560.33995,273.67479 564.67235,259.27959 565.19501,259.50464 C 565.69836,259.7214 562.52311,273.28239 557.92253,290.56424" />
    <path
       id="path8480"
       style="opacity:1;fill:#ff0000;display:inline"
       d="M 164.80597,442.31287 C 161.57484,442.27541 158.33343,443.34438 155.20623,445.96991 C 137.01162,461.24568 130.14916,485.36373 146.856,510.04428 C 158.99015,527.96969 194.86831,574.55806 195.43367,575.29195 L 195.43367,575.53575 C 195.43367,575.53575 195.52397,575.41531 195.52509,575.41385 C 195.52621,575.41531 195.61652,575.53575 195.61652,575.53575 L 195.61652,575.29195 C 196.18242,574.55736 232.06014,527.96956 244.19419,510.04428 C 260.90103,485.36373 254.02333,461.24568 235.82872,445.96991 C 218.04522,431.03931 196.49292,466.49601 195.52509,468.11023 C 194.73916,466.79908 179.95585,442.48849 164.80597,442.31287 z M 170.13894,495.15107 C 174.94961,513.11438 178.39525,527.7472 177.83008,527.81362 C 177.26492,527.88004 172.90191,513.35503 168.09123,495.39172 C 163.28056,477.42842 159.83492,462.7956 160.40009,462.72918 C 160.94437,462.66521 164.97503,475.99699 169.63174,493.26382 M 224.67395,495.67909 C 219.85847,513.6411 215.52607,528.0363 215.00342,527.81124 C 214.48076,527.58619 217.96479,512.82566 222.78027,494.86363 C 227.59575,476.90161 231.92815,462.50641 232.45081,462.73146 C 232.95416,462.94822 229.77891,476.50921 225.17833,493.79106" />
    <path
       id="path8482"
       style="opacity:1;fill:#ff0000;display:inline"
       d="M 331.17807,442.31287 C 327.94694,442.27541 324.70553,443.34438 321.57833,445.96991 C 303.38372,461.24568 296.52126,485.36373 313.2281,510.04428 C 325.36225,527.96969 361.24041,574.55806 361.80577,575.29195 L 361.80577,575.53575 C 361.80577,575.53575 361.89607,575.41531 361.89719,575.41385 C 361.89831,575.41531 361.98862,575.53575 361.98862,575.53575 L 361.98862,575.29195 C 362.55452,574.55736 398.43224,527.96956 410.56629,510.04428 C 427.27313,485.36373 420.39543,461.24568 402.20082,445.96991 C 384.41732,431.03931 362.86502,466.49601 361.89719,468.11023 C 361.11126,466.79908 346.32795,442.48849 331.17807,442.31287 z M 336.51104,495.15107 C 341.32171,513.11438 344.76735,527.7472 344.20218,527.81362 C 343.63702,527.88004 339.27401,513.35503 334.46333,495.39172 C 329.65266,477.42842 326.20702,462.7956 326.77219,462.72918 C 327.31647,462.66521 331.34713,475.99699 336.00384,493.26382 M 391.04605,495.67909 C 386.23057,513.6411 381.89817,528.0363 381.37552,527.81124 C 380.85286,527.58619 384.33689,512.82566 389.15237,494.86363 C 393.96785,476.90161 398.30025,462.50641 398.82291,462.73146 C 399.32626,462.94822 396.15101,476.50921 391.55043,493.79106" />
    <path
       id="path8484"
       style="opacity:1;fill:#ff0000;display:inline"
       d="M 497.55017,442.31287 C 494.31904,442.27541 491.07763,443.34438 487.95043,445.96991 C 469.75582,461.24568 462.89336,485.36373 479.6002,510.04428 C 491.73435,527.96969 527.61251,574.55806 528.17787,575.29195 L 528.17787,575.53575 C 528.17787,575.53575 528.26817,575.41531 528.26929,575.41385 C 528.27041,575.41531 528.36072,575.53575 528.36072,575.53575 L 528.36072,575.29195 C 528.92662,574.55736 564.80434,527.96956 576.93839,510.04428 C 593.64523,485.36373 586.76753,461.24568 568.57292,445.96991 C 550.78942,431.03931 529.23712,466.49601 528.26929,468.11023 C 527.48336,466.79908 512.70005,442.48849 497.55017,442.31287 z M 502.88314,495.15107 C 507.69381,513.11438 511.13945,527.7472 510.57428,527.81362 C 510.00912,527.88004 505.64611,513.35503 500.83543,495.39172 C 496.02476,477.42842 492.57912,462.7956 493.14429,462.72918 C 493.68857,462.66521 497.71923,475.99699 502.37594,493.26382 M 557.41815,495.67909 C 552.60267,513.6411 548.27027,528.0363 547.74762,527.81124 C 547.22496,527.58619 550.70899,512.82566 555.52447,494.86363 C 560.33995,476.90161 564.67235,462.50641 565.19501,462.73146 C 565.69836,462.94822 562.52311,476.50921 557.92253,493.79106" />
    <path
       id="path8486"
       style="opacity:1;fill:#ff0000;display:inline"
       d="M 164.80597,645.53969 C 161.57484,645.50223 158.33343,646.5712 155.20623,649.19673 C 137.01162,664.4725 130.14916,688.59055 146.856,713.2711 C 158.99015,731.19651 194.86831,777.78488 195.43367,778.51877 L 195.43367,778.76257 C 195.43367,778.76257 195.52397,778.64213 195.52509,778.64067 C 195.52621,778.64213 195.61652,778.76257 195.61652,778.76257 L 195.61652,778.51877 C 196.18242,777.78418 232.06014,731.19638 244.19419,713.2711 C 260.90103,688.59055 254.02333,664.4725 235.82872,649.19673 C 218.04522,634.26613 196.49292,669.72283 195.52509,671.33705 C 194.73916,670.0259 179.95585,645.71531 164.80597,645.53969 z M 170.13894,698.37789 C 174.94961,716.3412 178.39525,730.97402 177.83008,731.04044 C 177.26492,731.10686 172.90191,716.58185 168.09123,698.61854 C 163.28056,680.65524 159.83492,666.02242 160.40009,665.956 C 160.94437,665.89203 164.97503,679.22381 169.63174,696.49064 M 224.67395,698.90591 C 219.85847,716.86792 215.52607,731.26312 215.00342,731.03806 C 214.48076,730.81301 217.96479,716.05248 222.78027,698.09045 C 227.59575,680.12843 231.92815,665.73323 232.45081,665.95828 C 232.95416,666.17504 229.77891,679.73603 225.17833,697.01788" />
  </g>
</svg>
