<?xml version="1.0" encoding="UTF-8" standalone="no"?>
<!-- Created with Inkscape (http://www.inkscape.org/) -->
<svg
   xmlns:dc="http://purl.org/dc/elements/1.1/"
   xmlns:cc="http://creativecommons.org/ns#"
   xmlns:rdf="http://www.w3.org/1999/02/22-rdf-syntax-ns#"
   xmlns:svg="http://www.w3.org/2000/svg"
   xmlns="http://www.w3.org/2000/svg"
   xmlns:sodipodi="http://sodipodi.sourceforge.net/DTD/sodipodi-0.dtd"
   xmlns:inkscape="http://www.inkscape.org/namespaces/inkscape"
   width="640px"
   height="480px"
   id="svg2393"
   sodipodi:version="0.32"
   inkscape:version="0.46"
   sodipodi:docname="cards-hearts.svg"
   inkscape:output_extension="org.inkscape.output.svg.inkscape">
  <defs
     id="defs2395">
    <inkscape:perspective
       sodipodi:type="inkscape:persp3d"
       inkscape:vp_x="0 : 240 : 1"
       inkscape:vp_y="0 : 1000 : 0"
       inkscape:vp_z="640 : 240 : 1"
       inkscape:persp3d-origin="320 : 160 : 1"
       id="perspective2401" />
    <filter
       id="filter4970"
       inkscape:collect="always">
      <feGaussianBlur
         id="feGaussianBlur4972"
         stdDeviation="1.4809308"
         inkscape:collect="always" />
    </filter>
    <filter
       id="filter4966"
       inkscape:collect="always">
      <feGaussianBlur
         id="feGaussianBlur4968"
         stdDeviation="1.4809308"
         inkscape:collect="always" />
    </filter>
    <filter
       id="filter3254"
       inkscape:collect="always">
      <feGaussianBlur
         id="feGaussianBlur3256"
         stdDeviation="7.7965407"
         inkscape:collect="always" />
    </filter>
    <inkscape:perspective
       id="perspective10"
       inkscape:persp3d-origin="375.48941 : 342.21596 : 1"
       inkscape:vp_z="804.56871 : 517.60966 : 1"
       inkscape:vp_y="7.0616468e-14 : 1000 : 0"
       inkscape:vp_x="-53.589892 : 517.60966 : 1"
       sodipodi:type="inkscape:persp3d" />
    <inkscape:perspective
       id="perspective3513"
       inkscape:persp3d-origin="372.04724 : 350.78739 : 1"
       inkscape:vp_z="744.09448 : 526.18109 : 1"
       inkscape:vp_y="0 : 1000 : 0"
       inkscape:vp_x="0 : 526.18109 : 1"
       sodipodi:type="inkscape:persp3d" />
  </defs>
  <sodipodi:namedview
     id="base"
     pagecolor="#ffffff"
     bordercolor="#666666"
     borderopacity="1.0"
     inkscape:pageopacity="0.0"
     inkscape:pageshadow="2"
     inkscape:zoom="0.70710678"
     inkscape:cx="197.21211"
     inkscape:cy="141.31569"
     inkscape:current-layer="layer1"
     inkscape:document-units="px"
     showgrid="false"
     inkscape:window-width="1142"
     inkscape:window-height="808"
     inkscape:window-x="37"
     inkscape:window-y="126" />
  <metadata
     id="metadata2398">
    <rdf:RDF>
      <cc:Work
         rdf:about="">
        <dc:format>image/svg+xml</dc:format>
        <dc:type
           rdf:resource="http://purl.org/dc/dcmitype/StillImage" />
      </cc:Work>
    </rdf:RDF>
  </metadata>
  <g
     id="layer1"
     inkscape:label="Layer 1"
     inkscape:groupmode="layer">
    <rect
       style="opacity:1;fill:#00ff00;fill-opacity:1;fill-rule:nonzero;stroke:#ffffff;stroke-width:0.87088817;stroke-linecap:butt;stroke-linejoin:miter;marker:none;marker-start:none;marker-mid:none;marker-end:none;stroke-miterlimit:4;stroke-dasharray:none;stroke-dashoffset:0;stroke-opacity:1;visibility:visible;display:inline;overflow:visible;enable-background:accumulate"
       id="rect2966"
       width="600.27313"
       height="433.67178"
       x="19.018705"
       y="14.758217"
       rx="0"
       ry="54.115108" />
    <g
       style="display:inline"
       id="g2508"
       inkscape:label="Layer 1"
       transform="matrix(0.1390351,0,0,0.1390351,43.183666,24.97539)">
      <rect
         style="opacity:0.91666667;fill:#000000;filter:url(#filter3254)"
         id="rect3208"
         width="709.12708"
         height="1006.1119"
         x="24.243658"
         y="26.047195"
         ry="63.63961"
         rx="60.60915" />
      <rect
         rx="60.60915"
         ry="63.63961"
         y="7.8644519"
         x="10.101523"
         height="1006.1119"
         width="709.12708"
         id="rect3206"
         style="fill:#ffffff" />
      <text
         transform="scale(1.0234483,0.9770889)"
         id="text3475"
         y="188.40356"
         x="47.257381"
         style="font-size:225.6577301px;font-style:normal;font-variant:normal;font-weight:normal;font-stretch:normal;fill:#ff0000;fill-opacity:1;stroke:none;stroke-width:1px;stroke-linecap:butt;stroke-linejoin:miter;stroke-opacity:1;filter:url(#filter4970);font-family:Gemelli;-inkscape-font-specification:Gemelli"
         xml:space="preserve"><tspan
           y="188.40356"
           x="47.257381"
           id="tspan3477"
           sodipodi:role="line">A</tspan></text>
      <text
         xml:space="preserve"
         style="font-size:225.6577301px;font-style:normal;font-variant:normal;font-weight:normal;font-stretch:normal;fill:#ff0000;fill-opacity:1;stroke:none;stroke-width:1px;stroke-linecap:butt;stroke-linejoin:miter;stroke-opacity:1;filter:url(#filter4966);font-family:Gemelli;-inkscape-font-specification:Gemelli"
         x="537.01221"
         y="980.57336"
         id="text3487"
         transform="scale(1.0234483,0.9770889)"><tspan
           sodipodi:role="line"
           id="tspan3489"
           x="537.01221"
           y="980.57336">A</tspan></text>
    </g>
    <path
       id="rect3546"
       style="fill:#ff0000"
       d="M 73.010201,65.10589 C 71.179103,65.08875 69.342174,65.57812 67.569971,66.78006 C 57.25893,73.77315 53.369906,84.81414 62.837818,96.11266 C 69.714339,104.31873 90.046773,125.64644 90.367172,125.98241 L 90.367172,126.09401 C 90.367172,126.09401 90.418362,126.03888 90.418987,126.0382 C 90.419613,126.03888 90.470803,126.09401 90.470803,126.09401 L 90.470803,125.98241 C 90.791502,125.64612 111.12369,104.31867 118.00016,96.11266 C 127.46807,84.81414 123.57042,73.77315 113.25937,66.78006 C 103.18134,59.94497 90.967463,76.17669 90.418987,76.91566 C 89.973591,76.31544 81.595777,65.18629 73.010201,65.10589 z M 76.032452,89.29471 C 78.758697,97.51812 80.711364,104.21689 80.391091,104.24729 C 80.070791,104.2777 77.598244,97.62829 74.872,89.40486 C 72.145754,81.18144 70.193086,74.48268 70.51336,74.45228 C 70.8218,74.42299 73.106026,80.52615 75.745002,88.43073 M 106.93788,89.53641 C 104.20891,97.75926 101.7537,104.34923 101.45752,104.2462 C 101.16132,104.14318 103.13575,97.38594 105.86472,89.16312 C 108.59369,80.94027 111.04891,74.3503 111.34511,74.45333 C 111.63036,74.55255 109.83091,80.76063 107.22373,88.67209" />
    <g
       id="g2954"
       transform="matrix(0.6997466,0,0,0.6997466,39.225787,20.97037)">
      <rect
         transform="matrix(0.1986935,0,0,0.1986935,168.65616,6.72353)"
         rx="60.60915"
         ry="63.63961"
         y="26.047195"
         x="24.243658"
         height="1006.1119"
         width="709.12708"
         id="rect2936"
         style="opacity:0.91666667;fill:#000000;filter:url(#filter3254)" />
      <rect
         style="fill:#ffffff"
         id="rect2938"
         width="140.89894"
         height="199.9079"
         x="170.66327"
         y="8.2861452"
         ry="12.644777"
         rx="12.042645" />
      <text
         xml:space="preserve"
         style="font-size:225.6577301px;font-style:normal;font-variant:normal;font-weight:normal;font-stretch:normal;fill:#ff0000;fill-opacity:1;stroke:none;stroke-width:1px;stroke-linecap:butt;stroke-linejoin:miter;stroke-opacity:1;filter:url(#filter4970);font-family:Gemelli;-inkscape-font-specification:Gemelli"
         x="47.257381"
         y="188.40356"
         id="text2940"
         transform="matrix(0.2033525,0,0,0.1941412,168.65616,6.72353)"><tspan
           sodipodi:role="line"
           id="tspan2942"
           x="47.257381"
           y="188.40356">2</tspan></text>
      <text
         transform="matrix(0.2033525,0,0,0.1941412,168.65616,6.72353)"
         id="text2944"
         y="980.57336"
         x="537.01221"
         style="font-size:225.6577301px;font-style:normal;font-variant:normal;font-weight:normal;font-stretch:normal;fill:#ff0000;fill-opacity:1;stroke:none;stroke-width:1px;stroke-linecap:butt;stroke-linejoin:miter;stroke-opacity:1;filter:url(#filter4966);font-family:Gemelli;-inkscape-font-specification:Gemelli"
         xml:space="preserve"><tspan
           y="980.57336"
           x="537.01221"
           id="tspan2946"
           sodipodi:role="line">2</tspan></text>
    </g>
    <g
       id="g2988"
       transform="matrix(0.6997466,0,0,0.6997466,39.225787,20.97037)">
      <rect
         transform="matrix(0.1986935,0,0,0.1986935,332.65616,7.72353)"
         rx="60.60915"
         ry="63.63961"
         y="26.047195"
         x="24.243658"
         height="1006.1119"
         width="709.12708"
         id="rect2970"
         style="opacity:0.91666667;fill:#000000;filter:url(#filter3254)" />
      <rect
         style="fill:#ffffff"
         id="rect2972"
         width="140.89894"
         height="199.9079"
         x="334.66327"
         y="9.2861452"
         ry="12.644777"
         rx="12.042645" />
      <text
         xml:space="preserve"
         style="font-size:225.6577301px;font-style:normal;font-variant:normal;font-weight:normal;font-stretch:normal;fill:#ff0000;fill-opacity:1;stroke:none;stroke-width:1px;stroke-linecap:butt;stroke-linejoin:miter;stroke-opacity:1;filter:url(#filter4970);font-family:Gemelli;-inkscape-font-specification:Gemelli"
         x="47.257381"
         y="188.40356"
         id="text2974"
         transform="matrix(0.2033525,0,0,0.1941412,332.65616,7.72353)"><tspan
           sodipodi:role="line"
           id="tspan2976"
           x="47.257381"
           y="188.40356">3</tspan></text>
      <text
         transform="matrix(0.2033525,0,0,0.1941412,332.65616,7.72353)"
         id="text2978"
         y="980.57336"
         x="537.01221"
         style="font-size:225.6577301px;font-style:normal;font-variant:normal;font-weight:normal;font-stretch:normal;fill:#ff0000;fill-opacity:1;stroke:none;stroke-width:1px;stroke-linecap:butt;stroke-linejoin:miter;stroke-opacity:1;filter:url(#filter4966);font-family:Gemelli;-inkscape-font-specification:Gemelli"
         xml:space="preserve"><tspan
           y="980.57336"
           x="537.01221"
           id="tspan2980"
           sodipodi:role="line">3</tspan></text>
    </g>
    <g
       id="g3022"
       transform="matrix(0.6997466,0,0,0.6997466,39.225787,20.97037)">
      <rect
         transform="matrix(0.1986935,0,0,0.1986935,493.65616,7.72353)"
         rx="60.60915"
         ry="63.63961"
         y="26.047195"
         x="24.243658"
         height="1006.1119"
         width="709.12708"
         id="rect3004"
         style="opacity:0.91666667;fill:#000000;filter:url(#filter3254)" />
      <rect
         style="fill:#ffffff"
         id="rect3006"
         width="140.89894"
         height="199.9079"
         x="495.66327"
         y="9.2861452"
         ry="12.644777"
         rx="12.042645" />
      <text
         xml:space="preserve"
         style="font-size:225.6577301px;font-style:normal;font-variant:normal;font-weight:normal;font-stretch:normal;fill:#ff0000;fill-opacity:1;stroke:none;stroke-width:1px;stroke-linecap:butt;stroke-linejoin:miter;stroke-opacity:1;filter:url(#filter4970);font-family:Gemelli;-inkscape-font-specification:Gemelli"
         x="47.257381"
         y="188.40356"
         id="text3008"
         transform="matrix(0.2033525,0,0,0.1941412,493.65616,7.72353)"><tspan
           sodipodi:role="line"
           id="tspan3010"
           x="47.257381"
           y="188.40356">4</tspan></text>
      <text
         transform="matrix(0.2033525,0,0,0.1941412,493.65616,7.72353)"
         id="text3012"
         y="980.57336"
         x="537.01221"
         style="font-size:225.6577301px;font-style:normal;font-variant:normal;font-weight:normal;font-stretch:normal;fill:#ff0000;fill-opacity:1;stroke:none;stroke-width:1px;stroke-linecap:butt;stroke-linejoin:miter;stroke-opacity:1;filter:url(#filter4966);font-family:Gemelli;-inkscape-font-specification:Gemelli"
         xml:space="preserve"><tspan
           y="980.57336"
           x="537.01221"
           id="tspan3014"
           sodipodi:role="line">4</tspan></text>
    </g>
    <g
       transform="matrix(0.1390351,0,0,0.1390351,497.31923,27.77438)"
       inkscape:label="Layer 1"
       id="g3052"
       style="display:inline">
      <rect
         rx="60.60915"
         ry="63.63961"
         y="26.047195"
         x="24.243658"
         height="1006.1119"
         width="709.12708"
         id="rect3054"
         style="opacity:0.91666667;fill:#000000;filter:url(#filter3254)" />
      <rect
         style="fill:#ffffff"
         id="rect3056"
         width="709.12708"
         height="1006.1119"
         x="10.101523"
         y="7.8644519"
         ry="63.63961"
         rx="60.60915" />
      <text
         xml:space="preserve"
         style="font-size:225.6577301px;font-style:normal;font-variant:normal;font-weight:normal;font-stretch:normal;fill:#ff0000;fill-opacity:1;stroke:none;stroke-width:1px;stroke-linecap:butt;stroke-linejoin:miter;stroke-opacity:1;filter:url(#filter4970);font-family:Gemelli;-inkscape-font-specification:Gemelli"
         x="47.257381"
         y="188.40356"
         id="text3058"
         transform="scale(1.0234483,0.9770889)"><tspan
           sodipodi:role="line"
           id="tspan3060"
           x="47.257381"
           y="188.40356">5</tspan></text>
      <text
         transform="scale(1.0234483,0.9770889)"
         id="text3062"
         y="980.57336"
         x="537.01221"
         style="font-size:225.6577301px;font-style:normal;font-variant:normal;font-weight:normal;font-stretch:normal;fill:#ff0000;fill-opacity:1;stroke:none;stroke-width:1px;stroke-linecap:butt;stroke-linejoin:miter;stroke-opacity:1;filter:url(#filter4966);font-family:Gemelli;-inkscape-font-specification:Gemelli"
         xml:space="preserve"><tspan
           y="980.57336"
           x="537.01221"
           id="tspan3064"
           sodipodi:role="line">5</tspan></text>
    </g>
    <g
       transform="matrix(0.1390351,0,0,0.1390351,40.384679,191.51509)"
       inkscape:label="Layer 1"
       id="g3076"
       style="display:inline">
      <rect
         rx="60.60915"
         ry="63.63961"
         y="26.047195"
         x="24.243658"
         height="1006.1119"
         width="709.12708"
         id="rect3078"
         style="opacity:0.91666667;fill:#000000;filter:url(#filter3254)" />
      <rect
         style="fill:#ffffff"
         id="rect3080"
         width="709.12708"
         height="1006.1119"
         x="10.101523"
         y="7.8644519"
         ry="63.63961"
         rx="60.60915" />
      <text
         xml:space="preserve"
         style="font-size:225.6577301px;font-style:normal;font-variant:normal;font-weight:normal;font-stretch:normal;fill:#ff0000;fill-opacity:1;stroke:none;stroke-width:1px;stroke-linecap:butt;stroke-linejoin:miter;stroke-opacity:1;filter:url(#filter4970);font-family:Gemelli;-inkscape-font-specification:Gemelli"
         x="47.257381"
         y="188.40356"
         id="text3082"
         transform="scale(1.0234483,0.9770889)"><tspan
           sodipodi:role="line"
           id="tspan3084"
           x="47.257381"
           y="188.40356">6</tspan></text>
      <text
         transform="scale(1.0234483,0.9770889)"
         id="text3086"
         y="980.57336"
         x="537.01221"
         style="font-size:225.6577301px;font-style:normal;font-variant:normal;font-weight:normal;font-stretch:normal;fill:#ff0000;fill-opacity:1;stroke:none;stroke-width:1px;stroke-linecap:butt;stroke-linejoin:miter;stroke-opacity:1;filter:url(#filter4966);font-family:Gemelli;-inkscape-font-specification:Gemelli"
         xml:space="preserve"><tspan
           y="980.57336"
           x="537.01221"
           id="tspan3088"
           sodipodi:role="line">6</tspan></text>
    </g>
    <g
       transform="matrix(0.1390351,0,0,0.1390351,154.44338,190.1156)"
       inkscape:label="Layer 1"
       id="g3102"
       style="display:inline">
      <rect
         rx="60.60915"
         ry="63.63961"
         y="26.047195"
         x="24.243658"
         height="1006.1119"
         width="709.12708"
         id="rect3104"
         style="opacity:0.91666667;fill:#000000;filter:url(#filter3254)" />
      <rect
         style="fill:#ffffff"
         id="rect3106"
         width="709.12708"
         height="1006.1119"
         x="10.101523"
         y="7.8644519"
         ry="63.63961"
         rx="60.60915" />
      <text
         xml:space="preserve"
         style="font-size:225.6577301px;font-style:normal;font-variant:normal;font-weight:normal;font-stretch:normal;fill:#ff0000;fill-opacity:1;stroke:none;stroke-width:1px;stroke-linecap:butt;stroke-linejoin:miter;stroke-opacity:1;filter:url(#filter4970);font-family:Gemelli;-inkscape-font-specification:Gemelli"
         x="47.257381"
         y="188.40356"
         id="text3108"
         transform="scale(1.0234483,0.9770889)"><tspan
           sodipodi:role="line"
           id="tspan3110"
           x="47.257381"
           y="188.40356">7</tspan></text>
      <text
         transform="scale(1.0234483,0.9770889)"
         id="text3112"
         y="980.57336"
         x="537.01221"
         style="font-size:225.6577301px;font-style:normal;font-variant:normal;font-weight:normal;font-stretch:normal;fill:#ff0000;fill-opacity:1;stroke:none;stroke-width:1px;stroke-linecap:butt;stroke-linejoin:miter;stroke-opacity:1;filter:url(#filter4966);font-family:Gemelli;-inkscape-font-specification:Gemelli"
         xml:space="preserve"><tspan
           y="980.57336"
           x="537.01221"
           id="tspan3114"
           sodipodi:role="line">7</tspan></text>
    </g>
    <g
       transform="matrix(0.1390351,0,0,0.1390351,273.40031,188.01636)"
       inkscape:label="Layer 1"
       id="g3186"
       style="display:inline">
      <rect
         rx="60.60915"
         ry="63.63961"
         y="26.047195"
         x="24.243658"
         height="1006.1119"
         width="709.12708"
         id="rect3188"
         style="opacity:0.91666667;fill:#000000;filter:url(#filter3254)" />
      <rect
         style="fill:#ffffff"
         id="rect3190"
         width="709.12708"
         height="1006.1119"
         x="10.101523"
         y="7.8644519"
         ry="63.63961"
         rx="60.60915" />
      <text
         xml:space="preserve"
         style="font-size:225.6577301px;font-style:normal;font-variant:normal;font-weight:normal;font-stretch:normal;fill:#ff0000;fill-opacity:1;stroke:none;stroke-width:1px;stroke-linecap:butt;stroke-linejoin:miter;stroke-opacity:1;filter:url(#filter4970);font-family:Gemelli;-inkscape-font-specification:Gemelli"
         x="47.257381"
         y="188.40356"
         id="text3192"
         transform="scale(1.0234483,0.9770889)"><tspan
           sodipodi:role="line"
           id="tspan3194"
           x="47.257381"
           y="188.40356">J</tspan></text>
      <text
         transform="scale(1.0234483,0.9770889)"
         id="text3196"
         y="980.57336"
         x="537.01221"
         style="font-size:225.6577301px;font-style:normal;font-variant:normal;font-weight:normal;font-stretch:normal;fill:#ff0000;fill-opacity:1;stroke:none;stroke-width:1px;stroke-linecap:butt;stroke-linejoin:miter;stroke-opacity:1;filter:url(#filter4966);font-family:Gemelli;-inkscape-font-specification:Gemelli"
         xml:space="preserve"><tspan
           y="980.57336"
           x="537.01221"
           id="tspan3198"
           sodipodi:role="line">J</tspan></text>
    </g>
    <path
       style="opacity:1;fill:#ff0000;fill-opacity:1;fill-rule:nonzero;stroke:#ffffff;stroke-width:0.69974667;stroke-linecap:butt;stroke-linejoin:miter;marker:none;marker-start:none;marker-mid:none;marker-end:none;stroke-miterlimit:4;stroke-dasharray:none;stroke-dashoffset:0;stroke-opacity:1;visibility:visible;display:inline;overflow:visible;enable-background:accumulate"
       d="M 321.92343,210.05503 C 316.21024,210.05503 311.5803,214.84171 311.5803,220.74804 C 311.5803,225.10747 314.10449,228.85569 317.72495,230.52262 L 317.72495,238.0449 L 295.09252,222.08193 L 291.98739,226.47721 L 317.72495,244.64876 L 317.72495,261.68322 L 326.12191,261.68322 L 326.12191,246.92294 L 356.32035,242.24338 L 355.4894,236.92968 L 326.12191,241.47803 L 326.12191,230.52262 C 329.74238,228.85569 332.26655,225.10747 332.26656,220.74804 C 332.26656,214.84171 327.63663,210.05504 321.92343,210.05503 z"
       id="rect4024" />
    <path
       id="path4046"
       d="M 321.83596,310.31561 C 327.54915,310.31561 332.17909,305.52893 332.17909,299.6226 C 332.17909,295.26318 329.6549,291.51495 326.03444,289.84802 L 326.03444,282.32574 L 348.66687,298.28871 L 351.772,293.89343 L 326.03444,275.72188 L 326.03444,258.68743 L 317.63748,258.68743 L 317.63748,273.44771 L 287.43904,278.12726 L 288.26999,283.44096 L 317.63748,278.89261 L 317.63748,289.84802 C 314.01701,291.51495 311.49284,295.26318 311.49283,299.6226 C 311.49283,305.52893 316.12276,310.3156 321.83596,310.31561 z"
       style="opacity:1;fill:#ff0000;fill-opacity:1;fill-rule:nonzero;stroke:#ffffff;stroke-width:0.69974667;stroke-linecap:butt;stroke-linejoin:miter;marker:none;marker-start:none;marker-mid:none;marker-end:none;stroke-miterlimit:4;stroke-dasharray:none;stroke-dashoffset:0;stroke-opacity:1;visibility:visible;display:inline;overflow:visible;enable-background:accumulate" />
    <g
       id="g4073"
       transform="matrix(0.6997466,0,0,0.6997466,39.225787,20.97037)">
      <rect
         transform="matrix(0.1986935,0,0,0.1986935,497.65616,239.72353)"
         style="opacity:0.91666667;fill:#000000;filter:url(#filter3254)"
         id="rect4055"
         width="709.12708"
         height="1006.1119"
         x="24.243658"
         y="26.047195"
         ry="63.63961"
         rx="60.60915" />
      <rect
         rx="12.042645"
         ry="12.644777"
         y="241.28615"
         x="499.66327"
         height="199.9079"
         width="140.89894"
         id="rect4057"
         style="fill:#ffffff" />
      <text
         transform="matrix(0.2033525,0,0,0.1941412,497.65616,239.72353)"
         id="text4059"
         y="188.40356"
         x="47.257381"
         style="font-size:225.6577301px;font-style:normal;font-variant:normal;font-weight:normal;font-stretch:normal;fill:#ff0000;fill-opacity:1;stroke:none;stroke-width:1px;stroke-linecap:butt;stroke-linejoin:miter;stroke-opacity:1;filter:url(#filter4970);font-family:Gemelli;-inkscape-font-specification:Gemelli"
         xml:space="preserve"><tspan
           y="188.40356"
           x="47.257381"
           id="tspan4061"
           sodipodi:role="line">Q</tspan></text>
      <text
         xml:space="preserve"
         style="font-size:225.6577301px;font-style:normal;font-variant:normal;font-weight:normal;font-stretch:normal;fill:#ff0000;fill-opacity:1;stroke:none;stroke-width:1px;stroke-linecap:butt;stroke-linejoin:miter;stroke-opacity:1;filter:url(#filter4966);font-family:Gemelli;-inkscape-font-specification:Gemelli"
         x="537.01221"
         y="980.57336"
         id="text4063"
         transform="matrix(0.2033525,0,0,0.1941412,484.65616,239.72353)"><tspan
           sodipodi:role="line"
           id="tspan4065"
           x="537.01221"
           y="980.57336">Q</tspan></text>
    </g>
    <path
       style="opacity:1;fill:#ff0000;fill-opacity:1;fill-rule:nonzero;stroke:#ffffff;stroke-width:0.69974667;stroke-linecap:butt;stroke-linejoin:miter;marker:none;marker-start:none;marker-mid:none;marker-end:none;stroke-miterlimit:4;stroke-dasharray:none;stroke-dashoffset:0;stroke-opacity:1;visibility:visible;display:inline;overflow:visible;enable-background:accumulate"
       d="M 436.94428,213.55377 C 431.23108,213.55377 426.60115,218.34045 426.60115,224.24677 C 426.60115,224.45301 426.61187,224.6557 426.62302,224.85905 C 426.10034,226.54044 426.18568,228.67797 426.18568,228.79512 L 424.43631,237.71689 C 424.43631,237.91072 424.69662,241.04069 427.41023,241.04069 C 430.12385,241.04069 431.0839,239.13528 431.0839,238.94145 L 431.0839,233.0592 C 431.60612,233.43153 432.16018,233.75172 432.7458,234.02136 L 432.7458,244.97676 L 403.37831,240.42841 L 402.54736,245.74211 L 432.7458,250.42167 L 432.7458,265.18195 L 441.14276,265.18195 L 441.14276,248.14749 L 466.88032,229.97595 L 463.77519,225.58066 L 449.80213,235.44272 L 448.40263,228.27031 C 448.40263,228.11283 448.58998,224.27727 447.19994,222.84728 C 446.53712,217.60234 442.19871,213.55377 436.94428,213.55377 z M 443.50441,232.51253 L 443.50441,238.41664 C 443.50441,238.505 443.72992,238.94356 444.20415,239.40066 L 441.14276,241.54363 L 441.14276,234.02136 C 441.99714,233.62799 442.7909,233.11839 443.50441,232.51253 z"
       id="path4081" />
    <path
       id="path4090"
       d="M 437.03175,313.46447 C 442.74495,313.46446 447.37488,308.67779 447.37488,302.77146 C 447.37488,302.56523 447.36416,302.36253 447.35301,302.15919 C 447.8757,300.4778 447.79036,298.34026 447.79036,298.22311 L 449.53972,289.30134 C 449.53972,289.10751 449.27942,285.97754 446.5658,285.97754 C 443.85218,285.97754 442.89213,287.88295 442.89213,288.07678 L 442.89213,293.95903 C 442.36992,293.58671 441.81586,293.26651 441.23023,292.99688 L 441.23023,282.04147 L 470.59772,286.58982 L 471.42867,281.27612 L 441.23023,276.59657 L 441.23023,261.83629 L 432.83327,261.83629 L 432.83327,278.87074 L 407.09572,297.04229 L 410.20084,301.43757 L 424.17391,291.57552 L 425.5734,298.74792 C 425.57341,298.90541 425.38605,302.74096 426.77609,304.17096 C 427.43891,309.41589 431.77733,313.46447 437.03175,313.46447 z M 430.47163,294.50571 L 430.47163,288.60159 C 430.47163,288.51323 430.24611,288.07468 429.77188,287.61758 L 432.83327,285.4746 L 432.83327,292.99688 C 431.97889,293.39025 431.18514,293.89985 430.47163,294.50571 z"
       style="opacity:1;fill:#ff0000;fill-opacity:1;fill-rule:nonzero;stroke:#ffffff;stroke-width:0.69974667;stroke-linecap:butt;stroke-linejoin:miter;marker:none;marker-start:none;marker-mid:none;marker-end:none;stroke-miterlimit:4;stroke-dasharray:none;stroke-dashoffset:0;stroke-opacity:1;visibility:visible;display:inline;overflow:visible;enable-background:accumulate" />
    <g
       transform="matrix(0.1390351,0,0,0.1390351,500.11822,188.71611)"
       inkscape:label="Layer 1"
       id="g4106"
       style="display:inline">
      <rect
         rx="60.60915"
         ry="63.63961"
         y="26.047195"
         x="24.243658"
         height="1006.1119"
         width="709.12708"
         id="rect4108"
         style="opacity:0.91666667;fill:#000000;filter:url(#filter3254)" />
      <rect
         style="fill:#ffffff"
         id="rect4110"
         width="709.12708"
         height="1006.1119"
         x="10.101523"
         y="7.8644519"
         ry="63.63961"
         rx="60.60915" />
      <text
         xml:space="preserve"
         style="font-size:225.6577301px;font-style:normal;font-variant:normal;font-weight:normal;font-stretch:normal;fill:#ff0000;fill-opacity:1;stroke:none;stroke-width:1px;stroke-linecap:butt;stroke-linejoin:miter;stroke-opacity:1;filter:url(#filter4970);font-family:Gemelli;-inkscape-font-specification:Gemelli"
         x="47.257381"
         y="188.40356"
         id="text4112"
         transform="scale(1.0234483,0.9770889)"><tspan
           sodipodi:role="line"
           id="tspan4114"
           x="47.257381"
           y="188.40356">K</tspan></text>
      <text
         transform="scale(1.0234483,0.9770889)"
         id="text4116"
         y="980.57336"
         x="537.01221"
         style="font-size:225.6577301px;font-style:normal;font-variant:normal;font-weight:normal;font-stretch:normal;fill:#ff0000;fill-opacity:1;stroke:none;stroke-width:1px;stroke-linecap:butt;stroke-linejoin:miter;stroke-opacity:1;filter:url(#filter4966);font-family:Gemelli;-inkscape-font-specification:Gemelli"
         xml:space="preserve"><tspan
           y="980.57336"
           x="537.01221"
           id="tspan4118"
           sodipodi:role="line">K</tspan></text>
    </g>
    <path
       style="opacity:1;fill:#ff0000;fill-opacity:1;fill-rule:nonzero;stroke:#ffffff;stroke-width:0.69974667;stroke-linecap:butt;stroke-linejoin:miter;marker:none;marker-start:none;marker-mid:none;marker-end:none;stroke-miterlimit:4;stroke-dasharray:none;stroke-dashoffset:0;stroke-opacity:1;visibility:visible;display:inline;overflow:visible;enable-background:accumulate"
       d="M 548.77254,204.21652 C 545.99408,204.18904 547.11243,206.17727 548.72881,208.2182 C 550.3895,206.20621 551.55547,204.24405 548.77254,204.21652 z M 548.72881,208.2182 C 548.00645,209.09337 547.1877,209.96662 546.56397,210.71105 C 545.62486,210.45714 544.46169,210.18519 543.37137,209.8801 C 543.30176,211.01727 543.17639,212.20848 543.10897,213.18203 C 542.19106,213.53078 541.08003,214.00762 540.00384,214.40658 C 540.48115,215.15615 540.9538,215.92608 541.38147,216.63703 C 540.50754,217.52983 539.7837,218.59738 539.26036,219.76402 C 537.13985,219.00761 535.4049,218.83965 536.15524,221.22911 C 536.72088,223.03038 537.6207,222.81039 538.58248,221.81952 C 538.4075,222.59926 538.29821,223.41194 538.29821,224.24677 C 538.29821,228.6062 540.8224,232.35443 544.44286,234.02136 L 544.44286,241.54363 L 521.81043,225.58066 L 518.7053,229.97595 L 544.44286,248.14749 L 544.44286,265.18195 L 552.83982,265.18195 L 552.83982,250.42167 L 583.03826,245.74211 L 582.20731,240.42841 L 552.83982,244.97676 L 552.83982,234.02136 C 556.46029,232.35443 558.98446,228.6062 558.98447,224.24677 C 558.98447,223.55371 558.90944,222.86944 558.78767,222.21313 C 559.66589,223.06912 560.47471,223.15253 561.03998,221.46965 C 561.82327,219.13766 560.17007,219.23614 558.08792,219.91709 C 557.57248,218.71918 556.84891,217.61983 555.96681,216.70263 C 556.39455,216.0203 556.84928,215.29331 557.32257,214.58152 C 556.26019,214.16276 555.16673,213.65608 554.26118,213.29136 C 554.21304,212.31666 554.11148,211.12781 554.06438,209.98943 C 552.96789,210.273 551.79407,210.51942 550.84992,210.75478 C 550.23865,209.99509 549.43606,209.11122 548.72881,208.2182 z M 554.06438,209.98943 C 556.58246,209.33823 558.65598,208.45094 556.42602,206.79684 C 554.19566,205.14243 553.95681,207.39014 554.06438,209.98943 z M 557.32257,214.58152 C 559.74489,215.53632 561.95995,216.02997 561.12744,213.37883 C 560.29498,210.72784 558.76414,212.41353 557.32257,214.58152 z M 540.00384,214.40658 C 538.60547,212.21058 537.12742,210.50434 536.2427,213.13829 C 535.36018,215.76572 537.57051,215.30867 540.00384,214.40658 z M 543.37137,209.8801 C 543.53032,207.28348 543.31607,205.03383 541.05346,206.64377 C 538.79112,208.25351 540.86651,209.1792 543.37137,209.8801 z"
       id="path4120" />
    <path
       id="path4129"
       d="M 548.77254,325.35988 C 545.99408,325.38736 547.11243,323.39913 548.72881,321.3582 C 550.3895,323.37019 551.55547,325.33235 548.77254,325.35988 z M 548.72881,321.3582 C 548.00645,320.48304 547.1877,319.60978 546.56397,318.86536 C 545.62486,319.11927 544.46169,319.39122 543.37137,319.69631 C 543.30176,318.55913 543.17639,317.36793 543.10897,316.39438 C 542.19106,316.04562 541.08003,315.56879 540.00384,315.16982 C 540.48115,314.42025 540.9538,313.65033 541.38147,312.93938 C 540.50754,312.04658 539.7837,310.97902 539.26036,309.81238 C 537.13985,310.5688 535.4049,310.73675 536.15524,308.34729 C 536.72088,306.54602 537.6207,306.76601 538.58248,307.75688 C 538.4075,306.97714 538.29821,306.16446 538.29821,305.32963 C 538.29821,300.9702 540.8224,297.22198 544.44286,295.55505 L 544.44286,288.03277 L 521.81043,303.99574 L 518.7053,299.60046 L 544.44286,281.42891 L 544.44286,264.39445 L 552.83982,264.39445 L 552.83982,279.15473 L 583.03826,283.83429 L 582.20731,289.14799 L 552.83982,284.59964 L 552.83982,295.55505 C 556.46029,297.22198 558.98446,300.9702 558.98447,305.32963 C 558.98447,306.0227 558.90944,306.70697 558.78767,307.36327 C 559.66589,306.50729 560.47471,306.42387 561.03998,308.10675 C 561.82327,310.43874 560.17007,310.34026 558.08792,309.65932 C 557.57248,310.85723 556.84891,311.95657 555.96681,312.87378 C 556.39455,313.55611 556.84928,314.28309 557.32257,314.99488 C 556.26019,315.41365 555.16673,315.92033 554.26118,316.28504 C 554.21304,317.25974 554.11148,318.44859 554.06438,319.58697 C 552.96789,319.30341 551.79407,319.05698 550.84992,318.82162 C 550.23865,319.58132 549.43606,320.46519 548.72881,321.3582 z M 554.06438,319.58697 C 556.58246,320.23817 558.65598,321.12546 556.42602,322.77956 C 554.19566,324.43397 553.95681,322.18626 554.06438,319.58697 z M 557.32257,314.99488 C 559.74489,314.04008 561.95995,313.54643 561.12744,316.19757 C 560.29498,318.84856 558.76414,317.16287 557.32257,314.99488 z M 540.00384,315.16982 C 538.60547,317.36583 537.12742,319.07206 536.2427,316.43811 C 535.36018,313.81069 537.57051,314.26773 540.00384,315.16982 z M 543.37137,319.69631 C 543.53032,322.29292 543.31607,324.54257 541.05346,322.93263 C 538.79112,321.3229 540.86651,320.3972 543.37137,319.69631 z"
       style="opacity:1;fill:#ff0000;fill-opacity:1;fill-rule:nonzero;stroke:#ffffff;stroke-width:0.69974667;stroke-linecap:butt;stroke-linejoin:miter;marker:none;marker-start:none;marker-mid:none;marker-end:none;stroke-miterlimit:4;stroke-dasharray:none;stroke-dashoffset:0;stroke-opacity:1;visibility:visible;display:inline;overflow:visible;enable-background:accumulate" />
    <path
       d="M 196.19066,52.50973 C 195.09739,52.4995 194.00063,52.79167 192.94252,53.50931 C 186.78622,57.68463 184.46425,64.27679 190.11715,71.02272 C 194.22283,75.92225 206.3625,88.65624 206.55379,88.85683 L 206.55379,88.92347 C 206.55379,88.92347 206.58435,88.89055 206.58473,88.89015 C 206.5851,88.89055 206.61566,88.92347 206.61566,88.92347 L 206.61566,88.85683 C 206.80714,88.65605 218.94665,75.92222 223.05231,71.02272 C 228.70521,64.27679 226.37808,57.68463 220.22178,53.50931 C 214.2046,49.42833 206.9122,59.11969 206.58473,59.5609 C 206.3188,59.20253 201.31675,52.55773 196.19066,52.50973 z M 197.99512,66.95197 C 199.62284,71.86187 200.78871,75.86145 200.59749,75.8796 C 200.40625,75.89776 198.92999,71.92764 197.30226,67.01774 C 195.67453,62.10784 194.50868,58.10826 194.6999,58.09011 C 194.88406,58.07262 196.24788,61.71659 197.82349,66.43612 M 216.44748,67.09628 C 214.81812,72.00584 213.35222,75.94047 213.17538,75.87895 C 212.99853,75.81744 214.17739,71.78295 215.80674,66.8734 C 217.4361,61.96385 218.902,58.02922 219.07885,58.09074 C 219.24916,58.14997 218.17479,61.85659 216.61814,66.58023"
       style="fill:#ff0000"
       id="path4157" />
    <path
       id="path4159"
       style="fill:#ff0000"
       d="M 196.19066,102.91878 C 195.09739,102.90854 194.00063,103.20072 192.94252,103.91836 C 186.78622,108.09368 184.46425,114.68584 190.11715,121.43177 C 194.22283,126.3313 206.3625,139.06529 206.55379,139.26588 L 206.55379,139.33252 C 206.55379,139.33252 206.58435,139.2996 206.58473,139.29919 C 206.5851,139.2996 206.61566,139.33252 206.61566,139.33252 L 206.61566,139.26588 C 206.80714,139.06509 218.94665,126.33127 223.05231,121.43177 C 228.70521,114.68584 226.37808,108.09368 220.22178,103.91836 C 214.2046,99.83738 206.9122,109.52874 206.58473,109.96995 C 206.3188,109.61158 201.31675,102.96678 196.19066,102.91878 z M 197.99512,117.36102 C 199.62284,122.27092 200.78871,126.2705 200.59749,126.28865 C 200.40625,126.30681 198.92999,122.33669 197.30226,117.42679 C 195.67453,112.51689 194.50868,108.5173 194.6999,108.49916 C 194.88406,108.48167 196.24788,112.12564 197.82349,116.84517 M 216.44748,117.50533 C 214.81812,122.41489 213.35222,126.34951 213.17538,126.288 C 212.99853,126.22649 214.17739,122.192 215.80674,117.28245 C 217.4361,112.37289 218.902,108.43827 219.07885,108.49978 C 219.24916,108.55902 218.17479,112.26564 216.61814,116.98928" />
    <path
       id="path4161"
       style="fill:#ff0000"
       d="M 313.73911,45.53993 C 312.97613,45.53278 312.21071,45.73669 311.47226,46.23752 C 307.17585,49.15142 305.55536,53.752 309.50047,58.45989 C 312.36579,61.87921 320.83794,70.76608 320.97144,70.90607 L 320.97144,70.95257 C 320.97144,70.95257 320.99277,70.9296 320.99304,70.92932 C 320.9933,70.9296 321.01463,70.95257 321.01463,70.95257 L 321.01463,70.90607 C 321.14826,70.76594 329.6203,61.87918 332.48561,58.45989 C 336.43071,53.752 334.80663,49.15142 330.51021,46.23752 C 326.31087,43.38946 321.22157,50.15293 320.99304,50.46084 C 320.80744,50.21074 317.31656,45.57343 313.73911,45.53993 z M 314.99843,55.61897 C 316.1344,59.04552 316.94805,61.83677 316.81459,61.84944 C 316.68113,61.86211 315.65086,59.09142 314.51489,55.66487 C 313.37891,52.23832 312.56528,49.44706 312.69872,49.4344 C 312.82725,49.4222 313.77904,51.96527 314.87865,55.25897 M 327.87615,55.71968 C 326.73904,59.14599 325.716,61.89192 325.59259,61.84899 C 325.46916,61.80606 326.29188,58.99044 327.42899,55.56414 C 328.5661,52.13783 329.58915,49.3919 329.71257,49.43484 C 329.83143,49.47618 329.08163,52.06298 327.99526,55.35954" />
    <path
       d="M 313.73911,82.00932 C 312.97613,82.00218 312.21071,82.20609 311.47226,82.70692 C 307.17585,85.62081 305.55536,90.22139 309.50047,94.92928 C 312.36579,98.3486 320.83794,107.23548 320.97144,107.37546 L 320.97144,107.42197 C 320.97144,107.42197 320.99277,107.399 320.99304,107.39872 C 320.9933,107.399 321.01463,107.42197 321.01463,107.42197 L 321.01463,107.37546 C 321.14826,107.23534 329.6203,98.34858 332.48561,94.92928 C 336.43071,90.22139 334.80663,85.62081 330.51021,82.70692 C 326.31087,79.85886 321.22157,86.62233 320.99304,86.93024 C 320.80744,86.68014 317.31656,82.04282 313.73911,82.00932 z M 314.99843,92.08837 C 316.1344,95.51491 316.94805,98.30617 316.81459,98.31883 C 316.68113,98.33151 315.65086,95.56082 314.51489,92.13426 C 313.37891,88.70771 312.56528,85.91646 312.69872,85.90379 C 312.82725,85.89159 313.77904,88.43467 314.87865,91.72836 M 327.87615,92.18908 C 326.73904,95.61539 325.716,98.36131 325.59259,98.31838 C 325.46916,98.27546 326.29188,95.45984 327.42899,92.03353 C 328.5661,88.60722 329.58915,85.8613 329.71257,85.90423 C 329.83143,85.94557 329.08163,88.53237 327.99526,91.82893"
       style="fill:#ff0000"
       id="path4165" />
    <path
       id="path4167"
       style="fill:#ff0000"
       d="M 313.73911,118.47872 C 312.97613,118.47158 312.21071,118.67548 311.47226,119.17631 C 307.17585,122.09021 305.55536,126.69079 309.50047,131.39868 C 312.36579,134.818 320.83794,143.70488 320.97144,143.84486 L 320.97144,143.89137 C 320.97144,143.89137 320.99277,143.86839 320.99304,143.86811 C 320.9933,143.86839 321.01463,143.89137 321.01463,143.89137 L 321.01463,143.84486 C 321.14826,143.70474 329.6203,134.81797 332.48561,131.39868 C 336.43071,126.69079 334.80663,122.09021 330.51021,119.17631 C 326.31087,116.32825 321.22157,123.09172 320.99304,123.39963 C 320.80744,123.14953 317.31656,118.51222 313.73911,118.47872 z M 314.99843,128.55776 C 316.1344,131.98431 316.94805,134.77556 316.81459,134.78823 C 316.68113,134.8009 315.65086,132.03021 314.51489,128.60366 C 313.37891,125.17711 312.56528,122.38586 312.69872,122.37319 C 312.82725,122.36099 313.77904,124.90406 314.87865,128.19776 M 327.87615,128.65848 C 326.73904,132.08478 325.716,134.83071 325.59259,134.78777 C 325.46916,134.74485 326.29188,131.92923 327.42899,128.50293 C 328.5661,125.07661 329.58915,122.33069 329.71257,122.37362 C 329.83143,122.41497 329.08163,125.00177 327.99526,128.29833" />
    <path
       d="M 406.80541,58.83511 C 406.04243,58.82797 405.27702,59.03188 404.53857,59.53271 C 400.24215,62.4466 398.62166,67.04718 402.56677,71.75507 C 405.43209,75.17439 413.90424,84.06127 414.03774,84.20126 L 414.03774,84.24776 C 414.03774,84.24776 414.05908,84.22479 414.05934,84.22451 C 414.0596,84.22479 414.08093,84.24776 414.08093,84.24776 L 414.08093,84.20126 C 414.21456,84.06113 422.6866,75.17437 425.55191,71.75507 C 429.49701,67.04718 427.87294,62.4466 423.57651,59.53271 C 419.37717,56.68465 414.28787,63.44812 414.05934,63.75603 C 413.87375,63.50593 410.38287,58.86861 406.80541,58.83511 z M 408.06473,68.91416 C 409.20071,72.3407 410.01435,75.13196 409.8809,75.14463 C 409.74743,75.1573 408.71717,72.38661 407.58119,68.96005 C 406.44522,65.5335 405.63158,62.74225 405.76503,62.72958 C 405.89355,62.71738 406.84535,65.26046 407.94496,68.55415 M 420.94246,69.01487 C 419.80535,72.44118 418.7823,75.1871 418.65889,75.14417 C 418.53547,75.10125 419.35818,72.28563 420.49529,68.85932 C 421.63241,65.43301 422.65545,62.68709 422.77887,62.73002 C 422.89773,62.77136 422.14793,65.35816 421.06157,68.65472"
       style="fill:#ff0000"
       id="path4169" />
    <path
       id="path4171"
       style="fill:#ff0000"
       d="M 444.78136,58.83511 C 444.01838,58.82797 443.25297,59.03188 442.51452,59.53271 C 438.2181,62.4466 436.59761,67.04718 440.54272,71.75507 C 443.40804,75.17439 451.88019,84.06127 452.01369,84.20126 L 452.01369,84.24776 C 452.01369,84.24776 452.03503,84.22479 452.03529,84.22451 C 452.03555,84.22479 452.05688,84.24776 452.05688,84.24776 L 452.05688,84.20126 C 452.19051,84.06113 460.66255,75.17437 463.52786,71.75507 C 467.47296,67.04718 465.84889,62.4466 461.55246,59.53271 C 457.35312,56.68465 452.26382,63.44812 452.03529,63.75603 C 451.8497,63.50593 448.35882,58.86861 444.78136,58.83511 z M 446.04068,68.91416 C 447.17666,72.3407 447.9903,75.13196 447.85685,75.14463 C 447.72338,75.1573 446.69312,72.38661 445.55714,68.96005 C 444.42117,65.5335 443.60753,62.74225 443.74098,62.72958 C 443.8695,62.71738 444.8213,65.26046 445.92091,68.55415 M 458.91841,69.01487 C 457.7813,72.44118 456.75825,75.1871 456.63484,75.14417 C 456.51142,75.10125 457.33413,72.28563 458.47124,68.85932 C 459.60836,65.43301 460.6314,62.68709 460.75482,62.73002 C 460.87368,62.77136 460.12388,65.35816 459.03752,68.65472" />
    <path
       id="path4173"
       style="fill:#ff0000"
       d="M 406.80541,105.24091 C 406.04243,105.23377 405.27702,105.43768 404.53857,105.93851 C 400.24215,108.85241 398.62166,113.45298 402.56677,118.16087 C 405.43209,121.58019 413.90424,130.46707 414.03774,130.60705 L 414.03774,130.65356 C 414.03774,130.65356 414.05908,130.63059 414.05934,130.63031 C 414.0596,130.63059 414.08093,130.65356 414.08093,130.65356 L 414.08093,130.60705 C 414.21456,130.46693 422.6866,121.58017 425.55191,118.16087 C 429.49701,113.45298 427.87294,108.85241 423.57651,105.93851 C 419.37717,103.09045 414.28787,109.85391 414.05934,110.16183 C 413.87375,109.91172 410.38287,105.27441 406.80541,105.24091 z M 408.06473,115.31995 C 409.20071,118.7465 410.01435,121.53776 409.8809,121.55042 C 409.74743,121.56309 408.71717,118.7924 407.58119,115.36585 C 406.44522,111.9393 405.63158,109.14805 405.76503,109.13538 C 405.89355,109.12318 406.84535,111.66625 407.94496,114.95995 M 420.94246,115.42067 C 419.80535,118.84698 418.7823,121.5929 418.65889,121.54997 C 418.53547,121.50704 419.35818,118.69142 420.49529,115.26512 C 421.63241,111.83881 422.65545,109.09289 422.77887,109.13582 C 422.89773,109.17716 422.14793,111.76396 421.06157,115.06052" />
    <path
       d="M 444.78136,105.24091 C 444.01838,105.23377 443.25297,105.43768 442.51452,105.93851 C 438.2181,108.85241 436.59761,113.45298 440.54272,118.16087 C 443.40804,121.58019 451.88019,130.46707 452.01369,130.60705 L 452.01369,130.65356 C 452.01369,130.65356 452.03503,130.63059 452.03529,130.63031 C 452.03555,130.63059 452.05688,130.65356 452.05688,130.65356 L 452.05688,130.60705 C 452.19051,130.46693 460.66255,121.58017 463.52786,118.16087 C 467.47296,113.45298 465.84889,108.85241 461.55246,105.93851 C 457.35312,103.09045 452.26382,109.85391 452.03529,110.16183 C 451.8497,109.91172 448.35882,105.27441 444.78136,105.24091 z M 446.04068,115.31995 C 447.17666,118.7465 447.9903,121.53776 447.85685,121.55042 C 447.72338,121.56309 446.69312,118.7924 445.55714,115.36585 C 444.42117,111.9393 443.60753,109.14805 443.74098,109.13538 C 443.8695,109.12318 444.8213,111.66625 445.92091,114.95995 M 458.91841,115.42067 C 457.7813,118.84698 456.75825,121.5929 456.63484,121.54997 C 456.51142,121.50704 457.33413,118.69142 458.47124,115.26512 C 459.60836,111.83881 460.6314,109.09289 460.75482,109.13582 C 460.87368,109.17716 460.12388,111.76396 459.03752,115.06052"
       style="fill:#ff0000"
       id="path4175" />
    <path
       d="M 518.76487,54.1594 C 518.00189,54.15226 517.23648,54.35617 516.49803,54.857 C 512.20161,57.7709 510.58113,62.37148 514.52624,67.07937 C 517.39155,70.49869 525.86371,79.38556 525.9972,79.52555 L 525.9972,79.57205 C 525.9972,79.57205 526.01854,79.54908 526.0188,79.5488 C 526.01906,79.54908 526.04039,79.57205 526.04039,79.57205 L 526.04039,79.52555 C 526.17402,79.38542 534.64606,70.49866 537.51137,67.07937 C 541.45647,62.37148 539.8324,57.7709 535.53597,54.857 C 531.33663,52.00894 526.24733,58.77241 526.0188,59.08032 C 525.83321,58.83022 522.34233,54.19291 518.76487,54.1594 z M 520.02419,64.23845 C 521.16017,67.665 521.97381,70.45625 521.84036,70.46892 C 521.7069,70.48159 520.67663,67.7109 519.54066,64.28435 C 518.40468,60.8578 517.59104,58.06654 517.72449,58.05388 C 517.85301,58.04167 518.80481,60.58475 519.90442,63.87845 M 532.90192,64.33916 C 531.76481,67.76547 530.74177,70.5114 530.61835,70.46846 C 530.49493,70.42554 531.31764,67.60992 532.45475,64.18362 C 533.59187,60.7573 534.61491,58.01138 534.73833,58.05431 C 534.85719,58.09566 534.10739,60.68246 533.02103,63.97902"
       style="fill:#ff0000"
       id="path4177" />
    <path
       id="path4179"
       style="fill:#ff0000"
       d="M 519.46462,117.83635 C 518.70164,117.82921 517.93623,118.03312 517.19778,118.53395 C 512.90136,121.44785 511.28087,126.04842 515.22598,130.75631 C 518.0913,134.17563 526.56345,143.06251 526.69695,143.20249 L 526.69695,143.249 C 526.69695,143.249 526.71829,143.22603 526.71855,143.22575 C 526.71881,143.22603 526.74014,143.249 526.74014,143.249 L 526.74014,143.20249 C 526.87377,143.06237 535.34581,134.17561 538.21112,130.75631 C 542.15622,126.04842 540.53214,121.44785 536.23572,118.53395 C 532.03638,115.68589 526.94708,122.44935 526.71855,122.75727 C 526.53296,122.50716 523.04208,117.86985 519.46462,117.83635 z M 520.72394,127.91539 C 521.85992,131.34194 522.67356,134.1332 522.54011,134.14586 C 522.40664,134.15853 521.37638,131.38784 520.2404,127.96129 C 519.10443,124.53474 518.29079,121.74349 518.42424,121.73082 C 518.55276,121.71862 519.50456,124.26169 520.60416,127.55539 M 533.60166,128.01611 C 532.46456,131.44242 531.44151,134.18834 531.3181,134.14541 C 531.19468,134.10248 532.01739,131.28686 533.1545,127.86056 C 534.29162,124.43425 535.31466,121.68833 535.43808,121.73126 C 535.55694,121.7726 534.80714,124.3594 533.72078,127.65596" />
    <path
       id="path4181"
       style="fill:#ff0000"
       d="M 556.74082,54.1594 C 555.97784,54.15226 555.21243,54.35617 554.47398,54.857 C 550.17756,57.7709 548.55708,62.37148 552.50219,67.07937 C 555.3675,70.49869 563.83966,79.38556 563.97315,79.52555 L 563.97315,79.57205 C 563.97315,79.57205 563.99449,79.54908 563.99475,79.5488 C 563.99501,79.54908 564.01634,79.57205 564.01634,79.57205 L 564.01634,79.52555 C 564.14997,79.38542 572.62201,70.49866 575.48732,67.07937 C 579.43242,62.37148 577.80835,57.7709 573.51192,54.857 C 569.31258,52.00894 564.22328,58.77241 563.99475,59.08032 C 563.80916,58.83022 560.31828,54.19291 556.74082,54.1594 z M 558.00014,64.23845 C 559.13612,67.665 559.94976,70.45625 559.81631,70.46892 C 559.68285,70.48159 558.65258,67.7109 557.5166,64.28435 C 556.38063,60.8578 555.56699,58.06654 555.70044,58.05388 C 555.82896,58.04167 556.78076,60.58475 557.88037,63.87845 M 570.87787,64.33916 C 569.74076,67.76547 568.71772,70.5114 568.5943,70.46846 C 568.47088,70.42554 569.29359,67.60992 570.4307,64.18362 C 571.56782,60.7573 572.59086,58.01138 572.71428,58.05431 C 572.83314,58.09566 572.08334,60.68246 570.99698,63.97902" />
    <path
       id="path4184"
       style="fill:#ff0000"
       d="M 536.25854,87.0475 C 535.49556,87.04036 534.73015,87.24426 533.9917,87.74509 C 529.69528,90.65899 528.07479,95.25957 532.0199,99.96746 C 534.88522,103.38678 543.35737,112.27366 543.49087,112.41364 L 543.49087,112.46015 C 543.49087,112.46015 543.5122,112.43717 543.51247,112.43689 C 543.51273,112.43717 543.53406,112.46015 543.53406,112.46015 L 543.53406,112.41364 C 543.66769,112.27352 552.13973,103.38675 555.00504,99.96746 C 558.95014,95.25957 557.32606,90.65899 553.02964,87.74509 C 548.8303,84.89703 543.741,91.6605 543.51247,91.96841 C 543.32688,91.71831 539.83599,87.081 536.25854,87.0475 z M 537.51786,97.12654 C 538.65384,100.55309 539.46748,103.34434 539.33402,103.35701 C 539.20056,103.36968 538.1703,100.59899 537.03432,97.17244 C 535.89835,93.74589 535.08471,90.95464 535.21816,90.94197 C 535.34668,90.92977 536.29847,93.47284 537.39808,96.76654 M 550.39558,97.22726 C 549.25848,100.65357 548.23543,103.39949 548.11202,103.35655 C 547.9886,103.31363 548.81131,100.49801 549.94842,97.07171 C 551.08553,93.64539 552.10858,90.89948 552.232,90.94241 C 552.35086,90.98375 551.60106,93.57055 550.5147,96.86711" />
    <path
       d="M 557.44057,117.83635 C 556.67759,117.82921 555.91218,118.03312 555.17373,118.53395 C 550.87731,121.44785 549.25682,126.04842 553.20193,130.75631 C 556.06725,134.17563 564.5394,143.06251 564.6729,143.20249 L 564.6729,143.249 C 564.6729,143.249 564.69424,143.22603 564.6945,143.22575 C 564.69476,143.22603 564.71609,143.249 564.71609,143.249 L 564.71609,143.20249 C 564.84972,143.06237 573.32176,134.17561 576.18707,130.75631 C 580.13217,126.04842 578.50809,121.44785 574.21167,118.53395 C 570.01233,115.68589 564.92303,122.44935 564.6945,122.75727 C 564.50891,122.50716 561.01803,117.86985 557.44057,117.83635 z M 558.69989,127.91539 C 559.83587,131.34194 560.64951,134.1332 560.51605,134.14586 C 560.38259,134.15853 559.35233,131.38784 558.21635,127.96129 C 557.08038,124.53474 556.26674,121.74349 556.40019,121.73082 C 556.52871,121.71862 557.48051,124.26169 558.58011,127.55539 M 571.57761,128.01611 C 570.44051,131.44242 569.41746,134.18834 569.29405,134.14541 C 569.17063,134.10248 569.99334,131.28686 571.13045,127.86056 C 572.26757,124.43425 573.29061,121.68833 573.41403,121.73126 C 573.53289,121.7726 572.78309,124.3594 571.69673,127.65596"
       style="fill:#ff0000"
       id="path4186" />
    <path
       d="M 62.530063,214.87861 C 61.76708,214.87147 61.001669,215.07538 60.26322,215.57621 C 55.966803,218.49011 54.346316,223.09068 58.291425,227.79857 C 61.15674,231.21789 69.628895,240.10477 69.762392,240.24476 L 69.762392,240.29126 C 69.762392,240.29126 69.783727,240.26829 69.783993,240.26801 C 69.784252,240.26829 69.805581,240.29126 69.805581,240.29126 L 69.805581,240.24476 C 69.939211,240.10463 78.411254,231.21787 81.276562,227.79857 C 85.221664,223.09068 83.597587,218.49011 79.301163,215.57621 C 75.101823,212.72815 70.012524,219.49161 69.783993,219.79953 C 69.5984,219.54943 66.107518,214.91212 62.530063,214.87861 z M 63.789383,224.95766 C 64.925359,228.3842 65.739003,231.17546 65.605547,231.18812 C 65.472085,231.2008 64.44182,228.43011 63.305844,225.00355 C 62.169868,221.57701 61.356231,218.78575 61.48968,218.77309 C 61.618202,218.76088 62.569997,221.30396 63.669607,224.59765 M 76.667107,225.05837 C 75.529998,228.48468 74.506954,231.23061 74.38354,231.18767 C 74.260119,231.14475 75.082832,228.32913 76.219941,224.90283 C 77.357057,221.47652 78.380101,218.73059 78.503522,218.77352 C 78.622381,218.81486 77.872582,221.40166 76.786218,224.69823"
       style="fill:#ff0000"
       id="path4188" />
    <path
       id="path4190"
       style="fill:#ff0000"
       d="M 100.50601,214.87861 C 99.74303,214.87147 98.977619,215.07538 98.23917,215.57621 C 93.942753,218.49011 92.322266,223.09068 96.267374,227.79857 C 99.13269,231.21789 107.60485,240.10477 107.73834,240.24476 L 107.73834,240.29126 C 107.73834,240.29126 107.75968,240.26829 107.75994,240.26801 C 107.7602,240.26829 107.78153,240.29126 107.78153,240.29126 L 107.78153,240.24476 C 107.91516,240.10463 116.38721,231.21787 119.25251,227.79857 C 123.19762,223.09068 121.57354,218.49011 117.27712,215.57621 C 113.07778,212.72815 107.98847,219.49161 107.75994,219.79953 C 107.57435,219.54943 104.08347,214.91212 100.50601,214.87861 z M 101.76533,224.95766 C 102.90131,228.3842 103.71495,231.17546 103.5815,231.18812 C 103.44804,231.2008 102.41777,228.43011 101.28179,225.00355 C 100.14582,221.57701 99.332181,218.78575 99.465629,218.77309 C 99.594152,218.76088 100.54595,221.30396 101.64556,224.59765 M 114.64306,225.05837 C 113.50595,228.48468 112.48291,231.23061 112.35949,231.18767 C 112.23607,231.14475 113.05878,228.32913 114.19589,224.90283 C 115.33301,221.47652 116.35605,218.73059 116.47947,218.77352 C 116.59833,218.81486 115.84853,221.40166 114.76217,224.69823" />
    <path
       d="M 100.50601,250.78821 C 99.74303,250.78107 98.977619,250.98498 98.23917,251.48581 C 93.942753,254.39971 92.322266,259.00028 96.267374,263.70817 C 99.13269,267.12749 107.60485,276.01437 107.73834,276.15435 L 107.73834,276.20086 C 107.73834,276.20086 107.75968,276.17789 107.75994,276.17761 C 107.7602,276.17789 107.78153,276.20086 107.78153,276.20086 L 107.78153,276.15435 C 107.91516,276.01423 116.38721,267.12747 119.25251,263.70817 C 123.19762,259.00028 121.57354,254.39971 117.27712,251.48581 C 113.07778,248.63775 107.98847,255.40121 107.75994,255.70913 C 107.57435,255.45903 104.08347,250.82171 100.50601,250.78821 z M 101.76533,260.86726 C 102.90131,264.2938 103.71495,267.08506 103.5815,267.09772 C 103.44804,267.11039 102.41777,264.33971 101.28179,260.91315 C 100.14582,257.4866 99.332181,254.69535 99.465629,254.68268 C 99.594152,254.67048 100.54595,257.21356 101.64556,260.50725 M 114.64306,260.96797 C 113.50595,264.39428 112.48291,267.1402 112.35949,267.09727 C 112.23607,267.05435 113.05878,264.23873 114.19589,260.81242 C 115.33301,257.38611 116.35605,254.64019 116.47947,254.68312 C 116.59833,254.72446 115.84853,257.31126 114.76217,260.60782"
       style="fill:#ff0000"
       id="path4192" />
    <path
       id="path4194"
       style="fill:#ff0000"
       d="M 62.530063,250.78821 C 61.76708,250.78107 61.001669,250.98498 60.26322,251.48581 C 55.966803,254.39971 54.346316,259.00028 58.291425,263.70817 C 61.15674,267.12749 69.628895,276.01437 69.762392,276.15435 L 69.762392,276.20086 C 69.762392,276.20086 69.783727,276.17789 69.783993,276.17761 C 69.784252,276.17789 69.805581,276.20086 69.805581,276.20086 L 69.805581,276.15435 C 69.939211,276.01423 78.411256,267.12747 81.276564,263.70817 C 85.221666,259.00028 83.597589,254.39971 79.301166,251.48581 C 75.101825,248.63775 70.012524,255.40121 69.783993,255.70913 C 69.5984,255.45903 66.107518,250.82171 62.530063,250.78821 z M 63.789383,260.86726 C 64.925359,264.2938 65.739003,267.08506 65.605547,267.09772 C 65.472085,267.11039 64.44182,264.33971 63.305844,260.91315 C 62.169868,257.4866 61.356231,254.69535 61.48968,254.68268 C 61.618202,254.67048 62.569997,257.21356 63.669607,260.50725 M 76.667109,260.96797 C 75.53,264.39428 74.506956,267.1402 74.383542,267.09727 C 74.260121,267.05435 75.082834,264.23873 76.219943,260.81242 C 77.357059,257.38611 78.380103,254.64019 78.503524,254.68312 C 78.622383,254.72446 77.872584,257.31126 76.78622,260.60782" />
    <path
       d="M 62.530063,286.69781 C 61.76708,286.69067 61.001669,286.89458 60.26322,287.39541 C 55.966803,290.30931 54.346316,294.90988 58.291425,299.61777 C 61.15674,303.03709 69.628895,311.92397 69.762392,312.06395 L 69.762392,312.11046 C 69.762392,312.11046 69.783727,312.08748 69.783993,312.08721 C 69.784252,312.08748 69.805581,312.11046 69.805581,312.11046 L 69.805581,312.06395 C 69.939211,311.92383 78.411256,303.03707 81.276564,299.61777 C 85.221666,294.90988 83.597589,290.30931 79.301166,287.39541 C 75.101825,284.54735 70.012524,291.31081 69.783993,291.61873 C 69.5984,291.36862 66.107518,286.73131 62.530063,286.69781 z M 63.789383,296.77685 C 64.925359,300.2034 65.739003,302.99466 65.605547,303.00732 C 65.472085,303.01999 64.44182,300.2493 63.305844,296.82275 C 62.169868,293.3962 61.356231,290.60495 61.48968,290.59228 C 61.618202,290.58008 62.569997,293.12315 63.669607,296.41685 M 76.667109,296.87757 C 75.53,300.30388 74.506956,303.0498 74.383542,303.00687 C 74.260121,302.96394 75.082834,300.14832 76.219943,296.72202 C 77.357059,293.29571 78.380103,290.54979 78.503524,290.59272 C 78.622383,290.63406 77.872584,293.22086 76.78622,296.51742"
       style="fill:#ff0000"
       id="path4196" />
    <path
       id="path4198"
       style="fill:#ff0000"
       d="M 100.50601,286.69781 C 99.74303,286.69067 98.977619,286.89458 98.23917,287.39541 C 93.942753,290.30931 92.322266,294.90988 96.267374,299.61777 C 99.13269,303.03709 107.60485,311.92397 107.73834,312.06395 L 107.73834,312.11046 C 107.73834,312.11046 107.75968,312.08748 107.75994,312.08721 C 107.7602,312.08748 107.78153,312.11046 107.78153,312.11046 L 107.78153,312.06395 C 107.91516,311.92383 116.38721,303.03707 119.25251,299.61777 C 123.19762,294.90988 121.57354,290.30931 117.27712,287.39541 C 113.07778,284.54735 107.98847,291.31081 107.75994,291.61873 C 107.57435,291.36862 104.08347,286.73131 100.50601,286.69781 z M 101.76533,296.77685 C 102.90131,300.2034 103.71495,302.99466 103.5815,303.00732 C 103.44804,303.01999 102.41777,300.2493 101.28179,296.82275 C 100.14582,293.3962 99.332181,290.60495 99.465629,290.59228 C 99.594152,290.58008 100.54595,293.12315 101.64556,296.41685 M 114.64306,296.87757 C 113.50595,300.30388 112.48291,303.0498 112.35949,303.00687 C 112.23607,302.96394 113.05878,300.14832 114.19589,296.72202 C 115.33301,293.29571 116.35605,290.54979 116.47947,290.59272 C 116.59833,290.63406 115.84853,293.22086 114.76217,296.51742" />
    <path
       d="M 176.66448,208.13927 C 175.9749,208.13283 175.28312,208.31712 174.61572,208.76976 C 170.73263,211.40333 169.26804,215.56131 172.83362,219.81627 C 175.42328,222.90663 183.08038,230.93854 183.20104,231.06505 L 183.20104,231.10709 C 183.20104,231.10709 183.22032,231.08633 183.22056,231.08607 C 183.2208,231.08633 183.24007,231.10709 183.24007,231.10709 L 183.24007,231.06505 C 183.36084,230.93841 191.01785,222.90661 193.60751,219.81627 C 197.17307,215.56131 195.70524,211.40333 191.82215,208.76976 C 188.0268,206.1957 183.4271,212.30848 183.22056,212.58677 C 183.05282,212.36073 179.89777,208.16956 176.66448,208.13927 z M 177.80265,217.24866 C 178.82934,220.34556 179.56471,222.86828 179.4441,222.87972 C 179.32347,222.89118 178.39232,220.38705 177.36563,217.29014 C 176.33894,214.19325 175.60358,211.67053 175.72419,211.65908 C 175.84035,211.64805 176.70057,213.94647 177.6944,216.92329 M 189.4415,217.33969 C 188.41378,220.43636 187.48916,222.91812 187.37761,222.87931 C 187.26607,222.84052 188.00963,220.29578 189.03735,217.1991 C 190.06507,214.10242 190.98969,211.62068 191.10125,211.65948 C 191.20866,211.69684 190.531,214.03477 189.54915,217.01419"
       style="fill:#ff0000"
       id="path4200" />
    <path
       id="path4202"
       style="fill:#ff0000"
       d="M 218.99425,208.13927 C 218.30467,208.13283 217.6129,208.31712 216.94549,208.76976 C 213.0624,211.40333 211.59781,215.56131 215.16339,219.81627 C 217.75305,222.90663 225.41015,230.93854 225.53081,231.06505 L 225.53081,231.10709 C 225.53081,231.10709 225.55009,231.08633 225.55033,231.08607 C 225.55057,231.08633 225.56984,231.10709 225.56984,231.10709 L 225.56984,231.06505 C 225.69062,230.93841 233.34762,222.90661 235.93728,219.81627 C 239.50285,215.56131 238.03502,211.40333 234.15192,208.76976 C 230.35657,206.1957 225.75688,212.30848 225.55033,212.58677 C 225.3826,212.36073 222.22754,208.16956 218.99425,208.13927 z M 220.13243,217.24866 C 221.15911,220.34556 221.89449,222.86828 221.77387,222.87972 C 221.65325,222.89118 220.72209,220.38705 219.69541,217.29014 C 218.66871,214.19325 217.93335,211.67053 218.05396,211.65908 C 218.17012,211.64805 219.03035,213.94647 220.02417,216.92329 M 231.77127,217.33969 C 230.74355,220.43636 229.81893,222.91812 229.70739,222.87931 C 229.59584,222.84052 230.33941,220.29578 231.36712,217.1991 C 232.39484,214.10242 233.31947,211.62068 233.43102,211.65948 C 233.53844,211.69684 232.86077,214.03477 231.87893,217.01419" />
    <path
       id="path4204"
       style="fill:#ff0000"
       d="M 198.35662,229.13167 C 197.66705,229.12523 196.97527,229.30951 196.30786,229.76216 C 192.42477,232.39573 190.96018,236.5537 194.52576,240.80867 C 197.11542,243.89903 204.77252,251.93094 204.89318,252.05745 L 204.89318,252.09949 C 204.89318,252.09949 204.91247,252.07872 204.91271,252.07847 C 204.91294,252.07872 204.93221,252.09949 204.93221,252.09949 L 204.93221,252.05745 C 205.05299,251.93081 212.71,243.89901 215.29965,240.80867 C 218.86522,236.5537 217.39739,232.39573 213.51429,229.76216 C 209.71894,227.1881 205.11925,233.30088 204.91271,233.57917 C 204.74497,233.35313 201.58992,229.16196 198.35662,229.13167 z M 199.4948,238.24106 C 200.52149,241.33796 201.25686,243.86068 201.13624,243.87212 C 201.01562,243.88358 200.08447,241.37944 199.05778,238.28254 C 198.03108,235.18565 197.29573,232.66293 197.41633,232.65148 C 197.53249,232.64045 198.39272,234.93887 199.38655,237.91569 M 211.13364,238.33209 C 210.10592,241.42876 209.18131,243.91052 209.06976,243.87171 C 208.95821,243.83292 209.70178,241.28818 210.7295,238.1915 C 211.75721,235.09482 212.68184,232.61307 212.79339,232.65188 C 212.90081,232.68923 212.22315,235.02717 211.2413,238.00659" />
    <path
       id="path4206"
       style="fill:#ff0000"
       d="M 176.66448,248.60142 C 175.9749,248.59498 175.28312,248.77927 174.61572,249.23191 C 170.73263,251.86548 169.26804,256.02346 172.83362,260.27842 C 175.42328,263.36878 183.08038,271.40069 183.20104,271.5272 L 183.20104,271.56924 C 183.20104,271.56924 183.22032,271.54848 183.22056,271.54822 C 183.2208,271.54848 183.24007,271.56924 183.24007,271.56924 L 183.24007,271.5272 C 183.36084,271.40056 191.01785,263.36876 193.60751,260.27842 C 197.17307,256.02346 195.70524,251.86548 191.82215,249.23191 C 188.0268,246.65785 183.4271,252.77063 183.22056,253.04892 C 183.05282,252.82288 179.89777,248.63171 176.66448,248.60142 z M 177.80265,257.71081 C 178.82934,260.80771 179.56471,263.33043 179.4441,263.34187 C 179.32347,263.35333 178.39232,260.84919 177.36563,257.75229 C 176.33894,254.6554 175.60358,252.13268 175.72419,252.12123 C 175.84035,252.1102 176.70057,254.40862 177.6944,257.38544 M 189.4415,257.80184 C 188.41378,260.89851 187.48916,263.38027 187.37761,263.34146 C 187.26607,263.30267 188.00963,260.75793 189.03735,257.66125 C 190.06507,254.56457 190.98969,252.08282 191.10125,252.12163 C 191.20866,252.15899 190.531,254.49692 189.54915,257.47634" />
    <path
       d="M 218.99425,248.60142 C 218.30467,248.59498 217.6129,248.77927 216.94549,249.23191 C 213.0624,251.86548 211.59781,256.02346 215.16339,260.27842 C 217.75305,263.36878 225.41015,271.40069 225.53081,271.5272 L 225.53081,271.56924 C 225.53081,271.56924 225.55009,271.54848 225.55033,271.54822 C 225.55057,271.54848 225.56984,271.56924 225.56984,271.56924 L 225.56984,271.5272 C 225.69062,271.40056 233.34762,263.36876 235.93728,260.27842 C 239.50285,256.02346 238.03502,251.86548 234.15192,249.23191 C 230.35657,246.65785 225.75688,252.77063 225.55033,253.04892 C 225.3826,252.82288 222.22754,248.63171 218.99425,248.60142 z M 220.13243,257.71081 C 221.15911,260.80771 221.89449,263.33043 221.77387,263.34187 C 221.65325,263.35333 220.72209,260.84919 219.69541,257.75229 C 218.66871,254.6554 217.93335,252.13268 218.05396,252.12123 C 218.17012,252.1102 219.03035,254.40862 220.02417,257.38544 M 231.77127,257.80184 C 230.74355,260.89851 229.81893,263.38027 229.70739,263.34146 C 229.59584,263.30267 230.33941,260.75793 231.36712,257.66125 C 232.39484,254.56457 233.31947,252.08282 233.43102,252.12163 C 233.53844,252.15899 232.86077,254.49692 231.87893,257.47634"
       style="fill:#ff0000"
       id="path4208" />
    <path
       id="path4210"
       style="fill:#ff0000"
       d="M 218.99425,278.56667 C 218.30467,278.56023 217.6129,278.74452 216.94549,279.19716 C 213.0624,281.83073 211.59781,285.98871 215.16339,290.24367 C 217.75305,293.33403 225.41015,301.36594 225.53081,301.49245 L 225.53081,301.53449 C 225.53081,301.53449 225.55009,301.51373 225.55033,301.51347 C 225.55057,301.51373 225.56984,301.53449 225.56984,301.53449 L 225.56984,301.49245 C 225.69062,301.36581 233.34762,293.33401 235.93728,290.24367 C 239.50285,285.98871 238.03502,281.83073 234.15192,279.19716 C 230.35657,276.6231 225.75688,282.73588 225.55033,283.01417 C 225.3826,282.78813 222.22754,278.59696 218.99425,278.56667 z M 220.13243,287.67606 C 221.15911,290.77296 221.89449,293.29568 221.77387,293.30712 C 221.65325,293.31858 220.72209,290.81445 219.69541,287.71754 C 218.66871,284.62065 217.93335,282.09793 218.05396,282.08648 C 218.17012,282.07545 219.03035,284.37387 220.02417,287.35069 M 231.77127,287.76709 C 230.74355,290.86376 229.81893,293.34552 229.70739,293.30671 C 229.59584,293.26792 230.33941,290.72318 231.36712,287.6265 C 232.39484,284.52982 233.31947,282.04808 233.43102,282.08688 C 233.53844,282.12424 232.86077,284.46217 231.87893,287.44159" />
    <path
       d="M 176.66448,278.56667 C 175.9749,278.56023 175.28312,278.74452 174.61572,279.19716 C 170.73263,281.83073 169.26804,285.98871 172.83362,290.24367 C 175.42328,293.33403 183.08038,301.36594 183.20104,301.49245 L 183.20104,301.53449 C 183.20104,301.53449 183.22032,301.51373 183.22056,301.51347 C 183.2208,301.51373 183.24007,301.53449 183.24007,301.53449 L 183.24007,301.49245 C 183.36084,301.36581 191.01785,293.33401 193.60751,290.24367 C 197.17307,285.98871 195.70524,281.83073 191.82215,279.19716 C 188.0268,276.6231 183.4271,282.73588 183.22056,283.01417 C 183.05282,282.78813 179.89777,278.59696 176.66448,278.56667 z M 177.80265,287.67606 C 178.82934,290.77296 179.56471,293.29568 179.4441,293.30712 C 179.32347,293.31858 178.39232,290.81445 177.36563,287.71754 C 176.33894,284.62065 175.60358,282.09793 175.72419,282.08648 C 175.84035,282.07545 176.70057,284.37387 177.6944,287.35069 M 189.4415,287.76709 C 188.41378,290.86376 187.48916,293.34552 187.37761,293.30671 C 187.26607,293.26792 188.00963,290.72318 189.03735,287.6265 C 190.06507,284.52982 190.98969,282.04808 191.10125,282.08688 C 191.20866,282.12424 190.531,284.46217 189.54915,287.44159"
       style="fill:#ff0000"
       id="path4212" />
    <path
       d="M 350.35559,199.79519 C 349.66601,199.78874 348.97423,199.97303 348.30683,200.42567 C 344.42374,203.05924 342.95915,207.21722 346.52473,211.47218 C 349.11439,214.56254 356.77149,222.59445 356.89215,222.72097 L 356.89215,222.763 C 356.89215,222.763 356.91143,222.74224 356.91167,222.74199 C 356.91191,222.74224 356.93118,222.763 356.93118,222.763 L 356.93118,222.72097 C 357.05196,222.59433 364.70896,214.56252 367.29862,211.47218 C 370.86418,207.21722 369.39635,203.05924 365.51326,200.42567 C 361.71791,197.85161 357.11821,203.9644 356.91167,204.24269 C 356.74393,204.01665 353.58888,199.82547 350.35559,199.79519 z M 351.49376,208.90457 C 352.52045,212.00147 353.25582,214.52419 353.13521,214.53564 C 353.01459,214.54709 352.08343,212.04296 351.05674,208.94605 C 350.03005,205.84916 349.29469,203.32645 349.4153,203.315 C 349.53146,203.30396 350.39168,205.60239 351.38551,208.57921 M 363.13261,208.9956 C 362.10489,212.09228 361.18027,214.57403 361.06873,214.53522 C 360.95718,214.49643 361.70074,211.95169 362.72846,208.85502 C 363.75618,205.75834 364.6808,203.27659 364.79236,203.31539 C 364.89978,203.35275 364.22211,205.69069 363.24026,208.6701"
       style="fill:#ff0000"
       id="path4535" />
    <path
       id="path4539"
       style="fill:#ff0000"
       d="M 464.41429,199.79519 C 463.72471,199.78874 463.03294,199.97303 462.36553,200.42567 C 458.48244,203.05924 457.01785,207.21722 460.58343,211.47218 C 463.17309,214.56254 470.83019,222.59445 470.95085,222.72097 L 470.95085,222.763 C 470.95085,222.763 470.97014,222.74224 470.97037,222.74199 C 470.97061,222.74224 470.98988,222.763 470.98988,222.763 L 470.98988,222.72097 C 471.11066,222.59433 478.76766,214.56252 481.35732,211.47218 C 484.92289,207.21722 483.45506,203.05924 479.57196,200.42567 C 475.77661,197.85161 471.17692,203.9644 470.97037,204.24269 C 470.80264,204.01665 467.64758,199.82547 464.41429,199.79519 z M 465.55247,208.90457 C 466.57915,212.00147 467.31453,214.52419 467.19391,214.53564 C 467.07329,214.54709 466.14214,212.04296 465.11545,208.94605 C 464.08875,205.84916 463.35339,203.32645 463.474,203.315 C 463.59016,203.30396 464.45039,205.60239 465.44421,208.57921 M 477.19131,208.9956 C 476.16359,212.09228 475.23897,214.57403 475.12743,214.53522 C 475.01588,214.49643 475.75945,211.95169 476.78716,208.85502 C 477.81488,205.75834 478.73951,203.27659 478.85106,203.31539 C 478.95848,203.35275 478.28082,205.69069 477.29897,208.6701" />
    <path
       d="M 574.97426,199.79519 C 574.28468,199.78875 573.59291,199.97303 572.9255,200.42568 C 569.04241,203.05924 567.57782,207.21722 571.1434,211.47219 C 573.73306,214.56255 581.39016,222.59446 581.51082,222.72097 L 581.51082,222.763 C 581.51082,222.763 581.5301,222.74224 581.53034,222.74199 C 581.53058,222.74224 581.54985,222.763 581.54985,222.763 L 581.54985,222.72097 C 581.67063,222.59433 589.32763,214.56253 591.91729,211.47219 C 595.48286,207.21722 594.01503,203.05924 590.13193,200.42568 C 586.33658,197.85162 581.73689,203.9644 581.53034,204.24269 C 581.36261,204.01665 578.20755,199.82548 574.97426,199.79519 z M 576.11243,208.90458 C 577.13912,212.00147 577.87449,214.52419 577.75388,214.53564 C 577.63326,214.5471 576.7021,212.04296 575.67542,208.94606 C 574.64872,205.84917 573.91336,203.32645 574.03397,203.315 C 574.15013,203.30397 575.01035,205.60239 576.00418,208.57921 M 587.75128,208.99561 C 586.72356,212.09228 585.79894,214.57404 585.6874,214.53523 C 585.57585,214.49643 586.31942,211.95169 587.34713,208.85502 C 588.37485,205.75834 589.29948,203.27659 589.41103,203.31539 C 589.51845,203.35275 588.84078,205.69069 587.85893,208.67011"
       style="fill:#ff0000"
       id="path4547" />
  </g>
</svg>
