<?xml version="1.0" encoding="UTF-8" standalone="no"?>
<!-- Created with Inkscape (http://www.inkscape.org/) -->
<svg
   xmlns:dc="http://purl.org/dc/elements/1.1/"
   xmlns:cc="http://creativecommons.org/ns#"
   xmlns:rdf="http://www.w3.org/1999/02/22-rdf-syntax-ns#"
   xmlns:svg="http://www.w3.org/2000/svg"
   xmlns="http://www.w3.org/2000/svg"
   xmlns:sodipodi="http://sodipodi.sourceforge.net/DTD/sodipodi-0.dtd"
   xmlns:inkscape="http://www.inkscape.org/namespaces/inkscape"
   width="640px"
   height="480px"
   id="svg2393"
   sodipodi:version="0.32"
   inkscape:version="0.46"
   sodipodi:docname="cards-clubs.svg"
   inkscape:output_extension="org.inkscape.output.svg.inkscape">
  <defs
     id="defs2395">
    <inkscape:perspective
       sodipodi:type="inkscape:persp3d"
       inkscape:vp_x="0 : 240 : 1"
       inkscape:vp_y="0 : 1000 : 0"
       inkscape:vp_z="640 : 240 : 1"
       inkscape:persp3d-origin="320 : 160 : 1"
       id="perspective2401" />
    <filter
       id="filter4970"
       inkscape:collect="always">
      <feGaussianBlur
         id="feGaussianBlur4972"
         stdDeviation="1.4809308"
         inkscape:collect="always" />
    </filter>
    <filter
       id="filter4966"
       inkscape:collect="always">
      <feGaussianBlur
         id="feGaussianBlur4968"
         stdDeviation="1.4809308"
         inkscape:collect="always" />
    </filter>
    <filter
       id="filter3254"
       inkscape:collect="always">
      <feGaussianBlur
         id="feGaussianBlur3256"
         stdDeviation="7.7965407"
         inkscape:collect="always" />
    </filter>
    <inkscape:perspective
       id="perspective10"
       inkscape:persp3d-origin="375.48941 : 342.21596 : 1"
       inkscape:vp_z="804.56871 : 517.60966 : 1"
       inkscape:vp_y="7.0616468e-14 : 1000 : 0"
       inkscape:vp_x="-53.589892 : 517.60966 : 1"
       sodipodi:type="inkscape:persp3d" />
    <inkscape:perspective
       id="perspective3513"
       inkscape:persp3d-origin="372.04724 : 350.78739 : 1"
       inkscape:vp_z="744.09448 : 526.18109 : 1"
       inkscape:vp_y="0 : 1000 : 0"
       inkscape:vp_x="0 : 526.18109 : 1"
       sodipodi:type="inkscape:persp3d" />
  </defs>
  <sodipodi:namedview
     id="base"
     pagecolor="#ffffff"
     bordercolor="#666666"
     borderopacity="1.0"
     inkscape:pageopacity="0.0"
     inkscape:pageshadow="2"
     inkscape:zoom="0.5"
     inkscape:cx="379.88781"
     inkscape:cy="182.07093"
     inkscape:current-layer="layer1"
     inkscape:document-units="px"
     showgrid="false"
     inkscape:window-width="963"
     inkscape:window-height="726"
     inkscape:window-x="216"
     inkscape:window-y="289" />
  <metadata
     id="metadata2398">
    <rdf:RDF>
      <cc:Work
         rdf:about="">
        <dc:format>image/svg+xml</dc:format>
        <dc:type
           rdf:resource="http://purl.org/dc/dcmitype/StillImage" />
      </cc:Work>
    </rdf:RDF>
  </metadata>
  <g
     id="layer1"
     inkscape:label="Layer 1"
     inkscape:groupmode="layer">
    <rect
       style="opacity:1;fill:#00ff00;fill-opacity:1;fill-rule:nonzero;stroke:#ffffff;stroke-width:0.87088817;stroke-linecap:butt;stroke-linejoin:miter;marker:none;marker-start:none;marker-mid:none;marker-end:none;stroke-miterlimit:4;stroke-dasharray:none;stroke-dashoffset:0;stroke-opacity:1;visibility:visible;display:inline;overflow:visible;enable-background:accumulate"
       id="rect2966"
       width="600.27313"
       height="433.67178"
       x="20.935444"
       y="17.392776"
       rx="0"
       ry="54.115108" />
    <g
       style="display:inline"
       id="g2508"
       inkscape:label="Layer 1"
       transform="matrix(0.1390351,0,0,0.1390351,45.100405,27.60995)">
      <rect
         style="opacity:0.91666667;fill:#000000;filter:url(#filter3254)"
         id="rect3208"
         width="709.12708"
         height="1006.1119"
         x="24.243658"
         y="26.047195"
         ry="63.63961"
         rx="60.60915" />
      <rect
         rx="60.60915"
         ry="63.63961"
         y="7.8644519"
         x="10.101523"
         height="1006.1119"
         width="709.12708"
         id="rect3206"
         style="fill:#ffffff" />
      <text
         transform="scale(1.0234483,0.9770889)"
         id="text3475"
         y="188.40356"
         x="47.257381"
         style="font-size:225.6577301px;font-style:normal;font-variant:normal;font-weight:normal;font-stretch:normal;fill:#000000;fill-opacity:1;stroke:none;stroke-width:1px;stroke-linecap:butt;stroke-linejoin:miter;stroke-opacity:1;filter:url(#filter4970);font-family:Gemelli;-inkscape-font-specification:Gemelli"
         xml:space="preserve"><tspan
           y="188.40356"
           x="47.257381"
           id="tspan3477"
           sodipodi:role="line">A</tspan></text>
      <text
         xml:space="preserve"
         style="font-size:225.6577301px;font-style:normal;font-variant:normal;font-weight:normal;font-stretch:normal;fill:#000000;fill-opacity:1;stroke:none;stroke-width:1px;stroke-linecap:butt;stroke-linejoin:miter;stroke-opacity:1;filter:url(#filter4966);font-family:Gemelli;-inkscape-font-specification:Gemelli"
         x="537.01221"
         y="980.57336"
         id="text3487"
         transform="scale(1.0234483,0.9770889)"><tspan
           sodipodi:role="line"
           id="tspan3489"
           x="537.01221"
           y="980.57336">A</tspan></text>
    </g>
    <path
       id="path3552"
       style="fill:#000000"
       d="M 560.98656,411.66908 L 560.98656,411.70773 C 560.89687,411.82416 555.21033,419.20821 553.28711,422.04932 C 550.63913,425.96113 551.72923,429.78378 554.61302,432.20495 C 556.62472,433.89392 558.93879,431.51632 560.15575,429.92265 C 559.5338,431.57909 558.64227,433.5778 557.70198,434.42928 C 555.93155,436.0325 550.19574,437.0811 550.19574,437.0811 L 561.01554,437.0811 L 571.83533,437.0811 C 571.83533,437.0811 566.0971,436.03249 564.32669,434.42928 C 563.39954,433.58971 562.51955,431.63522 561.89948,429.99269 C 562.82232,431.18581 564.33319,432.76676 565.86995,432.78458 C 566.38208,432.79051 566.89584,432.62109 567.39149,432.20495 C 570.27529,429.78378 571.36297,425.96113 568.71498,422.04932 C 566.79175,419.20819 561.10514,411.82405 561.01554,411.70773 L 561.01554,411.66908 C 561.01554,411.66908 561.00123,411.68817 561.00105,411.6884 C 561.00087,411.68817 560.98656,411.66908 560.98656,411.66908 z M 561.26932,422.89913 C 561.26892,425.84659 561.19617,428.22818 561.10692,428.21516 C 561.01767,428.20215 560.94555,425.79943 560.94595,422.85196 C 560.94634,419.9045 561.0191,417.52291 561.10835,417.53592 C 561.1943,417.54846 561.26448,419.75486 561.26909,422.58938" />
    <path
       style="fill:#ff0000"
       d="M 589.05256,409.08019 C 588.97655,409.08012 588.98238,409.21652 589.05256,409.46233 C 589.1229,409.2171 589.12848,409.08025 589.05256,409.08019 z M 589.05256,409.46233 C 588.45322,411.55157 583.04478,421.61399 581.28051,423.99251 C 581.19607,423.97734 581.11868,423.96339 581.05279,423.94723 C 581.09464,423.99565 581.13821,424.0539 581.18709,424.11707 C 581.13854,424.17945 581.09143,424.23346 581.04987,424.28125 C 581.11576,424.26511 581.19299,424.25106 581.27759,424.23596 C 583.03651,426.61516 588.42404,436.66768 589.0292,438.7718 C 589.63778,436.66807 595.0401,426.62024 596.80124,424.24728 C 596.88756,424.26281 596.96501,424.27883 597.03189,424.29541 C 596.98981,424.24688 596.94098,424.19194 596.89175,424.12839 C 596.94024,424.06598 596.9874,424.0093 597.02897,423.96138 C 596.96284,423.97755 596.88619,423.99153 596.80124,424.00667 C 595.04195,421.62813 589.64991,411.55467 589.05256,409.46233 z M 597.02897,423.96138 C 597.26402,423.90388 597.37649,423.8396 597.33845,423.76889 C 597.30027,423.69791 597.19433,423.77072 597.02897,423.96138 z M 597.03189,424.29541 C 597.19547,424.48406 597.30037,424.55843 597.33845,424.48789 C 597.37643,424.41755 597.2648,424.35312 597.03189,424.29541 z M 589.0292,438.7718 C 588.95709,439.02105 588.95262,439.15955 589.0292,439.15961 C 589.10577,439.15968 589.10091,439.02113 589.0292,438.7718 z M 581.04987,424.28125 C 580.81515,424.33872 580.70238,424.40308 580.74039,424.47374 C 580.77837,424.54437 580.88591,424.46976 581.04987,424.28125 z M 581.05279,423.94723 C 580.88765,423.75617 580.77869,423.6838 580.74039,423.75473 C 580.7021,423.82564 580.81608,423.88915 581.05279,423.94723 z M 588.24382,423.90477 C 591.11005,423.89097 594.09812,423.96409 595.83776,424.12556 C 592.68231,424.41296 585.41224,424.4066 582.24983,424.11424 C 583.66875,423.98554 585.91172,423.91599 588.24382,423.90477 z"
       id="path4096" />
    <path
       id="rect3546"
       style="fill:#ff0000"
       d="M 583.84844,385.12828 C 583.33631,385.12235 582.82256,385.29178 582.32691,385.70792 C 579.4431,388.12909 578.35542,391.95174 581.00341,395.86355 C 582.92665,398.70468 588.61324,406.08882 588.70285,406.20514 L 588.70285,406.24378 C 588.70285,406.24378 588.71717,406.22469 588.71734,406.22446 C 588.71752,406.22469 588.73183,406.24378 588.73183,406.24378 L 588.73183,406.20514 C 588.82153,406.08871 594.50805,398.70466 596.43127,395.86355 C 599.07927,391.95174 597.98917,388.12909 595.10537,385.70792 C 592.28673,383.34145 588.87074,388.96125 588.71734,389.2171 C 588.59277,389.00929 586.24966,385.15612 583.84844,385.12828 z M 584.6937,393.50301 C 585.45618,396.35015 586.00231,398.66942 585.91273,398.67994 C 585.82315,398.69047 585.13162,396.38829 584.36915,393.54115 C 583.60667,390.69401 583.06054,388.37475 583.15012,388.36422 C 583.23638,388.35408 583.87524,390.46713 584.61331,393.20389 M 593.33736,393.5867 C 592.57412,396.43364 591.88745,398.71524 591.80461,398.67956 C 591.72177,398.6439 592.27398,396.30439 593.03722,393.45745 C 593.80046,390.61051 594.48714,388.32891 594.56998,388.36459 C 594.64976,388.39894 594.14649,390.54832 593.41731,393.28745" />
    <path
       id="path3329"
       style="fill:#000000;display:inline"
       d="M 92.422618,67.73862 C 91.691288,67.73819 90.952475,67.78127 90.207106,67.87789 C 81.899333,68.95487 75.846994,76.03139 75.854216,84.15891 C 75.149087,84.16186 74.437739,84.20511 73.719685,84.2982 C 64.695678,85.468 58.324542,93.7116 59.499287,102.69774 C 60.674032,111.68384 68.950034,118.03005 77.974041,116.86023 C 79.546278,116.65641 81.034471,116.22845 82.419753,115.62872 L 75.846863,128.7283 L 108.8217,128.7283 L 102.24882,115.62872 C 104.89665,116.77936 107.87738,117.25841 110.94888,116.86023 C 119.97289,115.69042 126.34403,107.44682 125.16928,98.4607 L 124.49211,95.46987 C 122.2218,88.56255 115.92282,84.12307 108.81435,84.15891 C 108.81372,83.45822 108.7751,82.75363 108.68186,82.04041 L 108.0047,79.04955 C 105.74453,72.17306 99.49209,67.74269 92.422618,67.73862 z M 92.58755,85.3461 C 92.58651,93.1678 92.393446,99.48784 92.156595,99.4533 C 91.919763,99.41876 91.72839,93.04267 91.729429,85.22094 C 91.730487,77.39922 91.923552,71.0792 92.160383,71.11374 C 92.388488,71.147 92.574718,77.00213 92.586937,84.52413 M 74.131067,100.90248 C 76.154463,108.45793 77.603715,114.61259 77.366011,114.64052 C 77.128307,114.66847 75.293185,108.55916 73.26979,101.00368 C 71.246396,93.44822 69.797143,87.29357 70.034848,87.26564 C 70.263787,87.23873 71.959101,92.84615 73.917745,100.10868 M 110.60452,101.2176 C 108.5791,108.77254 106.75686,114.82723 106.53704,114.73259 C 106.3172,114.63792 107.78261,108.42955 109.80803,100.87462 C 111.83344,93.3197 113.65567,87.26498 113.8755,87.35965 C 114.08721,87.45081 112.75169,93.15464 110.81667,100.4235" />
    <g
       id="g2954"
       transform="matrix(0.6997466,0,0,0.6997466,41.142526,23.60493)">
      <rect
         transform="matrix(0.1986935,0,0,0.1986935,168.65616,6.72353)"
         rx="60.60915"
         ry="63.63961"
         y="26.047195"
         x="24.243658"
         height="1006.1119"
         width="709.12708"
         id="rect2936"
         style="opacity:0.91666667;fill:#000000;filter:url(#filter3254)" />
      <rect
         style="fill:#ffffff"
         id="rect2938"
         width="140.89894"
         height="199.9079"
         x="170.66327"
         y="8.2861452"
         ry="12.644777"
         rx="12.042645" />
      <text
         xml:space="preserve"
         style="font-size:225.6577301px;font-style:normal;font-variant:normal;font-weight:normal;font-stretch:normal;fill:#000000;fill-opacity:1;stroke:none;stroke-width:1px;stroke-linecap:butt;stroke-linejoin:miter;stroke-opacity:1;filter:url(#filter4970);font-family:Gemelli;-inkscape-font-specification:Gemelli"
         x="47.257381"
         y="188.40356"
         id="text2940"
         transform="matrix(0.2033525,0,0,0.1941412,168.65616,6.72353)"><tspan
           sodipodi:role="line"
           id="tspan2942"
           x="47.257381"
           y="188.40356">2</tspan></text>
      <text
         transform="matrix(0.2033525,0,0,0.1941412,168.65616,6.72353)"
         id="text2944"
         y="980.57336"
         x="537.01221"
         style="font-size:225.6577301px;font-style:normal;font-variant:normal;font-weight:normal;font-stretch:normal;fill:#000000;fill-opacity:1;stroke:none;stroke-width:1px;stroke-linecap:butt;stroke-linejoin:miter;stroke-opacity:1;filter:url(#filter4966);font-family:Gemelli;-inkscape-font-specification:Gemelli"
         xml:space="preserve"><tspan
           y="980.57336"
           x="537.01221"
           id="tspan2946"
           sodipodi:role="line">2</tspan></text>
    </g>
    <path
       d="M 208.55343,55.14318 C 208.11679,55.14292 207.67567,55.16865 207.23064,55.22633 C 202.27039,55.86935 198.65676,60.09447 198.66108,64.9471 C 198.24008,64.94886 197.81535,64.97469 197.38663,65.03027 C 191.99875,65.72871 188.19479,70.65065 188.89618,76.01592 C 189.59757,81.38118 194.53886,85.17026 199.92675,84.4718 C 200.86547,84.35012 201.75401,84.09459 202.58111,83.73652 L 198.65668,91.55778 L 218.3447,91.55778 L 214.42028,83.73652 C 216.00121,84.42352 217.78089,84.70955 219.61476,84.4718 C 225.00265,83.77336 228.8066,78.85142 228.10522,73.48615 L 227.7009,71.70044 C 226.34539,67.57634 222.58451,64.92571 218.34031,64.9471 C 218.33993,64.52875 218.31688,64.10806 218.26121,63.68223 L 217.8569,61.8965 C 216.50744,57.79081 212.77435,55.1456 208.55343,55.14318 z M 208.65191,65.65593 C 208.65129,70.32597 208.53602,74.09942 208.3946,74.0788 C 208.25321,74.05817 208.13894,70.25125 208.13956,65.58121 C 208.14019,60.91115 208.25547,57.13771 208.39686,57.15833 C 208.53306,57.17819 208.64425,60.67407 208.65154,65.16516 M 197.63226,74.94405 C 198.84035,79.45512 199.70564,83.12983 199.56372,83.1465 C 199.42179,83.16319 198.32611,79.51556 197.11802,75.00447 C 195.90993,70.49339 195.04463,66.81869 195.18656,66.80201 C 195.32325,66.78594 196.33546,70.13392 197.50489,74.4701 M 219.40915,75.13219 C 218.19985,79.64296 217.11187,83.25798 216.98062,83.20147 C 216.84936,83.14495 217.7243,79.43817 218.9336,74.92741 C 220.14289,70.41666 221.23088,66.80162 221.36213,66.85814 C 221.48854,66.91257 220.69115,70.31811 219.53582,74.65807"
       style="fill:#000000;display:inline"
       id="path2962" />
    <path
       id="path2964"
       style="fill:#000000;display:inline"
       d="M 208.55343,105.55271 C 208.11679,105.55245 207.67567,105.57818 207.23064,105.63586 C 202.27039,106.27888 198.65676,110.504 198.66108,115.35663 C 198.24008,115.35839 197.81535,115.38422 197.38663,115.4398 C 191.99875,116.13824 188.19479,121.06019 188.89618,126.42545 C 189.59757,131.79072 194.53886,135.5798 199.92675,134.88134 C 200.86547,134.75965 201.75401,134.50412 202.58111,134.14605 L 198.65668,141.96731 L 218.3447,141.96731 L 214.42028,134.14605 C 216.00121,134.83305 217.78089,135.11908 219.61476,134.88134 C 225.00265,134.18288 228.8066,129.26096 228.10522,123.89568 L 227.7009,122.10997 C 226.34539,117.98588 222.58451,115.33524 218.34031,115.35663 C 218.33993,114.93828 218.31688,114.5176 218.26121,114.09176 L 217.8569,112.30603 C 216.50744,108.20034 212.77435,105.55514 208.55343,105.55271 z M 208.65191,116.06546 C 208.65129,120.7355 208.53602,124.50895 208.3946,124.48833 C 208.25321,124.46771 208.13894,120.66078 208.13956,115.99074 C 208.14019,111.32068 208.25547,107.54724 208.39686,107.56787 C 208.53306,107.58772 208.64425,111.0836 208.65154,115.57469 M 197.63226,125.35358 C 198.84035,129.86465 199.70564,133.53936 199.56372,133.55604 C 199.42179,133.57273 198.32611,129.92509 197.11802,125.414 C 195.90993,120.90292 195.04463,117.22822 195.18656,117.21154 C 195.32325,117.19547 196.33546,120.54345 197.50489,124.87963 M 219.40915,125.54172 C 218.19985,130.05249 217.11187,133.66751 216.98062,133.611 C 216.84936,133.55448 217.7243,129.8477 218.9336,125.33695 C 220.14289,120.82619 221.23088,117.21115 221.36213,117.26767 C 221.48854,117.3221 220.69115,120.72764 219.53582,125.0676" />
    <g
       id="g2988"
       transform="matrix(0.6997466,0,0,0.6997466,41.142526,23.60493)">
      <rect
         transform="matrix(0.1986935,0,0,0.1986935,332.65616,7.72353)"
         rx="60.60915"
         ry="63.63961"
         y="26.047195"
         x="24.243658"
         height="1006.1119"
         width="709.12708"
         id="rect2970"
         style="opacity:0.91666667;fill:#000000;filter:url(#filter3254)" />
      <rect
         style="fill:#ffffff"
         id="rect2972"
         width="140.89894"
         height="199.9079"
         x="334.66327"
         y="9.2861452"
         ry="12.644777"
         rx="12.042645" />
      <text
         xml:space="preserve"
         style="font-size:225.6577301px;font-style:normal;font-variant:normal;font-weight:normal;font-stretch:normal;fill:#000000;fill-opacity:1;stroke:none;stroke-width:1px;stroke-linecap:butt;stroke-linejoin:miter;stroke-opacity:1;filter:url(#filter4970);font-family:Gemelli;-inkscape-font-specification:Gemelli"
         x="47.257381"
         y="188.40356"
         id="text2974"
         transform="matrix(0.2033525,0,0,0.1941412,332.65616,7.72353)"><tspan
           sodipodi:role="line"
           id="tspan2976"
           x="47.257381"
           y="188.40356">3</tspan></text>
      <text
         transform="matrix(0.2033525,0,0,0.1941412,332.65616,7.72353)"
         id="text2978"
         y="980.57336"
         x="537.01221"
         style="font-size:225.6577301px;font-style:normal;font-variant:normal;font-weight:normal;font-stretch:normal;fill:#000000;fill-opacity:1;stroke:none;stroke-width:1px;stroke-linecap:butt;stroke-linejoin:miter;stroke-opacity:1;filter:url(#filter4966);font-family:Gemelli;-inkscape-font-specification:Gemelli"
         xml:space="preserve"><tspan
           y="980.57336"
           x="537.01221"
           id="tspan2980"
           sodipodi:role="line">3</tspan></text>
    </g>
    <path
       d="M 322.94607,48.17348 C 322.64135,48.1733 322.3335,48.19126 322.02291,48.23151 C 318.56119,48.68028 316.03927,51.62896 316.04228,55.01557 C 315.74846,55.0168 315.45205,55.03482 315.15285,55.07361 C 311.39269,55.56105 308.73793,58.99604 309.22742,62.74041 C 309.71692,66.48479 313.16541,69.12916 316.92557,68.64171 C 317.5807,68.55679 318.20081,68.37846 318.77803,68.12856 L 316.03921,73.58696 L 329.77933,73.58696 L 327.04051,68.12856 C 328.14382,68.60802 329.38585,68.80763 330.66569,68.64171 C 334.42586,68.15427 337.08061,64.71929 336.59112,60.97491 L 336.30895,59.72867 C 335.36295,56.8505 332.73826,55.00064 329.77627,55.01557 C 329.776,54.72361 329.75991,54.43001 329.72106,54.13282 L 329.4389,52.88658 C 328.49712,50.02125 325.89182,48.17518 322.94607,48.17348 z M 323.0148,55.51026 C 323.01437,58.76944 322.93392,61.4029 322.83523,61.38851 C 322.73655,61.37412 322.65681,58.7173 322.65724,55.45811 C 322.65768,52.19891 322.73813,49.56545 322.83681,49.57985 C 322.93186,49.5937 323.00946,52.03345 323.01454,55.16775 M 315.32427,61.99236 C 316.16738,65.1406 316.77127,67.70516 316.67222,67.7168 C 316.57317,67.72844 315.8085,65.18278 314.96539,62.03453 C 314.12227,58.88628 313.51839,56.32173 313.61744,56.3101 C 313.71283,56.29888 314.41924,58.63541 315.23538,61.6616 M 330.5222,62.12366 C 329.67824,65.2717 328.91894,67.7946 328.82735,67.75516 C 328.73574,67.71571 329.34636,65.12878 330.19032,61.98076 C 331.03428,58.83273 331.79357,56.30982 331.88517,56.34927 C 331.97339,56.38726 331.4169,58.76395 330.6106,61.79278"
       style="fill:#000000;display:inline"
       id="path2996" />
    <path
       id="path2998"
       style="fill:#000000;display:inline"
       d="M 322.94607,84.64296 C 322.64135,84.64278 322.3335,84.66073 322.02291,84.70099 C 318.56119,85.14975 316.03927,88.09843 316.04228,91.48504 C 315.74846,91.48627 315.45205,91.50429 315.15285,91.54308 C 311.39269,92.03052 308.73793,95.46551 309.22742,99.20989 C 309.71692,102.95426 313.16541,105.59863 316.92557,105.11118 C 317.5807,105.02626 318.20081,104.84793 318.77803,104.59804 L 316.03921,110.05643 L 329.77933,110.05643 L 327.04051,104.59804 C 328.14382,105.07749 329.38585,105.2771 330.66569,105.11118 C 334.42586,104.62374 337.08061,101.18877 336.59112,97.44438 L 336.30895,96.19815 C 335.36295,93.31998 332.73826,91.47011 329.77627,91.48504 C 329.776,91.19308 329.75991,90.89949 329.72106,90.6023 L 329.4389,89.35605 C 328.49712,86.49072 325.89182,84.64465 322.94607,84.64296 z M 323.0148,91.97973 C 323.01437,95.23891 322.93392,97.87237 322.83523,97.85798 C 322.73655,97.84359 322.65681,95.18677 322.65724,91.92758 C 322.65768,88.66838 322.73813,86.03492 322.83681,86.04932 C 322.93186,86.06318 323.00946,88.50292 323.01454,91.63722 M 315.32427,98.46183 C 316.16738,101.61008 316.77127,104.17463 316.67222,104.18627 C 316.57317,104.19791 315.8085,101.65226 314.96539,98.50401 C 314.12227,95.35576 313.51839,92.79121 313.61744,92.77957 C 313.71283,92.76835 314.41924,95.10488 315.23538,98.13107 M 330.5222,98.59313 C 329.67824,101.74117 328.91894,104.26407 328.82735,104.22463 C 328.73574,104.18519 329.34636,101.59825 330.19032,98.45022 C 331.03428,95.3022 331.79357,92.7793 331.88517,92.81874 C 331.97339,92.85673 331.4169,95.23343 330.6106,98.26225" />
    <path
       d="M 322.94607,121.11244 C 322.64135,121.11225 322.3335,121.13021 322.02291,121.17047 C 318.56119,121.61923 316.03927,124.5679 316.04228,127.95452 C 315.74846,127.95574 315.45205,127.97377 315.15285,128.01255 C 311.39269,128.49999 308.73793,131.93498 309.22742,135.67936 C 309.71692,139.42373 313.16541,142.06811 316.92557,141.58065 C 317.5807,141.49573 318.20081,141.3174 318.77803,141.06751 L 316.03921,146.5259 L 329.77933,146.5259 L 327.04051,141.06751 C 328.14382,141.54696 329.38585,141.74657 330.66569,141.58065 C 334.42586,141.09321 337.08061,137.65824 336.59112,133.91385 L 336.30895,132.66762 C 335.36295,129.78944 332.73826,127.93958 329.77627,127.95452 C 329.776,127.66255 329.75991,127.36895 329.72106,127.07176 L 329.4389,125.82552 C 328.49712,122.9602 325.89182,121.11413 322.94607,121.11244 z M 323.0148,128.4492 C 323.01437,131.70838 322.93392,134.34185 322.83523,134.32745 C 322.73655,134.31307 322.65681,131.65624 322.65724,128.39705 C 322.65768,125.13786 322.73813,122.5044 322.83681,122.5188 C 322.93186,122.53266 323.00946,124.9724 323.01454,128.1067 M 315.32427,134.93131 C 316.16738,138.07955 316.77127,140.64411 316.67222,140.65574 C 316.57317,140.66739 315.8085,138.12173 314.96539,134.97348 C 314.12227,131.82523 313.51839,129.26068 313.61744,129.24904 C 313.71283,129.23782 314.41924,131.57435 315.23538,134.60054 M 330.5222,135.06261 C 329.67824,138.21064 328.91894,140.73354 328.82735,140.6941 C 328.73574,140.65466 329.34636,138.06772 330.19032,134.9197 C 331.03428,131.77168 331.79357,129.24877 331.88517,129.28821 C 331.97339,129.3262 331.4169,131.7029 330.6106,134.73172"
       style="fill:#000000;display:inline"
       id="path3000" />
    <g
       id="g3022"
       transform="matrix(0.6997466,0,0,0.6997466,41.142526,23.60493)">
      <rect
         transform="matrix(0.1986935,0,0,0.1986935,493.65616,7.72353)"
         rx="60.60915"
         ry="63.63961"
         y="26.047195"
         x="24.243658"
         height="1006.1119"
         width="709.12708"
         id="rect3004"
         style="opacity:0.91666667;fill:#000000;filter:url(#filter3254)" />
      <rect
         style="fill:#ffffff"
         id="rect3006"
         width="140.89894"
         height="199.9079"
         x="495.66327"
         y="9.2861452"
         ry="12.644777"
         rx="12.042645" />
      <text
         xml:space="preserve"
         style="font-size:225.6577301px;font-style:normal;font-variant:normal;font-weight:normal;font-stretch:normal;fill:#000000;fill-opacity:1;stroke:none;stroke-width:1px;stroke-linecap:butt;stroke-linejoin:miter;stroke-opacity:1;filter:url(#filter4970);font-family:Gemelli;-inkscape-font-specification:Gemelli"
         x="47.257381"
         y="188.40356"
         id="text3008"
         transform="matrix(0.2033525,0,0,0.1941412,493.65616,7.72353)"><tspan
           sodipodi:role="line"
           id="tspan3010"
           x="47.257381"
           y="188.40356">4</tspan></text>
      <text
         transform="matrix(0.2033525,0,0,0.1941412,493.65616,7.72353)"
         id="text3012"
         y="980.57336"
         x="537.01221"
         style="font-size:225.6577301px;font-style:normal;font-variant:normal;font-weight:normal;font-stretch:normal;fill:#000000;fill-opacity:1;stroke:none;stroke-width:1px;stroke-linecap:butt;stroke-linejoin:miter;stroke-opacity:1;filter:url(#filter4966);font-family:Gemelli;-inkscape-font-specification:Gemelli"
         xml:space="preserve"><tspan
           y="980.57336"
           x="537.01221"
           id="tspan3014"
           sodipodi:role="line">4</tspan></text>
    </g>
    <path
       id="path3030"
       style="fill:#000000;display:inline"
       d="M 416.01238,61.46867 C 415.70765,61.46849 415.3998,61.48645 415.08922,61.5267 C 411.62749,61.97546 409.10557,64.92414 409.10858,68.31076 C 408.81476,68.31198 408.51835,68.33001 408.21915,68.3688 C 404.45899,68.85623 401.80423,72.29122 402.29373,76.0356 C 402.78323,79.77998 406.23171,82.42435 409.99188,81.9369 C 410.64701,81.85198 411.26712,81.67365 411.84434,81.42375 L 409.10551,86.88214 L 422.84563,86.88214 L 420.10681,81.42375 C 421.21012,81.9032 422.45215,82.10282 423.732,81.9369 C 427.49216,81.44945 430.14692,78.01448 429.65742,74.2701 L 429.37526,73.02386 C 428.42926,70.14568 425.80456,68.29582 422.84257,68.31076 C 422.8423,68.01879 422.82622,67.7252 422.78736,67.42801 L 422.5052,66.18176 C 421.56342,63.31643 418.95812,61.47036 416.01238,61.46867 z M 416.08111,68.80544 C 416.08067,72.06462 416.00022,74.69809 415.90154,74.6837 C 415.80285,74.66931 415.72311,72.01248 415.72354,68.75329 C 415.72398,65.49409 415.80443,62.86064 415.90311,62.87503 C 415.99816,62.88889 416.07576,65.32863 416.08085,68.46294 M 408.39057,75.28755 C 409.23369,78.43579 409.83757,81.00035 409.73853,81.01198 C 409.63947,81.02363 408.87481,78.47797 408.03169,75.32972 C 407.18857,72.18147 406.58469,69.61692 406.68374,69.60528 C 406.77914,69.59407 407.48555,71.9306 408.30168,74.95678 M 423.58851,75.41885 C 422.74454,78.56688 421.98525,81.08978 421.89365,81.05034 C 421.80205,81.0109 422.41266,78.42396 423.25662,75.27594 C 424.10058,72.12792 424.85988,69.60501 424.95147,69.64445 C 425.03969,69.68244 424.4832,72.05914 423.67691,75.08797" />
    <path
       d="M 453.98858,61.46867 C 453.68385,61.46849 453.376,61.48645 453.06542,61.5267 C 449.60369,61.97546 447.08177,64.92414 447.08478,68.31076 C 446.79096,68.31198 446.49455,68.33001 446.19535,68.3688 C 442.4352,68.85623 439.78043,72.29122 440.26993,76.0356 C 440.75943,79.77998 444.20791,82.42435 447.96808,81.9369 C 448.62321,81.85198 449.24332,81.67365 449.82054,81.42375 L 447.08172,86.88214 L 460.82184,86.88214 L 458.08301,81.42375 C 459.18633,81.9032 460.42835,82.10282 461.7082,81.9369 C 465.46836,81.44945 468.12312,78.01448 467.63363,74.2701 L 467.35146,73.02386 C 466.40546,70.14568 463.78076,68.29582 460.81877,68.31076 C 460.81851,68.01879 460.80242,67.7252 460.76356,67.42801 L 460.4814,66.18176 C 459.53962,63.31643 456.93432,61.47036 453.98858,61.46867 z M 454.05731,68.80544 C 454.05687,72.06462 453.97643,74.69809 453.87774,74.6837 C 453.77905,74.66931 453.69931,72.01248 453.69975,68.75329 C 453.70019,65.49409 453.78064,62.86064 453.87931,62.87503 C 453.97436,62.88889 454.05196,65.32863 454.05705,68.46294 M 446.36677,75.28755 C 447.20989,78.43579 447.81377,81.00035 447.71473,81.01198 C 447.61567,81.02363 446.85101,78.47797 446.00789,75.32972 C 445.16477,72.18147 444.56089,69.61692 444.65994,69.60528 C 444.75534,69.59407 445.46175,71.9306 446.27788,74.95678 M 461.56471,75.41885 C 460.72074,78.56688 459.96145,81.08978 459.86985,81.05034 C 459.77825,81.0109 460.38886,78.42396 461.23283,75.27594 C 462.07678,72.12792 462.83608,69.60501 462.92768,69.64445 C 463.01589,69.68244 462.4594,72.05914 461.65311,75.08797"
       style="fill:#000000;display:inline"
       id="path3032" />
    <path
       id="path3034"
       style="fill:#000000;display:inline"
       d="M 416.01238,107.87454 C 415.70765,107.87436 415.3998,107.89232 415.08922,107.93257 C 411.62749,108.38134 409.10557,111.33001 409.10858,114.71663 C 408.81476,114.71786 408.51835,114.73588 408.21915,114.77467 C 404.45899,115.26211 401.80423,118.6971 402.29373,122.44148 C 402.78323,126.18585 406.23171,128.83022 409.99188,128.34277 C 410.64701,128.25785 411.26712,128.07952 411.84434,127.82963 L 409.10551,133.28802 L 422.84563,133.28802 L 420.10681,127.82963 C 421.21012,128.30908 422.45215,128.50869 423.732,128.34277 C 427.49216,127.85533 430.14692,124.42035 429.65742,120.67597 L 429.37526,119.42973 C 428.42926,116.55156 425.80456,114.7017 422.84257,114.71663 C 422.8423,114.42467 422.82622,114.13107 422.78736,113.83388 L 422.5052,112.58764 C 421.56342,109.72231 418.95812,107.87624 416.01238,107.87454 z M 416.08111,115.21132 C 416.08067,118.4705 416.00022,121.10396 415.90154,121.08957 C 415.80285,121.07518 415.72311,118.41836 415.72354,115.15917 C 415.72398,111.89997 415.80443,109.26652 415.90311,109.28091 C 415.99816,109.29476 416.07576,111.73451 416.08085,114.86881 M 408.39057,121.69342 C 409.23369,124.84167 409.83757,127.40622 409.73853,127.41786 C 409.63947,127.4295 408.87481,124.88385 408.03169,121.7356 C 407.18857,118.58734 406.58469,116.02279 406.68374,116.01116 C 406.77914,115.99994 407.48555,118.33647 408.30168,121.36266 M 423.58851,121.82472 C 422.74454,124.97276 421.98525,127.49566 421.89365,127.45622 C 421.80205,127.41678 422.41266,124.82984 423.25662,121.68182 C 424.10058,118.53379 424.85988,116.01088 424.95147,116.05033 C 425.03969,116.08832 424.4832,118.46501 423.67691,121.49384" />
    <path
       d="M 453.98858,107.87454 C 453.68385,107.87436 453.376,107.89232 453.06542,107.93257 C 449.60369,108.38134 447.08177,111.33001 447.08478,114.71663 C 446.79096,114.71786 446.49455,114.73588 446.19535,114.77467 C 442.4352,115.26211 439.78043,118.6971 440.26993,122.44148 C 440.75943,126.18585 444.20791,128.83022 447.96808,128.34277 C 448.62321,128.25785 449.24332,128.07952 449.82054,127.82963 L 447.08172,133.28802 L 460.82184,133.28802 L 458.08301,127.82963 C 459.18633,128.30908 460.42835,128.50869 461.7082,128.34277 C 465.46836,127.85533 468.12312,124.42035 467.63363,120.67597 L 467.35146,119.42973 C 466.40546,116.55156 463.78076,114.7017 460.81877,114.71663 C 460.81851,114.42467 460.80242,114.13107 460.76356,113.83388 L 460.4814,112.58764 C 459.53962,109.72231 456.93432,107.87624 453.98858,107.87454 z M 454.05731,115.21132 C 454.05687,118.4705 453.97643,121.10396 453.87774,121.08957 C 453.77905,121.07518 453.69931,118.41836 453.69975,115.15917 C 453.70019,111.89997 453.78064,109.26652 453.87931,109.28091 C 453.97436,109.29476 454.05196,111.73451 454.05705,114.86881 M 446.36677,121.69342 C 447.20989,124.84167 447.81377,127.40622 447.71473,127.41786 C 447.61567,127.4295 446.85101,124.88385 446.00789,121.7356 C 445.16477,118.58734 444.56089,116.02279 444.65994,116.01116 C 444.75534,115.99994 445.46175,118.33647 446.27788,121.36266 M 461.56471,121.82472 C 460.72074,124.97276 459.96145,127.49566 459.86985,127.45622 C 459.77825,127.41678 460.38886,124.82984 461.23283,121.68182 C 462.07678,118.53379 462.83608,116.01088 462.92768,116.05033 C 463.01589,116.08832 462.4594,118.46501 461.65311,121.49384"
       style="fill:#000000;display:inline"
       id="path3036" />
    <g
       transform="matrix(0.1390351,0,0,0.1390351,499.23597,30.40894)"
       inkscape:label="Layer 1"
       id="g3052"
       style="display:inline">
      <rect
         rx="60.60915"
         ry="63.63961"
         y="26.047195"
         x="24.243658"
         height="1006.1119"
         width="709.12708"
         id="rect3054"
         style="opacity:0.91666667;fill:#000000;filter:url(#filter3254)" />
      <rect
         style="fill:#ffffff"
         id="rect3056"
         width="709.12708"
         height="1006.1119"
         x="10.101523"
         y="7.8644519"
         ry="63.63961"
         rx="60.60915" />
      <text
         xml:space="preserve"
         style="font-size:225.6577301px;font-style:normal;font-variant:normal;font-weight:normal;font-stretch:normal;fill:#000000;fill-opacity:1;stroke:none;stroke-width:1px;stroke-linecap:butt;stroke-linejoin:miter;stroke-opacity:1;filter:url(#filter4970);font-family:Gemelli;-inkscape-font-specification:Gemelli"
         x="47.257381"
         y="188.40356"
         id="text3058"
         transform="scale(1.0234483,0.9770889)"><tspan
           sodipodi:role="line"
           id="tspan3060"
           x="47.257381"
           y="188.40356">5</tspan></text>
      <text
         transform="scale(1.0234483,0.9770889)"
         id="text3062"
         y="980.57336"
         x="537.01221"
         style="font-size:225.6577301px;font-style:normal;font-variant:normal;font-weight:normal;font-stretch:normal;fill:#000000;fill-opacity:1;stroke:none;stroke-width:1px;stroke-linecap:butt;stroke-linejoin:miter;stroke-opacity:1;filter:url(#filter4966);font-family:Gemelli;-inkscape-font-specification:Gemelli"
         xml:space="preserve"><tspan
           y="980.57336"
           x="537.01221"
           id="tspan3064"
           sodipodi:role="line">5</tspan></text>
    </g>
    <path
       d="M 527.97184,56.79304 C 527.66711,56.79286 527.35926,56.81081 527.04868,56.85107 C 523.58695,57.29983 521.06503,60.24851 521.06804,63.63513 C 520.77423,63.63635 520.47781,63.65438 520.17862,63.69316 C 516.41846,64.1806 513.76369,67.61559 514.25319,71.35997 C 514.74269,75.10435 518.19117,77.74872 521.95134,77.26127 C 522.60647,77.17634 523.22658,76.99801 523.8038,76.74812 L 521.06498,82.20652 L 534.8051,82.20652 L 532.06627,76.74812 C 533.16959,77.22757 534.41162,77.42718 535.69146,77.26127 C 539.45162,76.77382 542.10638,73.33885 541.61689,69.59446 L 541.33472,68.34823 C 540.38872,65.47005 537.76402,63.62019 534.80203,63.63513 C 534.80177,63.34317 534.78568,63.04957 534.74682,62.75238 L 534.46466,61.50613 C 533.52288,58.6408 530.91758,56.79473 527.97184,56.79304 z M 528.04057,64.12981 C 528.04014,67.389 527.95969,70.02246 527.861,70.00806 C 527.76232,69.99368 527.68257,67.33685 527.68301,64.07766 C 527.68345,60.81847 527.7639,58.18501 527.86257,58.1994 C 527.95762,58.21326 528.03522,60.653 528.04031,63.78731 M 520.35003,70.61192 C 521.19315,73.76016 521.79703,76.32472 521.69799,76.33635 C 521.59893,76.348 520.83427,73.80234 519.99115,70.65409 C 519.14804,67.50584 518.54415,64.94129 518.6432,64.92965 C 518.7386,64.91843 519.44501,67.25497 520.26114,70.28115 M 535.54797,70.74322 C 534.704,73.89125 533.94471,76.41415 533.85311,76.37471 C 533.76151,76.33527 534.37212,73.74833 535.21609,70.60031 C 536.06004,67.45229 536.81934,64.92938 536.91094,64.96882 C 536.99915,65.00681 536.44267,67.38351 535.63637,70.41233"
       style="fill:#000000;display:inline"
       id="path3066" />
    <path
       id="path3068"
       style="fill:#000000;display:inline"
       d="M 565.94804,56.79304 C 565.64332,56.79286 565.33546,56.81081 565.02488,56.85107 C 561.56316,57.29983 559.04123,60.24851 559.04424,63.63513 C 558.75043,63.63635 558.45401,63.65438 558.15482,63.69316 C 554.39466,64.1806 551.7399,67.61559 552.22939,71.35997 C 552.71889,75.10435 556.16738,77.74872 559.92754,77.26127 C 560.58267,77.17634 561.20278,76.99801 561.78,76.74812 L 559.04118,82.20652 L 572.7813,82.20652 L 570.04248,76.74812 C 571.14579,77.22757 572.38782,77.42718 573.66766,77.26127 C 577.42783,76.77382 580.08258,73.33885 579.59309,69.59446 L 579.31092,68.34823 C 578.36492,65.47005 575.74023,63.62019 572.77823,63.63513 C 572.77797,63.34317 572.76188,63.04957 572.72302,62.75238 L 572.44087,61.50613 C 571.49908,58.6408 568.89379,56.79473 565.94804,56.79304 z M 566.01677,64.12981 C 566.01634,67.389 565.93589,70.02246 565.8372,70.00806 C 565.73852,69.99368 565.65877,67.33685 565.65921,64.07766 C 565.65965,60.81847 565.7401,58.18501 565.83878,58.1994 C 565.93382,58.21326 566.01143,60.653 566.01651,63.78731 M 558.32623,70.61192 C 559.16935,73.76016 559.77323,76.32472 559.67419,76.33635 C 559.57513,76.348 558.81047,73.80234 557.96735,70.65409 C 557.12424,67.50584 556.52036,64.94129 556.6194,64.92965 C 556.7148,64.91843 557.42121,67.25497 558.23735,70.28115 M 573.52417,70.74322 C 572.68021,73.89125 571.92091,76.41415 571.82931,76.37471 C 571.73771,76.33527 572.34832,73.74833 573.19229,70.60031 C 574.03625,67.45229 574.79554,64.92938 574.88714,64.96882 C 574.97535,65.00681 574.41887,67.38351 573.61257,70.41233" />
    <path
       id="path3070"
       style="fill:#000000;display:inline"
       d="M 528.67159,120.46998 C 528.36686,120.4698 528.05901,120.48776 527.74843,120.52801 C 524.2867,120.97678 521.76478,123.92545 521.76779,127.31207 C 521.47397,127.3133 521.17756,127.33132 520.87836,127.37011 C 517.1182,127.85755 514.46344,131.29254 514.95294,135.03692 C 515.44244,138.78129 518.89092,141.42566 522.65109,140.93821 C 523.30622,140.85329 523.92633,140.67496 524.50355,140.42507 L 521.76472,145.88346 L 535.50484,145.88346 L 532.76602,140.42507 C 533.86933,140.90452 535.11136,141.10413 536.39121,140.93821 C 540.15137,140.45077 542.80613,137.01579 542.31663,133.27141 L 542.03447,132.02517 C 541.08847,129.147 538.46377,127.29714 535.50178,127.31207 C 535.50151,127.02011 535.48543,126.72651 535.44657,126.42932 L 535.16441,125.18308 C 534.22263,122.31775 531.61733,120.47168 528.67159,120.46998 z M 528.74032,127.80676 C 528.73988,131.06594 528.65943,133.6994 528.56075,133.68501 C 528.46206,133.67062 528.38232,131.01379 528.38275,127.75461 C 528.38319,124.49541 528.46364,121.86196 528.56232,121.87635 C 528.65737,121.8902 528.73497,124.32995 528.74006,127.46425 M 521.04978,134.28886 C 521.8929,137.4371 522.49678,140.00166 522.39774,140.0133 C 522.29868,140.02494 521.53402,137.47929 520.6909,134.33103 C 519.84778,131.18278 519.2439,128.61823 519.34295,128.6066 C 519.43835,128.59538 520.14475,130.93191 520.96089,133.9581 M 536.24772,134.42016 C 535.40375,137.5682 534.64446,140.0911 534.55286,140.05166 C 534.46126,140.01221 535.07187,137.42528 535.91583,134.27726 C 536.75979,131.12923 537.51909,128.60632 537.61068,128.64577 C 537.6989,128.68376 537.14241,131.06045 536.33611,134.08928" />
    <path
       d="M 566.64779,120.46998 C 566.34306,120.4698 566.03521,120.48776 565.72463,120.52801 C 562.2629,120.97678 559.74098,123.92545 559.74399,127.31207 C 559.45017,127.3133 559.15376,127.33132 558.85456,127.37011 C 555.09441,127.85755 552.43964,131.29254 552.92914,135.03692 C 553.41864,138.78129 556.86712,141.42566 560.62729,140.93821 C 561.28242,140.85329 561.90253,140.67496 562.47975,140.42507 L 559.74093,145.88346 L 573.48105,145.88346 L 570.74222,140.42507 C 571.84553,140.90452 573.08756,141.10413 574.36741,140.93821 C 578.12757,140.45077 580.78233,137.01579 580.29283,133.27141 L 580.01067,132.02517 C 579.06467,129.147 576.43997,127.29714 573.47798,127.31207 C 573.47771,127.02011 573.46163,126.72651 573.42277,126.42932 L 573.14061,125.18308 C 572.19883,122.31775 569.59353,120.47168 566.64779,120.46998 z M 566.71652,127.80676 C 566.71608,131.06594 566.63563,133.6994 566.53695,133.68501 C 566.43826,133.67062 566.35852,131.01379 566.35895,127.75461 C 566.3594,124.49541 566.43985,121.86196 566.53852,121.87635 C 566.63357,121.8902 566.71117,124.32995 566.71626,127.46425 M 559.02598,134.28886 C 559.8691,137.4371 560.47298,140.00166 560.37394,140.0133 C 560.27488,140.02494 559.51022,137.47929 558.6671,134.33103 C 557.82398,131.18278 557.2201,128.61823 557.31915,128.6066 C 557.41455,128.59538 558.12096,130.93191 558.93709,133.9581 M 574.22392,134.42016 C 573.37995,137.5682 572.62066,140.0911 572.52906,140.05166 C 572.43746,140.01221 573.04807,137.42528 573.89203,134.27726 C 574.73599,131.12923 575.49529,128.60632 575.58688,128.64577 C 575.6751,128.68376 575.11861,131.06045 574.31232,134.08928"
       style="fill:#000000;display:inline"
       id="path3072" />
    <path
       id="path3074"
       style="fill:#000000;display:inline"
       d="M 545.46551,89.68113 C 545.16078,89.68095 544.85293,89.69891 544.54234,89.73916 C 541.08062,90.18792 538.5587,93.1366 538.56171,96.52322 C 538.26789,96.52444 537.97148,96.54247 537.67228,96.58126 C 533.91212,97.06869 531.25736,100.50369 531.74685,104.24807 C 532.23636,107.99244 535.68484,110.63681 539.44501,110.14936 C 540.10014,110.06444 540.72024,109.88611 541.29747,109.63621 L 538.55864,115.09461 L 552.29876,115.09461 L 549.55994,109.63621 C 550.66325,110.11567 551.90528,110.31527 553.18513,110.14936 C 556.94529,109.66191 559.60005,106.22694 559.11055,102.48256 L 558.82839,101.23632 C 557.88238,98.35814 555.25769,96.50829 552.2957,96.52322 C 552.29543,96.23126 552.27935,95.93766 552.24049,95.64047 L 551.95833,94.39423 C 551.01655,91.5289 548.41125,89.68283 545.46551,89.68113 z M 545.53424,97.01791 C 545.5338,100.27709 545.45335,102.91055 545.35467,102.89616 C 545.25598,102.88177 545.17624,100.22494 545.17667,96.96575 C 545.17711,93.70656 545.25756,91.0731 545.35624,91.0875 C 545.45129,91.10135 545.52889,93.5411 545.53398,96.6754 M 537.8437,103.50001 C 538.68682,106.64825 539.2907,109.21281 539.19165,109.22445 C 539.0926,109.23609 538.32794,106.69043 537.48482,103.54218 C 536.6417,100.39393 536.03782,97.82938 536.13687,97.81774 C 536.23227,97.80653 536.93867,100.14306 537.75481,103.16925 M 553.04164,103.63131 C 552.19767,106.77934 551.43838,109.30224 551.34678,109.26281 C 551.25518,109.22336 551.86579,106.63643 552.70975,103.48841 C 553.55371,100.34038 554.313,97.81747 554.4046,97.85692 C 554.49282,97.89491 553.93633,100.2716 553.13003,103.30043" />
    <g
       transform="matrix(0.1390351,0,0,0.1390351,42.301418,194.14965)"
       inkscape:label="Layer 1"
       id="g3076"
       style="display:inline">
      <rect
         rx="60.60915"
         ry="63.63961"
         y="26.047195"
         x="24.243658"
         height="1006.1119"
         width="709.12708"
         id="rect3078"
         style="opacity:0.91666667;fill:#000000;filter:url(#filter3254)" />
      <rect
         style="fill:#ffffff"
         id="rect3080"
         width="709.12708"
         height="1006.1119"
         x="10.101523"
         y="7.8644519"
         ry="63.63961"
         rx="60.60915" />
      <text
         xml:space="preserve"
         style="font-size:225.6577301px;font-style:normal;font-variant:normal;font-weight:normal;font-stretch:normal;fill:#000000;fill-opacity:1;stroke:none;stroke-width:1px;stroke-linecap:butt;stroke-linejoin:miter;stroke-opacity:1;filter:url(#filter4970);font-family:Gemelli;-inkscape-font-specification:Gemelli"
         x="47.257381"
         y="188.40356"
         id="text3082"
         transform="scale(1.0234483,0.9770889)"><tspan
           sodipodi:role="line"
           id="tspan3084"
           x="47.257381"
           y="188.40356">6</tspan></text>
      <text
         transform="scale(1.0234483,0.9770889)"
         id="text3086"
         y="980.57336"
         x="537.01221"
         style="font-size:225.6577301px;font-style:normal;font-variant:normal;font-weight:normal;font-stretch:normal;fill:#000000;fill-opacity:1;stroke:none;stroke-width:1px;stroke-linecap:butt;stroke-linejoin:miter;stroke-opacity:1;filter:url(#filter4966);font-family:Gemelli;-inkscape-font-specification:Gemelli"
         xml:space="preserve"><tspan
           y="980.57336"
           x="537.01221"
           id="tspan3088"
           sodipodi:role="line">6</tspan></text>
    </g>
    <path
       id="path3090"
       style="fill:#000000;display:inline"
       d="M 71.73703,217.51217 C 71.432305,217.51199 71.124451,217.52994 70.813869,217.5702 C 67.352145,218.01896 64.830223,220.96764 64.833232,224.35426 C 64.539415,224.35548 64.243003,224.37351 63.943805,224.4123 C 60.183647,224.89973 57.528885,228.33473 58.018378,232.0791 C 58.507879,235.82348 61.956364,238.46785 65.716529,237.9804 C 66.37166,237.89548 66.991768,237.71715 67.568989,237.46725 L 64.830167,242.92565 L 78.570287,242.92565 L 75.831465,237.46725 C 76.934776,237.9467 78.176806,238.14631 79.456649,237.9804 C 83.216815,237.49295 85.87157,234.05798 85.382076,230.31359 L 85.09991,229.06736 C 84.153909,226.18918 81.529215,224.33933 78.567222,224.35426 C 78.566956,224.0623 78.550869,223.7687 78.512012,223.47151 L 78.229853,222.22527 C 77.288071,219.35994 74.682775,217.51386 71.73703,217.51217 z M 71.805759,224.84894 C 71.805326,228.10813 71.724876,230.74159 71.62619,230.72719 C 71.527505,230.71281 71.447762,228.05598 71.448196,224.79679 C 71.448637,221.5376 71.529087,218.90413 71.627765,218.91854 C 71.722811,218.93239 71.800413,221.37213 71.805501,224.50644 M 64.115222,231.33105 C 64.95834,234.47929 65.562221,237.04385 65.463179,237.05549 C 65.364123,237.06713 64.599461,234.52147 63.756343,231.37322 C 62.913225,228.22497 62.309344,225.66042 62.408393,225.64878 C 62.503789,225.63757 63.210198,227.9741 64.026333,231.00028 M 79.313159,231.46235 C 78.469195,234.61038 77.7099,237.13328 77.618303,237.09385 C 77.526699,237.0544 78.137312,234.46747 78.981276,231.31944 C 79.825234,228.17142 80.584529,225.64851 80.676126,225.68795 C 80.764343,225.72594 80.207855,228.10264 79.401558,231.13147" />
    <path
       d="M 71.73703,253.42185 C 71.432305,253.42166 71.124451,253.43962 70.813869,253.47988 C 67.352145,253.92864 64.830223,256.87732 64.833232,260.26393 C 64.539415,260.26516 64.243003,260.28318 63.943805,260.32197 C 60.183647,260.80941 57.528885,264.2444 58.018378,267.98878 C 58.507879,271.73315 61.956364,274.37752 65.716529,273.89007 C 66.37166,273.80515 66.991768,273.62682 67.568989,273.37693 L 64.830167,278.83532 L 78.570287,278.83532 L 75.831465,273.37693 C 76.934776,273.85638 78.176806,274.05599 79.456649,273.89007 C 83.216815,273.40263 85.87157,269.96766 85.382076,266.22327 L 85.09991,264.97704 C 84.153909,262.09887 81.529215,260.249 78.567222,260.26393 C 78.566956,259.97197 78.550869,259.67838 78.512012,259.38119 L 78.229853,258.13494 C 77.288071,255.26961 74.682775,253.42354 71.73703,253.42185 z M 71.805759,260.75862 C 71.805326,264.0178 71.724876,266.65126 71.62619,266.63687 C 71.527505,266.62248 71.447762,263.96566 71.448196,260.70647 C 71.448637,257.44727 71.529087,254.81382 71.627765,254.82821 C 71.722811,254.84207 71.800413,257.28181 71.805501,260.41611 M 64.115222,267.24072 C 64.95834,270.38897 65.562221,272.95352 65.463179,272.96516 C 65.364123,272.9768 64.599461,270.43115 63.756343,267.2829 C 62.913225,264.13465 62.309344,261.5701 62.408393,261.55846 C 62.503789,261.54724 63.210198,263.88377 64.026333,266.90996 M 79.313159,267.37202 C 78.469195,270.52006 77.7099,273.04296 77.618303,273.00352 C 77.526699,272.96408 78.137312,270.37714 78.981276,267.22911 C 79.825234,264.08109 80.584529,261.55819 80.676126,261.59763 C 80.764343,261.63562 80.207855,264.01232 79.401558,267.04114"
       style="fill:#000000;display:inline"
       id="path3092" />
    <path
       id="path3094"
       style="fill:#000000;display:inline"
       d="M 71.73703,289.33153 C 71.432305,289.33135 71.124451,289.3493 70.813869,289.38956 C 67.352145,289.83832 64.830223,292.787 64.833232,296.17361 C 64.539415,296.17483 64.243003,296.19286 63.943805,296.23165 C 60.183647,296.71908 57.528885,300.15408 58.018378,303.89845 C 58.507879,307.64283 61.956364,310.2872 65.716529,309.79975 C 66.37166,309.71483 66.991768,309.5365 67.568989,309.2866 L 64.830167,314.745 L 78.570287,314.745 L 75.831465,309.2866 C 76.934776,309.76605 78.176806,309.96566 79.456649,309.79975 C 83.216815,309.3123 85.87157,305.87733 85.382076,302.13295 L 85.09991,300.88671 C 84.153909,298.00853 81.529215,296.15868 78.567222,296.17361 C 78.566956,295.88165 78.550869,295.58805 78.512012,295.29086 L 78.229853,294.04462 C 77.288071,291.17929 74.682775,289.33322 71.73703,289.33153 z M 71.805759,296.66829 C 71.805326,299.92748 71.724876,302.56094 71.62619,302.54654 C 71.527505,302.53216 71.447762,299.87533 71.448196,296.61614 C 71.448637,293.35695 71.529087,290.72349 71.627765,290.73789 C 71.722811,290.75175 71.800413,293.19149 71.805501,296.32579 M 64.115222,303.1504 C 64.95834,306.29864 65.562221,308.8632 65.463179,308.87484 C 65.364123,308.88648 64.599461,306.34082 63.756343,303.19257 C 62.913225,300.04432 62.309344,297.47977 62.408393,297.46813 C 62.503789,297.45692 63.210198,299.79345 64.026333,302.81963 M 79.313159,303.2817 C 78.469195,306.42973 77.7099,308.95263 77.618303,308.9132 C 77.526699,308.87375 78.137312,306.28682 78.981276,303.13879 C 79.825234,299.99077 80.584529,297.46786 80.676126,297.5073 C 80.764343,297.54529 80.207855,299.92199 79.401558,302.95082" />
    <path
       d="M 109.71323,217.51217 C 109.40851,217.51199 109.10065,217.52994 108.79007,217.5702 C 105.32835,218.01896 102.80642,220.96764 102.80943,224.35426 C 102.51562,224.35548 102.2192,224.37351 101.92001,224.4123 C 98.159848,224.89973 95.505087,228.33473 95.99458,232.0791 C 96.484081,235.82348 99.932566,238.46785 103.69273,237.9804 C 104.34786,237.89548 104.96797,237.71715 105.54519,237.46725 L 102.80637,242.92565 L 116.54649,242.92565 L 113.80767,237.46725 C 114.91098,237.9467 116.15301,238.14631 117.43285,237.9804 C 121.19302,237.49295 123.84777,234.05798 123.35828,230.31359 L 123.07611,229.06736 C 122.13011,226.18918 119.50542,224.33933 116.54342,224.35426 C 116.54316,224.0623 116.52707,223.7687 116.48821,223.47151 L 116.20605,222.22527 C 115.26427,219.35994 112.65898,217.51386 109.71323,217.51217 z M 109.78196,224.84894 C 109.78153,228.10813 109.70108,230.74159 109.60239,230.72719 C 109.50371,230.71281 109.42396,228.05598 109.4244,224.79679 C 109.42484,221.5376 109.50529,218.90413 109.60397,218.91854 C 109.69901,218.93239 109.77661,221.37213 109.7817,224.50644 M 102.09142,231.33105 C 102.93454,234.47929 103.53842,237.04385 103.43938,237.05549 C 103.34032,237.06713 102.57566,234.52147 101.73254,231.37322 C 100.88943,228.22497 100.28555,225.66042 100.38459,225.64878 C 100.47999,225.63757 101.1864,227.9741 102.00253,231.00028 M 117.28936,231.46235 C 116.4454,234.61038 115.6861,237.13328 115.5945,237.09385 C 115.5029,237.0544 116.11351,234.46747 116.95748,231.31944 C 117.80144,228.17142 118.56073,225.64851 118.65233,225.68795 C 118.74054,225.72594 118.18406,228.10264 117.37776,231.13147"
       style="fill:#000000;display:inline"
       id="path3096" />
    <path
       id="path3098"
       style="fill:#000000;display:inline"
       d="M 109.71323,253.42185 C 109.40851,253.42166 109.10065,253.43962 108.79007,253.47988 C 105.32835,253.92864 102.80642,256.87732 102.80943,260.26393 C 102.51562,260.26516 102.2192,260.28318 101.92001,260.32197 C 98.159848,260.80941 95.505087,264.2444 95.99458,267.98878 C 96.484081,271.73315 99.932566,274.37752 103.69273,273.89007 C 104.34786,273.80515 104.96797,273.62682 105.54519,273.37693 L 102.80637,278.83532 L 116.54649,278.83532 L 113.80767,273.37693 C 114.91098,273.85638 116.15301,274.05599 117.43285,273.89007 C 121.19302,273.40263 123.84777,269.96766 123.35828,266.22327 L 123.07611,264.97704 C 122.13011,262.09887 119.50542,260.249 116.54342,260.26393 C 116.54316,259.97197 116.52707,259.67838 116.48821,259.38119 L 116.20605,258.13494 C 115.26427,255.26961 112.65898,253.42354 109.71323,253.42185 z M 109.78196,260.75862 C 109.78153,264.0178 109.70108,266.65126 109.60239,266.63687 C 109.50371,266.62248 109.42396,263.96566 109.4244,260.70647 C 109.42484,257.44727 109.50529,254.81382 109.60397,254.82821 C 109.69901,254.84207 109.77661,257.28181 109.7817,260.41611 M 102.09142,267.24072 C 102.93454,270.38897 103.53842,272.95352 103.43938,272.96516 C 103.34032,272.9768 102.57566,270.43115 101.73254,267.2829 C 100.88943,264.13465 100.28555,261.5701 100.38459,261.55846 C 100.47999,261.54724 101.1864,263.88377 102.00253,266.90996 M 117.28936,267.37202 C 116.4454,270.52006 115.6861,273.04296 115.5945,273.00352 C 115.5029,272.96408 116.11351,270.37714 116.95748,267.22911 C 117.80144,264.08109 118.56073,261.55819 118.65233,261.59763 C 118.74054,261.63562 118.18406,264.01232 117.37776,267.04114" />
    <path
       d="M 109.71323,289.33153 C 109.40851,289.33135 109.10065,289.3493 108.79007,289.38956 C 105.32835,289.83832 102.80642,292.787 102.80943,296.17361 C 102.51562,296.17483 102.2192,296.19286 101.92001,296.23165 C 98.159848,296.71908 95.505087,300.15408 95.99458,303.89845 C 96.484081,307.64283 99.932566,310.2872 103.69273,309.79975 C 104.34786,309.71483 104.96797,309.5365 105.54519,309.2866 L 102.80637,314.745 L 116.54649,314.745 L 113.80767,309.2866 C 114.91098,309.76605 116.15301,309.96566 117.43285,309.79975 C 121.19302,309.3123 123.84777,305.87733 123.35828,302.13295 L 123.07611,300.88671 C 122.13011,298.00853 119.50542,296.15868 116.54342,296.17361 C 116.54316,295.88165 116.52707,295.58805 116.48821,295.29086 L 116.20605,294.04462 C 115.26427,291.17929 112.65898,289.33322 109.71323,289.33153 z M 109.78196,296.66829 C 109.78153,299.92748 109.70108,302.56094 109.60239,302.54654 C 109.50371,302.53216 109.42396,299.87533 109.4244,296.61614 C 109.42484,293.35695 109.50529,290.72349 109.60397,290.73789 C 109.69901,290.75175 109.77661,293.19149 109.7817,296.32579 M 102.09142,303.1504 C 102.93454,306.29864 103.53842,308.8632 103.43938,308.87484 C 103.34032,308.88648 102.57566,306.34082 101.73254,303.19257 C 100.88943,300.04432 100.28555,297.47977 100.38459,297.46813 C 100.47999,297.45692 101.1864,299.79345 102.00253,302.81963 M 117.28936,303.2817 C 116.4454,306.42973 115.6861,308.95263 115.5945,308.9132 C 115.5029,308.87375 116.11351,306.28682 116.95748,303.13879 C 117.80144,299.99077 118.56073,297.46786 118.65233,297.5073 C 118.74054,297.54529 118.18406,299.92199 117.37776,302.95082"
       style="fill:#000000;display:inline"
       id="path3100" />
    <g
       transform="matrix(0.1390351,0,0,0.1390351,156.36012,192.75016)"
       inkscape:label="Layer 1"
       id="g3102"
       style="display:inline">
      <rect
         rx="60.60915"
         ry="63.63961"
         y="26.047195"
         x="24.243658"
         height="1006.1119"
         width="709.12708"
         id="rect3104"
         style="opacity:0.91666667;fill:#000000;filter:url(#filter3254)" />
      <rect
         style="fill:#ffffff"
         id="rect3106"
         width="709.12708"
         height="1006.1119"
         x="10.101523"
         y="7.8644519"
         ry="63.63961"
         rx="60.60915" />
      <text
         xml:space="preserve"
         style="font-size:225.6577301px;font-style:normal;font-variant:normal;font-weight:normal;font-stretch:normal;fill:#000000;fill-opacity:1;stroke:none;stroke-width:1px;stroke-linecap:butt;stroke-linejoin:miter;stroke-opacity:1;filter:url(#filter4970);font-family:Gemelli;-inkscape-font-specification:Gemelli"
         x="47.257381"
         y="188.40356"
         id="text3108"
         transform="scale(1.0234483,0.9770889)"><tspan
           sodipodi:role="line"
           id="tspan3110"
           x="47.257381"
           y="188.40356">7</tspan></text>
      <text
         transform="scale(1.0234483,0.9770889)"
         id="text3112"
         y="980.57336"
         x="537.01221"
         style="font-size:225.6577301px;font-style:normal;font-variant:normal;font-weight:normal;font-stretch:normal;fill:#000000;fill-opacity:1;stroke:none;stroke-width:1px;stroke-linecap:butt;stroke-linejoin:miter;stroke-opacity:1;filter:url(#filter4966);font-family:Gemelli;-inkscape-font-specification:Gemelli"
         xml:space="preserve"><tspan
           y="980.57336"
           x="537.01221"
           id="tspan3114"
           sodipodi:role="line">7</tspan></text>
    </g>
    <path
       d="M 185.16998,210.77303 C 184.89457,210.77287 184.61633,210.7891 184.33563,210.82548 C 181.20697,211.23106 178.92769,213.89604 178.93041,216.95682 C 178.66486,216.95793 178.39697,216.97422 178.12656,217.00928 C 174.72818,217.44982 172.32884,220.55432 172.77123,223.93843 C 173.21364,227.32256 176.33033,229.71251 179.72873,229.27195 C 180.32082,229.1952 180.88127,229.03403 181.40295,228.80818 L 178.92764,233.74141 L 191.34579,233.74141 L 188.87048,228.80818 C 189.86764,229.24151 190.99016,229.42191 192.14687,229.27195 C 195.54526,228.83141 197.94459,225.72692 197.50219,222.34279 L 197.24718,221.21647 C 196.39219,218.61521 194.02003,216.94333 191.34302,216.95682 C 191.34278,216.69296 191.32824,216.4276 191.29312,216.15901 L 191.03811,215.03267 C 190.18694,212.44302 187.8323,210.77456 185.16998,210.77303 z M 185.23209,217.40391 C 185.2317,220.34952 185.15899,222.72961 185.0698,222.7166 C 184.98061,222.7036 184.90854,220.3024 184.90893,217.35678 C 184.90933,214.41116 184.98204,212.03107 185.07122,212.04408 C 185.15712,212.05661 185.22726,214.26162 185.23186,217.09437 M 178.28148,223.26236 C 179.04348,226.1077 179.58926,228.42552 179.49975,228.43603 C 179.41022,228.44656 178.71913,226.14582 177.95713,223.30048 C 177.19513,220.45512 176.64935,218.13732 176.73887,218.1268 C 176.82509,218.11666 177.46353,220.22839 178.20114,222.96342 M 192.01719,223.38103 C 191.25442,226.22618 190.56818,228.50635 190.48539,228.4707 C 190.40261,228.43506 190.95447,226.09701 191.71723,223.25186 C 192.47999,220.40673 193.16623,218.12656 193.24901,218.1622 C 193.32874,218.19654 192.8258,220.34456 192.09708,223.08198"
       style="fill:#000000;display:inline"
       id="path3116" />
    <path
       id="path3118"
       style="fill:#000000;display:inline"
       d="M 185.16998,251.23507 C 184.89457,251.23491 184.61633,251.25114 184.33563,251.28752 C 181.20697,251.69311 178.92769,254.35809 178.93041,257.41887 C 178.66486,257.41997 178.39697,257.43626 178.12656,257.47132 C 174.72818,257.91186 172.32884,261.01636 172.77123,264.40049 C 173.21364,267.7846 176.33033,270.17455 179.72873,269.734 C 180.32082,269.65725 180.88127,269.49608 181.40295,269.27023 L 178.92764,274.20345 L 191.34579,274.20345 L 188.87048,269.27023 C 189.86764,269.70354 190.99016,269.88395 192.14687,269.734 C 195.54526,269.29345 197.94459,266.18897 197.50219,262.80484 L 197.24718,261.67851 C 196.39219,259.07725 194.02003,257.40537 191.34302,257.41887 C 191.34278,257.15499 191.32824,256.88965 191.29312,256.62105 L 191.03811,255.49471 C 190.18694,252.90506 187.8323,251.23661 185.16998,251.23507 z M 185.23209,257.86596 C 185.2317,260.81156 185.15899,263.19165 185.0698,263.17864 C 184.98061,263.16564 184.90854,260.76443 184.90893,257.81882 C 184.90933,254.8732 184.98204,252.49312 185.07122,252.50613 C 185.15712,252.51865 185.22726,254.72366 185.23186,257.5564 M 178.28148,263.7244 C 179.04348,266.56974 179.58926,268.88756 179.49975,268.89807 C 179.41022,268.9086 178.71913,266.60786 177.95713,263.76251 C 177.19513,260.91717 176.64935,258.59936 176.73887,258.58884 C 176.82509,258.57871 177.46353,260.69043 178.20114,263.42546 M 192.01719,263.84307 C 191.25442,266.68822 190.56818,268.96838 190.48539,268.93274 C 190.40261,268.89709 190.95447,266.55906 191.71723,263.71391 C 192.47999,260.86877 193.16623,258.58859 193.24901,258.62425 C 193.32874,258.65857 192.8258,260.80661 192.09708,263.54402" />
    <path
       d="M 185.16998,281.20093 C 184.89457,281.20077 184.61633,281.21699 184.33563,281.25337 C 181.20697,281.65896 178.92769,284.32394 178.93041,287.38471 C 178.66486,287.38582 178.39697,287.40211 178.12656,287.43717 C 174.72818,287.87771 172.32884,290.98221 172.77123,294.36633 C 173.21364,297.75045 176.33033,300.1404 179.72873,299.69984 C 180.32082,299.62309 180.88127,299.46192 181.40295,299.23607 L 178.92764,304.1693 L 191.34579,304.1693 L 188.87048,299.23607 C 189.86764,299.6694 190.99016,299.8498 192.14687,299.69984 C 195.54526,299.2593 197.94459,296.15481 197.50219,292.77068 L 197.24718,291.64436 C 196.39219,289.0431 194.02003,287.37122 191.34302,287.38471 C 191.34278,287.12084 191.32824,286.85549 191.29312,286.5869 L 191.03811,285.46056 C 190.18694,282.87091 187.8323,281.20246 185.16998,281.20093 z M 185.23209,287.8318 C 185.2317,290.77741 185.15899,293.1575 185.0698,293.14449 C 184.98061,293.13149 184.90854,290.73029 184.90893,287.78467 C 184.90933,284.83906 184.98204,282.45897 185.07122,282.47198 C 185.15712,282.48451 185.22726,284.68951 185.23186,287.52226 M 178.28148,293.69025 C 179.04348,296.53559 179.58926,298.85341 179.49975,298.86392 C 179.41022,298.87445 178.71913,296.57371 177.95713,293.72837 C 177.19513,290.88301 176.64935,288.56521 176.73887,288.55469 C 176.82509,288.54455 177.46353,290.65628 178.20114,293.39131 M 192.01719,293.80891 C 191.25442,296.65407 190.56818,298.93424 190.48539,298.89859 C 190.40261,298.86295 190.95447,296.5249 191.71723,293.67975 C 192.47999,290.83461 193.16623,288.55445 193.24901,288.59009 C 193.32874,288.62443 192.8258,290.77245 192.09708,293.50987"
       style="fill:#000000;display:inline"
       id="path3120" />
    <path
       id="path3122"
       style="fill:#000000;display:inline"
       d="M 227.49972,210.77303 C 227.22431,210.77287 226.94608,210.7891 226.66537,210.82548 C 223.53671,211.23106 221.25743,213.89604 221.26015,216.95682 C 220.99461,216.95793 220.72671,216.97422 220.4563,217.00928 C 217.05791,217.44982 214.65857,220.55432 215.10098,223.93843 C 215.54338,227.32256 218.66008,229.71251 222.05847,229.27195 C 222.65056,229.1952 223.21101,229.03403 223.73269,228.80818 L 221.25738,233.74141 L 233.67553,233.74141 L 231.20021,228.80818 C 232.19737,229.24151 233.31991,229.42191 234.47661,229.27195 C 237.875,228.83141 240.27433,225.72692 239.83194,222.34279 L 239.57692,221.21647 C 238.72193,218.61521 236.34977,216.94333 233.67275,216.95682 C 233.67252,216.69296 233.65798,216.4276 233.62286,216.15901 L 233.36785,215.03267 C 232.51668,212.44302 230.16204,210.77456 227.49972,210.77303 z M 227.56183,217.40391 C 227.56144,220.34952 227.48873,222.72961 227.39954,222.7166 C 227.31035,222.7036 227.23828,220.3024 227.23868,217.35678 C 227.23907,214.41116 227.31178,212.03107 227.40097,212.04408 C 227.48687,212.05661 227.557,214.26162 227.5616,217.09437 M 220.61122,223.26236 C 221.37322,226.1077 221.91901,228.42552 221.82949,228.43603 C 221.73996,228.44656 221.04887,226.14582 220.28687,223.30048 C 219.52487,220.45512 218.9791,218.13732 219.06862,218.1268 C 219.15483,218.11666 219.79327,220.22839 220.53089,222.96342 M 234.34693,223.38103 C 233.58416,226.22618 232.89792,228.50635 232.81514,228.4707 C 232.73234,228.43506 233.28421,226.09701 234.04697,223.25186 C 234.80973,220.40673 235.49597,218.12656 235.57876,218.1622 C 235.65849,218.19654 235.15554,220.34456 234.42682,223.08198" />
    <path
       d="M 227.49972,251.23507 C 227.22431,251.23491 226.94608,251.25114 226.66537,251.28752 C 223.53671,251.69311 221.25743,254.35809 221.26015,257.41887 C 220.99461,257.41997 220.72671,257.43626 220.4563,257.47132 C 217.05791,257.91186 214.65857,261.01636 215.10098,264.40049 C 215.54338,267.7846 218.66008,270.17455 222.05847,269.734 C 222.65056,269.65725 223.21101,269.49608 223.73269,269.27023 L 221.25738,274.20345 L 233.67553,274.20345 L 231.20021,269.27023 C 232.19737,269.70354 233.31991,269.88395 234.47661,269.734 C 237.875,269.29345 240.27433,266.18897 239.83194,262.80484 L 239.57692,261.67851 C 238.72193,259.07725 236.34977,257.40537 233.67275,257.41887 C 233.67252,257.15499 233.65798,256.88965 233.62286,256.62105 L 233.36785,255.49471 C 232.51668,252.90506 230.16204,251.23661 227.49972,251.23507 z M 227.56183,257.86596 C 227.56144,260.81156 227.48873,263.19165 227.39954,263.17864 C 227.31035,263.16564 227.23828,260.76443 227.23868,257.81882 C 227.23907,254.8732 227.31178,252.49312 227.40097,252.50613 C 227.48687,252.51865 227.557,254.72366 227.5616,257.5564 M 220.61122,263.7244 C 221.37322,266.56974 221.91901,268.88756 221.82949,268.89807 C 221.73996,268.9086 221.04887,266.60786 220.28687,263.76251 C 219.52487,260.91717 218.9791,258.59936 219.06862,258.58884 C 219.15483,258.57871 219.79327,260.69043 220.53089,263.42546 M 234.34693,263.84307 C 233.58416,266.68822 232.89792,268.96838 232.81514,268.93274 C 232.73234,268.89709 233.28421,266.55906 234.04697,263.71391 C 234.80973,260.86877 235.49597,258.58859 235.57876,258.62425 C 235.65849,258.65857 235.15554,260.80661 234.42682,263.54402"
       style="fill:#000000;display:inline"
       id="path3124" />
    <path
       id="path3126"
       style="fill:#000000;display:inline"
       d="M 227.49972,281.20093 C 227.22431,281.20077 226.94608,281.21699 226.66537,281.25337 C 223.53671,281.65896 221.25743,284.32394 221.26015,287.38471 C 220.99461,287.38582 220.72671,287.40211 220.4563,287.43717 C 217.05791,287.87771 214.65857,290.98221 215.10098,294.36633 C 215.54338,297.75045 218.66008,300.1404 222.05847,299.69984 C 222.65056,299.62309 223.21101,299.46192 223.73269,299.23607 L 221.25738,304.1693 L 233.67553,304.1693 L 231.20021,299.23607 C 232.19737,299.6694 233.31991,299.8498 234.47661,299.69984 C 237.875,299.2593 240.27433,296.15481 239.83194,292.77068 L 239.57692,291.64436 C 238.72193,289.0431 236.34977,287.37122 233.67275,287.38471 C 233.67252,287.12084 233.65798,286.85549 233.62286,286.5869 L 233.36785,285.46056 C 232.51668,282.87091 230.16204,281.20246 227.49972,281.20093 z M 227.56183,287.8318 C 227.56144,290.77741 227.48873,293.1575 227.39954,293.14449 C 227.31035,293.13149 227.23828,290.73029 227.23868,287.78467 C 227.23907,284.83906 227.31178,282.45897 227.40097,282.47198 C 227.48687,282.48451 227.557,284.68951 227.5616,287.52226 M 220.61122,293.69025 C 221.37322,296.53559 221.91901,298.85341 221.82949,298.86392 C 221.73996,298.87445 221.04887,296.57371 220.28687,293.72837 C 219.52487,290.88301 218.9791,288.56521 219.06862,288.55469 C 219.15483,288.54455 219.79327,290.65628 220.53089,293.39131 M 234.34693,293.80891 C 233.58416,296.65407 232.89792,298.93424 232.81514,298.89859 C 232.73234,298.86295 233.28421,296.5249 234.04697,293.67975 C 234.80973,290.83461 235.49597,288.55445 235.57876,288.59009 C 235.65849,288.62443 235.15554,290.77245 234.42682,293.50987" />
    <path
       id="path3128"
       style="fill:#000000;display:inline"
       d="M 206.86212,231.76543 C 206.58672,231.76527 206.30848,231.7815 206.02778,231.81788 C 202.89912,232.22346 200.61984,234.88844 200.62256,237.94922 C 200.35701,237.95033 200.08911,237.96662 199.8187,238.00168 C 196.42032,238.44222 194.02098,241.54672 194.46338,244.93083 C 194.90578,248.31496 198.02248,250.7049 201.42087,250.26435 C 202.01297,250.1876 202.57341,250.02643 203.0951,249.80058 L 200.61979,254.73381 L 213.03793,254.73381 L 210.56262,249.80058 C 211.55978,250.23391 212.68231,250.41431 213.83902,250.26435 C 217.23741,249.82381 219.63674,246.71932 219.19434,243.33519 L 218.93932,242.20887 C 218.08434,239.60761 215.71218,237.93573 213.03516,237.94922 C 213.03492,237.68536 213.02038,237.42 212.98526,237.15141 L 212.73025,236.02507 C 211.87908,233.43542 209.52445,231.76696 206.86212,231.76543 z M 206.92424,238.39631 C 206.92385,241.34192 206.85114,243.72201 206.76195,243.709 C 206.67276,243.696 206.60068,241.2948 206.60108,238.34918 C 206.60147,235.40356 206.67419,233.02347 206.76337,233.03648 C 206.84927,233.04901 206.9194,235.25402 206.924,238.08677 M 199.97363,244.25476 C 200.73562,247.1001 201.28141,249.41792 201.19189,249.42843 C 201.10237,249.43896 200.41128,247.13822 199.64927,244.29287 C 198.88728,241.44752 198.3415,239.12972 198.43102,239.1192 C 198.51724,239.10906 199.15568,241.22079 199.89329,243.95582 M 213.70933,244.37343 C 212.94657,247.21858 212.26033,249.49874 212.17754,249.4631 C 212.09475,249.42745 212.64661,247.08941 213.40938,244.24426 C 214.17214,241.39913 214.85838,239.11895 214.94116,239.1546 C 215.02089,239.18894 214.51795,241.33696 213.78922,244.07438" />
    <g
       transform="matrix(0.1390351,0,0,0.1390351,275.31705,190.65092)"
       inkscape:label="Layer 1"
       id="g3186"
       style="display:inline">
      <rect
         rx="60.60915"
         ry="63.63961"
         y="26.047195"
         x="24.243658"
         height="1006.1119"
         width="709.12708"
         id="rect3188"
         style="opacity:0.91666667;fill:#000000;filter:url(#filter3254)" />
      <rect
         style="fill:#ffffff"
         id="rect3190"
         width="709.12708"
         height="1006.1119"
         x="10.101523"
         y="7.8644519"
         ry="63.63961"
         rx="60.60915" />
      <text
         xml:space="preserve"
         style="font-size:225.6577301px;font-style:normal;font-variant:normal;font-weight:normal;font-stretch:normal;fill:#000000;fill-opacity:1;stroke:none;stroke-width:1px;stroke-linecap:butt;stroke-linejoin:miter;stroke-opacity:1;filter:url(#filter4970);font-family:Gemelli;-inkscape-font-specification:Gemelli"
         x="47.257381"
         y="188.40356"
         id="text3192"
         transform="scale(1.0234483,0.9770889)"><tspan
           sodipodi:role="line"
           id="tspan3194"
           x="47.257381"
           y="188.40356">J</tspan></text>
      <text
         transform="scale(1.0234483,0.9770889)"
         id="text3196"
         y="980.57336"
         x="537.01221"
         style="font-size:225.6577301px;font-style:normal;font-variant:normal;font-weight:normal;font-stretch:normal;fill:#000000;fill-opacity:1;stroke:none;stroke-width:1px;stroke-linecap:butt;stroke-linejoin:miter;stroke-opacity:1;filter:url(#filter4966);font-family:Gemelli;-inkscape-font-specification:Gemelli"
         xml:space="preserve"><tspan
           y="980.57336"
           x="537.01221"
           id="tspan3198"
           sodipodi:role="line">J</tspan></text>
    </g>
    <path
       style="opacity:1;fill:#000000;fill-opacity:1;fill-rule:nonzero;stroke:#ffffff;stroke-width:0.69974667;stroke-linecap:butt;stroke-linejoin:miter;marker:none;marker-start:none;marker-mid:none;marker-end:none;stroke-miterlimit:4;stroke-dasharray:none;stroke-dashoffset:0;stroke-opacity:1;visibility:visible;display:inline;overflow:visible;enable-background:accumulate"
       d="M 323.84017,212.68959 C 318.12698,212.68959 313.49704,217.47627 313.49704,223.3826 C 313.49704,227.74203 316.02123,231.49025 319.64169,233.15718 L 319.64169,240.67946 L 297.00926,224.71649 L 293.90413,229.11177 L 319.64169,247.28332 L 319.64169,264.31778 L 328.03865,264.31778 L 328.03865,249.5575 L 358.23709,244.87794 L 357.40614,239.56424 L 328.03865,244.11259 L 328.03865,233.15718 C 331.65912,231.49025 334.18329,227.74203 334.1833,223.3826 C 334.1833,217.47627 329.55337,212.6896 323.84017,212.68959 z"
       id="rect4024" />
    <path
       id="path4046"
       d="M 323.7527,312.95017 C 329.46589,312.95017 334.09583,308.16349 334.09583,302.25716 C 334.09583,297.89774 331.57164,294.14951 327.95118,292.48258 L 327.95118,284.9603 L 350.58361,300.92327 L 353.68874,296.52799 L 327.95118,278.35644 L 327.95118,261.32199 L 319.55422,261.32199 L 319.55422,276.08227 L 289.35578,280.76182 L 290.18673,286.07552 L 319.55422,281.52717 L 319.55422,292.48258 C 315.93375,294.14951 313.40958,297.89774 313.40957,302.25716 C 313.40957,308.16349 318.0395,312.95016 323.7527,312.95017 z"
       style="opacity:1;fill:#000000;fill-opacity:1;fill-rule:nonzero;stroke:#ffffff;stroke-width:0.69974667;stroke-linecap:butt;stroke-linejoin:miter;marker:none;marker-start:none;marker-mid:none;marker-end:none;stroke-miterlimit:4;stroke-dasharray:none;stroke-dashoffset:0;stroke-opacity:1;visibility:visible;display:inline;overflow:visible;enable-background:accumulate" />
    <g
       id="g4073"
       transform="matrix(0.6997466,0,0,0.6997466,41.142526,23.60493)">
      <rect
         transform="matrix(0.1986935,0,0,0.1986935,497.65616,239.72353)"
         style="opacity:0.91666667;fill:#000000;filter:url(#filter3254)"
         id="rect4055"
         width="709.12708"
         height="1006.1119"
         x="24.243658"
         y="26.047195"
         ry="63.63961"
         rx="60.60915" />
      <rect
         rx="12.042645"
         ry="12.644777"
         y="241.28615"
         x="499.66327"
         height="199.9079"
         width="140.89894"
         id="rect4057"
         style="fill:#ffffff" />
      <text
         transform="matrix(0.2033525,0,0,0.1941412,497.65616,239.72353)"
         id="text4059"
         y="188.40356"
         x="47.257381"
         style="font-size:225.6577301px;font-style:normal;font-variant:normal;font-weight:normal;font-stretch:normal;fill:#000000;fill-opacity:1;stroke:none;stroke-width:1px;stroke-linecap:butt;stroke-linejoin:miter;stroke-opacity:1;filter:url(#filter4970);font-family:Gemelli;-inkscape-font-specification:Gemelli"
         xml:space="preserve"><tspan
           y="188.40356"
           x="47.257381"
           id="tspan4061"
           sodipodi:role="line">Q</tspan></text>
      <text
         xml:space="preserve"
         style="font-size:225.6577301px;font-style:normal;font-variant:normal;font-weight:normal;font-stretch:normal;fill:#000000;fill-opacity:1;stroke:none;stroke-width:1px;stroke-linecap:butt;stroke-linejoin:miter;stroke-opacity:1;filter:url(#filter4966);font-family:Gemelli;-inkscape-font-specification:Gemelli"
         x="537.01221"
         y="980.57336"
         id="text4063"
         transform="matrix(0.2033525,0,0,0.1941412,484.65616,239.72353)"><tspan
           sodipodi:role="line"
           id="tspan4065"
           x="537.01221"
           y="980.57336">Q</tspan></text>
    </g>
    <path
       style="opacity:1;fill:#000000;fill-opacity:1;fill-rule:nonzero;stroke:#ffffff;stroke-width:0.69974667;stroke-linecap:butt;stroke-linejoin:miter;marker:none;marker-start:none;marker-mid:none;marker-end:none;stroke-miterlimit:4;stroke-dasharray:none;stroke-dashoffset:0;stroke-opacity:1;visibility:visible;display:inline;overflow:visible;enable-background:accumulate"
       d="M 438.86102,216.18833 C 433.14782,216.18833 428.51789,220.97501 428.51789,226.88133 C 428.51789,227.08757 428.52861,227.29026 428.53976,227.49361 C 428.01708,229.175 428.10242,231.31253 428.10242,231.42968 L 426.35305,240.35145 C 426.35305,240.54528 426.61336,243.67525 429.32697,243.67525 C 432.04059,243.67525 433.00064,241.76984 433.00064,241.57601 L 433.00064,235.69376 C 433.52286,236.06609 434.07692,236.38628 434.66254,236.65592 L 434.66254,247.61132 L 405.29505,243.06297 L 404.4641,248.37667 L 434.66254,253.05623 L 434.66254,267.81651 L 443.0595,267.81651 L 443.0595,250.78205 L 468.79706,232.61051 L 465.69193,228.21522 L 451.71887,238.07728 L 450.31937,230.90487 C 450.31937,230.74739 450.50672,226.91183 449.11668,225.48184 C 448.45386,220.2369 444.11545,216.18833 438.86102,216.18833 z M 445.42115,235.14709 L 445.42115,241.0512 C 445.42115,241.13956 445.64666,241.57812 446.12089,242.03522 L 443.0595,244.17819 L 443.0595,236.65592 C 443.91388,236.26255 444.70764,235.75295 445.42115,235.14709 z"
       id="path4081" />
    <path
       id="path4090"
       d="M 438.94849,316.09903 C 444.66169,316.09902 449.29162,311.31235 449.29162,305.40602 C 449.29162,305.19979 449.2809,304.99709 449.26975,304.79375 C 449.79244,303.11236 449.7071,300.97482 449.7071,300.85767 L 451.45646,291.9359 C 451.45646,291.74207 451.19616,288.6121 448.48254,288.6121 C 445.76892,288.6121 444.80887,290.51751 444.80887,290.71134 L 444.80887,296.59359 C 444.28666,296.22127 443.7326,295.90107 443.14697,295.63144 L 443.14697,284.67603 L 472.51446,289.22438 L 473.34541,283.91068 L 443.14697,279.23113 L 443.14697,264.47085 L 434.75001,264.47085 L 434.75001,281.5053 L 409.01246,299.67685 L 412.11758,304.07213 L 426.09065,294.21008 L 427.49014,301.38248 C 427.49015,301.53997 427.30279,305.37552 428.69283,306.80552 C 429.35565,312.05045 433.69407,316.09903 438.94849,316.09903 z M 432.38837,297.14027 L 432.38837,291.23615 C 432.38837,291.14779 432.16285,290.70924 431.68862,290.25214 L 434.75001,288.10916 L 434.75001,295.63144 C 433.89563,296.02481 433.10188,296.53441 432.38837,297.14027 z"
       style="opacity:1;fill:#000000;fill-opacity:1;fill-rule:nonzero;stroke:#ffffff;stroke-width:0.69974667;stroke-linecap:butt;stroke-linejoin:miter;marker:none;marker-start:none;marker-mid:none;marker-end:none;stroke-miterlimit:4;stroke-dasharray:none;stroke-dashoffset:0;stroke-opacity:1;visibility:visible;display:inline;overflow:visible;enable-background:accumulate" />
    <g
       transform="matrix(0.1390351,0,0,0.1390351,502.03496,191.35067)"
       inkscape:label="Layer 1"
       id="g4106"
       style="display:inline">
      <rect
         rx="60.60915"
         ry="63.63961"
         y="26.047195"
         x="24.243658"
         height="1006.1119"
         width="709.12708"
         id="rect4108"
         style="opacity:0.91666667;fill:#000000;filter:url(#filter3254)" />
      <rect
         style="fill:#ffffff"
         id="rect4110"
         width="709.12708"
         height="1006.1119"
         x="10.101523"
         y="7.8644519"
         ry="63.63961"
         rx="60.60915" />
      <text
         xml:space="preserve"
         style="font-size:225.6577301px;font-style:normal;font-variant:normal;font-weight:normal;font-stretch:normal;fill:#000000;fill-opacity:1;stroke:none;stroke-width:1px;stroke-linecap:butt;stroke-linejoin:miter;stroke-opacity:1;filter:url(#filter4970);font-family:Gemelli;-inkscape-font-specification:Gemelli"
         x="47.257381"
         y="188.40356"
         id="text4112"
         transform="scale(1.0234483,0.9770889)"><tspan
           sodipodi:role="line"
           id="tspan4114"
           x="47.257381"
           y="188.40356">K</tspan></text>
      <text
         transform="scale(1.0234483,0.9770889)"
         id="text4116"
         y="980.57336"
         x="537.01221"
         style="font-size:225.6577301px;font-style:normal;font-variant:normal;font-weight:normal;font-stretch:normal;fill:#000000;fill-opacity:1;stroke:none;stroke-width:1px;stroke-linecap:butt;stroke-linejoin:miter;stroke-opacity:1;filter:url(#filter4966);font-family:Gemelli;-inkscape-font-specification:Gemelli"
         xml:space="preserve"><tspan
           y="980.57336"
           x="537.01221"
           id="tspan4118"
           sodipodi:role="line">K</tspan></text>
    </g>
    <path
       style="opacity:1;fill:#000000;fill-opacity:1;fill-rule:nonzero;stroke:#ffffff;stroke-width:0.69974667;stroke-linecap:butt;stroke-linejoin:miter;marker:none;marker-start:none;marker-mid:none;marker-end:none;stroke-miterlimit:4;stroke-dasharray:none;stroke-dashoffset:0;stroke-opacity:1;visibility:visible;display:inline;overflow:visible;enable-background:accumulate"
       d="M 550.68928,206.85108 C 547.91082,206.8236 549.02917,208.81183 550.64555,210.85276 C 552.30624,208.84077 553.47221,206.87861 550.68928,206.85108 z M 550.64555,210.85276 C 549.92319,211.72793 549.10444,212.60118 548.48071,213.34561 C 547.5416,213.0917 546.37843,212.81975 545.28811,212.51466 C 545.2185,213.65183 545.09313,214.84304 545.02571,215.81659 C 544.1078,216.16534 542.99677,216.64218 541.92058,217.04114 C 542.39789,217.79071 542.87054,218.56064 543.29821,219.27159 C 542.42428,220.16439 541.70044,221.23194 541.1771,222.39858 C 539.05659,221.64217 537.32164,221.47421 538.07198,223.86367 C 538.63762,225.66494 539.53744,225.44495 540.49922,224.45408 C 540.32424,225.23382 540.21495,226.0465 540.21495,226.88133 C 540.21495,231.24076 542.73914,234.98899 546.3596,236.65592 L 546.3596,244.17819 L 523.72717,228.21522 L 520.62204,232.61051 L 546.3596,250.78205 L 546.3596,267.81651 L 554.75656,267.81651 L 554.75656,253.05623 L 584.955,248.37667 L 584.12405,243.06297 L 554.75656,247.61132 L 554.75656,236.65592 C 558.37703,234.98899 560.9012,231.24076 560.90121,226.88133 C 560.90121,226.18827 560.82618,225.504 560.70441,224.84769 C 561.58263,225.70368 562.39145,225.78709 562.95672,224.10421 C 563.74001,221.77222 562.08681,221.8707 560.00466,222.55165 C 559.48922,221.35374 558.76565,220.25439 557.88355,219.33719 C 558.31129,218.65486 558.76602,217.92787 559.23931,217.21608 C 558.17693,216.79732 557.08347,216.29064 556.17792,215.92592 C 556.12978,214.95122 556.02822,213.76237 555.98112,212.62399 C 554.88463,212.90756 553.71081,213.15398 552.76666,213.38934 C 552.15539,212.62965 551.3528,211.74578 550.64555,210.85276 z M 555.98112,212.62399 C 558.4992,211.97279 560.57272,211.0855 558.34276,209.4314 C 556.1124,207.77699 555.87355,210.0247 555.98112,212.62399 z M 559.23931,217.21608 C 561.66163,218.17088 563.87669,218.66453 563.04418,216.01339 C 562.21172,213.3624 560.68088,215.04809 559.23931,217.21608 z M 541.92058,217.04114 C 540.52221,214.84514 539.04416,213.1389 538.15944,215.77285 C 537.27692,218.40028 539.48725,217.94323 541.92058,217.04114 z M 545.28811,212.51466 C 545.44706,209.91804 545.23281,207.66839 542.9702,209.27833 C 540.70786,210.88807 542.78325,211.81376 545.28811,212.51466 z"
       id="path4120" />
    <path
       id="path4129"
       d="M 550.68928,327.99444 C 547.91082,328.02192 549.02917,326.03369 550.64555,323.99276 C 552.30624,326.00475 553.47221,327.96691 550.68928,327.99444 z M 550.64555,323.99276 C 549.92319,323.1176 549.10444,322.24434 548.48071,321.49992 C 547.5416,321.75383 546.37843,322.02578 545.28811,322.33087 C 545.2185,321.19369 545.09313,320.00249 545.02571,319.02894 C 544.1078,318.68018 542.99677,318.20335 541.92058,317.80438 C 542.39789,317.05481 542.87054,316.28489 543.29821,315.57394 C 542.42428,314.68114 541.70044,313.61358 541.1771,312.44694 C 539.05659,313.20336 537.32164,313.37131 538.07198,310.98185 C 538.63762,309.18058 539.53744,309.40057 540.49922,310.39144 C 540.32424,309.6117 540.21495,308.79902 540.21495,307.96419 C 540.21495,303.60476 542.73914,299.85654 546.3596,298.18961 L 546.3596,290.66733 L 523.72717,306.6303 L 520.62204,302.23502 L 546.3596,284.06347 L 546.3596,267.02901 L 554.75656,267.02901 L 554.75656,281.78929 L 584.955,286.46885 L 584.12405,291.78255 L 554.75656,287.2342 L 554.75656,298.18961 C 558.37703,299.85654 560.9012,303.60476 560.90121,307.96419 C 560.90121,308.65726 560.82618,309.34153 560.70441,309.99783 C 561.58263,309.14185 562.39145,309.05843 562.95672,310.74131 C 563.74001,313.0733 562.08681,312.97482 560.00466,312.29388 C 559.48922,313.49179 558.76565,314.59113 557.88355,315.50834 C 558.31129,316.19067 558.76602,316.91765 559.23931,317.62944 C 558.17693,318.04821 557.08347,318.55489 556.17792,318.9196 C 556.12978,319.8943 556.02822,321.08315 555.98112,322.22153 C 554.88463,321.93797 553.71081,321.69154 552.76666,321.45618 C 552.15539,322.21588 551.3528,323.09975 550.64555,323.99276 z M 555.98112,322.22153 C 558.4992,322.87273 560.57272,323.76002 558.34276,325.41412 C 556.1124,327.06853 555.87355,324.82082 555.98112,322.22153 z M 559.23931,317.62944 C 561.66163,316.67464 563.87669,316.18099 563.04418,318.83213 C 562.21172,321.48312 560.68088,319.79743 559.23931,317.62944 z M 541.92058,317.80438 C 540.52221,320.00039 539.04416,321.70662 538.15944,319.07267 C 537.27692,316.44525 539.48725,316.90229 541.92058,317.80438 z M 545.28811,322.33087 C 545.44706,324.92748 545.23281,327.17713 542.9702,325.56719 C 540.70786,323.95746 542.78325,323.03176 545.28811,322.33087 z"
       style="opacity:1;fill:#000000;fill-opacity:1;fill-rule:nonzero;stroke:#ffffff;stroke-width:0.69974667;stroke-linecap:butt;stroke-linejoin:miter;marker:none;marker-start:none;marker-mid:none;marker-end:none;stroke-miterlimit:4;stroke-dasharray:none;stroke-dashoffset:0;stroke-opacity:1;visibility:visible;display:inline;overflow:visible;enable-background:accumulate" />
  </g>
</svg>
