<?xml version="1.0" encoding="UTF-8" standalone="no"?>
<!-- Created with Inkscape (http://www.inkscape.org/) -->
<svg
   xmlns:dc="http://purl.org/dc/elements/1.1/"
   xmlns:cc="http://creativecommons.org/ns#"
   xmlns:rdf="http://www.w3.org/1999/02/22-rdf-syntax-ns#"
   xmlns:svg="http://www.w3.org/2000/svg"
   xmlns="http://www.w3.org/2000/svg"
   xmlns:sodipodi="http://sodipodi.sourceforge.net/DTD/sodipodi-0.dtd"
   xmlns:inkscape="http://www.inkscape.org/namespaces/inkscape"
   width="800px"
   height="600px"
   id="svg2656"
   sodipodi:version="0.32"
   inkscape:version="0.46"
   sodipodi:docname="messed-cards.svg"
   inkscape:output_extension="org.inkscape.output.svg.inkscape">
  <defs
     id="defs2658">
    <filter
       inkscape:collect="always"
       id="filter5252">
      <feGaussianBlur
         inkscape:collect="always"
         stdDeviation="2.0221299"
         id="feGaussianBlur5254" />
    </filter>
    <filter
       inkscape:collect="always"
       id="filter3300">
      <feGaussianBlur
         inkscape:collect="always"
         stdDeviation="1.5430992"
         id="feGaussianBlur3302" />
    </filter>
    <filter
       inkscape:collect="always"
       id="filter3370">
      <feGaussianBlur
         inkscape:collect="always"
         stdDeviation="1.5430992"
         id="feGaussianBlur3372" />
    </filter>
    <filter
       inkscape:collect="always"
       id="filter3254">
      <feGaussianBlur
         inkscape:collect="always"
         stdDeviation="7.7965407"
         id="feGaussianBlur3256" />
    </filter>
    <inkscape:perspective
       sodipodi:type="inkscape:persp3d"
       inkscape:vp_x="0 : 300 : 1"
       inkscape:vp_y="0 : 1000 : 0"
       inkscape:vp_z="800 : 300 : 1"
       inkscape:persp3d-origin="400 : 200 : 1"
       id="perspective2664" />
    <filter
       id="filter6411"
       inkscape:collect="always">
      <feGaussianBlur
         id="feGaussianBlur6413"
         stdDeviation="1.6819006"
         inkscape:collect="always" />
    </filter>
    <filter
       id="filter4970"
       inkscape:collect="always">
      <feGaussianBlur
         id="feGaussianBlur4972"
         stdDeviation="1.4809308"
         inkscape:collect="always" />
    </filter>
    <filter
       id="filter4966"
       inkscape:collect="always">
      <feGaussianBlur
         id="feGaussianBlur4968"
         stdDeviation="1.4809308"
         inkscape:collect="always" />
    </filter>
    <inkscape:perspective
       id="perspective10"
       inkscape:persp3d-origin="375.48941 : 342.21596 : 1"
       inkscape:vp_z="804.56871 : 517.60966 : 1"
       inkscape:vp_y="7.0616468e-14 : 1000 : 0"
       inkscape:vp_x="-53.589892 : 517.60966 : 1"
       sodipodi:type="inkscape:persp3d" />
    <filter
       id="filter5135"
       inkscape:collect="always">
      <feGaussianBlur
         id="feGaussianBlur5137"
         stdDeviation="1.7289448"
         inkscape:collect="always" />
    </filter>
    <filter
       id="filter5131"
       inkscape:collect="always">
      <feGaussianBlur
         id="feGaussianBlur5133"
         stdDeviation="1.7289448"
         inkscape:collect="always" />
    </filter>
    <filter
       id="filter5127"
       inkscape:collect="always">
      <feGaussianBlur
         id="feGaussianBlur5129"
         stdDeviation="1.7289448"
         inkscape:collect="always" />
    </filter>
    <filter
       id="filter5123"
       inkscape:collect="always">
      <feGaussianBlur
         id="feGaussianBlur5125"
         stdDeviation="1.7289448"
         inkscape:collect="always" />
    </filter>
    <filter
       id="filter5119"
       inkscape:collect="always">
      <feGaussianBlur
         id="feGaussianBlur5121"
         stdDeviation="1.7289448"
         inkscape:collect="always" />
    </filter>
    <filter
       id="filter5115"
       inkscape:collect="always">
      <feGaussianBlur
         id="feGaussianBlur5117"
         stdDeviation="1.7289448"
         inkscape:collect="always" />
    </filter>
    <filter
       id="filter5111"
       inkscape:collect="always">
      <feGaussianBlur
         id="feGaussianBlur5113"
         stdDeviation="1.7289448"
         inkscape:collect="always" />
    </filter>
    <inkscape:perspective
       id="perspective11124"
       inkscape:persp3d-origin="375.48941 : 342.21596 : 1"
       inkscape:vp_z="804.56871 : 517.60966 : 1"
       inkscape:vp_y="7.0616468e-14 : 1000 : 0"
       inkscape:vp_x="-53.589892 : 517.60966 : 1"
       sodipodi:type="inkscape:persp3d" />
    <filter
       id="filter4926"
       inkscape:collect="always">
      <feGaussianBlur
         id="feGaussianBlur4928"
         stdDeviation="1.5680191"
         inkscape:collect="always" />
    </filter>
    <inkscape:perspective
       id="perspective11256"
       inkscape:persp3d-origin="375.48941 : 342.21596 : 1"
       inkscape:vp_z="804.56871 : 517.60966 : 1"
       inkscape:vp_y="7.0616468e-14 : 1000 : 0"
       inkscape:vp_x="-53.589892 : 517.60966 : 1"
       sodipodi:type="inkscape:persp3d" />
    <inkscape:perspective
       id="perspective11383"
       inkscape:persp3d-origin="375.48941 : 342.21596 : 1"
       inkscape:vp_z="804.56871 : 517.60966 : 1"
       inkscape:vp_y="7.0616468e-14 : 1000 : 0"
       inkscape:vp_x="-53.589892 : 517.60966 : 1"
       sodipodi:type="inkscape:persp3d" />
  </defs>
  <sodipodi:namedview
     id="base"
     pagecolor="#ffffff"
     bordercolor="#666666"
     borderopacity="1.0"
     inkscape:pageopacity="0.0"
     inkscape:pageshadow="2"
     inkscape:zoom="0.6"
     inkscape:cx="284.45154"
     inkscape:cy="596.25"
     inkscape:current-layer="layer1"
     inkscape:document-units="px"
     showgrid="false"
     inkscape:window-width="915"
     inkscape:window-height="775"
     inkscape:window-x="237"
     inkscape:window-y="0" />
  <metadata
     id="metadata2661">
    <rdf:RDF>
      <cc:Work
         rdf:about="">
        <dc:format>image/svg+xml</dc:format>
        <dc:type
           rdf:resource="http://purl.org/dc/dcmitype/StillImage" />
      </cc:Work>
    </rdf:RDF>
  </metadata>
  <g
     id="layer1"
     inkscape:label="Layer 1"
     inkscape:groupmode="layer">
    <rect
       style="opacity:0.94468085;fill:#008000;fill-opacity:1"
       id="rect2716"
       width="998.33331"
       height="703.33331"
       x="-140"
       y="-48.333332"
       rx="16.337484"
       ry="14.54403" />
    <g
       style="display:inline"
       id="g11425"
       inkscape:label="Layer 1"
       transform="matrix(0.176,7.7e-2,-0.126,0.155,652.397,108.921)">
      <rect
         style="opacity:0.91666667;fill:#000000;filter:url(#filter3254)"
         id="rect11427"
         width="709.12708"
         height="1006.1119"
         x="24.243658"
         y="26.047195"
         ry="63.63961"
         rx="60.60915" />
      <rect
         rx="60.60915"
         ry="63.63961"
         y="7.8644519"
         x="10.101523"
         height="1006.1119"
         width="709.12708"
         id="rect11429"
         style="fill:#ffffff" />
      <text
         transform="scale(1.0234483,0.9770889)"
         id="text11431"
         y="188.40356"
         x="47.257381"
         style="font-size:225.6577301px;font-style:normal;font-variant:normal;font-weight:normal;font-stretch:normal;fill:#ff0000;fill-opacity:1;stroke:none;stroke-width:1px;stroke-linecap:butt;stroke-linejoin:miter;stroke-opacity:1;filter:url(#filter4970);font-family:Gemelli;-inkscape-font-specification:Gemelli"
         xml:space="preserve"><tspan
           y="188.40356"
           x="47.257381"
           id="tspan11433"
           sodipodi:role="line">7</tspan></text>
      <text
         xml:space="preserve"
         style="font-size:225.6577301px;font-style:normal;font-variant:normal;font-weight:normal;font-stretch:normal;fill:#ff0000;fill-opacity:1;stroke:none;stroke-width:1px;stroke-linecap:butt;stroke-linejoin:miter;stroke-opacity:1;filter:url(#filter4966);font-family:Gemelli;-inkscape-font-specification:Gemelli"
         x="537.01221"
         y="980.57336"
         id="text11435"
         transform="scale(1.0234483,0.9770889)"><tspan
           sodipodi:role="line"
           id="tspan11437"
           x="537.01221"
           y="980.57336">7</tspan></text>
      <path
         d="M 164.80597,239.08605 C 161.57484,239.04859 158.33343,240.11756 155.20623,242.74309 C 137.01162,258.01886 130.14916,282.13691 146.856,306.81746 C 158.99015,324.74287 194.86831,371.33124 195.43367,372.06513 L 195.43367,372.30893 C 195.43367,372.30893 195.52397,372.18849 195.52509,372.18703 C 195.52621,372.18849 195.61652,372.30893 195.61652,372.30893 L 195.61652,372.06513 C 196.18242,371.33054 232.06014,324.74274 244.19419,306.81746 C 260.90103,282.13691 254.02333,258.01886 235.82872,242.74309 C 218.04522,227.81249 196.49292,263.26919 195.52509,264.88341 C 194.73916,263.57226 179.95585,239.26167 164.80597,239.08605 z M 170.13894,291.92425 C 174.94961,309.88756 178.39525,324.52038 177.83008,324.5868 C 177.26492,324.65322 172.90191,310.12821 168.09123,292.1649 C 163.28056,274.2016 159.83492,259.56878 160.40009,259.50236 C 160.94437,259.43839 164.97503,272.77017 169.63174,290.037 M 224.67395,292.45227 C 219.85847,310.41428 215.52607,324.80948 215.00342,324.58442 C 214.48076,324.35937 217.96479,309.59884 222.78027,291.63681 C 227.59575,273.67479 231.92815,259.27959 232.45081,259.50464 C 232.95416,259.7214 229.77891,273.28239 225.17833,290.56424"
         style="opacity:1;fill:#ff0000"
         id="rect3546" />
      <path
         d="M 331.17807,239.08605 C 327.94694,239.04859 324.70553,240.11756 321.57833,242.74309 C 303.38372,258.01886 296.52126,282.13691 313.2281,306.81746 C 325.36225,324.74287 361.24041,371.33124 361.80577,372.06513 L 361.80577,372.30893 C 361.80577,372.30893 361.89607,372.18849 361.89719,372.18703 C 361.89831,372.18849 361.98862,372.30893 361.98862,372.30893 L 361.98862,372.06513 C 362.55452,371.33054 398.43224,324.74274 410.56629,306.81746 C 427.27313,282.13691 420.39543,258.01886 402.20082,242.74309 C 384.41732,227.81249 362.86502,263.26919 361.89719,264.88341 C 361.11126,263.57226 346.32795,239.26167 331.17807,239.08605 z M 336.51104,291.92425 C 341.32171,309.88756 344.76735,324.52038 344.20218,324.5868 C 343.63702,324.65322 339.27401,310.12821 334.46333,292.1649 C 329.65266,274.2016 326.20702,259.56878 326.77219,259.50236 C 327.31647,259.43839 331.34713,272.77017 336.00384,290.037 M 391.04605,292.45227 C 386.23057,310.41428 381.89817,324.80948 381.37552,324.58442 C 380.85286,324.35937 384.33689,309.59884 389.15237,291.63681 C 393.96785,273.67479 398.30025,259.27959 398.82291,259.50464 C 399.32626,259.7214 396.15101,273.28239 391.55043,290.56424"
         style="opacity:1;fill:#ff0000;display:inline"
         id="path8476" />
      <path
         d="M 497.55017,239.08605 C 494.31904,239.04859 491.07763,240.11756 487.95043,242.74309 C 469.75582,258.01886 462.89336,282.13691 479.6002,306.81746 C 491.73435,324.74287 527.61251,371.33124 528.17787,372.06513 L 528.17787,372.30893 C 528.17787,372.30893 528.26817,372.18849 528.26929,372.18703 C 528.27041,372.18849 528.36072,372.30893 528.36072,372.30893 L 528.36072,372.06513 C 528.92662,371.33054 564.80434,324.74274 576.93839,306.81746 C 593.64523,282.13691 586.76753,258.01886 568.57292,242.74309 C 550.78942,227.81249 529.23712,263.26919 528.26929,264.88341 C 527.48336,263.57226 512.70005,239.26167 497.55017,239.08605 z M 502.88314,291.92425 C 507.69381,309.88756 511.13945,324.52038 510.57428,324.5868 C 510.00912,324.65322 505.64611,310.12821 500.83543,292.1649 C 496.02476,274.2016 492.57912,259.56878 493.14429,259.50236 C 493.68857,259.43839 497.71923,272.77017 502.37594,290.037 M 557.41815,292.45227 C 552.60267,310.41428 548.27027,324.80948 547.74762,324.58442 C 547.22496,324.35937 550.70899,309.59884 555.52447,291.63681 C 560.33995,273.67479 564.67235,259.27959 565.19501,259.50464 C 565.69836,259.7214 562.52311,273.28239 557.92253,290.56424"
         style="opacity:1;fill:#ff0000;display:inline"
         id="path8478" />
      <path
         d="M 164.80597,442.31287 C 161.57484,442.27541 158.33343,443.34438 155.20623,445.96991 C 137.01162,461.24568 130.14916,485.36373 146.856,510.04428 C 158.99015,527.96969 194.86831,574.55806 195.43367,575.29195 L 195.43367,575.53575 C 195.43367,575.53575 195.52397,575.41531 195.52509,575.41385 C 195.52621,575.41531 195.61652,575.53575 195.61652,575.53575 L 195.61652,575.29195 C 196.18242,574.55736 232.06014,527.96956 244.19419,510.04428 C 260.90103,485.36373 254.02333,461.24568 235.82872,445.96991 C 218.04522,431.03931 196.49292,466.49601 195.52509,468.11023 C 194.73916,466.79908 179.95585,442.48849 164.80597,442.31287 z M 170.13894,495.15107 C 174.94961,513.11438 178.39525,527.7472 177.83008,527.81362 C 177.26492,527.88004 172.90191,513.35503 168.09123,495.39172 C 163.28056,477.42842 159.83492,462.7956 160.40009,462.72918 C 160.94437,462.66521 164.97503,475.99699 169.63174,493.26382 M 224.67395,495.67909 C 219.85847,513.6411 215.52607,528.0363 215.00342,527.81124 C 214.48076,527.58619 217.96479,512.82566 222.78027,494.86363 C 227.59575,476.90161 231.92815,462.50641 232.45081,462.73146 C 232.95416,462.94822 229.77891,476.50921 225.17833,493.79106"
         style="opacity:1;fill:#ff0000;display:inline"
         id="path8480" />
      <path
         d="M 331.17807,442.31287 C 327.94694,442.27541 324.70553,443.34438 321.57833,445.96991 C 303.38372,461.24568 296.52126,485.36373 313.2281,510.04428 C 325.36225,527.96969 361.24041,574.55806 361.80577,575.29195 L 361.80577,575.53575 C 361.80577,575.53575 361.89607,575.41531 361.89719,575.41385 C 361.89831,575.41531 361.98862,575.53575 361.98862,575.53575 L 361.98862,575.29195 C 362.55452,574.55736 398.43224,527.96956 410.56629,510.04428 C 427.27313,485.36373 420.39543,461.24568 402.20082,445.96991 C 384.41732,431.03931 362.86502,466.49601 361.89719,468.11023 C 361.11126,466.79908 346.32795,442.48849 331.17807,442.31287 z M 336.51104,495.15107 C 341.32171,513.11438 344.76735,527.7472 344.20218,527.81362 C 343.63702,527.88004 339.27401,513.35503 334.46333,495.39172 C 329.65266,477.42842 326.20702,462.7956 326.77219,462.72918 C 327.31647,462.66521 331.34713,475.99699 336.00384,493.26382 M 391.04605,495.67909 C 386.23057,513.6411 381.89817,528.0363 381.37552,527.81124 C 380.85286,527.58619 384.33689,512.82566 389.15237,494.86363 C 393.96785,476.90161 398.30025,462.50641 398.82291,462.73146 C 399.32626,462.94822 396.15101,476.50921 391.55043,493.79106"
         style="opacity:1;fill:#ff0000;display:inline"
         id="path8482" />
      <path
         d="M 497.55017,442.31287 C 494.31904,442.27541 491.07763,443.34438 487.95043,445.96991 C 469.75582,461.24568 462.89336,485.36373 479.6002,510.04428 C 491.73435,527.96969 527.61251,574.55806 528.17787,575.29195 L 528.17787,575.53575 C 528.17787,575.53575 528.26817,575.41531 528.26929,575.41385 C 528.27041,575.41531 528.36072,575.53575 528.36072,575.53575 L 528.36072,575.29195 C 528.92662,574.55736 564.80434,527.96956 576.93839,510.04428 C 593.64523,485.36373 586.76753,461.24568 568.57292,445.96991 C 550.78942,431.03931 529.23712,466.49601 528.26929,468.11023 C 527.48336,466.79908 512.70005,442.48849 497.55017,442.31287 z M 502.88314,495.15107 C 507.69381,513.11438 511.13945,527.7472 510.57428,527.81362 C 510.00912,527.88004 505.64611,513.35503 500.83543,495.39172 C 496.02476,477.42842 492.57912,462.7956 493.14429,462.72918 C 493.68857,462.66521 497.71923,475.99699 502.37594,493.26382 M 557.41815,495.67909 C 552.60267,513.6411 548.27027,528.0363 547.74762,527.81124 C 547.22496,527.58619 550.70899,512.82566 555.52447,494.86363 C 560.33995,476.90161 564.67235,462.50641 565.19501,462.73146 C 565.69836,462.94822 562.52311,476.50921 557.92253,493.79106"
         style="opacity:1;fill:#ff0000;display:inline"
         id="path8484" />
      <path
         d="M 164.80597,645.53969 C 161.57484,645.50223 158.33343,646.5712 155.20623,649.19673 C 137.01162,664.4725 130.14916,688.59055 146.856,713.2711 C 158.99015,731.19651 194.86831,777.78488 195.43367,778.51877 L 195.43367,778.76257 C 195.43367,778.76257 195.52397,778.64213 195.52509,778.64067 C 195.52621,778.64213 195.61652,778.76257 195.61652,778.76257 L 195.61652,778.51877 C 196.18242,777.78418 232.06014,731.19638 244.19419,713.2711 C 260.90103,688.59055 254.02333,664.4725 235.82872,649.19673 C 218.04522,634.26613 196.49292,669.72283 195.52509,671.33705 C 194.73916,670.0259 179.95585,645.71531 164.80597,645.53969 z M 170.13894,698.37789 C 174.94961,716.3412 178.39525,730.97402 177.83008,731.04044 C 177.26492,731.10686 172.90191,716.58185 168.09123,698.61854 C 163.28056,680.65524 159.83492,666.02242 160.40009,665.956 C 160.94437,665.89203 164.97503,679.22381 169.63174,696.49064 M 224.67395,698.90591 C 219.85847,716.86792 215.52607,731.26312 215.00342,731.03806 C 214.48076,730.81301 217.96479,716.05248 222.78027,698.09045 C 227.59575,680.12843 231.92815,665.73323 232.45081,665.95828 C 232.95416,666.17504 229.77891,679.73603 225.17833,697.01788"
         style="opacity:1;fill:#ff0000;display:inline"
         id="path8486" />
    </g>
    <g
       style="display:inline"
       id="g11272"
       inkscape:label="Layer 1"
       transform="matrix(0.154,5.8e-2,-0.114,0.121,623.789,42.257)">
      <rect
         style="opacity:0.91666667;fill:#000000;filter:url(#filter3254)"
         id="rect3208"
         width="709.12708"
         height="1006.1119"
         x="24.243658"
         y="26.047195"
         ry="63.63961"
         rx="60.60915" />
      <rect
         rx="60.60915"
         ry="63.63961"
         y="7.8644519"
         x="10.101523"
         height="1006.1119"
         width="709.12708"
         id="rect3206"
         style="fill:#ffffff" />
      <text
         transform="scale(1.0234483,0.9770889)"
         id="text11276"
         y="188.40356"
         x="47.257381"
         style="font-size:225.6577301px;font-style:normal;font-variant:normal;font-weight:normal;font-stretch:normal;fill:#000000;fill-opacity:1;stroke:none;stroke-width:1px;stroke-linecap:butt;stroke-linejoin:miter;stroke-opacity:1;filter:url(#filter4970);font-family:Gemelli;-inkscape-font-specification:Gemelli"
         xml:space="preserve"><tspan
           y="188.40356"
           x="47.257381"
           id="tspan11278"
           sodipodi:role="line">A</tspan></text>
      <text
         xml:space="preserve"
         style="font-size:225.6577301px;font-style:normal;font-variant:normal;font-weight:normal;font-stretch:normal;fill:#000000;fill-opacity:1;stroke:none;stroke-width:1px;stroke-linecap:butt;stroke-linejoin:miter;stroke-opacity:1;filter:url(#filter4966);font-family:Gemelli;-inkscape-font-specification:Gemelli"
         x="537.01221"
         y="980.57336"
         id="text11280"
         transform="scale(1.0234483,0.9770889)"><tspan
           sodipodi:role="line"
           id="tspan11282"
           x="537.01221"
           y="980.57336">A</tspan></text>
      <path
         d="M 355.82867,274.62261 L 355.82867,275.33548 C 354.05797,277.48345 241.79721,413.7078 203.82994,466.12195 C 151.55453,538.28871 173.07472,608.81075 230.00537,653.47764 C 269.71931,684.63654 315.40262,640.77338 339.42729,611.37274 C 327.149,641.93147 309.54887,678.80455 290.98605,694.51321 C 256.03524,724.09008 142.80159,743.4351 142.80159,743.4351 L 356.4008,743.4351 L 570.00001,743.4351 C 570,743.43512 456.71868,724.09002 421.76788,694.51321 C 403.46472,679.02434 386.09231,642.96704 373.8511,612.66484 C 392.06932,634.6762 421.89623,663.84229 452.23438,664.17095 C 462.3445,664.28046 472.48682,661.15475 482.27176,653.47764 C 539.20241,608.81073 560.67496,538.28871 508.39953,466.12195 C 470.43195,413.70739 358.1698,277.48139 356.4008,275.33548 L 356.4008,274.62261 C 356.40079,274.62261 356.11826,274.97478 356.11474,274.97904 C 356.11121,274.97478 355.82867,274.62261 355.82867,274.62261 z M 361.41076,481.79952 C 361.40298,536.1758 359.96671,580.1124 358.20479,579.87227 C 356.44285,579.63215 355.01919,535.3058 355.02699,480.92951 C 355.03477,426.55322 356.47104,382.61664 358.23296,382.85675 C 359.92979,383.088 361.31528,423.79269 361.40621,476.0853"
         style="opacity:1;fill:#000000;filter:url(#filter4926)"
         id="path3552" />
    </g>
    <g
       style="display:inline"
       id="g11152"
       inkscape:label="Layer 1"
       transform="matrix(0.158,3.5e-2,-9.8e-2,0.14,475.549,47.568)">
      <rect
         style="opacity:0.91666667;fill:#000000;filter:url(#filter3254)"
         id="rect11154"
         width="709.12708"
         height="1006.1119"
         x="24.243658"
         y="26.047195"
         ry="63.63961"
         rx="60.60915" />
      <rect
         rx="60.60915"
         ry="63.63961"
         y="7.8644519"
         x="10.101523"
         height="1006.1119"
         width="709.12708"
         id="rect11156"
         style="fill:#ffffff" />
      <text
         transform="scale(1.0234483,0.9770889)"
         id="text11158"
         y="188.40356"
         x="47.257381"
         style="font-size:225.6577301px;font-style:normal;font-variant:normal;font-weight:normal;font-stretch:normal;fill:#ff0000;fill-opacity:1;stroke:none;stroke-width:1px;stroke-linecap:butt;stroke-linejoin:miter;stroke-opacity:1;filter:url(#filter4970);font-family:Gemelli;-inkscape-font-specification:Gemelli"
         xml:space="preserve"><tspan
           y="188.40356"
           x="47.257381"
           id="tspan11160"
           sodipodi:role="line">7</tspan></text>
      <text
         xml:space="preserve"
         style="font-size:225.6577301px;font-style:normal;font-variant:normal;font-weight:normal;font-stretch:normal;fill:#ff0000;fill-opacity:1;stroke:none;stroke-width:1px;stroke-linecap:butt;stroke-linejoin:miter;stroke-opacity:1;filter:url(#filter4966);font-family:Gemelli;-inkscape-font-specification:Gemelli"
         x="537.01221"
         y="980.57336"
         id="text11162"
         transform="scale(1.0234483,0.9770889)"><tspan
           sodipodi:role="line"
           id="tspan11164"
           x="537.01221"
           y="980.57336">7</tspan></text>
      <path
         id="path4096"
         d="M 366.858,222.83691 C 366.43046,222.83654 366.46322,223.60383 366.858,224.98661 C 367.25373,223.60712 367.28511,222.83728 366.858,222.83691 z M 366.858,224.98661 C 363.48657,236.73916 333.06257,293.34314 323.13806,306.72302 C 322.66307,306.63769 322.22768,306.55918 321.85701,306.46824 C 322.09247,306.74063 322.33755,307.06835 322.6125,307.42367 C 322.33941,307.77459 322.07439,308.07843 321.84059,308.34724 C 322.21126,308.25648 322.64569,308.17738 323.12164,308.09246 C 333.01601,321.47616 363.32241,378.02446 366.72661,389.86072 C 370.15006,378.02666 400.53965,321.5047 410.44654,308.15616 C 410.93212,308.2435 411.3678,308.33364 411.74401,308.42686 C 411.50733,308.15389 411.23266,307.84487 410.95568,307.48736 C 411.22849,307.13628 411.49377,306.81746 411.72759,306.54786 C 411.35559,306.63886 410.9244,306.71751 410.44654,306.80264 C 400.55002,293.42267 370.21829,236.75663 366.858,224.98661 z M 411.72759,306.54786 C 413.04981,306.2244 413.68248,305.86283 413.46851,305.46505 C 413.25371,305.06575 412.65776,305.47539 411.72759,306.54786 z M 411.74401,308.42686 C 412.66419,309.48808 413.25426,309.90646 413.46851,309.50967 C 413.68217,309.11396 413.05423,308.75153 411.74401,308.42686 z M 366.72661,389.86072 C 366.321,391.26281 366.29582,392.0419 366.72661,392.04227 C 367.15735,392.04264 367.12999,391.26327 366.72661,389.86072 z M 321.84059,308.34724 C 320.52025,308.67052 319.88584,309.03255 320.09968,309.43005 C 320.31339,309.82734 320.91832,309.40763 321.84059,308.34724 z M 321.85701,306.46824 C 320.92806,305.39354 320.31513,304.9864 320.09968,305.38543 C 319.88432,305.78428 320.52547,306.14157 321.85701,306.46824 z M 362.30863,306.22939 C 378.43198,306.15179 395.24074,306.5631 405.02671,307.47144 C 387.27641,309.08815 346.38017,309.05236 328.59074,307.40774 C 336.57254,306.6838 349.18986,306.29253 362.30863,306.22939 z"
         style="opacity:1;fill:#ff0000;filter:url(#filter5135)" />
      <path
         id="path4995"
         d="M 510.3088,222.83691 C 509.88126,222.83654 509.91402,223.60383 510.3088,224.98661 C 510.70453,223.60712 510.73591,222.83728 510.3088,222.83691 z M 510.3088,224.98661 C 506.93737,236.73916 476.51337,293.34314 466.58886,306.72302 C 466.11387,306.63769 465.67848,306.55918 465.30781,306.46824 C 465.54327,306.74063 465.78835,307.06835 466.0633,307.42367 C 465.79021,307.77459 465.52519,308.07843 465.29139,308.34724 C 465.66206,308.25648 466.09649,308.17738 466.57244,308.09246 C 476.46681,321.47616 506.77321,378.02446 510.17741,389.86072 C 513.60086,378.02666 543.99045,321.5047 553.89734,308.15616 C 554.38292,308.2435 554.8186,308.33364 555.19481,308.42686 C 554.95813,308.15389 554.68346,307.84487 554.40648,307.48736 C 554.67929,307.13628 554.94457,306.81746 555.17839,306.54786 C 554.80639,306.63886 554.3752,306.71751 553.89734,306.80264 C 544.00082,293.42267 513.66909,236.75663 510.3088,224.98661 z M 555.17839,306.54786 C 556.50061,306.2244 557.13328,305.86283 556.91931,305.46505 C 556.70451,305.06575 556.10856,305.47539 555.17839,306.54786 z M 555.19481,308.42686 C 556.11499,309.48808 556.70506,309.90646 556.91931,309.50967 C 557.13297,309.11396 556.50503,308.75153 555.19481,308.42686 z M 510.17741,389.86072 C 509.7718,391.26281 509.74662,392.0419 510.17741,392.04227 C 510.60815,392.04264 510.58079,391.26327 510.17741,389.86072 z M 465.29139,308.34724 C 463.97105,308.67052 463.33664,309.03255 463.55048,309.43005 C 463.76419,309.82734 464.36912,309.40763 465.29139,308.34724 z M 465.30781,306.46824 C 464.37886,305.39354 463.76593,304.9864 463.55048,305.38543 C 463.33512,305.78428 463.97627,306.14157 465.30781,306.46824 z M 505.75943,306.22939 C 521.88278,306.15179 538.69154,306.5631 548.47751,307.47144 C 530.72721,309.08815 489.83097,309.05236 472.04154,307.40774 C 480.02334,306.6838 492.64066,306.29253 505.75943,306.22939 z"
         style="opacity:1;fill:#ff0000;display:inline;filter:url(#filter5131)" />
      <path
         id="path4997"
         d="M 223.40721,442.04227 C 222.97967,442.0419 223.01243,442.80919 223.40721,444.19197 C 223.80294,442.81248 223.83432,442.04264 223.40721,442.04227 z M 223.40721,444.19197 C 220.03578,455.94452 189.61178,512.5485 179.68727,525.92838 C 179.21228,525.84305 178.77689,525.76454 178.40622,525.6736 C 178.64168,525.94599 178.88676,526.27371 179.16171,526.62903 C 178.88862,526.97995 178.6236,527.28379 178.3898,527.5526 C 178.76047,527.46184 179.1949,527.38274 179.67085,527.29782 C 189.56522,540.68152 219.87162,597.22982 223.27582,609.06608 C 226.69927,597.23202 257.08886,540.71006 266.99575,527.36152 C 267.48133,527.44886 267.91701,527.539 268.29322,527.63222 C 268.05654,527.35925 267.78187,527.05023 267.50489,526.69272 C 267.7777,526.34164 268.04298,526.02282 268.2768,525.75322 C 267.9048,525.84422 267.47361,525.92287 266.99575,526.008 C 257.09923,512.62803 226.7675,455.96199 223.40721,444.19197 z M 268.2768,525.75322 C 269.59902,525.42976 270.23169,525.06819 270.01772,524.67041 C 269.80292,524.27111 269.20697,524.68075 268.2768,525.75322 z M 268.29322,527.63222 C 269.2134,528.69344 269.80347,529.11182 270.01772,528.71503 C 270.23138,528.31932 269.60344,527.95689 268.29322,527.63222 z M 223.27582,609.06608 C 222.87021,610.46817 222.84503,611.24726 223.27582,611.24763 C 223.70656,611.248 223.6792,610.46863 223.27582,609.06608 z M 178.3898,527.5526 C 177.06946,527.87588 176.43505,528.23791 176.64889,528.63541 C 176.8626,529.0327 177.46753,528.61299 178.3898,527.5526 z M 178.40622,525.6736 C 177.47727,524.5989 176.86434,524.19176 176.64889,524.59079 C 176.43353,524.98964 177.07468,525.34693 178.40622,525.6736 z M 218.85784,525.43475 C 234.98119,525.35715 251.78995,525.76846 261.57592,526.6768 C 243.82562,528.29351 202.92938,528.25772 185.13995,526.6131 C 193.12175,525.88916 205.73907,525.49789 218.85784,525.43475 z"
         style="opacity:1;fill:#ff0000;display:inline;filter:url(#filter5127)" />
      <path
         id="path4999"
         d="M 366.858,442.04227 C 366.43046,442.0419 366.46322,442.80919 366.858,444.19197 C 367.25373,442.81248 367.28511,442.04264 366.858,442.04227 z M 366.858,444.19197 C 363.48657,455.94452 333.06257,512.5485 323.13806,525.92838 C 322.66307,525.84305 322.22768,525.76454 321.85701,525.6736 C 322.09247,525.94599 322.33755,526.27371 322.6125,526.62903 C 322.33941,526.97995 322.07439,527.28379 321.84059,527.5526 C 322.21126,527.46184 322.64569,527.38274 323.12164,527.29782 C 333.01601,540.68152 363.32241,597.22982 366.72661,609.06608 C 370.15006,597.23202 400.53965,540.71006 410.44654,527.36152 C 410.93212,527.44886 411.3678,527.539 411.74401,527.63222 C 411.50733,527.35925 411.23266,527.05023 410.95568,526.69272 C 411.22849,526.34164 411.49377,526.02282 411.72759,525.75322 C 411.35559,525.84422 410.9244,525.92287 410.44654,526.008 C 400.55002,512.62803 370.21829,455.96199 366.858,444.19197 z M 411.72759,525.75322 C 413.04981,525.42976 413.68248,525.06819 413.46851,524.67041 C 413.25371,524.27111 412.65776,524.68075 411.72759,525.75322 z M 411.74401,527.63222 C 412.66419,528.69344 413.25426,529.11182 413.46851,528.71503 C 413.68217,528.31932 413.05423,527.95689 411.74401,527.63222 z M 366.72661,609.06608 C 366.321,610.46817 366.29582,611.24726 366.72661,611.24763 C 367.15735,611.248 367.12999,610.46863 366.72661,609.06608 z M 321.84059,527.5526 C 320.52025,527.87588 319.88584,528.23791 320.09968,528.63541 C 320.31339,529.0327 320.91832,528.61299 321.84059,527.5526 z M 321.85701,525.6736 C 320.92806,524.5989 320.31513,524.19176 320.09968,524.59079 C 319.88432,524.98964 320.52547,525.34693 321.85701,525.6736 z M 362.30863,525.43475 C 378.43198,525.35715 395.24074,525.76846 405.02671,526.6768 C 387.27641,528.29351 346.38017,528.25772 328.59074,526.6131 C 336.57254,525.88916 349.18986,525.49789 362.30863,525.43475 z"
         style="opacity:1;fill:#ff0000;display:inline;filter:url(#filter5123)" />
      <path
         id="path5001"
         d="M 510.3088,442.04227 C 509.88126,442.0419 509.91402,442.80919 510.3088,444.19197 C 510.70453,442.81248 510.73591,442.04264 510.3088,442.04227 z M 510.3088,444.19197 C 506.93737,455.94452 476.51337,512.5485 466.58886,525.92838 C 466.11387,525.84305 465.67848,525.76454 465.30781,525.6736 C 465.54327,525.94599 465.78835,526.27371 466.0633,526.62903 C 465.79021,526.97995 465.52519,527.28379 465.29139,527.5526 C 465.66206,527.46184 466.09649,527.38274 466.57244,527.29782 C 476.46681,540.68152 506.77321,597.22982 510.17741,609.06608 C 513.60086,597.23202 543.99045,540.71006 553.89734,527.36152 C 554.38292,527.44886 554.8186,527.539 555.19481,527.63222 C 554.95813,527.35925 554.68346,527.05023 554.40648,526.69272 C 554.67929,526.34164 554.94457,526.02282 555.17839,525.75322 C 554.80639,525.84422 554.3752,525.92287 553.89734,526.008 C 544.00082,512.62803 513.66909,455.96199 510.3088,444.19197 z M 555.17839,525.75322 C 556.50061,525.42976 557.13328,525.06819 556.91931,524.67041 C 556.70451,524.27111 556.10856,524.68075 555.17839,525.75322 z M 555.19481,527.63222 C 556.11499,528.69344 556.70506,529.11182 556.91931,528.71503 C 557.13297,528.31932 556.50503,527.95689 555.19481,527.63222 z M 510.17741,609.06608 C 509.7718,610.46817 509.74662,611.24726 510.17741,611.24763 C 510.60815,611.248 510.58079,610.46863 510.17741,609.06608 z M 465.29139,527.5526 C 463.97105,527.87588 463.33664,528.23791 463.55048,528.63541 C 463.76419,529.0327 464.36912,528.61299 465.29139,527.5526 z M 465.30781,525.6736 C 464.37886,524.5989 463.76593,524.19176 463.55048,524.59079 C 463.33512,524.98964 463.97627,525.34693 465.30781,525.6736 z M 505.75943,525.43475 C 521.88278,525.35715 538.69154,525.76846 548.47751,526.6768 C 530.72721,528.29351 489.83097,528.25772 472.04154,526.6131 C 480.02334,525.88916 492.64066,525.49789 505.75943,525.43475 z"
         style="opacity:1;fill:#ff0000;display:inline;filter:url(#filter5119)" />
      <path
         id="path5003"
         d="M 223.40721,661.24763 C 222.97967,661.24726 223.01243,662.01455 223.40721,663.39733 C 223.80294,662.01784 223.83432,661.248 223.40721,661.24763 z M 223.40721,663.39733 C 220.03578,675.14988 189.61178,731.75386 179.68727,745.13374 C 179.21228,745.04841 178.77689,744.9699 178.40622,744.87896 C 178.64168,745.15135 178.88676,745.47907 179.16171,745.83439 C 178.88862,746.18531 178.6236,746.48915 178.3898,746.75796 C 178.76047,746.6672 179.1949,746.5881 179.67085,746.50318 C 189.56522,759.88688 219.87162,816.43518 223.27582,828.27144 C 226.69927,816.43738 257.08886,759.91542 266.99575,746.56688 C 267.48133,746.65422 267.91701,746.74436 268.29322,746.83758 C 268.05654,746.56461 267.78187,746.25559 267.50489,745.89808 C 267.7777,745.547 268.04298,745.22818 268.2768,744.95858 C 267.9048,745.04958 267.47361,745.12823 266.99575,745.21336 C 257.09923,731.83339 226.7675,675.16735 223.40721,663.39733 z M 268.2768,744.95858 C 269.59902,744.63512 270.23169,744.27355 270.01772,743.87577 C 269.80292,743.47647 269.20697,743.88611 268.2768,744.95858 z M 268.29322,746.83758 C 269.2134,747.8988 269.80347,748.31718 270.01772,747.92039 C 270.23138,747.52468 269.60344,747.16225 268.29322,746.83758 z M 223.27582,828.27144 C 222.87021,829.67353 222.84503,830.45262 223.27582,830.45299 C 223.70656,830.45336 223.6792,829.67399 223.27582,828.27144 z M 178.3898,746.75796 C 177.06946,747.08124 176.43505,747.44327 176.64889,747.84077 C 176.8626,748.23806 177.46753,747.81835 178.3898,746.75796 z M 178.40622,744.87896 C 177.47727,743.80426 176.86434,743.39712 176.64889,743.79615 C 176.43353,744.195 177.07468,744.55229 178.40622,744.87896 z M 218.85784,744.64011 C 234.98119,744.56251 251.78995,744.97382 261.57592,745.88216 C 243.82562,747.49887 202.92938,747.46308 185.13995,745.81846 C 193.12175,745.09452 205.73907,744.70325 218.85784,744.64011 z"
         style="opacity:1;fill:#ff0000;display:inline;filter:url(#filter5115)" />
      <path
         id="path5005"
         d="M 223.40721,222.83692 C 222.97967,222.83655 223.01243,223.60384 223.40721,224.98662 C 223.80294,223.60713 223.83432,222.83729 223.40721,222.83692 z M 223.40721,224.98662 C 220.03578,236.73917 189.61178,293.34315 179.68727,306.72303 C 179.21228,306.6377 178.77689,306.55919 178.40622,306.46825 C 178.64168,306.74064 178.88676,307.06836 179.16171,307.42368 C 178.88862,307.7746 178.6236,308.07844 178.3898,308.34725 C 178.76047,308.25649 179.1949,308.17739 179.67085,308.09247 C 189.56522,321.47617 219.87162,378.02446 223.27582,389.86076 C 226.69927,378.02666 257.08886,321.50471 266.99575,308.15617 C 267.48133,308.24351 267.91701,308.33365 268.29322,308.42687 C 268.05654,308.1539 267.78187,307.84488 267.50489,307.48737 C 267.7777,307.13629 268.04298,306.81747 268.2768,306.54787 C 267.9048,306.63887 267.47361,306.71752 266.99575,306.80265 C 257.09923,293.42268 226.7675,236.75664 223.40721,224.98662 z M 268.2768,306.54787 C 269.59902,306.22441 270.23169,305.86284 270.01772,305.46506 C 269.80292,305.06576 269.20697,305.4754 268.2768,306.54787 z M 268.29322,308.42687 C 269.2134,309.48809 269.80347,309.90647 270.01772,309.50968 C 270.23138,309.11397 269.60344,308.75154 268.29322,308.42687 z M 223.27582,389.86076 C 222.87021,391.26286 222.84503,392.04196 223.27582,392.04226 C 223.70656,392.04266 223.6792,391.26326 223.27582,389.86076 z M 178.3898,308.34725 C 177.06946,308.67053 176.43505,309.03256 176.64889,309.43006 C 176.8626,309.82735 177.46753,309.40764 178.3898,308.34725 z M 178.40622,306.46825 C 177.47727,305.39355 176.86434,304.98641 176.64889,305.38544 C 176.43353,305.78429 177.07468,306.14158 178.40622,306.46825 z M 218.85784,306.2294 C 234.98119,306.1518 251.78995,306.56311 261.57592,307.47145 C 243.82562,309.08816 202.92938,309.05237 185.13995,307.40775 C 193.12175,306.68381 205.73907,306.29254 218.85784,306.2294 z"
         style="opacity:1;fill:#ff0000;display:inline;filter:url(#filter5111)" />
    </g>
    <g
       style="display:inline"
       id="g11011"
       inkscape:label="Layer 1"
       transform="matrix(0.15,9e-2,-0.176,9.5e-2,380.111,87.041)">
      <rect
         style="opacity:0.91666667;fill:#000000;filter:url(#filter3254)"
         id="rect11013"
         width="709.12708"
         height="1006.1119"
         x="24.243658"
         y="26.047195"
         ry="63.63961"
         rx="60.60915" />
      <rect
         rx="60.60915"
         ry="63.63961"
         y="7.8644519"
         x="10.101523"
         height="1006.1119"
         width="709.12708"
         id="rect11015"
         style="fill:#ffffff" />
      <text
         transform="scale(1.0234483,0.9770889)"
         id="text3475"
         y="188.40356"
         x="47.257381"
         style="font-size:225.6577301px;font-style:normal;font-variant:normal;font-weight:normal;font-stretch:normal;fill:#000000;fill-opacity:1;stroke:none;stroke-width:1px;stroke-linecap:butt;stroke-linejoin:miter;stroke-opacity:1;filter:url(#filter4970);font-family:Gemelli;-inkscape-font-specification:Gemelli"
         xml:space="preserve"><tspan
           y="188.40356"
           x="47.257381"
           id="tspan3477"
           sodipodi:role="line">4</tspan></text>
      <text
         xml:space="preserve"
         style="font-size:225.6577301px;font-style:normal;font-variant:normal;font-weight:normal;font-stretch:normal;fill:#000000;fill-opacity:1;stroke:none;stroke-width:1px;stroke-linecap:butt;stroke-linejoin:miter;stroke-opacity:1;filter:url(#filter4966);font-family:Gemelli;-inkscape-font-specification:Gemelli"
         x="537.01221"
         y="980.57336"
         id="text3487"
         transform="scale(1.0234483,0.9770889)"><tspan
           sodipodi:role="line"
           id="tspan3489"
           x="537.01221"
           y="980.57336">4</tspan></text>
      <path
         transform="matrix(0.4555094,0,0,0.4555094,117.68895,169.34369)"
         d="M 288.25533,243.67181 C 283.4104,243.66902 278.51591,243.95439 273.57799,244.59452 C 218.54023,251.72926 178.44439,298.61023 178.49228,352.4538 C 173.82086,352.47333 169.10826,352.75985 164.35132,353.3765 C 104.56864,361.12636 62.360813,415.73894 70.143333,475.27061 C 77.925843,534.80228 132.75303,576.84495 192.53572,569.09508 C 202.95165,567.74482 212.81068,564.90962 221.98791,560.93643 L 178.44351,647.71922 L 396.89685,647.71922 L 353.35247,560.93643 C 370.89403,568.55927 390.64089,571.7329 410.98902,569.09508 C 470.77171,561.34524 512.97954,506.73265 505.19702,447.20097 L 500.71093,427.38712 C 485.67053,381.62722 443.94057,352.21631 396.84809,352.4538 C 396.84397,347.81183 396.58806,343.14397 395.97037,338.41898 L 391.48427,318.60512 C 376.51097,273.04936 335.0895,243.69872 288.25533,243.67181 z M 289.34809,360.31865 C 289.34116,412.13635 288.06211,454.00558 286.49307,453.77675 C 284.92401,453.54793 283.6562,411.30727 283.66314,359.48958 C 283.67006,307.67187 284.94912,265.80265 286.51816,266.03147 C 288.02924,266.25184 289.26305,305.04123 289.34403,354.8733 M 167.07665,463.3773 C 180.48137,513.43114 190.08245,554.20476 188.50765,554.38983 C 186.93284,554.5749 174.77554,514.1017 161.37082,464.04785 C 147.96611,413.994 138.36503,373.22041 139.93983,373.03533 C 141.45647,372.85709 152.68766,410.00543 165.66337,458.11856 M 408.7077,465.46503 C 395.2896,515.51528 383.21758,555.62681 381.76124,554.99967 C 380.30487,554.37256 390.01295,513.24309 403.43104,463.19283 C 416.84914,413.14256 428.92116,373.03104 430.37752,373.65816 C 431.78007,374.26212 422.9324,412.04914 410.11314,460.20417"
         style="opacity:1;fill:#000000;display:inline;filter:url(#filter6411)"
         id="path11021" />
      <path
         transform="matrix(0.4555094,0,0,0.4555094,366.70231,169.34369)"
         d="M 288.25533,243.67181 C 283.4104,243.66902 278.51591,243.95439 273.57799,244.59452 C 218.54023,251.72926 178.44439,298.61023 178.49228,352.4538 C 173.82086,352.47333 169.10826,352.75985 164.35132,353.3765 C 104.56864,361.12636 62.360813,415.73894 70.143333,475.27061 C 77.925843,534.80228 132.75303,576.84495 192.53572,569.09508 C 202.95165,567.74482 212.81068,564.90962 221.98791,560.93643 L 178.44351,647.71922 L 396.89685,647.71922 L 353.35247,560.93643 C 370.89403,568.55927 390.64089,571.7329 410.98902,569.09508 C 470.77171,561.34524 512.97954,506.73265 505.19702,447.20097 L 500.71093,427.38712 C 485.67053,381.62722 443.94057,352.21631 396.84809,352.4538 C 396.84397,347.81183 396.58806,343.14397 395.97037,338.41898 L 391.48427,318.60512 C 376.51097,273.04936 335.0895,243.69872 288.25533,243.67181 z M 289.34809,360.31865 C 289.34116,412.13635 288.06211,454.00558 286.49307,453.77675 C 284.92401,453.54793 283.6562,411.30727 283.66314,359.48958 C 283.67006,307.67187 284.94912,265.80265 286.51816,266.03147 C 288.02924,266.25184 289.26305,305.04123 289.34403,354.8733 M 167.07665,463.3773 C 180.48137,513.43114 190.08245,554.20476 188.50765,554.38983 C 186.93284,554.5749 174.77554,514.1017 161.37082,464.04785 C 147.96611,413.994 138.36503,373.22041 139.93983,373.03533 C 141.45647,372.85709 152.68766,410.00543 165.66337,458.11856 M 408.7077,465.46503 C 395.2896,515.51528 383.21758,555.62681 381.76124,554.99967 C 380.30487,554.37256 390.01295,513.24309 403.43104,463.19283 C 416.84914,413.14256 428.92116,373.03104 430.37752,373.65816 C 431.78007,374.26212 422.9324,412.04914 410.11314,460.20417"
         style="opacity:1;fill:#000000;display:inline;filter:url(#filter6411)"
         id="path10078" />
      <path
         transform="matrix(0.4555094,0,0,0.4555094,117.68895,423.39109)"
         d="M 288.25533,243.67181 C 283.4104,243.66902 278.51591,243.95439 273.57799,244.59452 C 218.54023,251.72926 178.44439,298.61023 178.49228,352.4538 C 173.82086,352.47333 169.10826,352.75985 164.35132,353.3765 C 104.56864,361.12636 62.360813,415.73894 70.143333,475.27061 C 77.925843,534.80228 132.75303,576.84495 192.53572,569.09508 C 202.95165,567.74482 212.81068,564.90962 221.98791,560.93643 L 178.44351,647.71922 L 396.89685,647.71922 L 353.35247,560.93643 C 370.89403,568.55927 390.64089,571.7329 410.98902,569.09508 C 470.77171,561.34524 512.97954,506.73265 505.19702,447.20097 L 500.71093,427.38712 C 485.67053,381.62722 443.94057,352.21631 396.84809,352.4538 C 396.84397,347.81183 396.58806,343.14397 395.97037,338.41898 L 391.48427,318.60512 C 376.51097,273.04936 335.0895,243.69872 288.25533,243.67181 z M 289.34809,360.31865 C 289.34116,412.13635 288.06211,454.00558 286.49307,453.77675 C 284.92401,453.54793 283.6562,411.30727 283.66314,359.48958 C 283.67006,307.67187 284.94912,265.80265 286.51816,266.03147 C 288.02924,266.25184 289.26305,305.04123 289.34403,354.8733 M 167.07665,463.3773 C 180.48137,513.43114 190.08245,554.20476 188.50765,554.38983 C 186.93284,554.5749 174.77554,514.1017 161.37082,464.04785 C 147.96611,413.994 138.36503,373.22041 139.93983,373.03533 C 141.45647,372.85709 152.68766,410.00543 165.66337,458.11856 M 408.7077,465.46503 C 395.2896,515.51528 383.21758,555.62681 381.76124,554.99967 C 380.30487,554.37256 390.01295,513.24309 403.43104,463.19283 C 416.84914,413.14256 428.92116,373.03104 430.37752,373.65816 C 431.78007,374.26212 422.9324,412.04914 410.11314,460.20417"
         style="opacity:1;fill:#000000;display:inline;filter:url(#filter6411)"
         id="path10080" />
      <path
         transform="matrix(0.4555094,0,0,0.4555094,366.70231,423.39109)"
         d="M 288.25533,243.67181 C 283.4104,243.66902 278.51591,243.95439 273.57799,244.59452 C 218.54023,251.72926 178.44439,298.61023 178.49228,352.4538 C 173.82086,352.47333 169.10826,352.75985 164.35132,353.3765 C 104.56864,361.12636 62.360813,415.73894 70.143333,475.27061 C 77.925843,534.80228 132.75303,576.84495 192.53572,569.09508 C 202.95165,567.74482 212.81068,564.90962 221.98791,560.93643 L 178.44351,647.71922 L 396.89685,647.71922 L 353.35247,560.93643 C 370.89403,568.55927 390.64089,571.7329 410.98902,569.09508 C 470.77171,561.34524 512.97954,506.73265 505.19702,447.20097 L 500.71093,427.38712 C 485.67053,381.62722 443.94057,352.21631 396.84809,352.4538 C 396.84397,347.81183 396.58806,343.14397 395.97037,338.41898 L 391.48427,318.60512 C 376.51097,273.04936 335.0895,243.69872 288.25533,243.67181 z M 289.34809,360.31865 C 289.34116,412.13635 288.06211,454.00558 286.49307,453.77675 C 284.92401,453.54793 283.6562,411.30727 283.66314,359.48958 C 283.67006,307.67187 284.94912,265.80265 286.51816,266.03147 C 288.02924,266.25184 289.26305,305.04123 289.34403,354.8733 M 167.07665,463.3773 C 180.48137,513.43114 190.08245,554.20476 188.50765,554.38983 C 186.93284,554.5749 174.77554,514.1017 161.37082,464.04785 C 147.96611,413.994 138.36503,373.22041 139.93983,373.03533 C 141.45647,372.85709 152.68766,410.00543 165.66337,458.11856 M 408.7077,465.46503 C 395.2896,515.51528 383.21758,555.62681 381.76124,554.99967 C 380.30487,554.37256 390.01295,513.24309 403.43104,463.19283 C 416.84914,413.14256 428.92116,373.03104 430.37752,373.65816 C 431.78007,374.26212 422.9324,412.04914 410.11314,460.20417"
         style="opacity:1;fill:#000000;display:inline;filter:url(#filter6411)"
         id="path10082" />
    </g>
  </g>
</svg>
