<?xml version="1.0" encoding="UTF-8" standalone="no"?>
<!-- Created with Inkscape (http://www.inkscape.org/) -->
<svg
   xmlns:dc="http://purl.org/dc/elements/1.1/"
   xmlns:cc="http://creativecommons.org/ns#"
   xmlns:rdf="http://www.w3.org/1999/02/22-rdf-syntax-ns#"
   xmlns:svg="http://www.w3.org/2000/svg"
   xmlns="http://www.w3.org/2000/svg"
   xmlns:sodipodi="http://sodipodi.sourceforge.net/DTD/sodipodi-0.dtd"
   xmlns:inkscape="http://www.inkscape.org/namespaces/inkscape"
   width="744.09448819"
   height="1052.3622047"
   id="svg3505"
   sodipodi:version="0.32"
   inkscape:version="0.46"
   sodipodi:docname="suits.svg"
   inkscape:output_extension="org.inkscape.output.svg.inkscape">
  <defs
     id="defs3507">
    <inkscape:perspective
       sodipodi:type="inkscape:persp3d"
       inkscape:vp_x="0 : 526.18109 : 1"
       inkscape:vp_y="0 : 1000 : 0"
       inkscape:vp_z="744.09448 : 526.18109 : 1"
       inkscape:persp3d-origin="372.04724 : 350.78739 : 1"
       id="perspective3513" />
  </defs>
  <sodipodi:namedview
     id="base"
     pagecolor="#ffffff"
     bordercolor="#666666"
     borderopacity="1.0"
     gridtolerance="10000"
     guidetolerance="10"
     objecttolerance="10"
     inkscape:pageopacity="0.0"
     inkscape:pageshadow="2"
     inkscape:zoom="0.7"
     inkscape:cx="412.60983"
     inkscape:cy="751.21819"
     inkscape:document-units="px"
     inkscape:current-layer="layer1"
     showgrid="false"
     showguides="true"
     inkscape:guide-bbox="true"
     inkscape:window-width="1070"
     inkscape:window-height="720"
     inkscape:window-x="146"
     inkscape:window-y="55" />
  <metadata
     id="metadata3510">
    <rdf:RDF>
      <cc:Work
         rdf:about="">
        <dc:format>image/svg+xml</dc:format>
        <dc:type
           rdf:resource="http://purl.org/dc/dcmitype/StillImage" />
      </cc:Work>
    </rdf:RDF>
  </metadata>
  <g
     inkscape:label="Layer 1"
     inkscape:groupmode="layer"
     id="layer1">
    <path
       id="path3552"
       style="opacity:1;fill:#000000"
       d="M 175.29596,380.43146 L 175.29596,380.93146 C 174.13539,382.43798 100.55596,477.98208 75.670957,514.74396 C 41.407917,565.35979 55.512967,614.82205 92.827207,646.15021 C 118.85703,668.00423 148.79939,637.23979 164.54596,616.61896 C 156.49836,638.05204 144.96265,663.91383 132.79596,674.93146 C 109.88804,695.67588 35.670957,709.24396 35.670957,709.24396 L 175.67096,709.24396 L 315.67096,709.24396 C 315.67095,709.24398 241.42262,695.67585 218.51471,674.93146 C 206.51821,664.06798 195.13176,638.77836 187.10846,617.52521 C 199.04929,632.96339 218.59884,653.4197 238.48346,653.65021 C 245.10998,653.72702 251.75758,651.53474 258.17096,646.15021 C 295.48519,614.82204 309.55901,565.35979 275.29596,514.74396 C 250.41076,477.9818 176.83042,382.43654 175.67096,380.93146 L 175.67096,380.43146 C 175.67095,380.43146 175.48577,380.67847 175.48346,380.68146 C 175.48115,380.67847 175.29596,380.43146 175.29596,380.43146 zM 178.95466,525.73979 C 178.94956,563.87785 178.00817,594.6938 176.85335,594.52538 C 175.69852,594.35697 174.76541,563.26765 174.77051,525.12959 C 174.77561,486.99152 175.717,456.17558 176.87182,456.34399 C 177.98398,456.50619 178.89207,485.05536 178.95167,521.73199" />
    <path
       style="opacity:1;fill:#ff0000"
       d="M 538.449,346.93304 C 537.46558,346.93218 537.54093,348.6971 538.449,351.87777 C 539.35926,348.70467 539.43144,346.9339 538.449,346.93304 z M 538.449,351.87777 C 530.69406,378.91092 460.71292,509.11113 437.88462,539.88747 C 436.79205,539.6912 435.79056,539.5106 434.93795,539.30143 C 435.47954,539.92798 436.04327,540.6818 436.67573,541.49909 C 436.04757,542.30629 435.43795,543.00518 434.90018,543.62349 C 435.75279,543.41473 436.75206,543.23279 437.84684,543.03745 C 460.60582,573.82257 530.31647,703.89469 538.14678,731.12041 C 546.02139,703.89975 615.92338,573.88822 638.71116,543.18396 C 639.82809,543.38488 640.83024,543.5922 641.6956,543.80663 C 641.15117,543.17875 640.51938,542.46794 639.88227,541.6456 C 640.50979,540.83804 641.11998,540.1047 641.65782,539.48457 C 640.80215,539.69389 639.81032,539.87479 638.71116,540.07061 C 615.94723,509.29406 546.17834,378.95111 538.449,351.87777 z M 641.65782,539.48457 C 644.69918,538.74055 646.15446,537.90886 645.66227,536.99389 C 645.16819,536.07542 643.7974,537.01767 641.65782,539.48457 z M 641.6956,543.80663 C 643.81218,546.24765 645.16946,547.21 645.66227,546.29731 C 646.15374,545.38709 644.70935,544.55343 641.6956,543.80663 z M 538.14678,731.12041 C 537.21379,734.34549 537.15589,736.13754 538.14678,736.1384 C 539.13758,736.13925 539.07464,734.34655 538.14678,731.12041 z M 434.90018,543.62349 C 431.86314,544.36711 430.40387,545.19984 430.89574,546.11417 C 431.38732,547.02801 432.77877,546.06259 434.90018,543.62349 z M 434.93795,539.30143 C 432.80117,536.8294 431.39133,535.8929 430.89574,536.81075 C 430.40037,537.72818 431.87515,538.55003 434.93795,539.30143 z M 527.98456,538.75202 C 565.07141,538.57352 603.73486,539.51963 626.2445,541.60897 C 585.41534,545.32773 491.346,545.2454 450.42683,541.46246 C 468.78654,539.79725 497.80884,538.89725 527.98456,538.75202 z"
       id="path4096" />
    <path
       id="rect3546"
       style="opacity:1;fill:#ff0000"
       d="M 471.11161,37.013393 C 464.48508,36.936573 457.83749,39.128863 451.42411,44.513393 C 414.10987,75.841553 400.03606,125.30381 434.29911,175.91964 C 459.1843,212.6818 532.76465,308.22706 533.92411,309.73214 L 533.92411,310.23214 C 533.92411,310.23214 534.1093,309.98513 534.11161,309.98214 C 534.11391,309.98513 534.29911,310.23214 534.29911,310.23214 L 534.29911,309.73214 C 535.45967,308.22562 609.03911,212.68152 633.92411,175.91964 C 668.18715,125.30381 654.0821,75.841553 616.76786,44.513393 C 580.29677,13.893133 536.09646,86.609123 534.11161,89.919639 C 532.49978,87.230683 502.18159,37.373573 471.11161,37.013393 zM 482.04868,145.37607 C 491.9146,182.21593 498.98105,212.2255 497.82198,212.36171 C 496.66292,212.49793 487.7151,182.70946 477.84917,145.8696 C 467.98324,109.02974 460.9168,79.020176 462.07586,78.883958 C 463.1921,78.752783 471.45832,106.09413 481.00849,141.50561M 593.89124,146.45893 C 584.01546,183.29614 575.1304,212.81841 574.05852,212.35684 C 572.98663,211.89528 580.13182,181.6238 590.0076,144.78658 C 599.88338,107.94935 608.76844,78.427092 609.84033,78.888653 C 610.87261,79.333175 604.36069,107.14459 594.92565,142.58691" />
    <path
       id="path3329"
       style="opacity:1;fill:#000000;display:inline;"
       d="M 174.71639,13.671821 C 171.1505,13.669771 167.54813,13.879803 163.9138,14.350936 C 123.40575,19.602138 93.895037,54.106747 93.930282,93.735865 C 90.492099,93.750234 87.023598,93.961119 83.522472,94.41498 C 39.522143,100.11891 8.4569858,140.31402 14.184953,184.1296 C 19.912929,227.94519 60.265989,258.88878 104.26631,253.18484 C 111.93248,252.19105 119.18877,250.10433 125.94326,247.18004 L 93.894389,311.05257 L 254.67704,311.05257 L 222.62818,247.18004 C 235.53885,252.79048 250.07263,255.12629 265.04895,253.18484 C 309.04928,247.48093 340.11443,207.28581 334.38647,163.47022 L 331.08468,148.88713 C 320.01488,115.20764 289.30144,93.561073 254.64115,93.735865 C 254.63812,90.319361 254.44977,86.883788 253.99515,83.406173 L 250.69336,68.823078 C 239.67294,35.293831 209.18655,13.69163 174.71639,13.671821 zM 175.52066,99.52443 C 175.51556,137.66249 174.57417,168.47844 173.41935,168.31002 C 172.26452,168.14161 171.33141,137.05229 171.33651,98.91423 C 171.34161,60.77616 172.283,29.96022 173.43782,30.12863 C 174.54998,30.29083 175.45807,58.84 175.51767,95.51663M 85.528327,175.37607 C 95.394255,212.21593 102.4607,242.2255 101.30163,242.36171 C 100.14257,242.49793 91.194745,212.70946 81.328817,175.8696 C 71.462886,139.02974 64.396448,109.02018 65.555506,108.88396 C 66.671751,108.75278 74.937966,136.09413 84.488144,171.50561M 263.36988,176.91265 C 253.4941,213.74986 244.60904,243.27213 243.53716,242.81056 C 242.46527,242.349 249.61046,212.07752 259.48624,175.2403 C 269.36202,138.40307 278.24708,108.88081 279.31897,109.34237 C 280.35125,109.78689 273.83933,137.59831 264.40429,173.04063" />
  </g>
</svg>
